<svg xmlns="http://www.w3.org/2000/svg" width="61" height="61" fill="none"><path d="M45.555 47.122a2.525 2.525 0 0 1-2.524 2.518H17.714a2.526 2.526 0 0 1-2.525-2.518c0-8.343 6.797-15.107 15.183-15.107 8.385 0 15.183 6.764 15.183 15.107Zm-15.183-11.75c-6.238 0-11.346 4.813-11.779 10.91h23.56c-.433-6.097-5.541-10.91-11.78-10.91Zm0-5.035c-5.124 0-9.278-4.134-9.278-9.232 0-5.099 4.154-9.232 9.278-9.232 5.125 0 9.28 4.133 9.28 9.232 0 5.098-4.155 9.232-9.28 9.232Zm0-3.357c3.261 0 5.905-2.63 5.905-5.875s-2.644-5.875-5.905-5.875c-3.26 0-5.904 2.63-5.904 5.875 0 3.244 2.644 5.875 5.904 5.875Z" fill="url('#paint0_linear_732_3838')"/><path d="M43.004 2.175h6.587c5.1 0 9.234 4.135 9.234 9.234v5.95" stroke="url('#paint1_linear_732_3838')" stroke-width="3" stroke-linecap="round"/><path d="M17.996 58.825H11.41a9.234 9.234 0 0 1-9.234-9.234v-5.95" stroke="url('#paint2_linear_732_3838')" stroke-width="3" stroke-linecap="round"/><path d="M58.506 43.004v6.587c0 5.1-4.134 9.234-9.234 9.234h-5.95" stroke="url('#paint3_linear_732_3838')" stroke-width="3" stroke-linecap="round"/><path d="M2.494 17.996V11.41c0-5.1 4.134-9.234 9.234-9.234h5.949" stroke="url('#paint4_linear_732_3838')" stroke-width="3" stroke-linecap="round"/><defs><linearGradient id="paint0_linear_732_3838" x1="2.381" y1=".428" x2="47.62" y2="2.245" gradientUnits="userSpaceOnUse"><stop stop-color="#08899A"/><stop offset="1" stop-color="#2B3453"/></linearGradient><linearGradient id="paint1_linear_732_3838" x1="36.331" y1="-2.426" x2="59.874" y2="-1.2" gradientUnits="userSpaceOnUse"><stop stop-color="#08899A"/><stop offset="1" stop-color="#2B3453"/></linearGradient><linearGradient id="paint2_linear_732_3838" x1="24.669" y1="63.426" x2="1.125" y2="62.201" gradientUnits="userSpaceOnUse"><stop stop-color="#08899A"/><stop offset="1" stop-color="#2B3453"/></linearGradient><linearGradient id="paint3_linear_732_3838" x1="63.107" y1="36.331" x2="61.882" y2="59.875" gradientUnits="userSpaceOnUse"><stop stop-color="#08899A"/><stop offset="1" stop-color="#2B3453"/></linearGradient><linearGradient id="paint4_linear_732_3838" x1="-2.107" y1="24.669" x2="-.882" y2="1.125" gradientUnits="userSpaceOnUse"><stop stop-color="#08899A"/><stop offset="1" stop-color="#2B3453"/></linearGradient></defs></svg>