<svg xmlns="http://www.w3.org/2000/svg" width="72" height="58" fill="none"><path d="M2.311 8.255c23.461 0 32.045 13.684 33.761 30.85C37.79 21.94 44.656 7.063 68.69 8.257" stroke="url('#paint0_linear_732_3844')" stroke-width="3" stroke-linecap="round"/><rect x="17.189" y="8.189" width="34.333" height="34.333" rx="17" fill="#ECFCB7"/><path d="M52.667 54.5c0 1.593-1.318 2.9-2.95 2.9H20.139c-1.625 0-2.95-1.302-2.95-2.9 0-9.606 7.942-17.395 17.739-17.395 9.796 0 17.738 7.789 17.738 17.396ZM34.928 40.972c-7.288 0-13.256 5.542-13.762 12.564h27.525c-.505-7.022-6.473-12.564-13.762-12.564Zm0-5.799c-5.986 0-10.84-4.759-10.84-10.63s4.854-10.63 10.84-10.63c5.987 0 10.84 4.758 10.84 10.63 0 5.871-4.853 10.63-10.84 10.63Zm0-3.865c3.81 0 6.898-3.029 6.898-6.765 0-3.736-3.088-6.765-6.898-6.765-3.81 0-6.898 3.029-6.898 6.765 0 3.736 3.089 6.765 6.898 6.765Z" fill="url('#paint1_linear_732_3844')"/><path d="m62.395 2.467 6.866 5.722-5.15 6.294" stroke="url('#paint2_linear_732_3844')" stroke-width="3" stroke-linecap="round"/><defs><linearGradient id="paint0_linear_732_3844" x1="-25.685" y1="-1.18" x2="72.235" y2="9.32" gradientUnits="userSpaceOnUse"><stop stop-color="#08899A"/><stop offset="1" stop-color="#2B3453"/></linearGradient><linearGradient id="paint1_linear_732_3844" x1="2.226" y1=".733" x2="55.076" y2="2.886" gradientUnits="userSpaceOnUse"><stop stop-color="#08899A"/><stop offset="1" stop-color="#2B3453"/></linearGradient><linearGradient id="paint2_linear_732_3844" x1="59.498" y1="-1.175" x2="69.736" y2="-.883" gradientUnits="userSpaceOnUse"><stop stop-color="#08899A"/><stop offset="1" stop-color="#2B3453"/></linearGradient></defs></svg>