<svg xmlns="http://www.w3.org/2000/svg" width="109" height="102" fill="none"><path d="M21.748 29.439a2.067 2.067 0 0 0 1.768.98h.616A43.423 43.423 0 0 1 37 28.54a43.55 43.55 0 0 1 12.087 1.592 2.07 2.07 0 0 0 1.46-.125 2.047 2.047 0 0 0 1.006-1.059l1.604-3.673a41.826 41.826 0 0 0 4.399-13.06 7.622 7.622 0 0 0-.478-3.206 7.666 7.666 0 0 0-1.77-2.725 7.736 7.736 0 0 0-2.744-1.756 7.78 7.78 0 0 0-3.23-.474 5.666 5.666 0 0 0-3.747.779 5.598 5.598 0 0 0-2.38 2.975 1.371 1.371 0 0 0 0 .327c-.205 0-.37 0-1.027-.857a8.211 8.211 0 0 0-3.2-2.535 8.276 8.276 0 0 0-4.036-.69c-5.508 0-8.51 5.429-9.66 8.163-5.55 0-8.84 2.408-8.84 6.121a21.55 21.55 0 0 0 4.112 9.51l1.192 1.591Zm44.03 39.3c0-21.71-5.14-36.117-28.778-36.117-23.639 0-28.778 14.406-28.778 36.118C6.578 71.229 0 81.595 0 89.757 0 100.408 23.187 102 37 102c13.813 0 37-1.592 37-12.243 0-8.162-6.578-18.528-8.222-21.017ZM37 65.272a6.194 6.194 0 0 1 3.945 1.456 6.111 6.111 0 0 1 2.085 3.628 6.084 6.084 0 0 1-.746 4.112 6.156 6.156 0 0 1-3.228 2.68v.367c0 .54-.217 1.06-.602 1.443a2.063 2.063 0 0 1-2.907 0 2.033 2.033 0 0 1-.603-1.443H32.89a2.063 2.063 0 0 1-1.454-.598 2.033 2.033 0 0 1 0-2.886 2.063 2.063 0 0 1 1.454-.597H37c.545 0 1.068-.215 1.453-.598a2.033 2.033 0 0 0 0-2.886A2.063 2.063 0 0 0 37 69.352a6.194 6.194 0 0 1-3.945-1.456 6.111 6.111 0 0 1-2.085-3.63 6.084 6.084 0 0 1 .746-4.11 6.157 6.157 0 0 1 3.228-2.68v-.367c0-.542.217-1.06.602-1.443a2.063 2.063 0 0 1 2.907 0c.386.382.603.901.603 1.443h2.055c.545 0 1.068.215 1.454.597a2.033 2.033 0 0 1 0 2.886 2.063 2.063 0 0 1-1.454.598H37c-.545 0-1.068.215-1.453.597a2.033 2.033 0 0 0 0 2.886c.385.383.908.598 1.453.598Z" fill="url('#paint0_linear_778_2479')"/><path d="M106 22.5C106 33.208 97.108 42 86 42s-20-8.792-20-19.5S74.892 3 86 3s20 8.792 20 19.5Z" stroke="url('#paint1_linear_778_2479')" stroke-width="6"/><path d="m77 22.5 3.954 5.5L94 18" stroke="url('#paint2_linear_778_2479')" stroke-width="6" stroke-linecap="round"/><defs><linearGradient id="paint0_linear_778_2479" x1="-31.211" y1="-25.697" x2="79.051" y2="-21.538" gradientUnits="userSpaceOnUse"><stop stop-color="#08899A"/><stop offset="1" stop-color="#2B3453"/></linearGradient><linearGradient id="paint1_linear_778_2479" x1="43.599" y1="-13.636" x2="112.059" y2="-10.141" gradientUnits="userSpaceOnUse"><stop stop-color="#08899A"/><stop offset="1" stop-color="#2B3453"/></linearGradient><linearGradient id="paint2_linear_778_2479" x1="69.83" y1="14.97" x2="95.015" y2="17.108" gradientUnits="userSpaceOnUse"><stop stop-color="#08899A"/><stop offset="1" stop-color="#2B3453"/></linearGradient></defs></svg>