<svg xmlns="http://www.w3.org/2000/svg" width="119" height="88" fill="none"><rect y="17.604" width="100.78" height="69.866" rx="16" fill="url('#paint0_linear_732_3784')"/><path d="M59.714 57.439h-12.85a3.202 3.202 0 0 1-3.186-3.186 3.2 3.2 0 0 1 3.186-3.187h12.85a3.2 3.2 0 0 1 3.186 3.187 3.202 3.202 0 0 1-3.186 3.186Zm29.1 9.558a3.204 3.204 0 0 1-3.187 3.187H46.864a3.202 3.202 0 0 1-3.186-3.187 3.2 3.2 0 0 1 3.186-3.186h38.763a3.202 3.202 0 0 1 3.186 3.186ZM53.337 44.694h-6.474a3.202 3.202 0 0 1-3.186-3.186 3.2 3.2 0 0 1 3.186-3.186h6.474a3.2 3.2 0 0 1 3.186 3.186 3.202 3.202 0 0 1-3.186 3.186Zm-28.625 5.729c6.953 0 12.592 7.557 12.592 16.887 0 9.329-25.19 9.329-25.19 0 0-9.33 5.64-16.887 12.598-16.887Zm-7.857-10.776c0-4.221 3.473-7.694 7.695-7.694s7.695 3.473 7.695 7.694c0 4.222-3.473 7.695-7.695 7.695s-7.695-3.473-7.695-7.695Z" fill="#DCF0EB"/><path d="M93.533 46.934c11.856 0 21.467-9.611 21.467-21.467 0-11.855-9.611-21.466-21.467-21.466-11.856 0-21.466 9.61-21.466 21.466 0 11.856 9.61 21.467 21.466 21.467Z" fill="url('#paint1_linear_732_3784')" stroke="#DCF0EA" stroke-width="6.409" stroke-miterlimit="1.5" stroke-linecap="round" stroke-linejoin="round"/><defs><linearGradient id="paint0_linear_732_3784" x1="-42.506" y1="-3.567" x2="107.096" y2="7.211" gradientUnits="userSpaceOnUse"><stop stop-color="#08899A"/><stop offset="1" stop-color="#2B3453"/></linearGradient><linearGradient id="paint1_linear_732_3784" x1="53.959" y1="-9.01" x2="117.862" y2="-5.818" gradientUnits="userSpaceOnUse"><stop stop-color="#08899A"/><stop offset="1" stop-color="#2B3453"/></linearGradient></defs></svg>