<svg width="90" height="87" fill="none" xmlns="http://www.w3.org/2000/svg"><mask id="path-1-inside-1_1203_3120" fill="#fff"><path d="M87.019 28.22a6.944 6.944 0 0 0-7.367-1.005 6.884 6.884 0 0 0-2.92 2.527 6.811 6.811 0 0 0-1.087 3.69v13.604a6.888 6.888 0 0 0-4.501.023 6.847 6.847 0 0 0-2.572 1.616L51.758 65.358a12.338 12.338 0 0 0-2.72 4.027 12.264 12.264 0 0 0-.947 4.757v10.533c0 .595.238 1.165.662 1.586a2.268 2.268 0 0 0 3.195 0c.423-.42.661-.991.661-1.586V74.142a7.836 7.836 0 0 1 .605-3.04 7.885 7.885 0 0 1 1.738-2.573l16.814-16.69a2.362 2.362 0 0 1 3.328 0 2.327 2.327 0 0 1 0 3.303l-9.746 9.674a2.237 2.237 0 0 0-.004 3.176 2.27 2.27 0 0 0 3.2.004l9.746-9.674a6.782 6.782 0 0 0 1.564-2.374 6.74 6.74 0 0 0 .45-2.802c.007-.057.01-.114.01-.172l-.142-19.534a2.343 2.343 0 0 1 .565-1.535 2.4 2.4 0 0 1 3.356-.267 2.365 2.365 0 0 1 .84 1.793v25.303a9.48 9.48 0 0 1-.731 3.677 9.538 9.538 0 0 1-2.103 3.114L68.57 78.956c-.425.42-.663.991-.663 1.586v4.131c0 .595.238 1.165.662 1.586a2.268 2.268 0 0 0 3.195 0c.423-.42.661-.991.661-1.586v-3.2l12.871-12.775a13.995 13.995 0 0 0 3.084-4.569 13.91 13.91 0 0 0 1.073-5.395V33.43c0-.992-.218-1.972-.638-2.872a6.844 6.844 0 0 0-1.795-2.34ZM17.505 81.473v3.202c0 .595.238 1.165.661 1.586a2.268 2.268 0 0 0 3.195 0c.424-.42.662-.991.662-1.586v-4.132c0-.594-.238-1.165-.662-1.585L7.827 65.527a9.54 9.54 0 0 1-2.103-3.115 9.482 9.482 0 0 1-.732-3.678V33.43a2.349 2.349 0 0 1 .836-1.799 2.387 2.387 0 0 1 1.922-.535c.56.087 1.07.37 1.438.798.367.429.568.973.566 1.536L9.63 52.988v.008c-.073.978.069 1.96.414 2.878a6.78 6.78 0 0 0 1.59 2.442l9.748 9.68a2.268 2.268 0 0 0 3.158-.036 2.234 2.234 0 0 0 .036-3.135l-9.746-9.681a2.327 2.327 0 0 1 0-3.303 2.362 2.362 0 0 1 3.328 0l16.814 16.69a7.883 7.883 0 0 1 1.738 2.572c.403.963.609 1.996.606 3.039v10.533c0 .595.238 1.165.662 1.586a2.268 2.268 0 0 0 3.195 0c.424-.42.662-.991.662-1.586V74.142a12.263 12.263 0 0 0-.947-4.757 12.337 12.337 0 0 0-2.718-4.027L21.354 48.675a6.85 6.85 0 0 0-2.576-1.618 6.89 6.89 0 0 0-3.028-.347 6.97 6.97 0 0 0-1.478.326V33.431a6.823 6.823 0 0 0-2.02-4.843 6.925 6.925 0 0 0-4.879-2.005c-1.83 0-3.585.721-4.879 2.005a6.823 6.823 0 0 0-2.02 4.843v25.303a13.91 13.91 0 0 0 1.073 5.395 13.993 13.993 0 0 0 3.084 4.569l12.874 12.775Zm28.037-55.886-.073-.017c-4.211-.956-4.211-2.677-4.211-3.241 0-2.19 1.922-3.187 3.707-3.187a3.72 3.72 0 0 1 2.054.616 3.68 3.68 0 0 1 1.366 1.643c.232.549.674.984 1.229 1.21a2.276 2.276 0 0 0 1.73-.008c.553-.23.992-.669 1.219-1.22a2.23 2.23 0 0 0-.007-1.718 8.15 8.15 0 0 0-2.127-2.952 8.228 8.228 0 0 0-3.207-1.743v-1.946c0-.595-.238-1.165-.662-1.586a2.267 2.267 0 0 0-3.195 0c-.423.42-.661.991-.661 1.586v1.897c-3.52.872-5.966 3.763-5.966 7.399 0 2.18.995 6.06 7.646 7.59l.073.017c4.211.956 4.211 2.678 4.211 3.243 0 2.19-1.922 3.187-3.707 3.187a3.721 3.721 0 0 1-2.054-.615 3.68 3.68 0 0 1-1.366-1.643 2.253 2.253 0 0 0-1.229-1.21 2.277 2.277 0 0 0-1.73.007c-.554.23-.992.67-1.22 1.22a2.229 2.229 0 0 0 .008 1.718 8.148 8.148 0 0 0 2.124 2.96 8.227 8.227 0 0 0 3.21 1.748v1.944c0 .595.238 1.165.661 1.585a2.267 2.267 0 0 0 3.195 0c.424-.42.662-.99.662-1.585v-1.898c3.517-.873 5.96-3.762 5.96-7.397.004-2.189-.991-6.069-7.64-7.604Z"/></mask><path d="M87.019 28.22a6.944 6.944 0 0 0-7.367-1.005 6.884 6.884 0 0 0-2.92 2.527 6.811 6.811 0 0 0-1.087 3.69v13.604a6.888 6.888 0 0 0-4.501.023 6.847 6.847 0 0 0-2.572 1.616L51.758 65.358a12.338 12.338 0 0 0-2.72 4.027 12.264 12.264 0 0 0-.947 4.757v10.533c0 .595.238 1.165.662 1.586a2.268 2.268 0 0 0 3.195 0c.423-.42.661-.991.661-1.586V74.142a7.836 7.836 0 0 1 .605-3.04 7.885 7.885 0 0 1 1.738-2.573l16.814-16.69a2.362 2.362 0 0 1 3.328 0 2.327 2.327 0 0 1 0 3.303l-9.746 9.674a2.237 2.237 0 0 0-.004 3.176 2.27 2.27 0 0 0 3.2.004l9.746-9.674a6.782 6.782 0 0 0 1.564-2.374 6.74 6.74 0 0 0 .45-2.802c.007-.057.01-.114.01-.172l-.142-19.534a2.343 2.343 0 0 1 .565-1.535 2.4 2.4 0 0 1 3.356-.267 2.365 2.365 0 0 1 .84 1.793v25.303a9.48 9.48 0 0 1-.731 3.677 9.538 9.538 0 0 1-2.103 3.114L68.57 78.956c-.425.42-.663.991-.663 1.586v4.131c0 .595.238 1.165.662 1.586a2.268 2.268 0 0 0 3.195 0c.423-.42.661-.991.661-1.586v-3.2l12.871-12.775a13.995 13.995 0 0 0 3.084-4.569 13.91 13.91 0 0 0 1.073-5.395V33.43c0-.992-.218-1.972-.638-2.872a6.844 6.844 0 0 0-1.795-2.34ZM17.505 81.473v3.202c0 .595.238 1.165.661 1.586a2.268 2.268 0 0 0 3.195 0c.424-.42.662-.991.662-1.586v-4.132c0-.594-.238-1.165-.662-1.585L7.827 65.527a9.54 9.54 0 0 1-2.103-3.115 9.482 9.482 0 0 1-.732-3.678V33.43a2.349 2.349 0 0 1 .836-1.799 2.387 2.387 0 0 1 1.922-.535c.56.087 1.07.37 1.438.798.367.429.568.973.566 1.536L9.63 52.988v.008c-.073.978.069 1.96.414 2.878a6.78 6.78 0 0 0 1.59 2.442l9.748 9.68a2.268 2.268 0 0 0 3.158-.036 2.234 2.234 0 0 0 .036-3.135l-9.746-9.681a2.327 2.327 0 0 1 0-3.303 2.362 2.362 0 0 1 3.328 0l16.814 16.69a7.883 7.883 0 0 1 1.738 2.572c.403.963.609 1.996.606 3.039v10.533c0 .595.238 1.165.662 1.586a2.268 2.268 0 0 0 3.195 0c.424-.42.662-.991.662-1.586V74.142a12.263 12.263 0 0 0-.947-4.757 12.337 12.337 0 0 0-2.718-4.027L21.354 48.675a6.85 6.85 0 0 0-2.576-1.618 6.89 6.89 0 0 0-3.028-.347 6.97 6.97 0 0 0-1.478.326V33.431a6.823 6.823 0 0 0-2.02-4.843 6.925 6.925 0 0 0-4.879-2.005c-1.83 0-3.585.721-4.879 2.005a6.823 6.823 0 0 0-2.02 4.843v25.303a13.91 13.91 0 0 0 1.073 5.395 13.993 13.993 0 0 0 3.084 4.569l12.874 12.775Zm28.037-55.886-.073-.017c-4.211-.956-4.211-2.677-4.211-3.241 0-2.19 1.922-3.187 3.707-3.187a3.72 3.72 0 0 1 2.054.616 3.68 3.68 0 0 1 1.366 1.643c.232.549.674.984 1.229 1.21a2.276 2.276 0 0 0 1.73-.008c.553-.23.992-.669 1.219-1.22a2.23 2.23 0 0 0-.007-1.718 8.15 8.15 0 0 0-2.127-2.952 8.228 8.228 0 0 0-3.207-1.743v-1.946c0-.595-.238-1.165-.662-1.586a2.267 2.267 0 0 0-3.195 0c-.423.42-.661.991-.661 1.586v1.897c-3.52.872-5.966 3.763-5.966 7.399 0 2.18.995 6.06 7.646 7.59l.073.017c4.211.956 4.211 2.678 4.211 3.243 0 2.19-1.922 3.187-3.707 3.187a3.721 3.721 0 0 1-2.054-.615 3.68 3.68 0 0 1-1.366-1.643 2.253 2.253 0 0 0-1.229-1.21 2.277 2.277 0 0 0-1.73.007c-.554.23-.992.67-1.22 1.22a2.229 2.229 0 0 0 .008 1.718 8.148 8.148 0 0 0 2.124 2.96 8.227 8.227 0 0 0 3.21 1.748v1.944c0 .595.238 1.165.661 1.585a2.267 2.267 0 0 0 3.195 0c.424-.42.662-.99.662-1.585v-1.898c3.517-.873 5.96-3.762 5.96-7.397.004-2.189-.991-6.069-7.64-7.604Z" fill="url('#paint0_linear_1203_3120')" stroke="#fff" stroke-width="1.835" mask="url('#path-1-inside-1_1203_3120')"/><path d="M44.963 50.715a22.987 22.987 0 0 0 22.963-22.962 22.964 22.964 0 0 0-39.2-16.24 22.963 22.963 0 0 0 16.237 39.202Zm0-49.565c14.668 0 26.602 11.934 26.602 26.603 0 14.667-11.934 26.6-26.602 26.6-14.669 0-26.602-11.931-26.602-26.6 0-14.67 11.933-26.603 26.602-26.603Z" fill="url('#paint1_linear_1203_3120')" stroke="#fff" stroke-width=".917"/><defs><linearGradient id="paint0_linear_1203_3120" x1="-37.055" y1="-12.29" x2="95.263" y2="-4.567" gradientUnits="userSpaceOnUse"><stop stop-color="#08899A"/><stop offset="1" stop-color="#2B3453"/></linearGradient><linearGradient id="paint1_linear_1203_3120" x1="-4.924" y1="-15.709" x2="75.631" y2="-11.685" gradientUnits="userSpaceOnUse"><stop stop-color="#08899A"/><stop offset="1" stop-color="#2B3453"/></linearGradient></defs></svg>