<svg width="81" height="83" fill="none" xmlns="http://www.w3.org/2000/svg"><path d="M17.04 46.725a1.284 1.284 0 0 0-1.767.432l-.059.098a1.286 1.286 0 1 0 2.199 1.334l.059-.098a1.285 1.285 0 0 0-.432-1.766Z" fill="url('#paint0_linear_1194_3223')"/><path d="m80.182 51.906-6.84-11.344a1.287 1.287 0 0 0-2.203 1.33l6.838 11.336a.88.88 0 0 1-.287 1.198l-4.368 2.63a.87.87 0 0 1-1.191-.301L60.958 38.227l-.452-.743a.872.872 0 0 1 .291-1.19l4.369-2.63a.867.867 0 0 1 1.188.297l2.144 3.558a1.287 1.287 0 0 0 2.204-1.327l-2.141-3.554c-.968-1.623-3.084-2.153-4.718-1.18l-4.379 2.637a3.445 3.445 0 0 0-1.39 4.234l-1.268.611a2.801 2.801 0 0 1-2.194.098l-9.038-3.403a10.532 10.532 0 0 0-6.078-.41l-3.073.703c-.336.077-.663.178-.989.278h-2.688c-1.542 0-3.096.227-4.617.677l-2.93.871h-1.48a3.45 3.45 0 0 0-1.571-3.662l-4.377-2.635c-1.63-.972-3.744-.44-4.71 1.177L1.435 51.911a3.464 3.464 0 0 0 1.17 4.718l4.376 2.635a3.43 3.43 0 0 0 1.762.486c1.17 0 2.31-.594 2.947-1.663l.29-.481 3.961 2.486 3.416 5.448a4.376 4.376 0 0 0 .93 5.824l.235.189a4.382 4.382 0 0 0 2.272.933 4.802 4.802 0 0 0 4.784 4.206c.392 0 .779-.065 1.159-.16a4.765 4.765 0 0 0 1.55 2.261 4.775 4.775 0 0 0 3.016 1.072c.446 0 .89-.073 1.322-.197a4.446 4.446 0 0 0 1.162 1.43 4.409 4.409 0 0 0 3.276.958 4.429 4.429 0 0 0 2.998-1.646l.788-.978 2.416 1.286a6.017 6.017 0 0 0 7.77-1.908 4.63 4.63 0 0 0 1.195.16 4.662 4.662 0 0 0 4.117-2.463 4.55 4.55 0 0 0 .421-1.19c.3.055.603.093.908.093.49 0 .982-.073 1.464-.22a4.994 4.994 0 0 0 3.522-5.053 5.024 5.024 0 0 0 3.292-2.426c1.888-3.386-.804-5.822-1.704-6.635l-.053-.047c.827-2.033 2.508-2.935 3.513-3.306l.218.36a3.427 3.427 0 0 0 2.951 1.668c.602 0 1.212-.157 1.767-.488l4.379-2.636a3.466 3.466 0 0 0 1.159-4.722ZM21.898 69.359a1.837 1.837 0 0 1-.68-1.24c-.053-.491.088-.973.398-1.358l2.815-3.5c.309-.384.749-.626 1.24-.679a1.84 1.84 0 0 1 1.356.397l.235.19c.386.309.627.75.68 1.24.053.49-.087.972-.397 1.357l-2.815 3.5a1.85 1.85 0 0 1-2.597.282l-.235-.19Zm4.26 4.264a2.247 2.247 0 0 1-.835-1.598 4.395 4.395 0 0 0 1.412-1.147l2.815-3.5c.488-.607.782-1.32.902-2.069a2.23 2.23 0 0 1 2.078.374c.527.429.842 1.087.842 1.761 0 .165-.021.339-.059.522-.072.31-.217.601-.436.871l-3.567 4.436c-.107.13-.193.221-.326.323a2.23 2.23 0 0 1-2.826.027Zm5.745 3.17a2.207 2.207 0 0 1-.817-1.654c.074-.08.147-.154.223-.248l3.569-4.439a4.72 4.72 0 0 0 .729-1.254 2.212 2.212 0 0 1 2.097.378 2.25 2.25 0 0 1 .841 1.75l.001.076a2.24 2.24 0 0 1-.494 1.327l-3.002 3.724c-.11.137-.248.27-.4.384-.821.62-1.95.603-2.747-.044Zm8.15 2.007a1.878 1.878 0 0 1-1.271.698 1.85 1.85 0 0 1-1.948-1.192c.074-.08.154-.158.222-.243l3.005-3.726c.457-.575.763-1.23.925-1.936a1.895 1.895 0 0 1 1.484.381 1.899 1.899 0 0 1 .289 2.66L40.054 78.8Zm6.418-.354-1.98-1.055.272-.338c.468-.583.778-1.28.91-2.014l4.987 2.648a3.447 3.447 0 0 1-4.189.759Zm19.236-11.992a2.436 2.436 0 0 1-3.293.936l-10.686-5.967a1.285 1.285 0 1 0-1.254 2.246l10.675 5.96c.292.167.597.295.913.395.083.517.003 1.051-.246 1.525a2.403 2.403 0 0 1-1.43 1.18 2.39 2.39 0 0 1-1.842-.18l-10.813-5.725a1.287 1.287 0 0 0-1.204 2.273l9.787 5.182c.009.35-.066.698-.236 1.012a2.09 2.09 0 0 1-2.824.862l-8.28-4.395a4.511 4.511 0 0 0-.893-.98 4.474 4.474 0 0 0-3.205-.95 4.85 4.85 0 0 0-1.554-2.252 4.782 4.782 0 0 0-3.47-1.043 4.83 4.83 0 0 0-1.706-2.851 4.801 4.801 0 0 0-4.049-.934 4.387 4.387 0 0 0-1.22-1.584l-.235-.189a4.384 4.384 0 0 0-3.247-.95 4.389 4.389 0 0 0-2.967 1.625l-1.39 1.729-3.074-4.902a1.278 1.278 0 0 0-.406-.406l-4.252-2.668 1.472-2.445a1.286 1.286 0 0 0-2.205-1.325l-3.088 5.13a.865.865 0 0 1-1.182.294L3.937 54.43a.881.881 0 0 1-.297-1.196l11.628-19.278a.863.863 0 0 1 1.183-.294l4.366 2.628c.41.251.544.786.297 1.194l-3.796 6.29A1.286 1.286 0 1 0 19.52 45.1l2.884-4.777h2.984c.124 0 .247-.018.366-.053l3.107-.924c.496-.146.996-.256 1.498-.347a14.078 14.078 0 0 0-2.67 3.12l-3.047 4.834a3.488 3.488 0 0 0 1.037 4.759 7.23 7.23 0 0 0 8.169-.145l6.483-4.575 14.2 7.214 10.008 8.788c1.9 1.72 1.636 2.62 1.168 3.46Zm-1.525-7.193-8.079-7.094a1.253 1.253 0 0 0-.265-.18l-14.984-7.613a1.29 1.29 0 0 0-1.374.07l-7.117 5.023a4.672 4.672 0 0 1-5.277.093.905.905 0 0 1-.27-1.234l3.047-4.835a11.38 11.38 0 0 1 7.133-5.057l3.074-.704a7.959 7.959 0 0 1 4.597.31l9.037 3.404a5.388 5.388 0 0 0 4.218-.188l1.437-.693 9.004 14.933c-1.311.564-3.067 1.67-4.181 3.765Z" fill="url('#paint1_linear_1194_3223')"/><path d="M40.541 33.217a1.248 1.248 0 0 0 .533 0c5.731-1.213 10.563-5.026 13.252-10.45a20.454 20.454 0 0 0 2.168-8.002 1.286 1.286 0 0 0-1.201-1.365 1.267 1.267 0 0 0-1.366 1.202 17.911 17.911 0 0 1-1.9 7.012c-2.3 4.641-6.38 7.919-11.22 9.028-4.84-1.11-8.919-4.387-11.223-9.038-1.267-2.498-1.936-5.345-1.936-8.232 0-3.026.234-5.67.698-7.872 3.478-1.605 7.875-2.484 12.462-2.484 4.586 0 8.984.88 12.462 2.484.264 1.256.454 2.655.565 4.167a1.296 1.296 0 0 0 1.376 1.19 1.286 1.286 0 0 0 1.19-1.377c-.139-1.892-.395-3.63-.762-5.169a1.286 1.286 0 0 0-.678-.853C51.054 1.514 46.028.443 40.808.443c-5.22 0-10.247 1.071-14.153 3.016-.341.17-.59.482-.678.853-.598 2.509-.9 5.558-.9 9.06 0 3.288.765 6.538 2.208 9.385 2.693 5.434 7.525 9.247 13.256 10.46Z" fill="url('#paint2_linear_1194_3223')"/><path d="M48.747 8.611 38.439 18.92l-3.852-3.852a1.286 1.286 0 1 0-1.819 1.819l4.762 4.761a1.287 1.287 0 0 0 1.818 0L50.565 10.43a1.286 1.286 0 1 0-1.818-1.819Z" fill="url('#paint3_linear_1194_3223')"/><defs><linearGradient id="paint0_linear_1194_3223" x1="13.917" y1="45.728" x2="17.835" y2="45.92" gradientUnits="userSpaceOnUse"><stop stop-color="#08899A"/><stop offset="1" stop-color="#2B3453"/></linearGradient><linearGradient id="paint1_linear_1194_3223" x1="-32.674" y1="15.482" x2="85.563" y2="24.693" gradientUnits="userSpaceOnUse"><stop stop-color="#08899A"/><stop offset="1" stop-color="#2B3453"/></linearGradient><linearGradient id="paint2_linear_1194_3223" x1="11.824" y1="-9.497" x2="58.601" y2="-7.259" gradientUnits="userSpaceOnUse"><stop stop-color="#08899A"/><stop offset="1" stop-color="#2B3453"/></linearGradient><linearGradient id="paint3_linear_1194_3223" x1="24.568" y1="4.056" x2="52.123" y2="5.907" gradientUnits="userSpaceOnUse"><stop stop-color="#08899A"/><stop offset="1" stop-color="#2B3453"/></linearGradient></defs></svg>