<svg width="76" height="76" fill="none" xmlns="http://www.w3.org/2000/svg"><path d="M37.984 28.871c-5.104 0-9.28 4.176-9.28 9.28 0 5.104 4.176 9.28 9.28 9.28 5.104 0 9.28-4.176 9.28-9.28 0-5.104-4.176-9.28-9.28-9.28Zm0 16.24c-3.828 0-6.96-3.132-6.96-6.96s3.132-6.96 6.96-6.96 6.96 3.132 6.96 6.96-3.132 6.96-6.96 6.96Z" fill="url('#paint0_linear_1194_3243')"/><mask id="path-2-outside-1_1194_3243" maskUnits="userSpaceOnUse" x="-.137" y=".03" width="63" height="63" fill="#000"><path fill="#fff" d="M-.137.03h63v63h-63z"/><path d="M61.533 41.515c.58-.116.928-.58.928-1.16V34.44c0-.58-.348-1.044-.928-1.16L55.5 32.003c-.465-1.16-.928-2.32-1.624-3.364l3.015-4.756c.348-.464.232-1.044-.116-1.392L52.6 18.315c-.348-.348-1.044-.464-1.392-.116l-5.104 3.132a20.358 20.358 0 0 0-3.712-1.392l-1.16-5.336c-.116-.58-.58-.928-1.16-.928h-5.916c-.58 0-1.044.348-1.16.928l-1.16 5.336c-1.508.464-3.016 1.044-4.408 1.856l-3.944-2.552c-.464-.348-1.044-.232-1.392.116l-4.176 4.176c-.348.348-.464 1.044-.116 1.392l2.436 3.828c-.928 1.624-1.74 3.364-2.088 5.22l-3.828.812c-.58.116-.928.58-.928 1.16v5.916c0 .58.348 1.044.928 1.16l3.944.812c.58 1.972 1.392 3.828 2.552 5.568l-1.972 3.016c-.348.464-.232 1.044.116 1.393l4.176 4.175c.348.349 1.044.465 1.392.116l3.48-2.203c1.74.928 3.596 1.508 5.568 1.855l.812 3.829c.116.58.58.928 1.16.928h5.916c.58 0 1.044-.348 1.16-.928l1.044-4.757c1.624-.58 3.132-1.392 4.524-2.32l3.944 2.553c.464.347 1.044.231 1.392-.117l4.177-4.176c.348-.348.464-1.044.116-1.392l-3.017-4.756c.58-1.276 1.044-2.668 1.276-4.06l5.453-1.044Zm-7.309-.116c-.231 1.624-.812 3.248-1.508 4.756-.232.348-.116.812.116 1.16l2.9 4.524-2.9 2.9-3.828-2.436c-.464-.232-.928-.232-1.276 0-1.624 1.16-3.248 2.089-5.104 2.669a1.401 1.401 0 0 0-.812.811l-.928 4.409h-4.06l-.812-3.712a1.259 1.259 0 0 0-.928-.928c-2.204-.233-4.292-.928-6.148-2.089a1.054 1.054 0 0 0-1.16 0l-3.248 2.088-2.9-2.9 1.856-2.9c.232-.348.232-.928 0-1.276-1.276-1.856-2.32-3.944-2.784-6.148-.116-.464-.464-.812-.928-.812l-3.828-.812v-4.06l3.596-.812a1.26 1.26 0 0 0 .928-.928c.464-2.088 1.16-3.944 2.32-5.8.232-.348.232-.928 0-1.276l-2.436-3.712 2.9-2.9 3.712 2.436c.348.232.812.232 1.276 0 1.508-.928 3.248-1.624 4.988-2.088.464-.116.812-.464.812-.928l1.044-5.104h4.06l1.044 5.104c.116.464.464.812.812.928 1.624.348 3.016.928 4.408 1.74.348.232.812.232 1.16 0l4.872-3.132 2.9 2.9-3.016 4.64c-.232.348-.232.928 0 1.276.812 1.276 1.508 2.668 1.972 4.176.116.348.465.696.813.812l5.684 1.276v4.06l-4.64 1.16c-.465.116-.928.464-.928.928ZM2.835 3.002a1.121 1.121 0 0 0 0-1.624 1.121 1.121 0 0 0-1.624 0 1.121 1.121 0 0 0 0 1.624c.464.464 1.16.464 1.624 0Z"/></mask><path d="M61.533 41.515c.58-.116.928-.58.928-1.16V34.44c0-.58-.348-1.044-.928-1.16L55.5 32.003c-.465-1.16-.928-2.32-1.624-3.364l3.015-4.756c.348-.464.232-1.044-.116-1.392L52.6 18.315c-.348-.348-1.044-.464-1.392-.116l-5.104 3.132a20.358 20.358 0 0 0-3.712-1.392l-1.16-5.336c-.116-.58-.58-.928-1.16-.928h-5.916c-.58 0-1.044.348-1.16.928l-1.16 5.336c-1.508.464-3.016 1.044-4.408 1.856l-3.944-2.552c-.464-.348-1.044-.232-1.392.116l-4.176 4.176c-.348.348-.464 1.044-.116 1.392l2.436 3.828c-.928 1.624-1.74 3.364-2.088 5.22l-3.828.812c-.58.116-.928.58-.928 1.16v5.916c0 .58.348 1.044.928 1.16l3.944.812c.58 1.972 1.392 3.828 2.552 5.568l-1.972 3.016c-.348.464-.232 1.044.116 1.393l4.176 4.175c.348.349 1.044.465 1.392.116l3.48-2.203c1.74.928 3.596 1.508 5.568 1.855l.812 3.829c.116.58.58.928 1.16.928h5.916c.58 0 1.044-.348 1.16-.928l1.044-4.757c1.624-.58 3.132-1.392 4.524-2.32l3.944 2.553c.464.347 1.044.231 1.392-.117l4.177-4.176c.348-.348.464-1.044.116-1.392l-3.017-4.756c.58-1.276 1.044-2.668 1.276-4.06l5.453-1.044Zm-7.309-.116c-.231 1.624-.812 3.248-1.508 4.756-.232.348-.116.812.116 1.16l2.9 4.524-2.9 2.9-3.828-2.436c-.464-.232-.928-.232-1.276 0-1.624 1.16-3.248 2.089-5.104 2.669a1.401 1.401 0 0 0-.812.811l-.928 4.409h-4.06l-.812-3.712a1.259 1.259 0 0 0-.928-.928c-2.204-.233-4.292-.928-6.148-2.089a1.054 1.054 0 0 0-1.16 0l-3.248 2.088-2.9-2.9 1.856-2.9c.232-.348.232-.928 0-1.276-1.276-1.856-2.32-3.944-2.784-6.148-.116-.464-.464-.812-.928-.812l-3.828-.812v-4.06l3.596-.812a1.26 1.26 0 0 0 .928-.928c.464-2.088 1.16-3.944 2.32-5.8.232-.348.232-.928 0-1.276l-2.436-3.712 2.9-2.9 3.712 2.436c.348.232.812.232 1.276 0 1.508-.928 3.248-1.624 4.988-2.088.464-.116.812-.464.812-.928l1.044-5.104h4.06l1.044 5.104c.116.464.464.812.812.928 1.624.348 3.016.928 4.408 1.74.348.232.812.232 1.16 0l4.872-3.132 2.9 2.9-3.016 4.64c-.232.348-.232.928 0 1.276.812 1.276 1.508 2.668 1.972 4.176.116.348.465.696.813.812l5.684 1.276v4.06l-4.64 1.16c-.465.116-.928.464-.928.928ZM2.835 3.002a1.121 1.121 0 0 0 0-1.624 1.121 1.121 0 0 0-1.624 0 1.121 1.121 0 0 0 0 1.624c.464.464 1.16.464 1.624 0Z" fill="url('#paint1_linear_1194_3243')"/><path d="M61.533 41.515c.58-.116.928-.58.928-1.16V34.44c0-.58-.348-1.044-.928-1.16L55.5 32.003c-.465-1.16-.928-2.32-1.624-3.364l3.015-4.756c.348-.464.232-1.044-.116-1.392L52.6 18.315c-.348-.348-1.044-.464-1.392-.116l-5.104 3.132a20.358 20.358 0 0 0-3.712-1.392l-1.16-5.336c-.116-.58-.58-.928-1.16-.928h-5.916c-.58 0-1.044.348-1.16.928l-1.16 5.336c-1.508.464-3.016 1.044-4.408 1.856l-3.944-2.552c-.464-.348-1.044-.232-1.392.116l-4.176 4.176c-.348.348-.464 1.044-.116 1.392l2.436 3.828c-.928 1.624-1.74 3.364-2.088 5.22l-3.828.812c-.58.116-.928.58-.928 1.16v5.916c0 .58.348 1.044.928 1.16l3.944.812c.58 1.972 1.392 3.828 2.552 5.568l-1.972 3.016c-.348.464-.232 1.044.116 1.393l4.176 4.175c.348.349 1.044.465 1.392.116l3.48-2.203c1.74.928 3.596 1.508 5.568 1.855l.812 3.829c.116.58.58.928 1.16.928h5.916c.58 0 1.044-.348 1.16-.928l1.044-4.757c1.624-.58 3.132-1.392 4.524-2.32l3.944 2.553c.464.347 1.044.231 1.392-.117l4.177-4.176c.348-.348.464-1.044.116-1.392l-3.017-4.756c.58-1.276 1.044-2.668 1.276-4.06l5.453-1.044Zm-7.309-.116c-.231 1.624-.812 3.248-1.508 4.756-.232.348-.116.812.116 1.16l2.9 4.524-2.9 2.9-3.828-2.436c-.464-.232-.928-.232-1.276 0-1.624 1.16-3.248 2.089-5.104 2.669a1.401 1.401 0 0 0-.812.811l-.928 4.409h-4.06l-.812-3.712a1.259 1.259 0 0 0-.928-.928c-2.204-.233-4.292-.928-6.148-2.089a1.054 1.054 0 0 0-1.16 0l-3.248 2.088-2.9-2.9 1.856-2.9c.232-.348.232-.928 0-1.276-1.276-1.856-2.32-3.944-2.784-6.148-.116-.464-.464-.812-.928-.812l-3.828-.812v-4.06l3.596-.812a1.26 1.26 0 0 0 .928-.928c.464-2.088 1.16-3.944 2.32-5.8.232-.348.232-.928 0-1.276l-2.436-3.712 2.9-2.9 3.712 2.436c.348.232.812.232 1.276 0 1.508-.928 3.248-1.624 4.988-2.088.464-.116.812-.464.812-.928l1.044-5.104h4.06l1.044 5.104c.116.464.464.812.812.928 1.624.348 3.016.928 4.408 1.74.348.232.812.232 1.16 0l4.872-3.132 2.9 2.9-3.016 4.64c-.232.348-.232.928 0 1.276.812 1.276 1.508 2.668 1.972 4.176.116.348.465.696.813.812l5.684 1.276v4.06l-4.64 1.16c-.465.116-.928.464-.928.928ZM2.835 3.002a1.121 1.121 0 0 0 0-1.624 1.121 1.121 0 0 0-1.624 0 1.121 1.121 0 0 0 0 1.624c.464.464 1.16.464 1.624 0Z" stroke="url('#paint2_linear_1194_3243')" stroke-width=".55" mask="url('#path-2-outside-1_1194_3243')"/><path d="M66.637 72.952H50.861C65.593 67.5 75.918 52.883 75.106 36.063c0-.696-.58-1.16-1.276-1.044-.58 0-1.045.58-1.045 1.276 1.16 20.764-16.124 37.933-37.004 36.657C18.496 71.792 4.344 57.755 3.3 40.472 1.908 20.17 18.032 3.35 37.985 3.35c11.136 0 21.46 5.22 27.956 14.037L58.17 16.11c-.58-.116-1.276.348-1.276.928-.116.58.348 1.276.928 1.276l10.324 1.624c.58.116 1.276-.348 1.276-.928l1.624-10.325c.116-.58-.348-1.276-.928-1.276-.58-.116-1.276.348-1.276.928l-1.16 7.425A37.252 37.252 0 0 0 37.985 1.03H9.332c-.696 0-1.16.464-1.16 1.16s.464 1.16 1.16 1.16h15.776C10.608 8.686.4 22.84.864 39.195c.58 20.185 17.632 36.077 37.933 36.077h27.84c.696 0 1.16-.464 1.16-1.16s-.464-1.16-1.16-1.16Zm6.496.348a1.121 1.121 0 0 0 0 1.624c.465.464 1.16.464 1.624 0a1.121 1.121 0 0 0 0-1.624 1.121 1.121 0 0 0-1.624 0Z" fill="url('#paint3_linear_1194_3243')"/><defs><linearGradient id="paint0_linear_1194_3243" x1="20.876" y1="23.247" x2="48.502" y2="24.627" gradientUnits="userSpaceOnUse"><stop stop-color="#08899A"/><stop offset="1" stop-color="#2B3453"/></linearGradient><linearGradient id="paint1_linear_1194_3243" x1="-25.117" y1="-17.6" x2="66.566" y2="-13.013" gradientUnits="userSpaceOnUse"><stop stop-color="#08899A"/><stop offset="1" stop-color="#2B3453"/></linearGradient><linearGradient id="paint2_linear_1194_3243" x1="-25.117" y1="-17.6" x2="66.566" y2="-13.013" gradientUnits="userSpaceOnUse"><stop stop-color="#08899A"/><stop offset="1" stop-color="#2B3453"/></linearGradient><linearGradient id="paint3_linear_1194_3243" x1="-30.489" y1="-21.467" x2="80.103" y2="-15.939" gradientUnits="userSpaceOnUse"><stop stop-color="#08899A"/><stop offset="1" stop-color="#2B3453"/></linearGradient></defs></svg>