<svg width="80" height="78" fill="none" xmlns="http://www.w3.org/2000/svg"><circle cx="17.012" cy="17.012" r="15.636" stroke="url('#paint0_linear_1194_3250')" stroke-width="2.752"/><circle cx="62.043" cy="17.012" r="15.636" stroke="url('#paint1_linear_1194_3250')" stroke-width="2.752"/><circle cx="39.527" cy="60.542" r="15.136" stroke="url('#paint2_linear_1194_3250')" stroke-width="2.752"/><circle cx="39.527" cy="60.542" r="7.13" stroke="url('#paint3_linear_1194_3250')" stroke-width="2.752"/><circle cx="17.012" cy="17.012" r="6.63" stroke="url('#paint4_linear_1194_3250')" stroke-width="2.752"/><circle cx="62.044" cy="17.012" r="6.63" stroke="url('#paint5_linear_1194_3250')" stroke-width="2.752"/><path d="M52.036 46.032c1.501-.334 4.803-2.702 6.004-9.507" stroke="url('#paint6_linear_1194_3250')" stroke-width="1.835"/><path d="M27.019 46.031c-1.752-.35-5.604-2.844-7.005-10.007" stroke="url('#paint7_linear_1194_3250')" stroke-width="1.835"/><defs><linearGradient id="paint0_linear_1194_3250" x1="-14.35" y1="-10.31" x2="36.292" y2="-7.781" gradientUnits="userSpaceOnUse"><stop stop-color="#08899A"/><stop offset="1" stop-color="#2B3453"/></linearGradient><linearGradient id="paint1_linear_1194_3250" x1="30.681" y1="-10.31" x2="81.323" y2="-7.781" gradientUnits="userSpaceOnUse"><stop stop-color="#08899A"/><stop offset="1" stop-color="#2B3453"/></linearGradient><linearGradient id="paint2_linear_1194_3250" x1="9.088" y1="34.023" x2="58.24" y2="36.478" gradientUnits="userSpaceOnUse"><stop stop-color="#08899A"/><stop offset="1" stop-color="#2B3453"/></linearGradient><linearGradient id="paint3_linear_1194_3250" x1="23.846" y1="46.881" x2="49.167" y2="48.146" gradientUnits="userSpaceOnUse"><stop stop-color="#08899A"/><stop offset="1" stop-color="#2B3453"/></linearGradient><linearGradient id="paint4_linear_1194_3250" x1="2.254" y1="4.155" x2="26.085" y2="5.345" gradientUnits="userSpaceOnUse"><stop stop-color="#08899A"/><stop offset="1" stop-color="#2B3453"/></linearGradient><linearGradient id="paint5_linear_1194_3250" x1="47.285" y1="4.155" x2="71.117" y2="5.345" gradientUnits="userSpaceOnUse"><stop stop-color="#08899A"/><stop offset="1" stop-color="#2B3453"/></linearGradient><linearGradient id="paint6_linear_1194_3250" x1="49.504" y1="33.645" x2="58.454" y2="33.927" gradientUnits="userSpaceOnUse"><stop stop-color="#08899A"/><stop offset="1" stop-color="#2B3453"/></linearGradient><linearGradient id="paint7_linear_1194_3250" x1="29.973" y1="32.992" x2="19.534" y2="33.357" gradientUnits="userSpaceOnUse"><stop stop-color="#08899A"/><stop offset="1" stop-color="#2B3453"/></linearGradient></defs></svg>