<svg xmlns="http://www.w3.org/2000/svg" width="78" height="52" fill="none"><path d="M76.22.199 1.118 17.26a1.235 1.235 0 0 0-.554 2.12l11.98 10.828 5.648 17.66c.005.019.018.033.025.052.021.054.047.106.076.155.027.05.054.101.088.147.032.043.07.08.108.12.042.044.084.086.13.123.016.012.026.027.042.039.016.01.036.01.053.02.14.094.298.157.463.186.093.014.189.018.286.012.02-.002.038-.012.057-.015.069-.01.134-.03.2-.051.067-.021.134-.038.195-.069.016-.008.034-.008.05-.018l7.987-4.435 7.663 6.925a1.239 1.239 0 0 0 1.782-.131L77.448 2.187a1.232 1.232 0 0 0 .097-1.432A1.23 1.23 0 0 0 76.22.2ZM16.19 33.503l3.596 3.25-.836 5.38-2.76-8.63Zm4.784 11.682 1.003-6.452 4.04 3.652-5.043 2.8ZM36.31 48.36l-7.356-6.648v-.001l-5.68-5.132 42.797-27.11-1.32-2.087L21.372 34.86l-5.8-5.242 28.861-10.875-.87-2.309-30.051 11.322-9.532-8.615 69.27-15.736L36.31 48.36Z" fill="url('#paint0_linear_1194_3151')"/><defs><linearGradient id="paint0_linear_1194_3151" x1="-23.507" y1="-32.799" x2="84.135" y2="-8.818" gradientUnits="userSpaceOnUse"><stop stop-color="#08899A"/><stop offset="1" stop-color="#2B3453"/></linearGradient></defs></svg>