<svg xmlns="http://www.w3.org/2000/svg" width="62" height="70" fill="none"><path d="M6.508 39.086a1.113 1.113 0 0 0 1.879.011l1.213-2.01c2.69 1.097 6.182 2.777 8.986 6.798v-.145c.002-.939.177-1.87.518-2.745-3.254-3.778-7.024-5.28-9.556-6.286a1.104 1.104 0 0 0-1.34.452l-.746 1.234-4.542-7.714 8.506-.647c-.331.584-.966 1.29-.724 2.011a1.094 1.094 0 0 0 .603.657c2.83 1.225 6.982 3.028 10.19 7.042a7.647 7.647 0 0 1 1.973-1.132c-3.122-4.035-7.121-6.073-10.178-7.43l1.053-1.855a1.105 1.105 0 0 0-1.034-1.63l-12.305.936a1.105 1.105 0 0 0-.86 1.646l6.364 10.807Zm41.436-9.904c-3.057 1.357-7.057 3.396-10.178 7.43a7.65 7.65 0 0 1 1.972 1.132c3.209-4.014 7.36-5.817 10.19-7.042a1.094 1.094 0 0 0 .603-.657c.232-.688-.401-1.443-.724-2.012l8.506.649-4.541 7.713-.746-1.234a1.092 1.092 0 0 0-1.34-.452c-2.532 1.006-6.3 2.507-9.555 6.29.34.874.515 1.804.516 2.741v.145c2.805-4.021 6.296-5.701 8.987-6.798l1.213 2.01a1.11 1.11 0 0 0 1.879-.01l6.362-10.808a1.094 1.094 0 0 0-.859-1.646l-12.304-.936a1.111 1.111 0 0 0-1.034 1.63l1.053 1.855Z" fill="url('#paint0_linear_1194_3156')"/><path d="m21.85 16.397 3.299.051v10.805a8.215 8.215 0 0 1 2.187-1.417V15.371a1.093 1.093 0 0 0-1.076-1.094l-2.453-.038 6.81-11.068 6.811 11.068-2.453.038a1.093 1.093 0 0 0-1.077 1.094v10.465c.8.353 1.538.83 2.188 1.416V16.448l3.298-.051a1.094 1.094 0 0 0 .914-1.668L31.548.51a1.104 1.104 0 0 0-1.862 0L20.937 14.73a1.094 1.094 0 0 0 .914 1.667Z" fill="url('#paint1_linear_1194_3156')"/><path d="M30.617 27.334a6.016 6.016 0 1 0 6.015 6.016 6.023 6.023 0 0 0-6.014-6.016Zm0 9.844a3.828 3.828 0 1 1 3.828-3.828 3.833 3.833 0 0 1-3.828 3.828Z" fill="url('#paint2_linear_1194_3156')"/><path d="M47.57 67.803H35.986c.064-.238.098-.483.101-.73v-8.02h1.094a3.284 3.284 0 0 0 3.28-3.281V43.74a5.473 5.473 0 0 0-3.565-5.12 8.257 8.257 0 0 1-2.203 1.84h.3a3.285 3.285 0 0 1 3.281 3.28V55.77a1.094 1.094 0 0 1-1.093 1.094h-1.094v-9.843a1.094 1.094 0 0 0-2.187 0v20.052a.696.696 0 0 1-.656.73h-1.531V55.771a1.093 1.093 0 1 0-2.188 0v12.031h-1.53a.697.697 0 0 1-.657-.729V47.022a1.094 1.094 0 0 0-2.188 0v9.844h-1.093a1.095 1.095 0 0 1-1.094-1.094V43.74a3.284 3.284 0 0 1 3.281-3.28h.3a8.254 8.254 0 0 1-2.202-1.84 5.473 5.473 0 0 0-3.567 5.12v12.032a3.285 3.285 0 0 0 3.281 3.281h1.094v8.021c.003.247.037.492.102.73H13.12a1.103 1.103 0 1 0 0 2.187h34.45a1.103 1.103 0 1 0 0-2.187Z" fill="url('#paint3_linear_1194_3156')"/><defs><linearGradient id="paint0_linear_1194_3156" x1="-25.829" y1="20.183" x2="63.037" y2="35.126" gradientUnits="userSpaceOnUse"><stop stop-color="#08899A"/><stop offset="1" stop-color="#2B3453"/></linearGradient><linearGradient id="paint1_linear_1194_3156" x1="12.471" y1="-8.258" x2="41.809" y2="-7.2" gradientUnits="userSpaceOnUse"><stop stop-color="#08899A"/><stop offset="1" stop-color="#2B3453"/></linearGradient><linearGradient id="paint2_linear_1194_3156" x1="19.526" y1="23.688" x2="37.435" y2="24.582" gradientUnits="userSpaceOnUse"><stop stop-color="#08899A"/><stop offset="1" stop-color="#2B3453"/></linearGradient><linearGradient id="paint3_linear_1194_3156" x1="-3.704" y1="29.11" x2="51.226" y2="32.34" gradientUnits="userSpaceOnUse"><stop stop-color="#08899A"/><stop offset="1" stop-color="#2B3453"/></linearGradient></defs></svg>