<svg xmlns="http://www.w3.org/2000/svg" width="58" height="47" fill="none"><path d="M49.692 11.203a3.194 3.194 0 1 1-6.388 0 3.194 3.194 0 0 1 6.388 0Z" fill="url('#paint0_linear_1202_3118')" stroke="#fff" stroke-width=".5"/><path d="M47.667 21.287H10.333C4.773 21.287.25 16.765.25 11.204c0-5.56 4.522-10.083 10.083-10.083h37.334c5.56 0 10.083 4.523 10.083 10.083 0 5.56-4.522 10.083-10.083 10.083ZM10.333 4.065a7.146 7.146 0 0 0-7.139 7.14 7.146 7.146 0 0 0 7.139 7.138h37.334a7.146 7.146 0 0 0 7.139-7.139 7.146 7.146 0 0 0-7.139-7.139H10.333Z" fill="url('#paint1_linear_1202_3118')" stroke="#fff" stroke-width=".5"/><path d="M13.526 36.667a3.194 3.194 0 1 1-6.388 0 3.194 3.194 0 0 1 6.388 0Z" fill="url('#paint2_linear_1202_3118')" stroke="#fff" stroke-width=".5"/><path d="M47.667 46.75H10.333C4.773 46.75.25 42.227.25 36.667c0-5.56 4.522-10.083 10.083-10.083h37.334c5.56 0 10.083 4.522 10.083 10.083 0 5.56-4.522 10.083-10.083 10.083ZM10.333 29.528a7.146 7.146 0 0 0-7.139 7.139 7.146 7.146 0 0 0 7.139 7.139h37.334a7.146 7.146 0 0 0 7.139-7.139 7.146 7.146 0 0 0-7.139-7.139H10.333Z" fill="url('#paint3_linear_1202_3118')" stroke="#fff" stroke-width=".5"/><defs><linearGradient id="paint0_linear_1202_3118" x1="40.148" y1="5.671" x2="50.402" y2="6.183" gradientUnits="userSpaceOnUse"><stop stop-color="#08899A"/><stop offset="1" stop-color="#2B3453"/></linearGradient><linearGradient id="paint1_linear_1202_3118" x1="-24.463" y1="-5.391" x2="60.414" y2="6.506" gradientUnits="userSpaceOnUse"><stop stop-color="#08899A"/><stop offset="1" stop-color="#2B3453"/></linearGradient><linearGradient id="paint2_linear_1202_3118" x1="3.982" y1="31.135" x2="14.236" y2="31.647" gradientUnits="userSpaceOnUse"><stop stop-color="#08899A"/><stop offset="1" stop-color="#2B3453"/></linearGradient><linearGradient id="paint3_linear_1202_3118" x1="-24.463" y1="20.072" x2="60.414" y2="31.969" gradientUnits="userSpaceOnUse"><stop stop-color="#08899A"/><stop offset="1" stop-color="#2B3453"/></linearGradient></defs></svg>