<svg xmlns="http://www.w3.org/2000/svg" width="431" height="247" fill="none"><path d="M369.979 2.228V12h-1.96V5.644L365.401 12h-1.484l-2.632-6.356V12h-1.96V2.228h2.226l3.108 7.266 3.108-7.266h2.212Zm5.382 9.898c-.746 0-1.418-.163-2.016-.49a3.682 3.682 0 0 1-1.414-1.414c-.336-.607-.504-1.307-.504-2.1 0-.793.173-1.493.518-2.1a3.654 3.654 0 0 1 1.442-1.4 4.121 4.121 0 0 1 2.03-.504c.747 0 1.424.168 2.03.504a3.55 3.55 0 0 1 1.428 1.4c.355.607.532 1.307.532 2.1 0 .793-.182 1.493-.546 2.1a3.715 3.715 0 0 1-1.456 1.414c-.606.327-1.288.49-2.044.49Zm0-1.708c.355 0 .686-.084.994-.252.318-.177.57-.439.756-.784.187-.345.28-.765.28-1.26 0-.737-.196-1.302-.588-1.694a1.876 1.876 0 0 0-1.414-.602c-.56 0-1.031.2-1.414.602-.373.392-.56.957-.56 1.694s.182 1.307.546 1.708c.374.392.84.588 1.4.588Zm9.782-6.286c.924 0 1.671.294 2.24.882.569.579.854 1.39.854 2.436V12h-1.96V7.716c0-.616-.154-1.087-.462-1.414-.308-.336-.728-.504-1.26-.504-.541 0-.971.168-1.288.504-.308.327-.462.798-.462 1.414V12h-1.96V4.244h1.96v.966c.261-.336.593-.597.994-.784a3.082 3.082 0 0 1 1.344-.294Zm12.168 3.822c0 .28-.019.532-.056.756h-5.67c.046.56.242.999.588 1.316.345.317.77.476 1.274.476.728 0 1.246-.313 1.554-.938h2.114a3.572 3.572 0 0 1-1.288 1.848c-.635.476-1.414.714-2.338.714-.747 0-1.419-.163-2.016-.49a3.606 3.606 0 0 1-1.386-1.414c-.327-.607-.49-1.307-.49-2.1 0-.803.163-1.507.49-2.114a3.415 3.415 0 0 1 1.372-1.4c.588-.327 1.264-.49 2.03-.49.737 0 1.395.159 1.974.476.588.317 1.04.77 1.358 1.358.326.579.49 1.246.49 2.002Zm-2.03-.56c-.01-.504-.192-.905-.546-1.204-.355-.308-.789-.462-1.302-.462-.486 0-.896.15-1.232.448-.327.29-.528.695-.602 1.218h3.682ZM403.025 12l-1.596-2.408L400.015 12h-2.1l2.534-3.892-2.562-3.864h2.212l1.582 2.394 1.428-2.394h2.1l-2.548 3.864L405.237 12h-2.212Zm6.721.126c-.747 0-1.419-.163-2.016-.49a3.676 3.676 0 0 1-1.414-1.414c-.336-.607-.504-1.307-.504-2.1 0-.793.173-1.493.518-2.1a3.647 3.647 0 0 1 1.442-1.4 4.119 4.119 0 0 1 2.03-.504c.747 0 1.423.168 2.03.504a3.55 3.55 0 0 1 1.428 1.4c.355.607.532 1.307.532 2.1 0 .793-.182 1.493-.546 2.1a3.722 3.722 0 0 1-1.456 1.414c-.607.327-1.288.49-2.044.49Zm0-1.708c.355 0 .686-.084.994-.252a1.92 1.92 0 0 0 .756-.784c.187-.345.28-.765.28-1.26 0-.737-.196-1.302-.588-1.694a1.877 1.877 0 0 0-1.414-.602c-.56 0-1.031.2-1.414.602-.373.392-.56.957-.56 1.694s.182 1.307.546 1.708c.373.392.84.588 1.4.588Z" fill="#000"/><path d="M5.168 132.199c-.41.224-.723.532-.938.924-.215.392-.322.849-.322 1.372 0 .578.13 1.092.392 1.54.261.448.635.798 1.12 1.05.485.252 1.045.378 1.68.378.653 0 1.223-.126 1.708-.378a2.778 2.778 0 0 0 1.12-1.078c.261-.458.392-.99.392-1.596 0-.747-.196-1.358-.588-1.834-.401-.476-.957-.789-1.666-.938v3.36H6.568v-5.292h1.708c.681.13 1.311.41 1.89.84a4.784 4.784 0 0 1 1.4 1.666c.345.672.518 1.428.518 2.268 0 .942-.21 1.796-.63 2.562a4.752 4.752 0 0 1-1.778 1.792c-.756.429-1.615.644-2.576.644-.961 0-1.82-.215-2.576-.644a4.623 4.623 0 0 1-1.778-1.792c-.43-.766-.644-1.615-.644-2.548 0-1.102.27-2.058.812-2.87.532-.812 1.283-1.372 2.254-1.68v2.254Zm2.926-3.438c-.784 0-1.48-.154-2.086-.462-.607-.318-1.073-.742-1.4-1.274a3.431 3.431 0 0 1-.49-1.806c0-.579.117-1.083.35-1.512.233-.439.527-.789.882-1.05H4.244v-1.974H12v1.974h-1.134c.364.252.667.602.91 1.05.233.438.35.947.35 1.526 0 .653-.168 1.25-.504 1.792-.336.532-.807.956-1.414 1.274-.616.308-1.32.462-2.114.462Zm.028-6.104c-.476 0-.882.093-1.218.28a1.907 1.907 0 0 0-.784.756 1.98 1.98 0 0 0-.28 1.022c0 .364.089.7.266 1.008.177.308.439.56.784.756.336.186.737.28 1.204.28.467 0 .877-.094 1.232-.28a2.15 2.15 0 0 0 .798-.756 1.96 1.96 0 0 0 .28-1.008c0-.364-.089-.705-.266-1.022a2.027 2.027 0 0 0-.784-.756c-.345-.187-.756-.28-1.232-.28Zm-4.802-4.883c0 .346-.107.635-.322.868-.224.224-.5.336-.826.336-.327 0-.597-.112-.812-.336a1.203 1.203 0 0 1-.336-.868c0-.345.112-.63.336-.854.215-.233.485-.35.812-.35.327 0 .602.117.826.35.215.224.322.509.322.854Zm.924-.966H12v1.96H4.244v-1.96Zm-.112-6.234c0-.924.294-1.671.882-2.24.579-.569 1.39-.854 2.436-.854H12v1.96H7.716c-.616 0-1.087.154-1.414.462-.336.308-.504.728-.504 1.26 0 .541.168.971.504 1.288.327.308.798.462 1.414.462H12v1.96H4.244v-1.96h.966a2.657 2.657 0 0 1-.784-.994 3.082 3.082 0 0 1-.294-1.344Zm7.994-7.926c0 .635-.112 1.204-.336 1.708a3.135 3.135 0 0 1-.938 1.204 2.39 2.39 0 0 1-1.302.476v-1.974c.299-.037.546-.182.742-.434.196-.261.294-.583.294-.966 0-.373-.075-.663-.224-.868-.15-.215-.34-.322-.574-.322-.252 0-.439.131-.56.392-.13.252-.27.658-.42 1.218-.14.579-.285 1.055-.434 1.428a2.54 2.54 0 0 1-.686.952c-.308.261-.723.392-1.246.392-.43 0-.821-.121-1.176-.364-.355-.252-.635-.607-.84-1.064-.205-.467-.308-1.013-.308-1.638 0-.924.233-1.661.7-2.212.457-.551 1.078-.854 1.862-.91v1.876a.985.985 0 0 0-.728.392c-.187.224-.28.527-.28.91 0 .355.065.63.196.826.13.187.313.28.546.28.261 0 .462-.131.602-.392.13-.261.266-.667.406-1.218.14-.56.285-1.022.434-1.386.15-.364.383-.677.7-.938.308-.27.719-.41 1.232-.42.448 0 .85.126 1.204.378.355.243.635.597.84 1.064.196.457.294.994.294 1.61ZM209.799 233.466v1.582h-2.604v8.19h-1.96v-8.19h-2.604v-1.582h7.168Zm2.424 1.092a1.23 1.23 0 0 1-.868-.322 1.122 1.122 0 0 1-.336-.826c0-.326.112-.597.336-.812.233-.224.522-.336.868-.336.345 0 .63.112.854.336.233.215.35.486.35.812a1.1 1.1 0 0 1-.35.826c-.224.215-.509.322-.854.322Zm.966.924v7.756h-1.96v-7.756h1.96Zm11.568-.112c.952 0 1.718.294 2.296.882.588.579.882 1.391.882 2.436v4.55h-1.96v-4.284c0-.606-.154-1.068-.462-1.386-.308-.326-.728-.49-1.26-.49s-.956.164-1.274.49c-.308.318-.462.78-.462 1.386v4.284h-1.96v-4.284c0-.606-.154-1.068-.462-1.386-.308-.326-.728-.49-1.26-.49-.541 0-.97.164-1.288.49-.308.318-.462.78-.462 1.386v4.284h-1.96v-7.756h1.96v.938c.252-.326.574-.583.966-.77.402-.186.84-.28 1.316-.28.607 0 1.148.131 1.624.392.476.252.845.616 1.106 1.092a2.822 2.822 0 0 1 1.092-1.078 3.176 3.176 0 0 1 1.568-.406Zm12.248 3.822c0 .28-.019.532-.056.756h-5.67c.047.56.243.999.588 1.316.345.318.77.476 1.274.476.728 0 1.246-.312 1.554-.938h2.114a3.564 3.564 0 0 1-1.288 1.848c-.635.476-1.414.714-2.338.714-.747 0-1.419-.163-2.016-.49a3.604 3.604 0 0 1-1.386-1.414c-.327-.606-.49-1.306-.49-2.1 0-.802.163-1.507.49-2.114a3.427 3.427 0 0 1 1.372-1.4c.588-.326 1.265-.49 2.03-.49.737 0 1.395.159 1.974.476.588.318 1.041.77 1.358 1.358.327.579.49 1.246.49 2.002Zm-2.03-.56c-.009-.504-.191-.905-.546-1.204-.355-.308-.789-.462-1.302-.462-.485 0-.896.15-1.232.448-.327.29-.527.696-.602 1.218h3.682Z" fill="#2B3453"/><path d="M328.801 186.435c-.681 0-1.297-.117-1.848-.35a3.024 3.024 0 0 1-1.288-1.008c-.317-.439-.481-.957-.49-1.554h2.1c.028.401.168.719.42.952.261.233.616.35 1.064.35.457 0 .817-.107 1.078-.322a1.09 1.09 0 0 0 .392-.868.997.997 0 0 0-.266-.714 1.776 1.776 0 0 0-.672-.434 9.221 9.221 0 0 0-1.092-.364 13.148 13.148 0 0 1-1.554-.546 2.88 2.88 0 0 1-1.022-.826c-.28-.373-.42-.868-.42-1.484 0-.579.145-1.083.434-1.512.289-.429.695-.756 1.218-.98.523-.233 1.12-.35 1.792-.35 1.008 0 1.825.247 2.45.742.635.485.985 1.167 1.05 2.044h-2.156a1.091 1.091 0 0 0-.434-.826c-.261-.224-.611-.336-1.05-.336-.383 0-.691.098-.924.294-.224.196-.336.481-.336.854a.92.92 0 0 0 .252.658c.177.168.392.308.644.42.261.103.625.224 1.092.364.635.187 1.153.373 1.554.56.401.187.747.467 1.036.84.289.373.434.863.434 1.47 0 .523-.135 1.008-.406 1.456-.271.448-.667.807-1.19 1.078-.523.261-1.143.392-1.862.392Zm7.439-6.244v3.752c0 .261.061.453.182.574.131.112.346.168.644.168h.91v1.652h-1.232c-1.652 0-2.478-.803-2.478-2.408v-3.738h-.924v-1.61h.924v-1.918h1.974v1.918h1.736v1.61h-1.736Zm6.59 6.272c-.747 0-1.419-.163-2.016-.49a3.674 3.674 0 0 1-1.414-1.414c-.336-.607-.504-1.307-.504-2.1 0-.793.173-1.493.518-2.1a3.647 3.647 0 0 1 1.442-1.4 4.119 4.119 0 0 1 2.03-.504c.747 0 1.423.168 2.03.504a3.55 3.55 0 0 1 1.428 1.4c.355.607.532 1.307.532 2.1 0 .793-.182 1.493-.546 2.1a3.72 3.72 0 0 1-1.456 1.414c-.607.327-1.288.49-2.044.49Zm0-1.708c.355 0 .686-.084.994-.252a1.92 1.92 0 0 0 .756-.784c.187-.345.28-.765.28-1.26 0-.737-.196-1.302-.588-1.694a1.878 1.878 0 0 0-1.414-.602c-.56 0-1.031.201-1.414.602-.373.392-.56.957-.56 1.694s.182 1.307.546 1.708c.373.392.84.588 1.4.588Zm4.98-2.296c0-.803.163-1.503.49-2.1a3.438 3.438 0 0 1 1.358-1.4c.578-.336 1.241-.504 1.988-.504.961 0 1.754.243 2.38.728.634.476 1.059 1.148 1.274 2.016h-2.114a1.5 1.5 0 0 0-.574-.784c-.262-.196-.588-.294-.98-.294-.56 0-1.004.205-1.33.616-.327.401-.49.975-.49 1.722 0 .737.163 1.311.49 1.722.326.401.77.602 1.33.602.793 0 1.311-.355 1.554-1.064h2.114c-.215.84-.64 1.507-1.274 2.002-.635.495-1.428.742-2.38.742-.747 0-1.41-.163-1.988-.49a3.558 3.558 0 0 1-1.358-1.4c-.327-.607-.49-1.311-.49-2.114Zm13.518 3.878-2.632-3.304v3.304h-1.96v-10.36h1.96v5.894l2.604-3.29h2.548l-3.416 3.892 3.444 3.864h-2.548Zm17.573-9.772v9.772h-1.96v-6.356l-2.618 6.356h-1.484l-2.632-6.356v6.356h-1.96v-9.772h2.226l3.108 7.266 3.108-7.266h2.212Zm1.434 5.866c0-.784.154-1.479.462-2.086.317-.607.742-1.073 1.274-1.4a3.423 3.423 0 0 1 1.806-.49c.579 0 1.083.117 1.512.35a3.05 3.05 0 0 1 1.05.882v-1.106h1.974v7.756h-1.974v-1.134c-.252.364-.602.667-1.05.91-.439.233-.947.35-1.526.35a3.331 3.331 0 0 1-1.792-.504c-.532-.336-.957-.807-1.274-1.414-.308-.616-.462-1.321-.462-2.114Zm6.104.028c0-.476-.093-.882-.28-1.218a1.92 1.92 0 0 0-.756-.784 1.978 1.978 0 0 0-1.022-.28c-.364 0-.7.089-1.008.266a2.04 2.04 0 0 0-.756.784c-.187.336-.28.737-.28 1.204 0 .467.093.877.28 1.232.196.345.448.611.756.798.317.187.653.28 1.008.28.364 0 .705-.089 1.022-.266.317-.187.569-.448.756-.784.187-.345.28-.756.28-1.232Zm5.848-2.674c.252-.411.579-.733.98-.966a2.79 2.79 0 0 1 1.4-.35v2.058h-.518c-.616 0-1.082.145-1.4.434-.308.289-.462.793-.462 1.512v3.864h-1.96v-7.756h1.96v1.204Zm8.292 6.552-2.632-3.304v3.304h-1.96v-10.36h1.96v5.894l2.604-3.29h2.548l-3.416 3.892 3.444 3.864h-2.548Zm10.794-4.046c0 .28-.018.532-.056.756h-5.67c.047.56.243.999.588 1.316.346.317.77.476 1.274.476.728 0 1.246-.313 1.554-.938h2.114a3.564 3.564 0 0 1-1.288 1.848c-.634.476-1.414.714-2.338.714-.746 0-1.418-.163-2.016-.49a3.604 3.604 0 0 1-1.386-1.414c-.326-.607-.49-1.307-.49-2.1 0-.803.164-1.507.49-2.114a3.421 3.421 0 0 1 1.372-1.4c.588-.327 1.265-.49 2.03-.49.738 0 1.396.159 1.974.476a3.28 3.28 0 0 1 1.358 1.358c.327.579.49 1.246.49 2.002Zm-2.03-.56c-.009-.504-.191-.905-.546-1.204-.354-.308-.788-.462-1.302-.462-.485 0-.896.149-1.232.448-.326.289-.527.695-.602 1.218h3.682Zm5.743-1.54v3.752c0 .261.061.453.182.574.131.112.345.168.644.168h.91v1.652h-1.232c-1.652 0-2.478-.803-2.478-2.408v-3.738h-.924v-1.61h.924v-1.918h1.974v1.918h1.736v1.61h-1.736ZM391.089 64.072a2.294 2.294 0 0 0-.924-.938c-.392-.214-.849-.322-1.372-.322-.579 0-1.092.131-1.54.392a2.707 2.707 0 0 0-1.05 1.12c-.252.486-.378 1.046-.378 1.68 0 .654.126 1.223.378 1.708.261.486.621.859 1.078 1.12.457.262.989.392 1.596.392.747 0 1.358-.196 1.834-.588.476-.401.789-.956.938-1.666h-3.36v-1.498h5.292v1.708a4.6 4.6 0 0 1-.84 1.89 4.793 4.793 0 0 1-1.666 1.4c-.672.346-1.428.518-2.268.518-.943 0-1.797-.21-2.562-.63a4.752 4.752 0 0 1-1.792-1.778c-.429-.756-.644-1.614-.644-2.576 0-.961.215-1.82.644-2.576a4.623 4.623 0 0 1 1.792-1.778c.765-.429 1.615-.644 2.548-.644 1.101 0 2.058.271 2.87.812.812.532 1.372 1.284 1.68 2.254h-2.254Zm7.386 6.958c-.747 0-1.419-.163-2.016-.49a3.676 3.676 0 0 1-1.414-1.414c-.336-.606-.504-1.306-.504-2.1 0-.793.173-1.493.518-2.1a3.647 3.647 0 0 1 1.442-1.4 4.119 4.119 0 0 1 2.03-.504c.747 0 1.423.168 2.03.504a3.55 3.55 0 0 1 1.428 1.4c.355.607.532 1.307.532 2.1 0 .794-.182 1.494-.546 2.1a3.722 3.722 0 0 1-1.456 1.414c-.607.327-1.288.49-2.044.49Zm0-1.708c.355 0 .686-.084.994-.252a1.92 1.92 0 0 0 .756-.784c.187-.345.28-.765.28-1.26 0-.737-.196-1.302-.588-1.694a1.877 1.877 0 0 0-1.414-.602c-.56 0-1.031.201-1.414.602-.373.392-.56.957-.56 1.694 0 .738.182 1.307.546 1.708.373.392.84.588 1.4.588Zm7.444-8.778v10.36h-1.96v-10.36h1.96Zm1.432 6.454c0-.784.154-1.479.462-2.086.317-.606.747-1.073 1.288-1.4a3.426 3.426 0 0 1 1.806-.49c.504 0 .985.112 1.442.336a2.83 2.83 0 0 1 1.092.868v-3.682h1.988v10.36h-1.988v-1.148c-.243.383-.583.691-1.022.924-.439.234-.947.35-1.526.35a3.331 3.331 0 0 1-1.792-.504 3.57 3.57 0 0 1-1.288-1.414c-.308-.616-.462-1.32-.462-2.114Zm6.104.028c0-.476-.093-.882-.28-1.218a1.92 1.92 0 0 0-.756-.784 1.98 1.98 0 0 0-1.022-.28c-.364 0-.7.089-1.008.266a2.04 2.04 0 0 0-.756.784c-.187.336-.28.738-.28 1.204 0 .467.093.878.28 1.232.196.346.448.612.756.798.317.187.653.28 1.008.28.364 0 .705-.088 1.022-.266.317-.186.569-.448.756-.784.187-.345.28-.756.28-1.232ZM329.741 97.872v1.582h-4.074v2.506h3.122v1.554h-3.122v4.13h-1.96v-9.772h6.034Zm2.384 1.092c-.346 0-.635-.108-.868-.322a1.123 1.123 0 0 1-.336-.826c0-.327.112-.598.336-.812.233-.224.522-.336.868-.336.345 0 .63.112.854.336.233.214.35.485.35.812 0 .326-.117.602-.35.826-.224.214-.509.322-.854.322Zm.966.924v7.756h-1.96v-7.756h1.96Zm6.22 7.756-1.596-2.408-1.414 2.408h-2.1l2.534-3.892-2.562-3.864h2.212l1.582 2.394 1.428-2.394h2.1l-2.548 3.864 2.576 3.892h-2.212Zm10.487-4.046c0 .28-.019.532-.056.756h-5.67c.046.56.242.998.588 1.316.345.317.77.476 1.274.476.728 0 1.246-.313 1.554-.938h2.114a3.578 3.578 0 0 1-1.288 1.848c-.635.476-1.414.714-2.338.714-.747 0-1.419-.164-2.016-.49a3.61 3.61 0 0 1-1.386-1.414c-.327-.607-.49-1.307-.49-2.1 0-.803.163-1.508.49-2.114a3.409 3.409 0 0 1 1.372-1.4c.588-.327 1.264-.49 2.03-.49.737 0 1.395.158 1.974.476.588.317 1.04.77 1.358 1.358.326.578.49 1.246.49 2.002Zm-2.03-.56c-.01-.504-.192-.906-.546-1.204-.355-.308-.789-.462-1.302-.462-.486 0-.896.149-1.232.448-.327.289-.528.695-.602 1.218h3.682Zm2.956.7c0-.784.154-1.48.462-2.086.318-.607.747-1.074 1.288-1.4a3.428 3.428 0 0 1 1.806-.49c.504 0 .985.112 1.442.336.458.214.822.504 1.092.868v-3.682h1.988v10.36h-1.988v-1.148a2.66 2.66 0 0 1-1.022.924c-.438.233-.947.35-1.526.35-.653 0-1.25-.168-1.792-.504a3.581 3.581 0 0 1-1.288-1.414c-.308-.616-.462-1.321-.462-2.114Zm6.104.028c0-.476-.093-.882-.28-1.218a1.901 1.901 0 0 0-.756-.784 1.978 1.978 0 0 0-1.022-.28c-.364 0-.7.088-1.008.266-.308.177-.56.438-.756.784-.186.336-.28.737-.28 1.204 0 .466.094.877.28 1.232.196.345.448.611.756.798.318.186.654.28 1.008.28.364 0 .705-.089 1.022-.266a2.03 2.03 0 0 0 .756-.784c.187-.346.28-.756.28-1.232Zm10.64-5.894c1.027 0 1.928.2 2.702.602a4.234 4.234 0 0 1 1.806 1.722c.43.737.644 1.596.644 2.576s-.214 1.838-.644 2.576c-.42.728-1.022 1.292-1.806 1.694-.774.401-1.675.602-2.702.602h-3.416v-9.772h3.416Zm-.07 8.106c1.027 0 1.82-.28 2.38-.84.56-.56.84-1.349.84-2.366 0-1.018-.28-1.811-.84-2.38-.56-.58-1.353-.868-2.38-.868h-1.386v6.454h1.386Zm13.9-2.38c0 .28-.019.532-.056.756h-5.67c.046.56.242.998.588 1.316.345.317.77.476 1.274.476.728 0 1.246-.313 1.554-.938h2.114a3.578 3.578 0 0 1-1.288 1.848c-.635.476-1.414.714-2.338.714-.747 0-1.419-.164-2.016-.49a3.61 3.61 0 0 1-1.386-1.414c-.327-.607-.49-1.307-.49-2.1 0-.803.163-1.508.49-2.114a3.409 3.409 0 0 1 1.372-1.4c.588-.327 1.264-.49 2.03-.49.737 0 1.395.158 1.974.476.588.317 1.04.77 1.358 1.358.326.578.49 1.246.49 2.002Zm-2.03-.56c-.01-.504-.192-.906-.546-1.204-.355-.308-.789-.462-1.302-.462-.486 0-.896.149-1.232.448-.327.289-.528.695-.602 1.218h3.682Zm5.42-2.03a2.927 2.927 0 0 1 1.036-.882 3.148 3.148 0 0 1 1.526-.364c.663 0 1.26.163 1.792.49.542.326.966.793 1.274 1.4.318.597.476 1.292.476 2.086 0 .793-.158 1.498-.476 2.114a3.471 3.471 0 0 1-1.274 1.414 3.285 3.285 0 0 1-1.792.504c-.569 0-1.073-.117-1.512-.35a3.274 3.274 0 0 1-1.05-.882v4.802h-1.96V99.888h1.96v1.12Zm4.102 2.73c0-.467-.098-.868-.294-1.204a1.901 1.901 0 0 0-.756-.784 1.978 1.978 0 0 0-1.008-.266 2.033 2.033 0 0 0-1.764 1.064c-.186.345-.28.751-.28 1.218 0 .466.094.872.28 1.218.196.345.448.611.756.798.318.177.654.266 1.008.266.364 0 .7-.094 1.008-.28.318-.187.57-.453.756-.798.196-.346.294-.756.294-1.232Zm6.87 4.032c-.746 0-1.418-.164-2.016-.49a3.687 3.687 0 0 1-1.414-1.414c-.336-.607-.504-1.307-.504-2.1 0-.794.173-1.494.518-2.1a3.647 3.647 0 0 1 1.442-1.4 4.117 4.117 0 0 1 2.03-.504c.747 0 1.424.168 2.03.504a3.543 3.543 0 0 1 1.428 1.4c.355.606.532 1.306.532 2.1 0 .793-.182 1.493-.546 2.1a3.72 3.72 0 0 1-1.456 1.414c-.606.326-1.288.49-2.044.49Zm0-1.708c.355 0 .686-.084.994-.252.318-.178.57-.439.756-.784.187-.346.28-.766.28-1.26 0-.738-.196-1.302-.588-1.694a1.873 1.873 0 0 0-1.414-.602c-.56 0-1.031.2-1.414.602-.373.392-.56.956-.56 1.694 0 .737.182 1.306.546 1.708.374.392.84.588 1.4.588Zm8.452 1.708c-.634 0-1.204-.112-1.708-.336-.504-.234-.905-.546-1.204-.938a2.39 2.39 0 0 1-.476-1.302h1.974c.038.298.182.546.434.742.262.196.584.294.966.294.374 0 .663-.075.868-.224.215-.15.322-.341.322-.574 0-.252-.13-.439-.392-.56-.252-.131-.658-.271-1.218-.42a10.84 10.84 0 0 1-1.428-.434 2.548 2.548 0 0 1-.952-.686c-.261-.308-.392-.724-.392-1.246 0-.43.122-.822.364-1.176.252-.355.607-.635 1.064-.84.467-.206 1.013-.308 1.638-.308.924 0 1.662.233 2.212.7.551.457.854 1.078.91 1.862h-1.876a.981.981 0 0 0-.392-.728c-.224-.187-.527-.28-.91-.28-.354 0-.63.065-.826.196a.63.63 0 0 0-.28.546c0 .261.131.462.392.602.262.13.668.266 1.218.406.56.14 1.022.284 1.386.434.364.149.677.382.938.7.271.308.411.718.42 1.232 0 .448-.126.849-.378 1.204-.242.354-.597.634-1.064.84-.457.196-.994.294-1.61.294Zm5.655-8.806c-.345 0-.635-.108-.868-.322a1.123 1.123 0 0 1-.336-.826c0-.327.112-.598.336-.812.233-.224.523-.336.868-.336s.63.112.854.336c.233.214.35.485.35.812 0 .326-.117.602-.35.826-.224.214-.509.322-.854.322Zm.966.924v7.756h-1.96v-7.756h1.96Zm4.219 1.61v3.752c0 .261.06.452.182.574.13.112.345.168.644.168h.91v1.652h-1.232c-1.652 0-2.478-.803-2.478-2.408v-3.738h-.924v-1.61h.924V97.97h1.974v1.918h1.736v1.61h-1.736Z" fill="#000"/><path d="M24.214 225.186h386.205M24.214 226.396 25.465 7.563" stroke="#A1D0D7" stroke-width="2.421"/><path d="M30.4 218.9C82.198 154.026 231.92 24.278 416.404 24.278" stroke="#02C215" stroke-width="1.816"/><path opacity=".4" d="M30.4 218.9C75.704 172.732 216.333 80.396 416.404 80.396" stroke="#0C849C" stroke-width="1.194"/><path opacity=".4" d="M30.4 218.9c37.603-33.432 167.45-100.296 386.005-100.296" stroke="#0C849C" stroke-width="1.194"/><path opacity=".4" d="M30.4 218.9c38.962-66.864 80.377-184.396 153.017-184.396 86.065 0 99.276 133.174 232.535 133.174" stroke="#0C849C" stroke-width="1.038" stroke-linecap="round" stroke-linejoin="round"/><ellipse cx="344.718" cy="8.16" rx="6.74" ry="6.567" fill="#02C215"/><ellipse cx="311.83" cy="182.767" rx="6.74" ry="6.567" fill="#0C849C"/><ellipse cx="25.498" cy="7.563" rx="6.127" ry="5.97" fill="#A1D0D7"/><ellipse cx="411.504" cy="224.87" rx="6.127" ry="5.97" fill="#A1D0D7"/><ellipse cx="370.452" cy="67.86" rx="6.74" ry="6.567" fill="#0C849C"/><ellipse cx="309.409" cy="104.598" rx="6.74" ry="6.567" fill="#0C849C"/></svg>