<svg aria-hidden="true" style="width:0;height:0;position:absolute;overflow:hidden" xmlns="http://www.w3.org/2000/svg"><defs><symbol id="icon-logo" viewBox="0 0 180 32"><path fill="#2b3453" style="fill:var(--color1,#2b3453)" d="M53.933 31.783c8.531 0 14.763-4.845 14.763-11.616 0-6.77-6.231-11.615-14.763-11.615-8.574 0-14.805 4.845-14.805 11.615 0 6.771 6.231 11.616 14.805 11.616zm0-4.239c-5.263 0-8.616-3.2-8.616-7.377 0-4.21 3.353-7.376 8.616-7.376 5.22 0 8.573 3.166 8.573 7.376 0 4.177-3.353 7.377-8.573 7.377zM96.19 31.541a.518.518 0 0 0 .519-.519V9.071a.518.518 0 0 0-.519-.519h-5.123a.52.52 0 0 0-.519.519v13.923L77.467 8.925a1.169 1.169 0 0 0-.855-.373h-5.309a.519.519 0 0 0-.519.519v21.951a.52.52 0 0 0 .519.519h5.125a.519.519 0 0 0 .519-.519V16.548l13.471 14.617c.221.24.533.376.858.376h4.914zM120.827 31.541a.518.518 0 0 0 .519-.519v-3.267a.518.518 0 0 0-.519-.519h-13.814v-5.244h13.51a.52.52 0 0 0 .519-.519v-3.267a.518.518 0 0 0-.519-.519h-13.51v-4.831h13.814a.517.517 0 0 0 .519-.519V9.07a.518.518 0 0 0-.519-.519h-19.458a.519.519 0 0 0-.519.519v21.951c0 .287.232.519.519.519h19.458zM150.429 31.541a.518.518 0 0 0 .388-.864l-9.741-10.958 9.097-10.305a.519.519 0 0 0-.39-.863h-6.033a.517.517 0 0 0-.399.187l-6.403 7.672-6.489-7.675a.516.516 0 0 0-.397-.184h-5.95a.52.52 0 0 0-.39.862l9.1 10.34-9.739 10.923a.52.52 0 0 0 .387.864h5.945c.15 0 .293-.065.391-.178l7.141-8.232 7.098 8.231a.518.518 0 0 0 .393.179h5.989z"/><path fill="#2b3453" style="fill:var(--color1,#2b3453)" d="M164.555 31.956c8.734 0 15.114-4.96 15.114-11.891 0-6.932-6.38-11.892-15.114-11.892-8.777 0-15.156 4.96-15.156 11.892 0 6.931 6.379 11.891 15.156 11.891zm0-4.34c-5.387 0-8.82-3.276-8.82-7.552 0-4.311 3.432-7.553 8.82-7.553 5.344 0 8.777 3.242 8.777 7.553 0 4.275-3.432 7.552-8.777 7.552zM27.289 15.4s-4.036 7.739-4.791 9.16c-.66 1.241-1.692 1.69-3.073 1.662-1.289-.027-2.168-.605-2.743-1.687a1483.98 1483.98 0 0 1-4.194-7.984.571.571 0 0 0-1.041.061 6229.774 6229.774 0 0 0-5.429 14.737c-.112.307-.251.434-.596.429a259.171 259.171 0 0 0-4.988-.002c-.338.002-.468-.02-.308-.417 2.702-6.691 5.39-13.388 8.08-20.085.065-.162.122-.328.177-.493.424-1.263 1.277-2.045 2.61-2.192 1.367-.151 2.441.398 3.117 1.595 1.798 3.182 3.674 6.32 5.33 9.581.068.135.145.266.245.45.449-.847.855-1.653 1.296-2.44 1.391-2.488 2.784-4.974 4.195-7.45.993-1.742 2.89-2.265 4.532-1.28.566.34.929.841 1.165 1.441 2.335 5.955 4.667 11.909 7 17.864.389.993.769 1.987 1.172 2.975.129.316.148.461-.279.454a165.381 165.381 0 0 0-4.725.003c-.38.006-.468-.2-.572-.468zM8.878 3.213C8.893 1.4 10.314.029 12.155.049c1.731.019 3.139 1.468 3.131 3.222-.009 1.774-1.476 3.185-3.296 3.169-1.733-.014-3.128-1.461-3.113-3.228zM31.692 3.246a3.18 3.18 0 0 1-3.199 3.2c-1.738.001-3.193-1.432-3.206-3.157a3.201 3.201 0 0 1 3.217-3.24c1.79-.001 3.19 1.402 3.189 3.197z"/></symbol><symbol id="icon-deal" viewBox="0 0 48 32"><path fill="#d9ed92" style="fill:var(--color1,#d9ed92)" d="m40.069 18.089-.003.003-3.664-3.36a43.948 43.948 0 0 0-3.503-2.832l-4.035-3.647c-1.013-.719-2.715-.788-3.783-.152l-1.572.937c-1.068.636-2.551.348-3.295-.641l-.347-.463a2.162 2.162 0 0 1 .501-3.088l3.105-2.164-1.273-.629c-1.06-.524-2.867-.555-4.014-.071l-2.58 1.091c-1.146.486-3.023.486-4.169 0L8.856 1.982c-1.147-.484-2.764-.128-3.593.792L.564 7.992a2.177 2.177 0 0 0 .215 3.129l5.066 4.283 1.561-1.615a2.3 2.3 0 0 1 3.208-.075l.422.398c.849.798.919 2.099.211 2.993a2.294 2.294 0 0 1 3.163-.038l.423.399c.905.85.938 2.274.077 3.164l-.85.879a2.293 2.293 0 0 1 3.123-.003l.424.398c.903.85.937 2.273.077 3.164l.007.012a2.295 2.295 0 0 1 3.206-.075l.425.398c.898.845.935 2.257.088 3.149l.179.152 2.94 2.699a2.297 2.297 0 0 0 3.206-.115l.397-.423c.269-.286.437-.625.525-.979l-4.486-4.069c-.327-.297-.349-.8-.048-1.124s.811-.345 1.139-.047l7.035 6.381a2.284 2.284 0 0 0 1.911-.692l.397-.421a2.2 2.2 0 0 0 .591-1.423l-7.017-6.36c-.327-.297-.349-.8-.048-1.124s.811-.345 1.138-.047l7.8 7.071a2.254 2.254 0 0 0 1.392-.686l.398-.421a2.21 2.21 0 0 0 .56-1.921l-7.87-7.135a.789.789 0 0 1-.048-1.124.813.813 0 0 1 1.139-.047l7.635 6.922c.363-.111.705-.306.981-.6l.398-.422a2.223 2.223 0 0 0-.119-3.163L40.07 18.09z"/><path fill="#fff" style="fill:var(--color2,#fff)" d="m21.311 25.579-.426-.403a2.283 2.283 0 0 0-3.214.076l-.007-.012a2.27 2.27 0 0 0-.077-3.206l-.425-.403a2.282 2.282 0 0 0-3.131.003l.852-.89a2.267 2.267 0 0 0-.077-3.206l-.424-.404a2.282 2.282 0 0 0-3.171.039c.71-.906.64-2.223-.212-3.032l-.423-.403a2.286 2.286 0 0 0-3.216.076l-4.271 4.465a2.267 2.267 0 0 0 .078 3.206l.423.403a2.282 2.282 0 0 0 3.005.104L5.47 23.168a2.27 2.27 0 0 0 .076 3.206l.426.403a2.285 2.285 0 0 0 3.215-.076l.878-.919a2.265 2.265 0 0 0 .147 3.116l.426.404a2.285 2.285 0 0 0 3.215-.077l1.412-1.457a2.268 2.268 0 0 0 .076 3.206l.425.403a2.285 2.285 0 0 0 3.215-.076l2.405-2.515a2.27 2.27 0 0 0-.075-3.206zM47.744 9.525c.837-.928.893-2.492.124-3.476L43.892.952c-.768-.984-2.264-1.249-3.326-.588L36.69 2.781c-1.061.661-2.849.756-3.974.21l-3.797-1.842c-1.126-.546-2.882-.404-3.903.316l-4.662 3.283a2.208 2.208 0 0 0-.502 3.13l.348.469c.746 1.002 2.233 1.294 3.303.649l1.576-.949c1.071-.645 2.777-.575 3.793.154l4.046 3.695a44.067 44.067 0 0 1 3.512 2.87l3.673 3.405 7.64-8.644z"/></symbol><symbol id="icon-pig" viewBox="0 0 20 32"><path fill="#d9ed92" style="fill:var(--color1,#d9ed92)" d="M3.333 27.619h12.381a2.19 2.19 0 0 1 0 4.38H3.333a2.19 2.19 0 0 1 0-4.38z"/><path fill="#fff" style="fill:var(--color2,#fff)" d="m5.606 10.986.399.934c.015.034.042.061.076.074s.073.013.106-.001l.474-.203.032-.013.137-.051c.124-.044.306-.104.531-.164a6.913 6.913 0 0 1 1.736-.239c.644 0 1.3.112 1.797.231s.841.241.862.249l.003.001.475.176a.14.14 0 0 0 .179-.082l.353-.952a.14.14 0 0 0-.082-.179l-.475-.176c-.02-.007-.392-.144-.962-.283s-1.336-.278-2.15-.279c-.8.002-1.517.137-2.044.276-.525.138-.866.282-.901.296l-.005.002-.467.199a.139.139 0 0 0-.074.182zm12.263 5.209c.072.064.173.105.287.105s.215-.041.287-.105c.071-.064.112-.147.112-.239s-.041-.174-.112-.238c-.072-.064-.173-.105-.287-.105s-.215.041-.287.105c-.072.064-.112.147-.112.238s.04.175.112.239zM1.942 17.899H.326a.3.3 0 0 1-.302-.301V13.47c0-.081.032-.156.089-.213s.133-.089.213-.089h1.456c.193-.403.437-.786.726-1.145-.054-.128-.727-1.704-1.225-2.687-.204-.12 2.243-1.371 4.253.494a9.59 9.59 0 0 1 3.649-.705c4.37 0 7.914 2.8 7.914 6.255 0 .094-.004.187-.009.28a.76.76 0 0 0 .286.398c.062.047.136.087.213.122a.521.521 0 0 1 .135-.624.654.654 0 0 1 .432-.16c.167 0 .32.06.432.16s.185.243.185.401a.54.54 0 0 1-.05.223c.077-.035.151-.075.213-.122.196-.149.307-.344.307-.553h.218c0 .29-.156.548-.394.727s-.559.287-.911.287-.674-.108-.911-.287a1.091 1.091 0 0 1-.19-.188c-.17 1.271-.821 2.427-1.807 3.355l.303 3.068a.333.333 0 0 1-.239.353l-1.089.314a.333.333 0 0 1-.388-.167l-1.043-2.019a9.601 9.601 0 0 1-3.606.688 9.658 9.658 0 0 1-3.405-.607l-1.002 1.939a.333.333 0 0 1-.388.167l-1.089-.314a.333.333 0 0 1-.239-.353l.283-2.866a6.34 6.34 0 0 1-1.403-1.7zM12.118 5.424a1.499 1.499 0 1 1-2.998 0 1.499 1.499 0 0 1 2.998 0zM7.836 3.066a1.499 1.499 0 1 1-2.998 0 1.499 1.499 0 0 1 2.998 0zM11.547.928a.927.927 0 1 1-1.854 0 .927.927 0 0 1 1.854 0z"/></symbol><symbol id="icon-add" viewBox="0 0 32 32"><path d="M25.138 16.017a3.43 3.43 0 0 1 3.428 3.43v1.13A3.43 3.43 0 0 1 32 24.007v4.563A3.43 3.43 0 0 1 28.572 32h-6.856a3.43 3.43 0 0 1-3.428-3.43v-4.563a3.429 3.429 0 0 1 3.421-3.43v-1.13a3.43 3.43 0 0 1 3.428-3.43zm3.434 6.847h-6.856c-.561 0-1.027.404-1.124.938l-.018.206v4.563c0 .561.404 1.028.937 1.125l.205.018h6.856c.561 0 1.027-.405 1.124-.938l.018-.206v-4.563c0-.561-.404-1.028-.937-1.125l-.205-.018zM13.711 0c7.573 0 13.711 6.143 13.711 13.721l-.008.481a5.688 5.688 0 0 0-2.277-.472c0-6.324-5.116-11.443-11.426-11.443S2.285 7.406 2.285 13.721s5.116 11.434 11.426 11.434c.785 0 1.551-.079 2.292-.23v2.326a13.74 13.74 0 0 1-2.292.191C6.138 27.442 0 21.299 0 13.721S6.139 0 13.711 0zm11.433 25.145a1.143 1.143 0 1 1 0 2.287 1.143 1.143 0 0 1 0-2.287zm-.006-6.842c-.561 0-1.027.405-1.124.938l-.018.206v1.13h2.285v-1.13c0-.631-.512-1.143-1.143-1.143zM20.173 9.52c.397.396.442 1.012.134 1.458l-.132.159-7.368 7.393a1.144 1.144 0 0 1-1.459.134l-.158-.132-3.999-4.002a1.144 1.144 0 0 1 1.458-1.749l.158.132 3.19 3.192 6.56-6.582a1.142 1.142 0 0 1 1.616-.002z"/></symbol><symbol id="icon-dubble" viewBox="0 0 32 32"><path d="M20.287 0c-5.399 0-9.94 3.688-11.27 8.674C4.031 10.003.343 14.545.343 19.944c0 6.438 5.237 11.675 11.675 11.675 5.399 0 9.941-3.688 11.27-8.674 4.986-1.329 8.674-5.871 8.674-11.27C31.962 5.237 26.725 0 20.287 0zm-9.481 10.463a9.511 9.511 0 0 1 1.212-.085c.397 0 .785.032 1.17.079L10.8 12.846a9.604 9.604 0 0 1-.079-1.17c0-.412.035-.814.086-1.212zm2.019 7.184a9.545 9.545 0 0 1-1.417-2.43l4.152-4.152c.882.353 1.7.832 2.43 1.417l-5.165 5.165zm6.655-3.675a9.545 9.545 0 0 1 1.417 2.43l-4.152 4.152a9.574 9.574 0 0 1-2.43-1.417l5.165-5.165zm-7.462 15.539c-5.276 0-9.567-4.292-9.567-9.567 0-4.087 2.581-7.574 6.195-8.942-.013.224-.034.446-.034.673 0 6.438 5.237 11.675 11.675 11.675.227 0 .449-.021.673-.034-1.368 3.614-4.855 6.195-8.942 6.195zm9.482-8.354a9.511 9.511 0 0 1-1.212.086c-.397 0-.785-.032-1.17-.079l2.388-2.388c.047.384.079.773.079 1.169 0 .412-.035.814-.086 1.212zm2.159-.54c.013-.224.034-.446.034-.673 0-6.438-5.237-11.675-11.675-11.675-.227 0-.449.021-.673.034 1.368-3.614 4.854-6.195 8.942-6.195 5.275 0 9.567 4.292 9.567 9.567 0 4.087-2.581 7.574-6.195 8.942z"/></symbol><symbol id="icon-percent" viewBox="0 0 32 32"><path fill="none" stroke="#000" style="stroke:var(--color1,#000)" stroke-width="2.216" d="M31.088 16c0 8.225-6.667 14.892-14.892 14.892S1.304 24.225 1.304 16 7.971 1.108 16.196 1.108 31.088 7.775 31.088 16z"/><path d="M8.942 12.714c0-.908.256-1.602.769-2.082s1.185-.721 2.018-.721c.822 0 1.489.24 2.002.721s.769 1.175.769 2.082c0 .897-.256 1.591-.769 2.082-.512.48-1.18.721-2.002.721s-1.495-.24-2.018-.721c-.512-.491-.769-1.185-.769-2.082zm11.371-2.626-6.07 11.323h-3.011l6.07-11.323h3.011zm-8.6 1.665c-.438 0-.657.32-.657.961s.219.961.657.961c.214 0 .379-.08.496-.24.128-.16.192-.4.192-.721s-.064-.561-.192-.721a.58.58 0 0 0-.496-.24zm5.333 7.015c0-.897.256-1.586.769-2.066.523-.491 1.196-.737 2.018-.737s1.484.246 1.986.737c.512.48.769 1.169.769 2.066 0 .908-.256 1.607-.769 2.098-.502.48-1.164.721-1.986.721s-1.495-.24-2.018-.721c-.512-.491-.769-1.191-.769-2.098zm2.771-.961c-.448 0-.673.32-.673.961 0 .651.224.977.673.977.203 0 .363-.08.48-.24.128-.171.192-.416.192-.737 0-.31-.064-.545-.192-.705a.553.553 0 0 0-.48-.256z"/></symbol><symbol id="icon-facebookf" viewBox="0 0 32 32"><path fill="#2B3453" style="fill:#2b3453" d="M21.329 5.313h2.921V.225C23.746.156 22.013 0 19.994 0c-4.212 0-7.097 2.649-7.097 7.519V12H8.249v5.688h4.648V32h5.699V17.689h4.46l.708-5.688h-5.169V8.082c.001-1.644.444-2.769 2.735-2.769z"/></symbol><symbol id="icon-instagramf" viewBox="0 0 32 32"><path fill="#2B3453" style="fill:#2b3453" d="M31.969 9.408c-.075-1.7-.35-2.869-.744-3.882a7.806 7.806 0 0 0-1.851-2.838A7.867 7.867 0 0 0 26.542.844C25.523.45 24.36.175 22.66.1 20.947.019 20.403 0 16.059 0s-4.888.019-6.595.094c-1.7.075-2.869.35-3.882.744a7.803 7.803 0 0 0-2.838 1.85A7.867 7.867 0 0 0 .9 5.52C.506 6.539.231 7.702.156 9.402c-.081 1.713-.1 2.257-.1 6.601s.019 4.888.094 6.595c.075 1.7.35 2.869.744 3.882a7.895 7.895 0 0 0 1.85 2.838 7.867 7.867 0 0 0 2.832 1.844c1.019.394 2.182.669 3.882.744 1.706.075 2.25.094 6.595.094s4.888-.019 6.595-.094c1.7-.075 2.869-.35 3.882-.744a8.184 8.184 0 0 0 4.682-4.682c.394-1.019.669-2.182.744-3.882.075-1.707.094-2.251.094-6.595s-.006-4.888-.081-6.595zm-2.882 13.065c-.069 1.563-.331 2.407-.55 2.969a5.31 5.31 0 0 1-3.038 3.038c-.563.219-1.413.481-2.969.55-1.688.075-2.194.094-6.464.094s-4.782-.019-6.464-.094c-1.563-.069-2.407-.331-2.969-.55a4.926 4.926 0 0 1-1.838-1.194 4.974 4.974 0 0 1-1.194-1.838c-.219-.563-.481-1.413-.55-2.969-.075-1.688-.094-2.194-.094-6.464s.019-4.782.094-6.464c.069-1.563.331-2.407.55-2.969a4.868 4.868 0 0 1 1.2-1.838A4.974 4.974 0 0 1 6.639 3.55c.563-.219 1.413-.481 2.969-.55 1.688-.075 2.194-.094 6.464-.094 4.276 0 4.782.019 6.464.094 1.563.069 2.407.331 2.969.55a4.914 4.914 0 0 1 1.838 1.194 4.974 4.974 0 0 1 1.194 1.838c.219.563.481 1.413.55 2.969.075 1.688.094 2.194.094 6.464s-.019 4.77-.094 6.458z"/><path fill="#2B3453" style="fill:#2b3453" d="M16.059 7.783c-4.538 0-8.22 3.682-8.22 8.22s3.682 8.22 8.22 8.22c4.539 0 8.22-3.682 8.22-8.22s-3.682-8.22-8.22-8.22zm0 13.552a5.333 5.333 0 0 1 0-10.664 5.333 5.333 0 0 1 0 10.664zM26.524 7.458a1.919 1.919 0 1 1-3.838 0 1.919 1.919 0 0 1 3.838 0z"/></symbol><symbol id="icon-twitterfo" viewBox="0 0 32 32"><path fill="#2B3453" style="fill:#2b3453" d="M32 6.078c-1.19.522-2.458.868-3.78 1.036a6.523 6.523 0 0 0 2.886-3.626 13.11 13.11 0 0 1-4.16 1.588A6.574 6.574 0 0 0 22.154 3c-3.632 0-6.556 2.948-6.556 6.562 0 .52.044 1.02.152 1.496-5.454-.266-10.28-2.88-13.522-6.862a6.605 6.605 0 0 0-.898 3.316 6.57 6.57 0 0 0 2.914 5.452 6.479 6.479 0 0 1-2.964-.808v.072c0 3.188 2.274 5.836 5.256 6.446a6.548 6.548 0 0 1-1.72.216 5.8 5.8 0 0 1-1.242-.112c.85 2.598 3.262 4.508 6.13 4.57a13.182 13.182 0 0 1-8.134 2.798c-.538 0-1.054-.024-1.57-.09A18.469 18.469 0 0 0 10.064 29c12.072 0 18.672-10 18.672-18.668 0-.29-.01-.57-.024-.848A13.087 13.087 0 0 0 32 6.078z"/></symbol><symbol id="icon-linkedinf" viewBox="0 0 32 32"><path fill="#2B3453" style="fill:#2b3453" d="M31.992 32v-.001H32V20.263c0-5.741-1.236-10.164-7.948-10.164-3.227 0-5.392 1.771-6.276 3.449h-.093v-2.913h-6.364v21.364h6.627V21.42c0-2.785.528-5.479 3.977-5.479 3.399 0 3.449 3.179 3.449 5.657v10.401h6.62zM.528 10.636h6.635V32H.528V10.636zM3.843 0C1.722 0 0 1.721 0 3.843s1.721 3.879 3.843 3.879c2.121 0 3.843-1.757 3.843-3.879A3.846 3.846 0 0 0 3.843 0z"/></symbol><symbol id="icon-burger-close" viewBox="0 0 32 32"><path d="M23.733 10.304 22.229 8.8l-5.963 5.963L10.303 8.8l-1.504 1.504 5.963 5.963-5.963 5.963 1.504 1.504 5.963-5.963 5.963 5.963 1.504-1.504-5.963-5.963 5.963-5.963z"/></symbol><symbol id="icon-burger" viewBox="0 0 32 32"><path d="M6.4 11.733V9.6h19.2v2.133H6.4zm0 5.334h19.2v-2.133H6.4v2.133zm0 5.333h19.2v-2.133H6.4V22.4z"/></symbol></defs></svg>