<svg xmlns="http://www.w3.org/2000/svg" width="59" height="58" fill="none"><path d="M38.437 25.215a1.028 1.028 0 1 0 1.446 1.462l-1.447-1.462ZM52.42 13.849a1.028 1.028 0 0 0-1.023-1.034l-9.255-.049a1.028 1.028 0 0 0-.01 2.057l8.225.043-.043 8.227a1.028 1.028 0 1 0 2.056.01l.05-9.254ZM39.883 26.677l12.231-12.102-1.446-1.462-12.231 12.102 1.446 1.462Z" fill="url('#paint0_linear_504_1189')"/><rect opacity=".1" x=".793" y=".791" width="53.224" height="52.659" rx="6.453" fill="#2B3453"/><rect x="6.8" y="6.368" width="51.167" height="50.602" rx="5.425" stroke="url('#paint1_linear_504_1189')" stroke-width="2.057"/><rect x="6.8" y="28.934" width="28.357" height="28.034" rx="5.425" stroke="url('#paint2_linear_504_1189')" stroke-width="2.057"/><defs><linearGradient id="paint0_linear_504_1189" x1="34.001" y1="10.177" x2="52.206" y2="11.096" gradientUnits="userSpaceOnUse"><stop stop-color="#08899A"/><stop offset="1" stop-color="#2B3453"/></linearGradient><linearGradient id="paint1_linear_504_1189" x1="-16.677" y1="-10.617" x2="62.539" y2="-6.618" gradientUnits="userSpaceOnUse"><stop stop-color="#08899A"/><stop offset="1" stop-color="#2B3453"/></linearGradient><linearGradient id="paint2_linear_504_1189" x1="-7.056" y1="18.788" x2="38.21" y2="21.073" gradientUnits="userSpaceOnUse"><stop stop-color="#08899A"/><stop offset="1" stop-color="#2B3453"/></linearGradient></defs></svg>