<svg xmlns="http://www.w3.org/2000/svg" width="163" height="29" fill="none"><path d="M48.893 28.8c7.742 0 13.397-4.396 13.397-10.541 0-6.144-5.655-10.541-13.397-10.541-7.78 0-13.436 4.397-13.436 10.54 0 6.146 5.655 10.543 13.436 10.543Zm0-3.847c-4.776 0-7.82-2.904-7.82-6.694 0-3.821 3.044-6.695 7.82-6.695 4.737 0 7.78 2.874 7.78 6.695 0 3.79-3.043 6.694-7.78 6.694ZM87.242 28.581a.47.47 0 0 0 .471-.471V8.189a.47.47 0 0 0-.471-.471h-4.65a.47.47 0 0 0-.471.47v12.636L70.25 8.056a1.06 1.06 0 0 0-.776-.338h-4.818a.471.471 0 0 0-.471.47V28.11c0 .26.21.471.47.471h4.652c.26 0 .47-.211.47-.471V14.974L82.004 28.24c.201.218.484.342.779.342h4.46ZM109.6 28.581a.47.47 0 0 0 .471-.471v-2.965a.471.471 0 0 0-.471-.47H97.063v-4.76h12.261a.47.47 0 0 0 .471-.47V16.48a.472.472 0 0 0-.471-.471h-12.26v-4.385H109.6a.472.472 0 0 0 .471-.47V8.188a.47.47 0 0 0-.471-.471H91.942a.471.471 0 0 0-.471.47V28.11c0 .26.21.471.47.471H109.6ZM136.465 28.581a.47.47 0 0 0 .352-.784l-8.841-9.945 8.256-9.351a.47.47 0 0 0-.353-.783h-5.475a.469.469 0 0 0-.362.17l-5.81 6.962-5.889-6.965a.47.47 0 0 0-.36-.167h-5.4a.472.472 0 0 0-.353.782l8.258 9.384-8.838 9.913a.471.471 0 0 0 .351.784h5.395a.468.468 0 0 0 .355-.162l6.481-7.47 6.441 7.47c.089.102.22.162.356.162h5.436Z" fill="#fff"/><path d="M149.284 28.956c7.926 0 13.716-4.5 13.716-10.79 0-6.292-5.79-10.793-13.716-10.793-7.965 0-13.755 4.501-13.755 10.792 0 6.29 5.79 10.791 13.755 10.791Zm0-3.937c-4.89 0-8.004-2.974-8.004-6.854 0-3.912 3.114-6.854 8.004-6.854 4.85 0 7.965 2.942 7.965 6.854 0 3.88-3.115 6.854-7.965 6.854ZM24.713 13.931s-3.663 7.023-4.348 8.313c-.599 1.126-1.536 1.534-2.79 1.508-1.169-.024-1.967-.549-2.489-1.53-1.05-1.974-2.895-5.502-3.806-7.247a.518.518 0 0 0-.944.055 5884.85 5884.85 0 0 0-4.927 13.374c-.102.279-.228.394-.54.39a232.326 232.326 0 0 0-4.528-.002c-.307.002-.424-.019-.28-.379 2.453-6.072 4.893-12.15 7.334-18.227.059-.147.11-.298.16-.448.386-1.146 1.16-1.855 2.37-1.989 1.24-.137 2.214.361 2.829 1.448 1.632 2.888 3.334 5.735 4.837 8.695.061.123.131.241.222.408.408-.768.777-1.5 1.177-2.215a930.482 930.482 0 0 1 3.807-6.76c.901-1.582 2.623-2.057 4.113-1.163.513.308.843.764 1.057 1.308l6.353 16.212c.353.901.697 1.804 1.063 2.7.117.286.135.418-.253.412-1.43-.018-2.86-.02-4.288.003-.345.006-.425-.182-.52-.425M8.004 2.871c.014-1.645 1.303-2.89 2.974-2.87 1.571.017 2.849 1.332 2.842 2.923-.008 1.61-1.34 2.891-2.99 2.877-1.574-.013-2.84-1.326-2.826-2.93ZM28.709 2.902a2.885 2.885 0 0 1-2.904 2.903c-1.577.001-2.898-1.299-2.91-2.865A2.905 2.905 0 0 1 25.816 0c1.624-.001 2.895 1.273 2.894 2.902Z" fill="#fff"/></svg>