<svg xmlns="http://www.w3.org/2000/svg" width="44" height="55" fill="none"><path d="M42.218 38.63c-1.405-3.909-4.153-6.658-6.902-9.223-1.283-1.221-2.688-2.504-4.276-3.543a27.587 27.587 0 0 0-2.26-1.344c.428-.61.611-1.343.611-2.138a3.99 3.99 0 0 0-.732-2.26c.55-.671.855-1.465.855-2.382 0-1.404-.795-2.687-1.894-3.298.122-.366.306-.794.733-1.405 1.221-1.832 2.81-3.054 5.07-4.764l.794-.611c.306-.244.794-.611.916-1.344.122-.733-.244-1.344-.366-1.527-.734-1.1-1.955-1.894-3.421-2.321-1.222-.367-2.443-.428-3.604-.49h-.428a1.218 1.218 0 0 0-.06-.793c-.123-.305-.49-1.1-1.772-1.16a18.18 18.18 0 0 0-6.536.855c-.794.244-1.65.55-2.26 1.282-.366.428-.55.856-.672 1.344a5.197 5.197 0 0 0-.855-.55c-.794-.366-1.71-.427-2.81-.183-1.832.367-3.482 1.405-4.642 2.81a1.575 1.575 0 0 0-.428.856c-.06.427.061.855.306 1.221 1.527 2.26 3.176 3.298 4.764 4.276 1.16.732 2.26 1.404 3.42 2.565-1.038.672-1.71 1.893-1.71 3.237 0 .856.306 1.65.733 2.26a3.672 3.672 0 0 0-.855 2.383c0 1.038.428 1.954 1.039 2.626-4.887 2.688-9.774 5.62-12.706 10.75C.194 39.302-.356 43.212.683 46.45 1.72 49.564 4.409 51.946 8.5 53.35 11.74 54.451 15.525 55 20.046 55h.06c4.46 0 8.308-.306 11.912-.916 3.97-.672 7.879-1.771 9.773-5.192 1.588-2.749 1.771-6.475.427-10.262ZM16.32 22.444c0-.367.183-.733.427-.978a1.475 1.475 0 0 1 1.039-.428h7.879c.428 0 .794.184 1.1.49.243.243.366.61.366.915 0 .794-.672 1.466-1.466 1.466h-7.94c-.795-.06-1.405-.671-1.405-1.465Zm.121-4.704c0-.794.672-1.466 1.466-1.466h7.88c.794 0 1.466.672 1.466 1.466 0 .367-.183.733-.428.978a1.474 1.474 0 0 1-1.038.427h-7.94c-.428 0-.795-.183-1.1-.488-.183-.183-.306-.55-.306-.917Zm-2.87-7.818c-1.405-.855-2.627-1.588-3.726-3.115a6.309 6.309 0 0 1 2.993-1.65c.55-.122.977-.122 1.283 0 .61.245.916 1.222 1.221 2.077.183.489.306.916.489 1.344.183.428.305.794.489 1.283.183.61.855.977 1.466.794.61-.183.977-.794.855-1.405-.306-1.466-.428-2.626-.428-3.909 0-.55.06-1.222.305-1.588.245-.244.672-.428 1.161-.55a15.52 15.52 0 0 1 4.765-.733c-.306.61-.55 1.221-.795 1.893a9.436 9.436 0 0 0-.916 4.459c.061.61.55 1.16 1.222 1.16a1.25 1.25 0 0 0 1.221-1.099c.061-1.221.306-2.382.733-3.542 0-.061.061-.061.061-.123.122-.183.244-.488.428-.61.244-.184.794-.184 1.283-.184 1.038.061 2.076.061 2.993.367.794.244 1.405.61 1.833 1.099l-.611.488c-2.322 1.772-4.154 3.177-5.559 5.376-.611.977-.916 1.71-1.038 2.199h-6.903c-1.71-2.138-3.36-3.115-4.825-4.031ZM39.714 47.67c-1.466 2.505-4.765 3.42-8.124 4.032-3.42.61-7.208.855-11.484.916h-.06c-4.276 0-7.82-.489-10.812-1.527-2.321-.794-5.314-2.382-6.292-5.376-.855-2.565-.366-5.741 1.344-8.673 2.932-5.009 8.185-7.88 13.255-10.629l.122-.06h7.941c.366 0 .671-.061.977-.123 1.1.489 2.138 1.039 3.054 1.71 1.466 1.039 2.748 2.2 4.031 3.36 2.505 2.321 5.07 4.887 6.23 8.247 1.161 2.993 1.04 5.985-.182 8.123Zm-18.57-5.558c0 1.466-1.038 2.687-2.87 2.993v.855a.809.809 0 0 1-.794.794.808.808 0 0 1-.794-.794v-.733c-.672-.061-1.405-.183-1.955-.367-.489-.183-.733-.672-.61-1.099v-.06c.121-.55.671-.795 1.22-.612.55.183 1.1.306 1.772.306.916 0 1.527-.367 1.527-.978 0-.61-.489-.977-1.71-1.405-1.71-.61-2.932-1.404-2.932-2.993 0-1.404.977-2.565 2.748-2.87v-.733c0-.428.367-.795.795-.795.427 0 .794.367.794.795v.61c.55 0 1.038.123 1.466.184.488.122.794.61.672 1.16-.123.49-.672.795-1.161.672-.366-.122-.855-.183-1.466-.183-1.038 0-1.405.428-1.405.916 0 .55.55.855 1.955 1.405 1.954.55 2.749 1.466 2.749 2.932Zm8.613 0c0 1.466-1.038 2.687-2.87 2.993v.855a.808.808 0 0 1-.795.794.808.808 0 0 1-.794-.794v-.733c-.671-.061-1.404-.183-1.954-.367-.489-.183-.733-.672-.611-1.099v-.06c.122-.55.672-.795 1.221-.612.55.183 1.1.306 1.771.306.916 0 1.527-.367 1.527-.978 0-.61-.488-.977-1.71-1.405-1.71-.61-2.932-1.404-2.932-2.993 0-1.404.978-2.565 2.749-2.87v-.733c0-.428.366-.795.794-.795.428 0 .794.367.794.795v.61c.55 0 1.039.123 1.466.184.49.122.794.61.672 1.16-.122.49-.672.795-1.16.672-.367-.122-.855-.183-1.466-.183-1.039 0-1.405.428-1.405.916 0 .55.55.855 1.955 1.405 2.015.55 2.748 1.466 2.748 2.932Z" fill="url('#paint0_linear_732_3649')"/><defs><linearGradient id="paint0_linear_732_3649" x1="-17.941" y1="-16.667" x2="46.041" y2="-14.171" gradientUnits="userSpaceOnUse"><stop stop-color="#08899A"/><stop offset="1" stop-color="#2B3453"/></linearGradient></defs></svg>