<svg xmlns="http://www.w3.org/2000/svg" width="67" height="62" fill="none"><path fill-rule="evenodd" clip-rule="evenodd" d="M13.52 9.798h40.819c-.062 8.154-.099 16.34-.111 24.559-.011 7.303-.012 15.187-.004 23.651.002 1.775-1.4 3.216-3.134 3.22a9293.398 9293.398 0 0 1-34.55 0c-1.731-.004-3.133-1.44-3.135-3.213a9451.08 9451.08 0 0 1 .004-23.658c.012-8.07.049-16.255.11-24.559Zm15.288 28.938c7.804 0 6.166-11.092 10.116-11.092 1.317 0 2.28 1.099 2.28 2.964 0 1.666-.578 2.832-1.798 4.464-.193.266-.16.5.096.7l2.152 1.831c.257.234.45.234.674 0 1.381-1.432 2.409-3.164 2.794-5.196h2.344c.29 0 .482-.2.482-.5v-2.431c0-.3-.193-.5-.482-.5h-2.28c-.546-3.198-2.761-5.762-6.166-5.762-7.354 0-6.133 11.058-10.115 11.058-1.606 0-2.634-1.565-2.634-3.53 0-2.032.835-3.598 2.184-5.197.225-.266.193-.533-.032-.733l-2.087-1.998c-.225-.2-.45-.2-.675-.034-1.477 1.266-2.922 3.531-3.372 6.196h-2.12c-.288 0-.48.2-.48.5v2.431c0 .3.192.5.48.5h2.152c.578 3.398 2.859 6.329 6.487 6.329Zm-18.54-22.507v1.607c0 .888-.703 1.608-1.57 1.608h-6.28c-.867 0-1.57-.72-1.57-1.608V1.76c0-.888.703-1.608 1.57-1.608h62.8c.867 0 1.57.72 1.57 1.608v16.076c0 .888-.703 1.608-1.57 1.608h-6.28c-.867 0-1.57-.72-1.57-1.608V6.573h-47.1v9.656Z" fill="url('#paint0_linear_732_3747')"/><defs><linearGradient id="paint0_linear_732_3747" x1="-26.963" y1="-18.36" x2="71.143" y2="-13.071" gradientUnits="userSpaceOnUse"><stop stop-color="#08899A"/><stop offset="1" stop-color="#2B3453"/></linearGradient></defs></svg>