<svg xmlns="http://www.w3.org/2000/svg" width="78" height="65" fill="none"><circle cx="29.215" cy="28.913" r="26.858" fill="url('#paint0_linear_732_3713')" stroke="url('#paint1_linear_732_3713')" stroke-width="3.866"/><circle cx="54.007" cy="40.109" r="22.382" fill="#fff" stroke="url('#paint2_linear_732_3713')" stroke-width="3.222"/><mask id="mask0_732_3713" style="mask-type:alpha" maskUnits="userSpaceOnUse" x="30" y="16" width="48" height="49"><circle cx="54.007" cy="40.109" r="23.992" fill="#fff"/></mask><g mask="url('#mask0_732_3713')"><mask id="mask1_732_3713" style="mask-type:alpha" maskUnits="userSpaceOnUse" x="10" y="8" width="49" height="49"><circle cx="34.681" cy="32.112" r="22.382" fill="#fff" stroke="url('#paint3_linear_732_3713')" stroke-width="3.222"/></mask><g mask="url('#mask1_732_3713')" stroke-width="3.222"><path d="m50.343 12.786-22.327 38.67" stroke="url('#paint4_linear_732_3713')"/><path d="m55.341 15.452-22.326 38.67" stroke="url('#paint5_linear_732_3713')"/><path d="m60.34 18.118-22.327 38.67" stroke="url('#paint6_linear_732_3713')"/><path d="m65.338 20.783-22.326 38.67" stroke="url('#paint7_linear_732_3713')"/><path d="M70.337 23.45 48.01 62.12" stroke="url('#paint8_linear_732_3713')"/><path d="M75.335 26.116 53.01 64.786" stroke="url('#paint9_linear_732_3713')"/><path d="M80.333 28.78 58.007 67.45" stroke="url('#paint10_linear_732_3713')"/></g></g><circle cx="54.007" cy="40.109" r="22.382" stroke="url('#paint11_linear_732_3713')" stroke-width="3.222"/><defs><linearGradient id="paint0_linear_732_3713" x1="-23.862" y1="-17.327" x2="61.845" y2="-13.046" gradientUnits="userSpaceOnUse"><stop stop-color="#08899A"/><stop offset="1" stop-color="#2B3453"/></linearGradient><linearGradient id="paint1_linear_732_3713" x1="-23.862" y1="-17.327" x2="61.845" y2="-13.046" gradientUnits="userSpaceOnUse"><stop stop-color="#08899A"/><stop offset="1" stop-color="#2B3453"/></linearGradient><linearGradient id="paint2_linear_732_3713" x1="9.776" y1="1.575" x2="81.199" y2="5.143" gradientUnits="userSpaceOnUse"><stop stop-color="#08899A"/><stop offset="1" stop-color="#2B3453"/></linearGradient><linearGradient id="paint3_linear_732_3713" x1="-9.55" y1="-6.421" x2="61.873" y2="-2.854" gradientUnits="userSpaceOnUse"><stop stop-color="#08899A"/><stop offset="1" stop-color="#2B3453"/></linearGradient><linearGradient id="paint4_linear_732_3713" x1="56.743" y1=".857" x2="25.826" y2="55.67" gradientUnits="userSpaceOnUse"><stop stop-color="#08899A"/><stop offset="1" stop-color="#2B3453"/></linearGradient><linearGradient id="paint5_linear_732_3713" x1="61.742" y1="3.523" x2="30.825" y2="58.336" gradientUnits="userSpaceOnUse"><stop stop-color="#08899A"/><stop offset="1" stop-color="#2B3453"/></linearGradient><linearGradient id="paint6_linear_732_3713" x1="66.74" y1="6.189" x2="35.823" y2="61.001" gradientUnits="userSpaceOnUse"><stop stop-color="#08899A"/><stop offset="1" stop-color="#2B3453"/></linearGradient><linearGradient id="paint7_linear_732_3713" x1="71.738" y1="8.854" x2="40.822" y2="63.667" gradientUnits="userSpaceOnUse"><stop stop-color="#08899A"/><stop offset="1" stop-color="#2B3453"/></linearGradient><linearGradient id="paint8_linear_732_3713" x1="76.737" y1="11.52" x2="45.82" y2="66.332" gradientUnits="userSpaceOnUse"><stop stop-color="#08899A"/><stop offset="1" stop-color="#2B3453"/></linearGradient><linearGradient id="paint9_linear_732_3713" x1="81.736" y1="14.187" x2="50.819" y2="68.999" gradientUnits="userSpaceOnUse"><stop stop-color="#08899A"/><stop offset="1" stop-color="#2B3453"/></linearGradient><linearGradient id="paint10_linear_732_3713" x1="86.733" y1="16.851" x2="55.816" y2="71.664" gradientUnits="userSpaceOnUse"><stop stop-color="#08899A"/><stop offset="1" stop-color="#2B3453"/></linearGradient><linearGradient id="paint11_linear_732_3713" x1="9.776" y1="1.575" x2="81.199" y2="5.143" gradientUnits="userSpaceOnUse"><stop stop-color="#08899A"/><stop offset="1" stop-color="#2B3453"/></linearGradient></defs></svg>