<svg xmlns="http://www.w3.org/2000/svg" width="90" height="82" fill="none"><path d="M53.907 64.343a33.112 33.112 0 0 1-3.318 2.35c.54.03 1.082.049 1.627.049.681 0 1.367-.022 2.053-.068a46.842 46.842 0 0 0 6.155-.957c1.727-.38 3.471-.67 5.228-.867 3.913-.366 7.377.117 10.295 1.438a1.178 1.178 0 0 0 1.655-1.003l.71-12.76a1.177 1.177 0 0 0-.687-1.134 19.525 19.525 0 0 0-4.854-1.44 3.515 3.515 0 0 1-2.017 1.25c-.85.185-1.683.449-2.486.786a19.635 19.635 0 0 1 7.656 1.231l-.574 10.31a23.456 23.456 0 0 0-9.917-1.013 52.362 52.362 0 0 0-5.473.903 44.5 44.5 0 0 1-5.846.916l-.207.009Zm10.124-27.93a1.177 1.177 0 0 0-1.226-.507c-3.536.748-6.975 2.59-10.221 5.475a52.496 52.496 0 0 0-3.877 3.965 44.33 44.33 0 0 1-4.171 4.2 28.026 28.026 0 0 1-4.965 3.342c.295.747.502 1.526.618 2.321a30.27 30.27 0 0 0 5.857-3.868 46.787 46.787 0 0 0 4.397-4.416 50.58 50.58 0 0 1 3.699-3.79 20.725 20.725 0 0 1 8.375-4.75l5.637 8.65a23.477 23.477 0 0 0-8.593 5.052 52.34 52.34 0 0 0-3.878 3.966 44.289 44.289 0 0 1-4.17 4.198 26.773 26.773 0 0 1-8.744 4.966l-3.125-4.795a10.522 10.522 0 0 1-1.248 2.38l2.89 4.435c.278.427.804.626 1.296.49l.246-.07a28.892 28.892 0 0 0 10.195-5.61 46.81 46.81 0 0 0 4.395-4.415 50.738 50.738 0 0 1 3.701-3.792c2.938-2.611 6.016-4.271 9.15-4.934a1.176 1.176 0 0 0 .74-1.788L64.03 36.412Zm-34.27 28.552c4.503 0 8.21-3.707 8.21-8.21 0-4.504-3.707-8.21-8.21-8.21-4.504 0-8.21 3.706-8.21 8.21.005 4.502 3.708 8.205 8.21 8.21Z" fill="url('#paint0_linear_732_3736')"/><path d="M27.022 40.747a10.662 10.662 0 0 1 2.504 2.422 10.434 10.434 0 0 1 1.595 3.126 10.607 10.607 0 0 1 7.641 4.961 26.281 26.281 0 0 0 4.264-2.914 43.018 43.018 0 0 0 3.946-3.988 55.917 55.917 0 0 1 4.052-4.14 25.223 25.223 0 0 1 10.58-5.835c-.499-1.08-1.267-2.745-1.813-3.741a71.015 71.015 0 0 0-6.796-10.075 4.647 4.647 0 0 1 2.826-.463 3.45 3.45 0 0 1 2.229 1.823c.21.36.597.583 1.014.58a1.166 1.166 0 0 0 1.009-1.76 5.733 5.733 0 0 0-3.753-2.936 6.12 6.12 0 0 0-2.762.082l2.44-5.542a3.725 3.725 0 0 0-.282-3.554 3.438 3.438 0 0 0-2.868-1.583c-.076 0-.158 0-.234.006-1.842.129-3.231 1.19-4.21 2.029a6.158 6.158 0 0 0-2.259-1.46 2.354 2.354 0 0 0-1.536 0 6.159 6.159 0 0 0-2.258 1.46c-.98-.839-2.369-1.9-4.21-2.03-.076-.005-.159-.005-.235-.005a3.438 3.438 0 0 0-2.867 1.583 3.725 3.725 0 0 0-.282 3.554l3.126 7.102a1.144 1.144 0 0 0-.176.615c-.001.155.029.309.088.452a70.93 70.93 0 0 0-6.832 10.122 36.689 36.689 0 0 0-3.94 10.11Zm9.881-29.344a1.28 1.28 0 0 1-.137-.577c0-.65.495-1.2 1.14-1.27h.07c2.159.152 3.672 2.686 4.669 2.686a.64.64 0 0 0 .527-.329 4.654 4.654 0 0 1 2.205-1.912 4.655 4.655 0 0 1 2.205 1.912.639.639 0 0 0 .528.329c.997 0 2.51-2.534 4.668-2.686h.07c.646.07 1.14.62 1.14 1.27 0 .2-.047.398-.137.577l-3.296 7.489H40.2l-3.296-7.49Z" fill="url('#paint1_linear_732_3736')"/><path d="M78.217 29.493H61.839l.01.018c.57 1.042 1.349 2.719 1.886 3.89l.104.228a3.5 3.5 0 0 1 2.157 1.504l6.978 10.706c.362.558.558 1.21.564 1.875 1.741.307 3.438.824 5.053 1.542a3.546 3.546 0 0 1 2.064 3.4l-.712 12.76a3.533 3.533 0 0 1-3.513 3.322c-.499 0-.992-.105-1.446-.31a16.56 16.56 0 0 0-6.862-1.35c-.727 0-1.484.037-2.252.109a49.009 49.009 0 0 0-4.981.83c-2.13.479-4.29.812-6.465 1-.73.048-1.473.073-2.208.073-.53 0-1.086-.017-1.751-.052l-3.99-.212c-.97.415-1.964.776-2.976 1.08l-.269.077a3.51 3.51 0 0 1-3.91-1.463l-2.543-3.903a10.535 10.535 0 0 1-7.033 2.693 10.555 10.555 0 0 1-10.045-7.366l-.976-.22c-4.796-1.082-8.23-5.378-8.23-10.295 0-5.789 4.763-10.553 10.553-10.553 1.312 0 2.612.244 3.834.721a40.173 40.173 0 0 1 4.025-10.086l.01-.018H12.539c-2.573.003-4.689 2.119-4.692 4.692v34.012c.003 2.573 2.119 4.688 4.692 4.691h65.679c2.572-.003 4.688-2.118 4.691-4.691V34.184c-.003-2.572-2.119-4.688-4.691-4.69Z" fill="url('#paint2_linear_732_3736')"/><path d="M19.24 57.436c-.614-2 .42-9.405 9.371-11.171a8.221 8.221 0 0 0-7.573-5.044c-4.502 0-8.207 3.705-8.207 8.207a8.23 8.23 0 0 0 6.41 8.008Z" fill="url('#paint3_linear_732_3736')"/><defs><linearGradient id="paint0_linear_732_3736" x1="-2.39" y1="26.217" x2="81.645" y2="33.688" gradientUnits="userSpaceOnUse"><stop stop-color="#08899A"/><stop offset="1" stop-color="#2B3453"/></linearGradient><linearGradient id="paint1_linear_732_3736" x1="12.437" y1="-6.137" x2="63.958" y2="-4.117" gradientUnits="userSpaceOnUse"><stop stop-color="#08899A"/><stop offset="1" stop-color="#2B3453"/></linearGradient><linearGradient id="paint2_linear_732_3736" x1="-23.813" y1="16.343" x2="87.361" y2="25.948" gradientUnits="userSpaceOnUse"><stop stop-color="#08899A"/><stop offset="1" stop-color="#2B3453"/></linearGradient><linearGradient id="paint3_linear_732_3736" x1="6.175" y1="36.307" x2="29.666" y2="37.449" gradientUnits="userSpaceOnUse"><stop stop-color="#08899A"/><stop offset="1" stop-color="#2B3453"/></linearGradient></defs></svg>