<svg xmlns="http://www.w3.org/2000/svg" width="59" height="39" fill="none"><path d="M16.101 15.864v.004c0 5.818 4.733 10.55 10.551 10.55 5.818 0 10.55-4.732 10.55-10.55v-.004c-.578-13.993-20.523-13.988-21.1 0Zm2.1.002c.001-4.66 3.792-8.449 8.451-8.449 4.66 0 8.45 3.79 8.45 8.449-.465 11.213-16.437 11.21-16.9 0Z" fill="url('#paint0_linear_732_3646')" stroke="url('#paint1_linear_732_3646')" stroke-width=".2"/><path d="M52.404 12.8V4.468c0-2.151-1.749-3.9-3.9-3.9H4.8a3.904 3.904 0 0 0-3.9 3.9V27.27c0 2.152 1.749 3.9 3.9 3.9h1.933c-.307.932-.053 2.037.573 2.75-1.619 1.81-.24 4.904 2.246 4.851h45.601c1.254.028 2.231-.756 2.678-1.764.436-.982.375-2.19-.431-3.086 1.625-1.812.231-4.904-2.247-4.85h-.673c5.605-4.335 4.447-13.468-2.076-16.27ZM4.8 29.07c-.992 0-1.8-.809-1.8-1.801V4.467c0-.992.808-1.8 1.8-1.8h43.704c.992 0 1.8.808 1.8 1.8v7.672c-9.919-1.775-15.493 10.741-7.767 16.93H4.8Zm50.353 7.6H9.552a.816.816 0 0 1-.623-.267.891.891 0 0 1-.214-.582.873.873 0 0 1 .205-.581c.136-.156.343-.265.632-.27h45.602c.28.004.486.111.622.267a.89.89 0 0 1 .214.581.873.873 0 0 1-.205.582c-.136.155-.343.264-.632.27Zm0-5.5c.281.003.487.111.623.266a.89.89 0 0 1 .214.582.873.873 0 0 1-.205.581c-.136.156-.343.265-.632.27H9.552a.816.816 0 0 1-.623-.267.891.891 0 0 1-.214-.581.873.873 0 0 1 .205-.582c.136-.155.343-.264.632-.27h45.602Zm-6.651-17.102c9.952.414 9.95 14.589 0 15.001-4.135 0-7.499-3.365-7.499-7.5 0-4.136 3.364-7.5 7.499-7.501Z" fill="url('#paint2_linear_732_3646')" stroke="url('#paint3_linear_732_3646')" stroke-width=".2"/><defs><linearGradient id="paint0_linear_732_3646" x1="7.386" y1="-.846" x2="38.496" y2=".712" gradientUnits="userSpaceOnUse"><stop stop-color="#08899A"/><stop offset="1" stop-color="#2B3453"/></linearGradient><linearGradient id="paint1_linear_732_3646" x1="7.386" y1="-.846" x2="38.496" y2=".712" gradientUnits="userSpaceOnUse"><stop stop-color="#08899A"/><stop offset="1" stop-color="#2B3453"/></linearGradient><linearGradient id="paint2_linear_732_3646" x1="-23.041" y1="-10.849" x2="61.537" y2="-4.513" gradientUnits="userSpaceOnUse"><stop stop-color="#08899A"/><stop offset="1" stop-color="#2B3453"/></linearGradient><linearGradient id="paint3_linear_732_3646" x1="-23.041" y1="-10.849" x2="61.537" y2="-4.513" gradientUnits="userSpaceOnUse"><stop stop-color="#08899A"/><stop offset="1" stop-color="#2B3453"/></linearGradient></defs></svg>