<svg xmlns="http://www.w3.org/2000/svg" width="59" height="54" fill="none"><path d="m15.352 25.14 7.385 9.296" stroke="url('#paint0_linear_732_3638')" stroke-width="3"/><path d="m44.105 26.042-8.922 8.832" stroke="url('#paint1_linear_732_3638')" stroke-width="3"/><path d="M29.008 19.339v12.57" stroke="url('#paint2_linear_732_3638')" stroke-width="3"/><circle cx="28.686" cy="42.222" r="9.781" stroke="url('#paint3_linear_732_3638')" stroke-width="3"/><path transform="rotate(45 48.516 12.435)" stroke="url('#paint4_linear_732_3638')" stroke-width="3" d="M48.516 12.435h11.826v11.826H48.516z"/><path transform="rotate(45 29.178 2.121)" stroke="url('#paint5_linear_732_3638')" stroke-width="3" d="M29.178 2.121h11.826v11.826H29.178z"/><path transform="rotate(45 10.484 12.435)" stroke="url('#paint6_linear_732_3638')" stroke-width="3" d="M10.484 12.435H22.31v11.826H10.484z"/><defs><linearGradient id="paint0_linear_732_3638" x1="131.07" y1="35.659" x2="29.325" y2="137.954" gradientUnits="userSpaceOnUse"><stop stop-color="#08899A"/><stop offset="1" stop-color="#2B3453"/></linearGradient><linearGradient id="paint1_linear_732_3638" x1="-78.705" y1="22.55" x2="15.264" y2="142.726" gradientUnits="userSpaceOnUse"><stop stop-color="#08899A"/><stop offset="1" stop-color="#2B3453"/></linearGradient><linearGradient id="paint2_linear_732_3638" x1="15.508" y1="26.212" x2="42.741" y2="28.949" gradientUnits="userSpaceOnUse"><stop stop-color="#08899A"/><stop offset="1" stop-color="#2B3453"/></linearGradient><linearGradient id="paint3_linear_732_3638" x1="7.889" y1="24.105" x2="41.471" y2="25.782" gradientUnits="userSpaceOnUse"><stop stop-color="#08899A"/><stop offset="1" stop-color="#2B3453"/></linearGradient><linearGradient id="paint4_linear_732_3638" x1="42.263" y1="5.821" x2="64.331" y2="6.923" gradientUnits="userSpaceOnUse"><stop stop-color="#08899A"/><stop offset="1" stop-color="#2B3453"/></linearGradient><linearGradient id="paint5_linear_732_3638" x1="22.924" y1="-4.493" x2="44.992" y2="-3.391" gradientUnits="userSpaceOnUse"><stop stop-color="#08899A"/><stop offset="1" stop-color="#2B3453"/></linearGradient><linearGradient id="paint6_linear_732_3638" x1="4.23" y1="5.821" x2="26.298" y2="6.923" gradientUnits="userSpaceOnUse"><stop stop-color="#08899A"/><stop offset="1" stop-color="#2B3453"/></linearGradient></defs></svg>