<svg xmlns="http://www.w3.org/2000/svg" width="74" height="73" fill="none"><g opacity=".1"><path d="M5.443 34.675c-2.586 0-4.715-2.106-4.367-4.669a34.676 34.676 0 0 1 68.719 0c.348 2.563-1.781 4.67-4.367 4.67-2.587 0-4.64-2.115-5.115-4.657a25.31 25.31 0 0 0-49.755 0c-.476 2.542-2.529 4.656-5.115 4.656Z" fill="#2B3453"/><path d="m13.42 17.587 14.29 16.12c.677.763 1.889.692 2.472-.145l3.857-5.532a1.576 1.576 0 0 0-.499-2.262L15.394 15.18c-1.548-.903-3.162 1.066-1.974 2.406Z" fill="#D9ED92"/><circle cx="35.435" cy="33.819" r="14.983" fill="#2B3453"/><path d="m37.967 27.24-.293 8.85H35.51l-.311-8.85h2.767Zm-1.32 13.138c-.464 0-.849-.14-1.154-.421a1.47 1.47 0 0 1-.44-1.081c0-.428.147-.782.44-1.063.305-.293.69-.44 1.154-.44.453 0 .825.147 1.118.44.293.28.44.635.44 1.063 0 .427-.147.788-.44 1.08-.293.282-.666.422-1.117.422Z" fill="#D9ED92"/></g><mask id="path-5-inside-1_504_1260" fill="#fff"><path d="M9.202 37.544c-2.586 0-4.715-2.106-4.367-4.669a34.676 34.676 0 0 1 68.72 0c.347 2.563-1.782 4.67-4.368 4.67-2.586 0-4.639-2.115-5.115-4.657a25.31 25.31 0 0 0-49.755 0c-.476 2.542-2.528 4.656-5.115 4.656Z"/></mask><path d="M9.202 37.544c-2.586 0-4.715-2.106-4.367-4.669a34.676 34.676 0 0 1 68.72 0c.347 2.563-1.782 4.67-4.368 4.67-2.586 0-4.639-2.115-5.115-4.657a25.31 25.31 0 0 0-49.755 0c-.476 2.542-2.528 4.656-5.115 4.656Z" fill="#fff" stroke="url('#paint0_linear_504_1260')" stroke-width="4.281" mask="url('#path-5-inside-1_504_1260')"/><path d="m15.804 19.769 14.29 16.12a1.576 1.576 0 0 0 2.472-.145l3.856-5.532a1.576 1.576 0 0 0-.498-2.263L17.778 17.362c-1.548-.903-3.162 1.066-1.974 2.407Z" fill="#fff" stroke="url('#paint1_linear_504_1260')" stroke-width="1.576" stroke-linecap="round"/><circle cx="39.194" cy="36.688" r="13.913" fill="#fff" stroke="url('#paint2_linear_504_1260')" stroke-width="2.14"/><path d="m40.35 29.42-.293 8.85h-2.162l-.311-8.85h2.767Zm-1.319 13.138c-.464 0-.849-.14-1.154-.422a1.47 1.47 0 0 1-.44-1.08c0-.428.147-.782.44-1.063.305-.294.69-.44 1.154-.44.452 0 .825.146 1.118.44.293.28.44.635.44 1.062 0 .428-.147.788-.44 1.081-.293.281-.666.422-1.118.422Z" fill="url('#paint3_linear_504_1260')"/><defs><linearGradient id="paint0_linear_504_1260" x1="-24.73" y1="-18.146" x2="78.493" y2="-12.99" gradientUnits="userSpaceOnUse"><stop stop-color="#08899A"/><stop offset="1" stop-color="#2B3453"/></linearGradient><linearGradient id="paint1_linear_504_1260" x1="-3.756" y1="11.916" x2="6.724" y2=".514" gradientUnits="userSpaceOnUse"><stop stop-color="#08899A"/><stop offset="1" stop-color="#2B3453"/></linearGradient><linearGradient id="paint2_linear_504_1260" x1="11.573" y1="12.624" x2="56.175" y2="14.852" gradientUnits="userSpaceOnUse"><stop stop-color="#08899A"/><stop offset="1" stop-color="#2B3453"/></linearGradient><linearGradient id="paint3_linear_504_1260" x1="32.817" y1="-4.025" x2="43.262" y2="-3.953" gradientUnits="userSpaceOnUse"><stop stop-color="#08899A"/><stop offset="1" stop-color="#2B3453"/></linearGradient></defs></svg>