<svg xmlns="http://www.w3.org/2000/svg" width="62" height="61" fill="none"><path d="M47.248 47.254a2.365 2.365 0 0 1-2.364 2.358H21.168a2.366 2.366 0 0 1-2.365-2.358c0-7.815 6.367-14.151 14.222-14.151 7.855 0 14.222 6.336 14.222 14.15ZM33.026 36.248c-5.843 0-10.628 4.508-11.034 10.22h22.069c-.405-5.712-5.19-10.22-11.034-10.22Zm0-4.717c-4.8 0-8.691-3.872-8.691-8.648s3.891-8.648 8.691-8.648c4.8 0 8.692 3.872 8.692 8.648s-3.892 8.648-8.692 8.648Zm0-3.145c3.055 0 5.531-2.464 5.531-5.503 0-3.04-2.476-5.503-5.53-5.503-3.055 0-5.531 2.464-5.531 5.503 0 3.04 2.476 5.503 5.53 5.503Z" fill="#D9ED92"/><path d="M44.858 5.152h7.719a7.102 7.102 0 0 1 7.101 7.102v7.12M21.434 58.218h-7.719a7.102 7.102 0 0 1-7.101-7.102v-7.12M59.38 43.397v7.718a7.102 7.102 0 0 1-7.102 7.102h-7.12M6.913 19.974v-7.719a7.102 7.102 0 0 1 7.102-7.101h7.12" stroke="#D9ED92" stroke-width="3.693" stroke-linecap="round"/><g opacity=".12"><path d="M42.634 44.177a2.365 2.365 0 0 1-2.365 2.359H16.554a2.366 2.366 0 0 1-2.364-2.359c0-7.815 6.367-14.15 14.222-14.15 7.854 0 14.222 6.336 14.222 14.15ZM28.412 33.172c-5.844 0-10.629 4.508-11.034 10.22h22.069c-.406-5.712-5.19-10.22-11.034-10.22Zm0-4.718c-4.8 0-8.691-3.871-8.691-8.647s3.891-8.648 8.691-8.648c4.8 0 8.692 3.872 8.692 8.648s-3.892 8.647-8.692 8.647Zm0-3.144c3.055 0 5.53-2.464 5.53-5.503 0-3.04-2.476-5.503-5.53-5.503-3.054 0-5.53 2.464-5.53 5.503 0 3.04 2.476 5.503 5.53 5.503Z" fill="#D9ED92"/><path d="M40.244 2.076h7.718a7.102 7.102 0 0 1 7.102 7.102v7.12M16.82 55.142H9.1a7.102 7.102 0 0 1-7.102-7.102v-7.12M54.766 40.32v7.719a7.102 7.102 0 0 1-7.102 7.101h-7.12M2.299 16.898V9.178A7.102 7.102 0 0 1 9.4 2.077h7.121" stroke="#D9ED92" stroke-width="3.693" stroke-linecap="round"/></g></svg>