<svg xmlns="http://www.w3.org/2000/svg" width="98" height="64" fill="none"><g opacity=".1" fill="#D9ED92"><path d="m93.251 24.639-8.05-13.35a1.514 1.514 0 0 0-2.592 1.564l8.047 13.342c.29.487.135 1.121-.338 1.41l-5.14 3.095a1.023 1.023 0 0 1-1.402-.354L70.626 8.54l-.532-.875c-.29-.48-.133-1.11.343-1.4l5.14-3.095a1.02 1.02 0 0 1 1.4.349L79.5 7.707a1.514 1.514 0 0 0 2.594-1.562l-2.52-4.182C78.433.052 75.944-.572 74.022.574l-5.154 3.103a4.054 4.054 0 0 0-1.636 4.983l-1.493.72a3.297 3.297 0 0 1-2.582.115L52.52 5.49a12.396 12.396 0 0 0-7.153-.484l-3.617.829c-.396.09-.78.209-1.164.326h-3.164c-1.815 0-3.643.268-5.433.798L28.54 7.984h-1.742a4.061 4.061 0 0 0-1.849-4.311L19.8.573c-1.92-1.144-4.407-.519-5.543 1.385L.57 24.645a4.077 4.077 0 0 0 1.377 5.553l5.15 3.1a4.037 4.037 0 0 0 2.075.573c1.377 0 2.717-.7 3.468-1.957l.341-.567 4.662 2.927 4.02 6.411c-.643.998-.947 2.165-.817 3.362a5.176 5.176 0 0 0 1.912 3.492l.276.223c.798.64 1.727.992 2.675 1.098a5.652 5.652 0 0 0 5.63 4.95 5.62 5.62 0 0 0 1.363-.188 5.61 5.61 0 0 0 1.826 2.661 5.62 5.62 0 0 0 3.549 1.262c.524 0 1.047-.086 1.556-.233.331.643.793 1.22 1.368 1.683a5.188 5.188 0 0 0 3.855 1.129 5.213 5.213 0 0 0 3.528-1.937l.928-1.152 2.843 1.514a7.037 7.037 0 0 0 3.31.824 7.082 7.082 0 0 0 5.836-3.07c.464.123.936.19 1.405.19a5.486 5.486 0 0 0 4.845-2.9c.24-.445.39-.919.497-1.402.352.066.708.11 1.068.11.576 0 1.156-.085 1.722-.258a5.836 5.836 0 0 0 3.473-2.87 5.876 5.876 0 0 0 .673-3.078c1.608-.359 3.044-1.373 3.875-2.855 2.221-3.985-.947-6.852-2.006-7.808l-.062-.055c.973-2.393 2.952-3.455 4.134-3.892l.257.423a4.033 4.033 0 0 0 3.473 1.964c.709 0 1.426-.185 2.079-.574l5.154-3.103c1.89-1.156 2.504-3.645 1.363-5.557Zm-68.596 20.54a2.162 2.162 0 0 1-.8-1.46 2.161 2.161 0 0 1 .468-1.596l3.313-4.12a2.156 2.156 0 0 1 1.459-.798c.58-.06 1.146.103 1.597.467l.277.222c.453.364.737.883.8 1.46a2.16 2.16 0 0 1-.468 1.597l-3.313 4.12a2.176 2.176 0 0 1-3.056.331l-.277-.222Zm5.014 5.02a2.644 2.644 0 0 1-.983-1.881 5.173 5.173 0 0 0 1.662-1.35l3.313-4.12a5.15 5.15 0 0 0 1.062-2.434 2.624 2.624 0 0 1 2.445.44c.62.504.991 1.28.991 2.072 0 .194-.025.399-.069.614a2.532 2.532 0 0 1-.513 1.026l-4.198 5.221c-.126.153-.228.26-.384.38a2.624 2.624 0 0 1-3.326.032Zm6.761 3.73a2.597 2.597 0 0 1-.961-1.947c.087-.094.172-.18.262-.291l4.2-5.224c.368-.453.65-.946.858-1.477a2.603 2.603 0 0 1 2.468.445c.63.512.99 1.263.99 2.06l.002.089a2.636 2.636 0 0 1-.582 1.562l-3.533 4.383a2.623 2.623 0 0 1-.471.452c-.966.73-2.294.71-3.233-.052Zm9.593 2.362a2.21 2.21 0 0 1-1.497.822 2.2 2.2 0 0 1-1.627-.475c-.31-.25-.53-.571-.666-.927.088-.096.181-.187.262-.287l3.537-4.386a5.655 5.655 0 0 0 1.088-2.277c.61-.1 1.248.052 1.747.448a2.234 2.234 0 0 1 .34 3.13l-3.184 3.952Zm7.553-.416-2.331-1.241.32-.398a5.27 5.27 0 0 0 1.07-2.37l5.87 3.115a4.057 4.057 0 0 1-4.929.894Zm22.639-14.113a2.866 2.866 0 0 1-2.886 1.43 2.655 2.655 0 0 1-.99-.33L59.763 35.84a1.516 1.516 0 0 0-2.06.584 1.512 1.512 0 0 0 .584 2.06l12.563 7.014c.344.197.703.347 1.075.465a2.864 2.864 0 0 1-.29 1.794 2.83 2.83 0 0 1-1.682 1.39 2.814 2.814 0 0 1-2.168-.212l-12.727-6.738a1.514 1.514 0 0 0-1.417 2.675l11.52 6.098c.01.412-.078.822-.279 1.192a2.46 2.46 0 0 1-3.323 1.014l-9.745-5.173a5.31 5.31 0 0 0-1.051-1.153 5.266 5.266 0 0 0-3.772-1.117 5.707 5.707 0 0 0-1.829-2.652 5.628 5.628 0 0 0-4.084-1.227 5.685 5.685 0 0 0-2.008-3.355 5.65 5.65 0 0 0-4.765-1.1 5.164 5.164 0 0 0-1.436-1.864l-.277-.222a5.16 5.16 0 0 0-3.821-1.118 5.166 5.166 0 0 0-3.493 1.912l-1.636 2.035-3.616-5.77a1.504 1.504 0 0 0-.478-.477l-5.004-3.14 1.73-2.878a1.514 1.514 0 0 0-2.594-1.559l-3.634 6.038c-.286.478-.912.63-1.392.346l-5.138-3.093a1.037 1.037 0 0 1-.35-1.408L16.853 3.514c.285-.48.91-.632 1.391-.347l5.138 3.093c.484.296.642.926.35 1.406l-4.467 7.402a1.513 1.513 0 1 0 2.591 1.564l3.394-5.622h3.512c.146 0 .292-.021.432-.063l3.656-1.088a16.579 16.579 0 0 1 1.763-.408 16.568 16.568 0 0 0-3.141 3.671l-3.587 5.69c-1.183 1.875-.635 4.388 1.22 5.6a8.509 8.509 0 0 0 9.614-.17l7.63-5.384 16.712 8.49L74.84 37.69c2.236 2.025 1.925 3.083 1.373 4.072Zm-1.795-8.467-9.508-8.348a1.477 1.477 0 0 0-.313-.213l-17.634-8.96a1.517 1.517 0 0 0-1.617.083l-8.377 5.911a5.499 5.499 0 0 1-6.21.11 1.065 1.065 0 0 1-.318-1.452l3.586-5.69a13.393 13.393 0 0 1 8.396-5.952l3.617-.829a9.367 9.367 0 0 1 5.41.366l10.637 4.005a6.341 6.341 0 0 0 4.964-.22l1.691-.817 10.597 17.575c-1.543.664-3.61 1.966-4.92 4.431Z"/><path d="M.769 27.301 16.535 1.538l1.922-.385c.513.129 1.615.462 1.923.77.308.307 1.923 1.153 2.692 1.537.384.513 1.23 1.692 1.538 2.308.384.769.384.769.769 1.153.384.385 0 1.154.384 1.923.308.615.898.769 1.154.769.256 0 1-.154 1.923-.77 1.153-.768 1.538 0 3.076-.768 1.538-.77 1.923 0 2.307 0H41.145c1.153 0 2.307-1.154 2.691-1.538.385-.385 3.077-.385 3.846-.385.615 0 2.563.257 3.46.385l5 1.538 6.536 3.076 4.23-.384 2.307-.77-.384-3.845 3.076-2.307 3.845-2.692 1.538.77c4.743 7.434 14.228 22.379 14.228 22.687 0 .307.513 2.179.769 3.076-.257.256-.923.846-1.538 1.153-.77.385-2.307 1.923-3.076 2.308-.616.307-2.564 1.153-3.461 1.538l-2.692-3.077-1.538 1.154A28.2 28.2 0 0 1 77.29 32.3c-1.538.77-1.153 1.538-1.538 1.923-.307.307-.128 1.41 0 1.922.257.385.846 1.23 1.154 1.538.384.385 1.153 1.923 1.153 2.308 0 .384-.384 1.538-.769 1.922-.384.385-.769.77-1.538 1.154-.615.308-.769.64-.769.769L73.83 44.99c-.128.384-.384 1.307-.384 1.922 0 .616-.513 1.282-.77 1.538l-.768 1.154c-.77.385-2.384 1.154-2.692 1.154-.384 0-1.922.384-2.307 1.153-.308.615-1.41 1.538-1.923 1.923l-1.153 1.153c-1.282.257-4 .77-4.615.77-.769 0-.769 1.153-1.538 1.538-.615.307-2.05.384-2.691.384l-3.077-1.154-2.691-.769c-.385.257-1.23.77-1.538.77-.308 0-1.41 1.281-1.923 1.922h-2.692l-1.538-1.154-1.154-1.538-2.307.77-3.46-2.308-.77-2.307-1.922.77-4.23-1.539V48.45l-3.076-1.153-2.307-2.307.769-3.846-1.538-3.845-3.846-4.999-4.614-2.307-3.46 2.692L.768 27.3Z"/></g><path d="M22.783 22.386a1.511 1.511 0 0 0-2.08.508l-.07.116a1.514 1.514 0 1 0 2.588 1.57l.07-.115a1.512 1.512 0 0 0-.508-2.079Z" fill="#D9ED92"/><path d="m97.096 28.483-8.051-13.35a1.514 1.514 0 0 0-2.592 1.564l8.048 13.343c.29.487.135 1.12-.338 1.41l-5.14 3.094a1.023 1.023 0 0 1-1.403-.353L74.471 12.385l-.532-.875c-.29-.48-.133-1.11.343-1.4l5.14-3.095a1.02 1.02 0 0 1 1.4.349l2.522 4.188a1.514 1.514 0 0 0 2.594-1.562l-2.52-4.183c-1.139-1.91-3.629-2.534-5.552-1.388L72.713 7.52a4.055 4.055 0 0 0-1.636 4.984l-1.493.72a3.297 3.297 0 0 1-2.582.114L56.365 9.334a12.396 12.396 0 0 0-7.154-.483l-3.617.828c-.395.091-.78.21-1.163.327h-3.164c-1.815 0-3.643.268-5.434.797l-3.448 1.026h-1.742a4.061 4.061 0 0 0-1.849-4.311l-5.15-3.1c-1.92-1.145-4.407-.519-5.543 1.384L4.415 28.49a4.077 4.077 0 0 0 1.377 5.553l5.15 3.1a4.036 4.036 0 0 0 2.075.573c1.376 0 2.717-.7 3.468-1.957l.34-.567 4.663 2.927 4.02 6.411c-.643.998-.947 2.165-.817 3.362.15 1.38.83 2.621 1.911 3.492l.277.223c.797.64 1.727.991 2.675 1.098a5.652 5.652 0 0 0 5.63 4.95c.46 0 .916-.076 1.363-.188a5.609 5.609 0 0 0 1.825 2.661 5.62 5.62 0 0 0 3.55 1.262c.524 0 1.046-.086 1.556-.233.33.643.792 1.22 1.367 1.683a5.188 5.188 0 0 0 3.855 1.128 5.212 5.212 0 0 0 3.529-1.937l.928-1.151L56 62.393a7.036 7.036 0 0 0 3.309.825 7.082 7.082 0 0 0 5.837-3.07c.464.123.935.19 1.405.19a5.486 5.486 0 0 0 4.845-2.9c.24-.445.39-.92.496-1.402.353.066.71.11 1.069.11a5.89 5.89 0 0 0 1.722-.258 5.836 5.836 0 0 0 3.473-2.87 5.877 5.877 0 0 0 .673-3.078c1.607-.359 3.044-1.373 3.874-2.855 2.222-3.985-.946-6.852-2.005-7.808l-.063-.055c.974-2.393 2.952-3.456 4.135-3.892l.257.423a4.033 4.033 0 0 0 3.472 1.964c.71 0 1.427-.185 2.08-.575l5.153-3.102c1.89-1.157 2.504-3.645 1.364-5.557ZM28.5 49.024a2.162 2.162 0 0 1-.8-1.46 2.161 2.161 0 0 1 .468-1.596l3.313-4.12a2.155 2.155 0 0 1 1.459-.799c.58-.06 1.146.104 1.597.468l.276.222c.454.364.737.883.8 1.46a2.161 2.161 0 0 1-.467 1.597l-3.313 4.12a2.176 2.176 0 0 1-3.057.33l-.276-.222Zm5.013 5.02a2.645 2.645 0 0 1-.982-1.881 5.172 5.172 0 0 0 1.662-1.35l3.313-4.12a5.152 5.152 0 0 0 1.062-2.434 2.624 2.624 0 0 1 2.445.44c.62.504.99 1.279.99 2.072 0 .194-.024.399-.068.614a2.532 2.532 0 0 1-.513 1.026l-4.199 5.22c-.125.154-.227.26-.383.38a2.624 2.624 0 0 1-3.327.032Zm6.762 3.73a2.598 2.598 0 0 1-.961-1.947c.086-.094.172-.18.261-.291l4.2-5.224c.368-.453.65-.946.859-1.477a2.603 2.603 0 0 1 2.468.445c.63.512.99 1.262.99 2.06l.001.089a2.635 2.635 0 0 1-.581 1.562l-3.533 4.382a2.623 2.623 0 0 1-.471.453c-.967.73-2.295.71-3.233-.052Zm9.593 2.362a2.211 2.211 0 0 1-1.497.822 2.2 2.2 0 0 1-1.627-.475c-.31-.25-.53-.572-.666-.928.087-.095.181-.186.261-.286l3.537-4.386a5.653 5.653 0 0 0 1.088-2.278c.61-.099 1.249.053 1.747.449a2.234 2.234 0 0 1 .34 3.13l-3.183 3.952Zm7.553-.417-2.331-1.24.32-.398a5.269 5.269 0 0 0 1.07-2.37l5.87 3.115a4.057 4.057 0 0 1-4.93.893Zm22.638-14.113a2.866 2.866 0 0 1-2.885 1.43 2.657 2.657 0 0 1-.99-.329l-12.576-7.022a1.516 1.516 0 0 0-2.06.583 1.512 1.512 0 0 0 .584 2.06l12.563 7.015c.344.197.703.346 1.075.465a2.865 2.865 0 0 1-.29 1.794 2.829 2.829 0 0 1-1.682 1.39 2.814 2.814 0 0 1-2.168-.213l-12.727-6.738a1.514 1.514 0 0 0-1.417 2.675l11.52 6.099c.009.412-.078.821-.279 1.191a2.46 2.46 0 0 1-3.323 1.015l-9.745-5.173a5.314 5.314 0 0 0-1.052-1.154 5.266 5.266 0 0 0-3.772-1.117 5.708 5.708 0 0 0-1.828-2.65 5.627 5.627 0 0 0-4.084-1.228 5.685 5.685 0 0 0-2.008-3.356 5.65 5.65 0 0 0-4.765-1.1 5.163 5.163 0 0 0-1.437-1.863l-.276-.222a5.159 5.159 0 0 0-3.821-1.118 5.166 5.166 0 0 0-3.493 1.912l-1.636 2.034-3.617-5.768a1.504 1.504 0 0 0-.478-.478l-5.004-3.141 1.732-2.877a1.514 1.514 0 0 0-2.595-1.56L13.89 34.2c-.286.479-.912.631-1.392.347l-5.138-3.093a1.037 1.037 0 0 1-.35-1.408L20.698 7.357c.285-.48.91-.632 1.391-.346l5.138 3.093c.484.295.641.925.35 1.405l-4.467 7.403a1.513 1.513 0 0 0 2.591 1.564l3.394-5.623h3.512c.146 0 .292-.02.432-.062l3.655-1.088a16.6 16.6 0 0 1 1.764-.408 16.566 16.566 0 0 0-3.142 3.671l-3.587 5.69c-1.182 1.875-.634 4.388 1.22 5.6a8.509 8.509 0 0 0 9.615-.17l7.63-5.384 16.712 8.49 11.78 10.343c2.235 2.025 1.924 3.082 1.373 4.071Zm-1.794-8.466-9.508-8.348a1.473 1.473 0 0 0-.313-.213l-17.635-8.96a1.517 1.517 0 0 0-1.616.082l-8.377 5.912a5.499 5.499 0 0 1-6.21.11 1.065 1.065 0 0 1-.318-1.452l3.586-5.69a13.393 13.393 0 0 1 8.395-5.952l3.617-.829a9.368 9.368 0 0 1 5.41.365l10.637 4.006a6.34 6.34 0 0 0 4.965-.221l1.691-.816L83.186 32.71c-1.543.664-3.61 1.966-4.921 4.43Z" fill="#D9ED92"/></svg>