<svg xmlns="http://www.w3.org/2000/svg" width="60" height="51" fill="none"><path d="M30.096 37.832c-.507-4.44-3.616-7.993-7.611-9.325 2.283-1.966 3.742-4.885 3.742-8.12 0-5.899-4.82-10.72-10.72-10.72s-10.72 4.821-10.72 10.72c0 3.235 1.458 6.153 3.742 8.12-3.997 1.332-7.105 4.884-7.612 9.325l-.888 7.231c-.254 2.22 1.205 4.313 3.362 4.694 3.869.761 7.929 1.206 12.052 1.206 4.123 0 8.183-.38 12.052-1.206 2.157-.444 3.616-2.537 3.362-4.694l-.76-7.231Zm-14.59-24.93c4.124 0 7.486 3.362 7.486 7.485s-3.362 7.485-7.485 7.485-7.485-3.362-7.485-7.485 3.361-7.485 7.485-7.485ZM26.926 46.65c-7.359 1.459-15.542 1.459-22.9 0a1.12 1.12 0 0 1-.825-1.205l.888-7.232c.508-4.06 3.933-7.104 7.993-7.104h6.788c4.06 0 7.548 3.044 7.992 7.104l.888 7.232c.064.57-.253 1.078-.824 1.205Z" fill="url('#paint0_linear_732_3630')"/><path d="M55.566 4.338c-3.49-3.49-8.5-5.011-13.385-4.06-5.836 1.078-10.53 5.773-11.672 11.608-.888 4.568.254 9.071 3.235 12.56-.634 1.523-1.395 2.792-2.156 3.68-.761.95-.888 2.22-.19 3.298a2.68 2.68 0 0 0 2.283 1.269c.254 0 .508-.063.761-.127 2.093-.571 4.44-1.65 6.978-3.235 2.157.57 4.377.634 6.66.19 5.837-1.142 10.53-5.836 11.672-11.672.889-5.138-.634-10.022-4.186-13.511Zm.951 12.813c-.888 4.568-4.504 8.247-9.134 9.135-1.967.38-3.933.254-5.773-.317a1.638 1.638 0 0 0-1.332.19c-1.903 1.206-3.743 2.22-5.392 2.791.825-1.205 1.522-2.664 2.156-4.313.254-.57.064-1.268-.317-1.713-2.727-2.791-3.806-6.597-3.045-10.466.889-4.567 4.568-8.247 9.135-9.071.761-.127 1.523-.19 2.284-.19 3.108 0 6.026 1.205 8.246 3.425 2.791 2.727 3.933 6.597 3.172 10.53Z" fill="url('#paint1_linear_732_3630')"/><defs><linearGradient id="paint0_linear_732_3630" x1="-13.027" y1="-2.847" x2="32.996" y2="-1.128" gradientUnits="userSpaceOnUse"><stop stop-color="#08899A"/><stop offset="1" stop-color="#2B3453"/></linearGradient><linearGradient id="paint1_linear_732_3630" x1="17.654" y1="-9.907" x2="62.005" y2="-7.889" gradientUnits="userSpaceOnUse"><stop stop-color="#08899A"/><stop offset="1" stop-color="#2B3453"/></linearGradient></defs></svg>