<svg xmlns="http://www.w3.org/2000/svg" width="143" height="143" fill="none"><path d="M27.438 78.87a2.188 2.188 0 0 0-3.01.736l-.101.167a2.192 2.192 0 1 0 3.746 2.274l.1-.167a2.19 2.19 0 0 0-.735-3.01Z" fill="#CEEFE9"/><path d="m135.041 87.699-11.658-19.33c-.625-1.038-3.875-6.412-4.499-7.448l-3.648-6.056c-1.649-2.767-5.255-3.67-8.039-2.01l-7.462 4.492c-2.488 1.518-3.431 4.6-2.369 7.215l-2.161 1.043a4.774 4.774 0 0 1-3.74.166l-15.401-5.8a17.947 17.947 0 0 0-10.358-.7l-5.237 1.2c-.573.132-1.13.303-1.685.473h-4.581c-2.628 0-5.275.388-7.868 1.155l-4.993 1.484H38.82c.5-2.366-.486-4.904-2.677-6.242l-7.458-4.49c-2.78-1.655-6.381-.75-8.026 2.007L.843 87.708c-1.645 2.758-.757 6.362 1.993 8.04l7.458 4.49a5.85 5.85 0 0 0 3.004.829 5.838 5.838 0 0 0 5.022-2.834l.493-.82 6.751 4.237 5.82 9.283c-.931 1.446-1.37 3.135-1.183 4.868a7.496 7.496 0 0 0 2.768 5.057l.4.322a7.473 7.473 0 0 0 3.873 1.59 8.182 8.182 0 0 0 2.983 5.351 8.247 8.247 0 0 0 5.169 1.816c.668 0 1.328-.11 1.975-.272a8.123 8.123 0 0 0 2.642 3.854 8.137 8.137 0 0 0 5.14 1.827 8.17 8.17 0 0 0 2.253-.337 7.587 7.587 0 0 0 1.98 2.437 7.515 7.515 0 0 0 5.582 1.633 7.55 7.55 0 0 0 5.11-2.804l1.342-1.668 4.118 2.191a10.18 10.18 0 0 0 4.79 1.195c3.308 0 6.512-1.611 8.452-4.447.672.18 1.355.275 2.035.275 2.839 0 5.592-1.526 7.016-4.199.346-.643.564-1.33.718-2.029.51.096 1.026.16 1.547.16.835 0 1.674-.124 2.494-.374a8.453 8.453 0 0 0 5.028-4.156 8.502 8.502 0 0 0 .974-4.456c2.328-.52 4.408-1.989 5.611-4.134 3.216-5.77-1.371-9.921-2.904-11.306l-.09-.08c1.409-3.465 4.274-5.003 5.986-5.635l.372.613a5.84 5.84 0 0 0 5.028 2.843 5.86 5.86 0 0 0 3.011-.832l7.462-4.492c2.737-1.674 3.626-5.278 1.975-8.046Z" fill="#CEEFE9"/><path d="M67.489 55.85a2.121 2.121 0 0 0 .907 0c9.768-2.067 18.002-8.564 22.583-17.807 2.145-4.225 3.388-8.813 3.695-13.637.078-1.208-.07-7.8-.16-9.007-.235-3.223-.671-6.186-1.297-8.807a2.191 2.191 0 0 0-1.155-1.455C85.405 1.825 76.84 0 67.944 0c-8.896 0-17.462 1.825-24.12 5.138a2.187 2.187 0 0 0-1.155 1.455c-1.019 4.275-1.535 9.47-1.535 15.44 0 5.603 1.305 11.14 3.764 15.992 4.59 9.261 12.824 15.759 22.591 17.826Z" fill="#CEEFE9"/><path d="M34.499 82.561a2.19 2.19 0 0 0-3.012.736l-.101.168a2.193 2.193 0 1 0 3.748 2.275l.101-.168a2.19 2.19 0 0 0-.736-3.01Z" fill="url('#paint0_linear_325_2904')"/><path d="m142.152 91.394-11.663-19.339a2.194 2.194 0 0 0-3.755 2.265l11.659 19.33c.42.704.196 1.623-.49 2.04l-7.447 4.484a1.482 1.482 0 0 1-2.031-.512l-19.049-31.589-.77-1.267a1.485 1.485 0 0 1 .496-2.03l7.447-4.482a1.478 1.478 0 0 1 2.027.505l3.655 6.067a2.193 2.193 0 0 0 3.757-2.263l-3.65-6.058c-1.65-2.768-5.257-3.672-8.043-2.012l-7.466 4.495c-2.489 1.519-3.433 4.602-2.369 7.219l-2.163 1.043a4.775 4.775 0 0 1-3.74.166l-15.41-5.802a17.957 17.957 0 0 0-10.363-.7l-5.24 1.2c-.572.131-1.13.303-1.685.473h-4.583c-2.63 0-5.278.388-7.872 1.155l-4.995 1.486h-2.523c.5-2.368-.487-4.907-2.679-6.245l-7.462-4.492c-2.78-1.657-6.383-.75-8.03 2.007L7.89 91.403c-1.645 2.76-.756 6.366 1.995 8.045l7.461 4.491c.944.563 1.982.83 3.005.83a5.84 5.84 0 0 0 5.025-2.835l.493-.821 6.754 4.239 5.824 9.288c-.932 1.446-1.372 3.137-1.184 4.87a7.497 7.497 0 0 0 2.769 5.059l.4.322a7.472 7.472 0 0 0 3.875 1.591 8.186 8.186 0 0 0 2.985 5.354 8.254 8.254 0 0 0 5.17 1.817c.67 0 1.329-.11 1.976-.272a8.128 8.128 0 0 0 2.644 3.855 8.138 8.138 0 0 0 5.142 1.828c.76 0 1.517-.125 2.255-.337a7.582 7.582 0 0 0 1.98 2.438 7.516 7.516 0 0 0 5.585 1.634 7.548 7.548 0 0 0 5.112-2.806l1.343-1.668 4.12 2.192a10.188 10.188 0 0 0 4.793 1.195 10.26 10.26 0 0 0 8.456-4.448 7.91 7.91 0 0 0 2.035.275c2.841 0 5.595-1.527 7.019-4.201.347-.643.565-1.331.719-2.03.511.096 1.027.16 1.548.16.835 0 1.674-.124 2.495-.375a8.452 8.452 0 0 0 5.03-4.157 8.504 8.504 0 0 0 .975-4.459c2.329-.52 4.41-1.989 5.613-4.136 3.218-5.773-1.371-9.926-2.905-11.311l-.091-.08c1.411-3.467 4.277-5.005 5.99-5.637l.372.612a5.841 5.841 0 0 0 5.031 2.845 5.86 5.86 0 0 0 3.011-.832l7.466-4.495c2.739-1.675 3.628-5.28 1.976-8.05v.001Zm-99.371 29.757a3.132 3.132 0 0 1-1.16-2.115c-.09-.836.15-1.658.678-2.313l4.8-5.968a3.119 3.119 0 0 1 2.114-1.157 3.133 3.133 0 0 1 2.313.677l.4.322a3.13 3.13 0 0 1 1.16 2.114 3.13 3.13 0 0 1-.678 2.314l-4.798 5.968a3.153 3.153 0 0 1-4.428.48l-.401-.322Zm7.263 7.271a3.834 3.834 0 0 1-1.424-2.725 7.483 7.483 0 0 0 2.407-1.956l4.8-5.967c.833-1.035 1.334-2.25 1.538-3.527a3.798 3.798 0 0 1 3.542.637 3.91 3.91 0 0 1 1.436 3.003c0 .28-.036.577-.1.889a3.66 3.66 0 0 1-.743 1.485l-6.082 7.564c-.182.222-.33.376-.556.55-1.378 1.163-3.407 1.179-4.819.047Zm9.795 5.404c-.873-.703-1.351-1.727-1.393-2.821.126-.136.25-.262.38-.422l6.084-7.568c.533-.655.94-1.37 1.243-2.139a3.77 3.77 0 0 1 3.576.645 3.836 3.836 0 0 1 1.435 2.983v.13a3.816 3.816 0 0 1-.842 2.262l-5.118 6.349c-.187.235-.422.46-.682.656a3.788 3.788 0 0 1-4.683-.075Zm13.896 3.421a3.203 3.203 0 0 1-2.168 1.191 3.186 3.186 0 0 1-2.357-.688 3.154 3.154 0 0 1-.965-1.344c.127-.138.263-.27.379-.415l5.124-6.353a8.193 8.193 0 0 0 1.576-3.3 3.232 3.232 0 0 1 2.53.65 3.238 3.238 0 0 1 .492 4.534l-4.61 5.725Zm10.942-.603-3.377-1.798.464-.576a7.632 7.632 0 0 0 1.55-3.434l8.504 4.514c-1.752 1.98-4.71 2.589-7.141 1.294Zm32.795-20.445a4.151 4.151 0 0 1-4.18 2.072 3.835 3.835 0 0 1-1.434-.477L93.64 107.621a2.197 2.197 0 0 0-2.984.845 2.191 2.191 0 0 0 .846 2.984l18.199 10.163a8.077 8.077 0 0 0 1.557.673 4.15 4.15 0 0 1-.42 2.599 4.1 4.1 0 0 1-2.437 2.013 4.076 4.076 0 0 1-3.14-.308l-18.437-9.761a2.194 2.194 0 0 0-2.053 3.876l16.687 8.834a3.428 3.428 0 0 1-.402 1.726 3.563 3.563 0 0 1-4.815 1.469l-14.117-7.493a7.686 7.686 0 0 0-1.523-1.671 7.631 7.631 0 0 0-5.464-1.618 8.267 8.267 0 0 0-2.649-3.841 8.15 8.15 0 0 0-5.916-1.778 8.235 8.235 0 0 0-2.909-4.861 8.184 8.184 0 0 0-6.903-1.592c-.48-1.034-1.167-1.965-2.08-2.7l-.401-.323a7.476 7.476 0 0 0-5.536-1.619 7.483 7.483 0 0 0-5.06 2.769l-2.37 2.948-5.239-8.357a2.179 2.179 0 0 0-.692-.692l-7.25-4.55 2.509-4.168a2.193 2.193 0 0 0-3.76-2.258l-5.264 8.746a1.475 1.475 0 0 1-2.015.502l-7.444-4.48a1.502 1.502 0 0 1-.506-2.04L31.477 60.79a1.47 1.47 0 0 1 2.016-.501l7.443 4.48c.7.428.929 1.34.508 2.036l-6.473 10.723a2.192 2.192 0 1 0 3.755 2.266l4.916-8.145h5.088c.211 0 .422-.03.625-.09l5.296-1.576c.846-.25 1.699-.437 2.554-.591a23.999 23.999 0 0 0-4.55 5.318l-5.197 8.243c-1.713 2.716-.92 6.356 1.767 8.113a12.327 12.327 0 0 0 13.928-.247l11.053-7.8 24.21 12.298 17.064 14.984c3.24 2.933 2.789 4.465 1.991 5.898Zm-2.599-12.265-13.775-12.093a2.122 2.122 0 0 0-.452-.308l-25.547-12.98a2.198 2.198 0 0 0-2.342.12l-12.134 8.563a7.965 7.965 0 0 1-8.997.16 1.543 1.543 0 0 1-.46-2.104l5.195-8.244a19.402 19.402 0 0 1 12.162-8.622l5.24-1.2a13.57 13.57 0 0 1 7.837.53l15.409 5.802c2.33.877 4.949.76 7.191-.32l2.45-1.182 15.351 25.46c-2.235.961-5.229 2.848-7.129 6.418h.001Z" fill="url('#paint1_linear_325_2904')"/><path d="M74.568 59.532a2.126 2.126 0 0 0 .908 0c9.772-2.07 18.01-8.57 22.594-17.816 2.145-4.228 3.389-8.818 3.697-13.644a2.194 2.194 0 0 0-2.049-2.328c-1.257-.083-2.251.841-2.328 2.05-.27 4.227-1.356 8.243-3.24 11.956-3.921 7.912-10.876 13.5-19.128 15.392-8.252-1.892-15.207-7.48-19.136-15.41-2.159-4.26-3.3-9.113-3.3-14.035 0-5.159.399-9.668 1.19-13.42C59.706 9.54 67.203 8.04 75.023 8.04s15.317 1.5 21.246 4.235c.45 2.142.775 4.527.963 7.106a2.21 2.21 0 0 0 2.348 2.027 2.194 2.194 0 0 0 2.027-2.347c-.236-3.225-.672-6.19-1.298-8.812a2.193 2.193 0 0 0-1.157-1.455c-6.66-3.314-15.229-5.14-24.129-5.14-8.9 0-17.47 1.826-24.13 5.141a2.188 2.188 0 0 0-1.156 1.455c-1.02 4.277-1.536 9.476-1.536 15.448 0 5.605 1.305 11.145 3.766 16 4.592 9.265 12.83 15.766 22.602 17.834Z" fill="url('#paint2_linear_325_2904')"/><path d="M88.556 17.58 70.982 35.154l-6.567-6.567a2.192 2.192 0 1 0-3.1 3.1l8.118 8.119a2.194 2.194 0 0 0 3.1 0L91.655 20.68a2.192 2.192 0 1 0-3.1-3.101Z" fill="url('#paint3_linear_325_2904')"/><defs><linearGradient id="paint0_linear_325_2904" x1="29.175" y1="80.861" x2="35.854" y2="81.19" gradientUnits="userSpaceOnUse"><stop stop-color="#08899A"/><stop offset="1" stop-color="#2B3453"/></linearGradient><linearGradient id="paint1_linear_325_2904" x1="-50.262" y1="29.295" x2="151.325" y2="44.999" gradientUnits="userSpaceOnUse"><stop stop-color="#08899A"/><stop offset="1" stop-color="#2B3453"/></linearGradient><linearGradient id="paint2_linear_325_2904" x1="25.607" y1="-13.293" x2="105.359" y2="-9.477" gradientUnits="userSpaceOnUse"><stop stop-color="#08899A"/><stop offset="1" stop-color="#2B3453"/></linearGradient><linearGradient id="paint3_linear_325_2904" x1="47.333" y1="9.813" x2="94.312" y2="12.97" gradientUnits="userSpaceOnUse"><stop stop-color="#08899A"/><stop offset="1" stop-color="#2B3453"/></linearGradient></defs></svg>