<svg xmlns="http://www.w3.org/2000/svg" width="117" height="115" fill="none"><path d="M32.663 57.18c15.765 0 28.59-12.826 28.59-28.59S48.428 0 32.663 0C16.9 0 4.075 12.826 4.075 28.588c0 15.763 12.824 28.592 28.588 28.592ZM109.275 62.277h-22.03c-.93 0-1.682.753-1.682 1.682v3.218c-3.935.05-7.002.048-8.361-.004-2.004-.093-3.662-.001-5.2.274-3.455.598-7.071 2.136-10.752 4.574a17.909 17.909 0 0 1-9.95 3.01h-9.154c-3.188 0-5.955 1.848-7.185 4.486L12.643 66.114A8.223 8.223 0 0 0 6.38 65.08a8.199 8.199 0 0 0-5.134 3.693 8.223 8.223 0 0 0-1.243 4.091c-.094 2.944 1.403 5.739 3.884 7.278l39.83 25.523c.088.058 6.06 3.931 14.751 3.927 4.175 0 8.979-.893 14.055-3.528.062-.034.12-.067.177-.107 1.3-.812 8.507-4.778 12.862-6.108v3.039c0 .929.753 1.682 1.682 1.682h22.03c.927 0 1.681-.753 1.681-1.682V63.959c0-.93-.754-1.682-1.681-1.682Z" fill="#CEEFE9"/><path d="M37.8 62.405c15.82 0 28.691-12.87 28.691-28.69 0-15.82-12.87-28.69-28.69-28.69-15.82 0-28.689 12.87-28.689 28.688s12.87 28.692 28.689 28.692Zm0-54.005c13.96 0 25.316 11.355 25.316 25.315S51.76 59.03 37.8 59.03c-13.958 0-25.315-11.355-25.315-25.316C12.486 19.755 23.84 8.4 37.8 8.4Z" fill="url('#paint0_linear_325_2914')"/><path d="M29.404 44.954c.157.157.386.317.69.478.307.162.669.322 1.088.477.421.155.887.3 1.402.426.515.129 1.065.235 1.648.317l-.428 4.125a.722.722 0 0 0 .031.407c.049.122.146.22.294.296.15.073.357.13.62.172.262.042.614.06 1.047.06.337 0 .62-.017.844-.05.222-.034.4-.076.529-.132a.513.513 0 0 0 .264-.202.765.765 0 0 0 .092-.285l.426-4.35c1.302-.109 2.488-.366 3.558-.772 1.072-.405 1.985-.95 2.745-1.626a7.036 7.036 0 0 0 1.76-2.42c.413-.936.619-1.987.619-3.153 0-1.098-.169-2.037-.508-2.815a6.323 6.323 0 0 0-1.342-1.993 7.91 7.91 0 0 0-1.901-1.384 20.753 20.753 0 0 0-2.175-.984 110.12 110.12 0 0 0-2.175-.813 13.41 13.41 0 0 1-1.91-.854c-.562-.31-1.014-.685-1.352-1.119-.337-.433-.508-.97-.508-1.607 0-.405.075-.778.223-1.119.15-.337.38-.628.69-.873.312-.245.72-.435 1.22-.57.501-.135 1.105-.203 1.81-.203.772 0 1.48.09 2.124.265a14.753 14.753 0 0 1 2.957 1.138c.34.175.597.262.773.262a.403.403 0 0 0 .244-.071c.067-.045.128-.143.182-.284a2.35 2.35 0 0 0 .111-.619c.021-.271.032-.616.032-1.037 0-.313-.007-.586-.021-.825a4.425 4.425 0 0 0-.071-.61 1.588 1.588 0 0 0-.143-.426 1.48 1.48 0 0 0-.264-.347c-.115-.113-.322-.243-.62-.386a9.865 9.865 0 0 0-.997-.405 9.964 9.964 0 0 0-1.18-.334 14.13 14.13 0 0 0-1.198-.225l.407-3.843c0-.15-.02-.283-.06-.405-.04-.122-.136-.221-.286-.296a2.273 2.273 0 0 0-.64-.172 7.286 7.286 0 0 0-1.048-.061c-.353 0-.638.014-.854.04-.217.028-.39.07-.518.13a.612.612 0 0 0-.265.204.675.675 0 0 0-.092.275l-.405 4.087c-1.18.134-2.234.396-3.161.78-.928.389-1.71.893-2.347 1.516a6.372 6.372 0 0 0-1.463 2.185c-.34.834-.509 1.76-.509 2.775 0 1.126.168 2.084.5 2.878.33.791.776 1.466 1.33 2.021a8.21 8.21 0 0 0 1.881 1.404c.698.38 1.415.712 2.145.995.731.286 1.446.552 2.144.804a12.18 12.18 0 0 1 1.88.853c.556.32 1 .688 1.333 1.11.33.419.498.955.498 1.605 0 .976-.386 1.76-1.159 2.349-.772.59-1.952.885-3.537.885-1.016 0-1.901-.102-2.653-.306-.752-.203-1.392-.426-1.92-.671a14.217 14.217 0 0 1-1.302-.672c-.34-.203-.595-.304-.772-.304a.684.684 0 0 0-.357.092c-.103.06-.186.172-.254.334-.068.162-.115.393-.143.69-.027.298-.04.68-.04 1.139 0 .596.035 1.047.103 1.351.066.313.177.543.334.698Zm85.275 22.566H92.573c-.933 0-1.688.755-1.688 1.688v3.229c-3.95.05-7.027.049-8.39-.004-2.012-.094-3.675-.002-5.218.275-3.468.6-7.097 2.144-10.79 4.59a17.972 17.972 0 0 1-9.985 3.02h-9.186c-3.199 0-5.976 1.854-7.21 4.502L17.708 71.37a8.253 8.253 0 0 0-6.284-1.038 8.227 8.227 0 0 0-5.151 3.705 8.253 8.253 0 0 0-1.247 4.106c-.094 2.954 1.407 5.759 3.897 7.304l39.969 25.612c.088.058 6.082 3.944 14.803 3.941 4.19 0 9.01-.896 14.104-3.541a2.08 2.08 0 0 0 .178-.108c1.305-.814 8.537-4.794 12.907-6.129v3.05c0 .933.755 1.688 1.688 1.688h22.106c.931 0 1.688-.755 1.688-1.688V69.208c0-.933-.757-1.688-1.688-1.688Zm-23.792 34.207c-2.098.517-4.96 1.67-8.567 3.466-3.533 1.757-5.28 2.682-6.141 3.305-11.556 5.969-22.262 1.846-25.44-.264l-40.015-25.64A4.869 4.869 0 0 1 8.4 78.25a4.87 4.87 0 0 1 .741-2.43 4.873 4.873 0 0 1 3.057-2.203 4.91 4.91 0 0 1 3.754.63l23.475 14.099c.008.196.017.384.04.626l.031.195c.004.02.024.158.03.18a7.719 7.719 0 0 0 2.105 4.013 7.613 7.613 0 0 0 5.415 2.244h21.493a1.687 1.687 0 1 0 0-3.375H47.05a4.256 4.256 0 0 1-3.031-1.258c-.592-.591-1.01-1.397-1.187-2.317l-.024-.13a4.802 4.802 0 0 1-.014-.872c.002-.018 0-.032.004-.047.161-2.194 2.143-3.913 4.521-3.913h9.186c4.228 0 8.327-1.24 11.851-3.584 3.299-2.185 6.495-3.554 9.51-4.078 1.301-.235 2.724-.303 4.493-.228 1.87.072 5.836.038 8.529.007v25.917Zm22.107 4.858H94.26v-32.47c0-.013.007-.025.007-.038 0-.012-.007-.022-.007-.034v-3.15h18.734v35.692Z" fill="url('#paint1_linear_325_2914')"/><defs><linearGradient id="paint0_linear_325_2914" x1="-15.088" y1="-12.364" x2="70.316" y2="-8.098" gradientUnits="userSpaceOnUse"><stop stop-color="#08899A"/><stop offset="1" stop-color="#2B3453"/></linearGradient><linearGradient id="paint1_linear_325_2914" x1="-41.939" y1="-14.382" x2="123.684" y2="-5.105" gradientUnits="userSpaceOnUse"><stop stop-color="#08899A"/><stop offset="1" stop-color="#2B3453"/></linearGradient></defs></svg>