<svg xmlns="http://www.w3.org/2000/svg" width="64" height="59" fill="none"><g opacity=".1" fill="#2B3453"><rect x="1.199" y="46.387" width="57.972" height="9.338" rx="3.389"/><rect x="1.22" y="12.732" width="57.972" height="5.836" rx="2.918" transform="rotate(-11.885 1.22 12.732)"/><path d="M30.38 1.643a4.669 4.669 0 0 1 4.669 4.668v42.02H25.71V6.312a4.669 4.669 0 0 1 4.669-4.668Z"/><circle cx="53.53" cy="25.96" r="5.642"/><circle cx="6.063" cy="35.688" r="5.642"/><circle cx="30.186" cy="9.619" r="7.976"/></g><path d="M58.393 9.742v18.092" stroke="url('#paint0_linear_504_1238')" stroke-width="2.118" stroke-linecap="round"/><path d="M10.926 19.469V37.56" stroke="url('#paint1_linear_504_1238')" stroke-width="2.118" stroke-linecap="round"/><rect x="6.927" y="50.098" width="55.854" height="7.219" rx="2.33" stroke="url('#paint2_linear_504_1238')" stroke-width="2.118"/><rect x="7.143" y="16.203" width="55.854" height="3.718" rx="1.859" transform="rotate(-11.885 7.143 16.203)" stroke="url('#paint3_linear_504_1238')" stroke-width="2.118"/><path d="M35.048 5.354a3.61 3.61 0 0 1 3.61 3.61v40.961h-7.22V8.964a3.61 3.61 0 0 1 3.61-3.61Z" stroke="url('#paint4_linear_504_1238')" stroke-width="2.118"/><circle cx="58.199" cy="28.612" r="4.582" fill="#fff" stroke="url('#paint5_linear_504_1238')" stroke-width="2.118"/><circle cx="10.731" cy="38.341" r="4.582" fill="#fff" stroke="url('#paint6_linear_504_1238')" stroke-width="2.118"/><circle cx="34.855" cy="12.271" r="6.917" fill="#fff" stroke="url('#paint7_linear_504_1238')" stroke-width="2.118"/><defs><linearGradient id="paint0_linear_504_1238" x1="57.971" y1="4.26" x2="59.463" y2="4.264" gradientUnits="userSpaceOnUse"><stop stop-color="#08899A"/><stop offset="1" stop-color="#2B3453"/></linearGradient><linearGradient id="paint1_linear_504_1238" x1="10.504" y1="13.986" x2="11.996" y2="13.99" gradientUnits="userSpaceOnUse"><stop stop-color="#08899A"/><stop offset="1" stop-color="#2B3453"/></linearGradient><linearGradient id="paint2_linear_504_1238" x1="-18.583" y1="46.209" x2="60.333" y2="70.68" gradientUnits="userSpaceOnUse"><stop stop-color="#08899A"/><stop offset="1" stop-color="#2B3453"/></linearGradient><linearGradient id="paint3_linear_504_1238" x1="-18.563" y1="13.616" x2="50.854" y2="48.056" gradientUnits="userSpaceOnUse"><stop stop-color="#08899A"/><stop offset="1" stop-color="#2B3453"/></linearGradient><linearGradient id="paint4_linear_504_1238" x1="42.547" y1="-15.397" x2="26.17" y2="50.18" gradientUnits="userSpaceOnUse"><stop stop-color="#08899A"/><stop offset="1" stop-color="#2B3453"/></linearGradient><linearGradient id="paint5_linear_504_1238" x1="47.798" y1="19.552" x2="64.593" y2="20.39" gradientUnits="userSpaceOnUse"><stop stop-color="#08899A"/><stop offset="1" stop-color="#2B3453"/></linearGradient><linearGradient id="paint6_linear_504_1238" x1=".33" y1="29.28" x2="17.125" y2="30.119" gradientUnits="userSpaceOnUse"><stop stop-color="#08899A"/><stop offset="1" stop-color="#2B3453"/></linearGradient><linearGradient id="paint7_linear_504_1238" x1="20.15" y1="-.539" x2="43.894" y2=".647" gradientUnits="userSpaceOnUse"><stop stop-color="#08899A"/><stop offset="1" stop-color="#2B3453"/></linearGradient></defs></svg>