<svg xmlns="http://www.w3.org/2000/svg" width="61" height="61" viewBox="0 0 61 61" fill="none"><path d="M45.5554 47.1216C45.5554 48.505 44.4274 49.6396 43.0306 49.6396H17.7136C16.3227 49.6396 15.1888 48.5091 15.1888 47.1216C15.1888 38.7788 21.9864 32.015 30.3718 32.015C38.7572 32.015 45.5547 38.779 45.5547 47.1216H45.5554ZM30.3724 35.3723C24.1338 35.3723 19.0256 40.185 18.5931 46.2828H42.1523C41.7198 40.185 36.6116 35.3723 30.373 35.3723H30.3724ZM30.3724 30.3365C25.2482 30.3365 21.0936 26.2034 21.0936 21.1049C21.0936 16.006 25.2482 11.8728 30.3724 11.8728C35.4966 11.8728 39.6512 16.0058 39.6512 21.1049C39.6512 26.2034 35.4966 30.3365 30.3724 30.3365ZM30.3724 26.9797C33.6331 26.9797 36.2767 24.3494 36.2767 21.1051C36.2767 17.8602 33.6331 15.2298 30.3724 15.2298C27.1117 15.2298 24.4681 17.8602 24.4681 21.1051C24.4681 24.3494 27.1117 26.9797 30.3724 26.9797Z" fill="url(#paint0_linear_732_3838)"></path><path d="M43.0035 2.17523H49.5905C54.6904 2.17523 58.8247 6.30955 58.8247 11.4095V17.3585" stroke="url(#paint1_linear_732_3838)" stroke-width="3" stroke-linecap="round"></path><path d="M17.9962 58.8252L11.4093 58.8252C6.30933 58.8252 2.17501 54.6909 2.17501 49.5909L2.17501 43.6419" stroke="url(#paint2_linear_732_3838)" stroke-width="3" stroke-linecap="round"></path><path d="M58.5061 43.0042L58.5061 49.5911C58.5061 54.691 54.3718 58.8254 49.2719 58.8254L43.3228 58.8254" stroke="url(#paint3_linear_732_3838)" stroke-width="3" stroke-linecap="round"></path><path d="M2.49377 17.9963L2.49378 11.4093C2.49378 6.30939 6.62809 2.17507 11.728 2.17507L17.677 2.17507" stroke="url(#paint4_linear_732_3838)" stroke-width="3" stroke-linecap="round"></path><defs><linearGradient id="paint0_linear_732_3838" x1="2.3812" y1="0.42834" x2="47.6196" y2="2.24509" gradientUnits="userSpaceOnUse"><stop stop-color="#08899A"></stop><stop offset="1" stop-color="#2B3453"></stop></linearGradient><linearGradient id="paint1_linear_732_3838" x1="36.3307" y1="-2.42575" x2="59.8745" y2="-1.20042" gradientUnits="userSpaceOnUse"><stop stop-color="#08899A"></stop><stop offset="1" stop-color="#2B3453"></stop></linearGradient><linearGradient id="paint2_linear_732_3838" x1="24.6691" y1="63.4262" x2="1.1253" y2="62.2008" gradientUnits="userSpaceOnUse"><stop stop-color="#08899A"></stop><stop offset="1" stop-color="#2B3453"></stop></linearGradient><linearGradient id="paint3_linear_732_3838" x1="63.1071" y1="36.3313" x2="61.8818" y2="59.8751" gradientUnits="userSpaceOnUse"><stop stop-color="#08899A"></stop><stop offset="1" stop-color="#2B3453"></stop></linearGradient><linearGradient id="paint4_linear_732_3838" x1="-2.10721" y1="24.6692" x2="-0.881872" y2="1.12536" gradientUnits="userSpaceOnUse"><stop stop-color="#08899A"></stop><stop offset="1" stop-color="#2B3453"></stop></linearGradient></defs></svg>