<svg xmlns="http://www.w3.org/2000/svg" width="77" height="77" viewBox="0 0 77 77" fill="none"><path d="M60.4875 38.5401C65.0427 38.5401 68.7358 42.2354 68.7358 46.7937V49.5136C73.3075 49.5136 77 53.2086 77 57.7675V68.7462C77 73.3045 73.3075 77 68.7517 77H52.2551C47.6999 77 44.0068 73.3045 44.0068 68.7462V57.7675C44.0068 53.2141 47.6911 49.5224 52.2392 49.5136V46.7937C52.2392 42.2354 55.9322 38.5401 60.4875 38.5401ZM68.7517 55.0162H52.2551C50.9056 55.0162 49.7828 55.9892 49.55 57.2728L49.5057 57.7675V68.7462C49.5057 70.0966 50.4785 71.2201 51.761 71.4531L52.2551 71.4974H68.7517C70.1017 71.4974 71.2241 70.524 71.4569 69.2407L71.5011 68.7462V57.7675C71.5011 56.4165 70.5288 55.2934 69.246 55.0605L68.7517 55.0162ZM32.9932 0C51.2147 0 65.9863 14.7815 65.9863 33.0153L65.9665 34.1736C64.2877 33.4428 62.4352 33.0376 60.4875 33.0375C60.4875 17.8205 48.1777 5.50255 32.9932 5.50255C17.8085 5.50255 5.49886 17.8205 5.49886 33.0153C5.49886 48.2101 17.8085 60.5281 32.9932 60.5281C34.882 60.5281 36.7264 60.3377 38.5081 59.9745V65.5712C36.7148 65.8733 34.8723 66.0307 32.9932 66.0307C14.7715 66.0307 0 51.2491 0 33.0153C0 14.7815 14.7715 0 32.9932 0ZM60.5034 60.5055C62.0222 60.5055 63.2529 61.7376 63.2529 63.2568C63.2529 64.7761 62.0222 66.0081 60.5034 66.0081C58.9852 66.0081 57.754 64.7761 57.754 63.2568C57.754 61.7376 58.9852 60.5055 60.5034 60.5055ZM60.4875 44.0424C59.1379 44.0424 58.0152 45.0159 57.7823 46.2992L57.738 46.7937V49.5136H63.2369V46.7937C63.2369 45.2745 62.0057 44.0424 60.4875 44.0424ZM48.5406 22.9074C49.4964 23.8611 49.6041 25.3435 48.8634 26.4168L48.5456 26.7982L30.8158 44.5878C29.8617 45.5446 28.3786 45.6519 27.306 44.9091L26.9249 44.5905L17.3019 34.9608C16.2281 33.8863 16.2281 32.1443 17.3019 31.0699C18.2563 30.1148 19.7378 30.0087 20.8094 30.7515L21.1901 31.0699L28.8664 38.7513L44.6524 22.9125C45.7247 21.8367 47.4656 21.8343 48.5406 22.9074Z" fill="url(#paint0_linear_732_3445)"></path><defs><linearGradient id="paint0_linear_732_3445" x1="-32.4762" y1="-23.3333" x2="82.1333" y2="-17.609" gradientUnits="userSpaceOnUse"><stop stop-color="#08899A"></stop><stop offset="1" stop-color="#2B3453"></stop></linearGradient></defs></svg>