<svg xmlns="http://www.w3.org/2000/svg" width="72" height="58" viewBox="0 0 72 58" fill="none"><path d="M2.31116 8.2553C25.7723 8.2553 34.3556 21.9393 36.0723 39.1058C37.7889 21.9398 44.6556 7.06234 68.6889 8.25617" stroke="url(#paint0_linear_732_3844)" stroke-width="3" stroke-linecap="round"></path><rect x="17.189" y="8.1889" width="34.3333" height="34.3333" rx="17" fill="#ECFCB7"></rect><path d="M52.6667 54.5006C52.6667 56.0935 51.349 57.4 49.717 57.4H20.1387C18.5137 57.4 17.189 56.0983 17.189 54.5006C17.189 44.8937 25.1307 37.1051 34.9275 37.1051C44.7244 37.1051 52.666 44.8939 52.666 54.5006H52.6667ZM34.9282 40.9711C27.6396 40.9711 21.6715 46.513 21.1662 53.5347H48.6909C48.1856 46.513 42.2176 40.9711 34.9289 40.9711H34.9282ZM34.9282 35.1723C28.9415 35.1723 24.0876 30.413 24.0876 24.5421C24.0876 18.6706 28.9415 13.9111 34.9282 13.9111C40.915 13.9111 45.7688 18.6704 45.7688 24.5421C45.7688 30.413 40.915 35.1723 34.9282 35.1723ZM34.9282 31.307C38.7378 31.307 41.8264 28.2781 41.8264 24.5422C41.8264 20.8056 38.7378 17.7768 34.9282 17.7768C31.1186 17.7768 28.0301 20.8056 28.0301 24.5422C28.0301 28.2781 31.1186 31.307 34.9282 31.307V31.307Z" fill="url(#paint1_linear_732_3844)"></path><path d="M62.3945 2.46667L69.2612 8.1889L64.1112 14.4833" stroke="url(#paint2_linear_732_3844)" stroke-width="3" stroke-linecap="round"></path><defs><linearGradient id="paint0_linear_732_3844" x1="-25.6849" y1="-1.17985" x2="72.2346" y2="9.32037" gradientUnits="userSpaceOnUse"><stop stop-color="#08899A"></stop><stop offset="1" stop-color="#2B3453"></stop></linearGradient><linearGradient id="paint1_linear_732_3844" x1="2.22555" y1="0.732692" x2="55.0759" y2="2.88611" gradientUnits="userSpaceOnUse"><stop stop-color="#08899A"></stop><stop offset="1" stop-color="#2B3453"></stop></linearGradient><linearGradient id="paint2_linear_732_3844" x1="59.4984" y1="-1.17474" x2="69.7361" y2="-0.882544" gradientUnits="userSpaceOnUse"><stop stop-color="#08899A"></stop><stop offset="1" stop-color="#2B3453"></stop></linearGradient></defs></svg>