<svg xmlns="http://www.w3.org/2000/svg" width="109" height="102" viewBox="0 0 109 102" fill="none"><path d="M21.7478 29.439C21.9322 29.7398 22.192 29.9881 22.5018 30.1597C22.8116 30.3313 23.1608 30.4205 23.5156 30.4184H24.1322C28.3012 29.1505 32.6398 28.5176 37 28.5411C41.0844 28.5024 45.1537 29.0383 49.0867 30.1327C49.5725 30.271 50.0926 30.2267 50.5476 30.0084C51.0026 29.7901 51.3606 29.413 51.5533 28.9492L53.1567 25.2763C55.3361 21.1928 56.8224 16.7805 57.5556 12.2169C57.6282 11.1264 57.4654 10.0331 57.0779 9.01008C56.6904 7.9871 56.0872 7.05811 55.3087 6.28531C54.5302 5.5125 53.5943 4.91372 52.5638 4.52905C51.5333 4.14438 50.4319 3.98271 49.3333 4.05485C48.0314 3.87248 46.7062 4.14805 45.5874 4.83378C44.4686 5.51952 43.6268 6.57222 43.2078 7.80942C43.1948 7.91787 43.1948 8.02745 43.2078 8.1359C43.0022 8.1359 42.8378 8.1359 42.18 7.27888C41.3457 6.17942 40.2448 5.30728 38.9797 4.7436C37.7146 4.17991 36.3265 3.94298 34.9444 4.05485C29.4356 4.05485 26.4344 9.48265 25.2833 12.2169C19.7333 12.2169 16.4444 14.6248 16.4444 18.3385C17.0196 21.7916 18.4304 25.0546 20.5556 27.8474L21.7478 29.439ZM65.7778 68.7395C65.7778 47.0283 60.6389 32.6222 37 32.6222C13.3611 32.6222 8.22222 47.0283 8.22222 68.7395C6.57778 71.2289 0 81.5948 0 89.7569C0 100.408 23.1867 102 37 102C50.8133 102 74 100.408 74 89.7569C74 81.5948 67.4222 71.2289 65.7778 68.7395ZM37 65.2706C38.4462 65.2817 39.8424 65.7971 40.9446 66.7265C42.0468 67.656 42.7849 68.9404 43.0298 70.3553C43.2747 71.7702 43.0108 73.2256 42.2844 74.4669C41.5579 75.7083 40.415 76.6567 39.0556 77.1464V77.5137C39.0556 78.0549 38.839 78.5739 38.4535 78.9566C38.068 79.3392 37.5452 79.5542 37 79.5542C36.4548 79.5542 35.932 79.3392 35.5465 78.9566C35.161 78.5739 34.9444 78.0549 34.9444 77.5137H32.8889C32.3437 77.5137 31.8209 77.2987 31.4354 76.9161C31.0499 76.5334 30.8333 76.0144 30.8333 75.4732C30.8333 74.932 31.0499 74.413 31.4354 74.0303C31.8209 73.6476 32.3437 73.4327 32.8889 73.4327H37C37.5452 73.4327 38.068 73.2177 38.4535 72.835C38.839 72.4523 39.0556 71.9333 39.0556 71.3921C39.0556 70.851 38.839 70.3319 38.4535 69.9493C38.068 69.5666 37.5452 69.3516 37 69.3516C35.5538 69.3405 34.1576 68.8251 33.0554 67.8957C31.9532 66.9662 31.2151 65.6818 30.9702 64.2669C30.7253 62.852 30.9892 61.3966 31.7156 60.1552C32.4421 58.9139 33.585 57.9655 34.9444 57.4758V57.1085C34.9444 56.5673 35.161 56.0483 35.5465 55.6656C35.932 55.2829 36.4548 55.0679 37 55.0679C37.5452 55.0679 38.068 55.2829 38.4535 55.6656C38.839 56.0483 39.0556 56.5673 39.0556 57.1085H41.1111C41.6563 57.1085 42.1791 57.3235 42.5646 57.7061C42.9501 58.0888 43.1667 58.6078 43.1667 59.149C43.1667 59.6902 42.9501 60.2092 42.5646 60.5919C42.1791 60.9745 41.6563 61.1895 41.1111 61.1895H37C36.4548 61.1895 35.932 61.4045 35.5465 61.7872C35.161 62.1698 34.9444 62.6889 34.9444 63.23C34.9444 63.7712 35.161 64.2902 35.5465 64.6729C35.932 65.0556 36.4548 65.2706 37 65.2706Z" fill="url(#paint0_linear_778_2479)"></path><path d="M106 22.5C106 33.2077 97.1082 42 86 42C74.8918 42 66 33.2077 66 22.5C66 11.7923 74.8918 3 86 3C97.1082 3 106 11.7923 106 22.5Z" stroke="url(#paint1_linear_778_2479)" stroke-width="6"></path><path d="M77 22.5L80.9535 28L94 18" stroke="url(#paint2_linear_778_2479)" stroke-width="6" stroke-linecap="round"></path><defs><linearGradient id="paint0_linear_778_2479" x1="-31.2109" y1="-25.6969" x2="79.0512" y2="-21.5385" gradientUnits="userSpaceOnUse"><stop stop-color="#08899A"></stop><stop offset="1" stop-color="#2B3453"></stop></linearGradient><linearGradient id="paint1_linear_778_2479" x1="43.5986" y1="-13.6364" x2="112.059" y2="-10.141" gradientUnits="userSpaceOnUse"><stop stop-color="#08899A"></stop><stop offset="1" stop-color="#2B3453"></stop></linearGradient><linearGradient id="paint2_linear_778_2479" x1="69.8299" y1="14.9697" x2="95.0149" y2="17.1081" gradientUnits="userSpaceOnUse"><stop stop-color="#08899A"></stop><stop offset="1" stop-color="#2B3453"></stop></linearGradient></defs></svg>