<svg xmlns="http://www.w3.org/2000/svg" width="119" height="88" viewBox="0 0 119 88" fill="none"><rect y="17.604" width="100.78" height="69.8656" rx="16" fill="url(#paint0_linear_732_3784)"></rect><path d="M59.7137 57.4389H46.8638C45.1146 57.4389 43.6776 55.9987 43.6776 54.2527C43.6776 52.5035 45.1146 51.0665 46.8638 51.0665H59.7137C61.4629 51.0665 62.8999 52.5035 62.8999 54.2527C62.8999 55.9987 61.4629 57.4389 59.7137 57.4389ZM88.8132 66.9974C88.8132 68.7435 87.373 70.1836 85.627 70.1836H46.8638C45.1146 70.1836 43.6776 68.7435 43.6776 66.9974C43.6776 65.2482 45.1146 63.8112 46.8638 63.8112H85.627C87.373 63.8112 88.8132 65.2482 88.8132 66.9974ZM53.3382 44.6941H46.8638C45.1146 44.6941 43.6776 43.2539 43.6776 41.5079C43.6776 39.7587 45.1146 38.3217 46.8638 38.3217H53.3382C55.0874 38.3217 56.5243 39.7587 56.5243 41.5079C56.5243 43.2539 55.0874 44.6941 53.3382 44.6941ZM24.7134 50.4229C31.6657 50.4229 37.3053 57.9805 37.3053 67.3097C37.3053 76.6388 12.1152 76.6388 12.1152 67.3097C12.1152 57.9805 17.7548 50.4229 24.7134 50.4229ZM16.8563 39.6472C16.8563 35.4255 20.3292 31.9525 24.5509 31.9525C28.7726 31.9525 32.2456 35.4255 32.2456 39.6472C32.2456 43.8689 28.7726 47.3418 24.5509 47.3418C20.3292 47.3418 16.8563 43.8689 16.8563 39.6472Z" fill="#DCF0EB"></path><path d="M93.5332 46.9339C105.389 46.9339 115 37.323 115 25.4672C115 13.6115 105.389 4.00052 93.5332 4.00052C81.6775 4.00052 72.0665 13.6115 72.0665 25.4672C72.0665 37.323 81.6775 46.9339 93.5332 46.9339Z" fill="url(#paint1_linear_732_3784)" stroke="#DCF0EA" stroke-width="6.40855" stroke-miterlimit="1.5" stroke-linecap="round" stroke-linejoin="round"></path><defs><linearGradient id="paint0_linear_732_3784" x1="-42.5057" y1="-3.56734" x2="107.096" y2="7.2109" gradientUnits="userSpaceOnUse"><stop stop-color="#08899A"></stop><stop offset="1" stop-color="#2B3453"></stop></linearGradient><linearGradient id="paint1_linear_732_3784" x1="53.9586" y1="-9.0096" x2="117.862" y2="-5.81785" gradientUnits="userSpaceOnUse"><stop stop-color="#08899A"></stop><stop offset="1" stop-color="#2B3453"></stop></linearGradient></defs></svg>