<svg width="81" height="83" viewBox="0 0 81 83" fill="none" xmlns="http://www.w3.org/2000/svg">
<path d="M17.04 46.7249C16.433 46.3547 15.6424 46.5491 15.2734 47.1567L15.2142 47.2547C14.8458 47.8624 15.039 48.653 15.646 49.0213C15.8547 49.1481 16.0849 49.2079 16.3122 49.2079C16.7469 49.2079 17.1704 48.9879 17.4126 48.589L17.4718 48.4909C17.8408 47.8839 17.647 47.0933 17.04 46.7249L17.04 46.7249Z" fill="url(#paint0_linear_1194_3223)"/>
<path d="M80.1824 51.9055L73.3414 40.5624C72.9748 39.9536 72.1818 39.7599 71.5766 40.1253C70.9678 40.4925 70.7729 41.2831 71.1394 41.8913L77.9774 53.2283C78.2238 53.6416 78.0922 54.1804 77.6904 54.4256L73.3223 57.0552C72.9121 57.2986 72.378 57.1694 72.131 56.755L60.9584 38.2271L60.5063 37.4837C60.2593 37.0758 60.3932 36.5406 60.7975 36.2936L65.1656 33.664C65.5782 33.4194 66.1093 33.5498 66.3544 33.9606L68.4978 37.5189C68.8644 38.1271 69.655 38.3221 70.2638 37.9567C70.8714 37.5901 71.0676 36.8001 70.7016 36.1919L68.5607 32.6384C67.593 31.0148 65.4771 30.4849 63.8434 31.4584L59.4645 34.0946C58.0047 34.9857 57.4509 36.7942 58.0746 38.3287L56.8062 38.9405C56.1214 39.2706 55.3219 39.3053 54.612 39.038L45.5738 35.6351C43.6266 34.9025 41.5252 34.7595 39.496 35.2242L36.4227 35.9281C36.0866 36.0053 35.7601 36.1058 35.4342 36.2056H32.7459C31.2036 36.2056 29.6504 36.4335 28.1291 36.8832L25.1992 37.7545H23.7191C24.0127 36.3659 23.4338 34.8768 22.148 34.0915L17.7715 31.4572C16.1407 30.4853 14.0272 31.017 13.0619 32.6341L1.43368 51.9107C0.468438 53.5295 0.989936 55.6443 2.60344 56.6292L6.9799 59.2635C7.53309 59.5936 8.14188 59.7503 8.74236 59.7503C9.91213 59.7503 11.0514 59.1559 11.6895 58.0872L11.979 57.6058L15.9404 60.0924L19.3558 65.54C18.8092 66.388 18.5515 67.3796 18.6615 68.3962C18.7895 69.5695 19.3666 70.6239 20.2857 71.3637L20.5208 71.5527C21.1983 72.0969 21.9883 72.3953 22.7933 72.4856C22.9476 73.696 23.5511 74.8234 24.5439 75.6259C25.4314 76.3388 26.509 76.6917 27.5766 76.6917C27.9689 76.6917 28.3558 76.6271 28.7356 76.532C29.0173 77.4057 29.5411 78.1934 30.2863 78.7932C31.1648 79.5067 32.2323 79.8655 33.3022 79.8655C33.7477 79.8655 34.1915 79.792 34.6245 79.6676C34.9055 80.2136 35.2978 80.704 35.7864 81.0975C36.5842 81.7415 37.5572 82.083 38.5698 82.083C38.733 82.083 38.8981 82.0741 39.0619 82.0561C40.2502 81.9263 41.316 81.3409 42.0599 80.4103L42.8481 79.4319L45.2642 80.7177C46.1594 81.1932 47.1235 81.4186 48.0755 81.4186C50.0162 81.4186 51.8964 80.4731 53.0351 78.8094C53.4292 78.9146 53.8299 78.9708 54.2288 78.9708C55.895 78.9708 57.5103 78.075 58.3458 76.5069C58.5491 76.1295 58.6771 75.7264 58.7674 75.3162C59.067 75.3724 59.3696 75.4101 59.6752 75.4101C60.165 75.4101 60.6572 75.3371 61.1386 75.19C62.4154 74.7995 63.4626 73.9341 64.0893 72.7518C64.5211 71.9348 64.7106 71.0329 64.661 70.1365C66.0269 69.8315 67.2476 68.9697 67.9532 67.7108C69.8406 64.3248 67.1489 61.889 66.2494 61.0762L66.1962 61.0295C67.0233 58.9962 68.7044 58.0937 69.709 57.7229L69.9273 58.0823C70.5672 59.1552 71.7065 59.7508 72.878 59.7508C73.4802 59.7508 74.0902 59.5935 74.6446 59.2628L79.0235 56.6266C80.6298 55.644 81.1512 53.5294 80.1825 51.9051L80.1824 51.9055ZM21.898 69.3587C21.5128 69.0495 21.2718 68.6087 21.218 68.1183C21.1654 67.6279 21.3059 67.1459 21.6157 66.7614L24.4307 63.2611C24.7399 62.8766 25.18 62.6349 25.6705 62.5823C26.1638 62.5315 26.6441 62.6702 27.0274 62.9794L27.2624 63.1684C27.6476 63.4776 27.8886 63.9183 27.9424 64.4087C27.995 64.8991 27.8545 65.3812 27.5447 65.7657L24.7303 69.266C24.0934 70.0596 22.926 70.1864 22.133 69.5476L21.898 69.3587ZM26.1578 73.6232C25.659 73.2195 25.3642 72.64 25.3229 72.0252C25.8528 71.7513 26.3372 71.3715 26.7349 70.8781L29.5499 67.3778C30.0385 66.7708 30.3321 66.0586 30.4523 65.3092C31.1574 65.0831 31.9403 65.2099 32.5299 65.683C33.0573 66.1118 33.3719 66.7702 33.3719 67.4442C33.3719 67.6087 33.351 67.7827 33.3133 67.9657C33.2415 68.2755 33.0956 68.5673 32.8773 68.837L29.31 73.2734C29.2035 73.4037 29.1168 73.494 28.9841 73.5957C28.1755 74.2781 26.986 74.2876 26.1577 73.6232H26.1578ZM31.9031 76.7928C31.3911 76.3808 31.1107 75.7803 31.0862 75.1386C31.1597 75.0584 31.2327 74.9849 31.3086 74.891L34.8777 70.4524C35.1898 70.0678 35.4291 69.6486 35.6067 69.1977C36.3141 68.9597 37.1012 69.0912 37.7039 69.5756C38.2392 70.011 38.5454 70.6485 38.5454 71.3256L38.546 71.4015C38.531 71.8823 38.3582 72.3434 38.052 72.7286L35.0499 76.4525C34.9405 76.5901 34.8023 76.7222 34.6498 76.8371C33.8287 77.4572 32.7003 77.4405 31.9031 76.7928ZM40.0537 78.7998C39.7362 79.1957 39.2852 79.4438 38.7817 79.4983C38.2769 79.5515 37.7895 79.4086 37.3996 79.0946C37.1359 78.8817 36.9487 78.609 36.8333 78.3064C36.908 78.2257 36.9876 78.1479 37.0557 78.063L40.0609 74.3366C40.5184 73.7619 40.824 73.1064 40.9855 72.4013C41.5034 72.3169 42.0464 72.4455 42.4698 72.7822C42.916 73.144 43.1725 73.6811 43.1725 74.2564C43.1725 74.6882 43.0254 75.1098 42.7587 75.4417L40.0537 78.7998ZM46.4713 78.4457L44.4905 77.3914L44.7626 77.0535C45.2309 76.4698 45.5412 75.7737 45.6722 75.0393L50.6598 77.6869C49.6324 78.8482 47.8975 79.2053 46.4712 78.4458L46.4713 78.4457ZM65.7065 66.4545C65.2227 67.3186 64.2407 67.8084 63.2551 67.6697C62.9459 67.6284 62.675 67.5387 62.4137 67.3898L51.7285 61.4231C51.1113 61.0786 50.3255 61.2987 49.9786 61.9189C49.6317 62.5391 49.8536 63.3225 50.4744 63.6688L61.1488 69.6295C61.4407 69.7964 61.7457 69.9238 62.062 70.0242C62.1451 70.5415 62.065 71.075 61.8156 71.5486C61.5118 72.1215 61.0041 72.5408 60.3863 72.7297C59.7703 72.9181 59.1179 72.8559 58.5444 72.5491L47.7306 66.824C47.1063 66.4933 46.3246 66.7307 45.9926 67.3587C45.6601 67.9866 45.9 68.7647 46.5267 69.0971L56.3143 74.2786C56.3226 74.6284 56.2485 74.9765 56.078 75.291C55.5374 76.3071 54.2732 76.6935 53.2541 76.1528L44.9743 71.7578C44.7285 71.3954 44.4325 71.0623 44.0808 70.7777C43.1575 70.0421 42.005 69.7245 40.8759 69.8286C40.59 68.959 40.0607 68.1762 39.3222 67.5757C38.3139 66.7642 37.0706 66.4149 35.8524 66.5327C35.6401 65.4234 35.0492 64.4157 34.1461 63.6819C32.9847 62.7508 31.4926 62.4392 30.0975 62.7478C29.8152 62.1414 29.4127 61.5953 28.8768 61.1641L28.6418 60.9751C27.7214 60.2348 26.569 59.8969 25.3951 60.0254C24.2211 60.1528 23.1673 60.7293 22.4276 61.6497L21.0371 63.3786L17.9644 58.477C17.8616 58.3132 17.7234 58.1738 17.5584 58.071L13.3064 55.4025L14.7776 52.9576C15.1436 52.3488 14.9456 51.5588 14.3374 51.1929C13.728 50.8263 12.9392 51.0236 12.5727 51.633L9.48497 56.763C9.24217 57.1697 8.71051 57.2989 8.30264 57.0573L3.93689 54.4295C3.52842 54.1801 3.39687 53.6413 3.63967 53.2334L15.2685 33.9553C15.5107 33.5474 16.0424 33.4183 16.4509 33.6611L20.8166 36.2888C21.2275 36.54 21.3614 37.0753 21.1144 37.4831L17.3181 43.7727C16.9515 44.3809 17.1464 45.1715 17.7552 45.5381C18.3622 45.9053 19.1534 45.7103 19.52 45.1015L22.4038 40.3244H25.3879C25.5117 40.3244 25.6355 40.3064 25.7545 40.2712L28.8607 39.3472C29.3571 39.2007 29.8571 39.0906 30.3588 39.0003C29.3338 39.892 28.4344 40.9385 27.6897 42.1197L24.6422 46.9542C23.6374 48.5474 24.1027 50.6825 25.6786 51.7128C28.1897 53.3551 31.3952 53.2982 33.8477 51.5681L40.3305 46.9931L54.5303 54.2066L64.5391 62.9947C66.4391 64.7152 66.1748 65.6141 65.7065 66.4544L65.7065 66.4545ZM64.1821 59.2607L56.1031 52.1674C56.023 52.0962 55.9333 52.0352 55.8376 51.9867L40.8537 44.3742C40.4273 44.1338 39.8927 44.1542 39.48 44.4436L32.3628 49.4666C30.7804 50.5832 28.7088 50.6214 27.0857 49.5605C26.676 49.2932 26.5558 48.7394 26.816 48.3261L29.8629 43.491C31.4896 40.9105 34.0235 39.1139 36.9964 38.434L40.0697 37.7301C41.6037 37.3779 43.1926 37.4861 44.6667 38.0405L53.7043 41.4439C55.0708 41.9582 56.6072 41.8894 57.9223 41.2561L59.3594 40.563L68.3629 55.496C67.052 56.0599 65.2962 57.1663 64.182 59.2607L64.1821 59.2607Z" fill="url(#paint1_linear_1194_3223)"/>
<path d="M40.5413 33.2171C40.6292 33.2362 40.7177 33.2452 40.8074 33.2452C40.8971 33.2452 40.9856 33.2362 41.0735 33.2171C46.8052 32.0037 51.6373 28.1912 54.3256 22.7675C55.5838 20.2881 56.3134 17.5957 56.494 14.7651C56.5395 14.0564 56.0006 13.4452 55.2926 13.3998C54.5552 13.3507 53.9721 13.8932 53.9272 14.6018C53.7688 17.0813 53.1318 19.437 52.0267 21.6145C49.7267 26.2552 45.6474 29.5326 40.8075 30.6425C35.9676 29.5326 31.8883 26.2548 29.5836 21.6044C28.3175 19.1058 27.6476 16.2591 27.6476 13.3723C27.6476 10.3462 27.8821 7.70171 28.3461 5.50031C31.8244 3.89523 36.2212 3.01599 40.808 3.01599C45.3944 3.01539 49.7918 3.89511 53.2695 5.4997C53.5338 6.75618 53.724 8.15503 53.8346 9.66749C53.8866 10.3762 54.517 10.906 55.2113 10.8564C55.9194 10.8044 56.4522 10.1884 56.4002 9.4797C56.262 7.58817 56.0061 5.84959 55.6389 4.31141C55.551 3.94063 55.3022 3.62846 54.9607 3.45801C51.0542 1.51443 46.0283 0.443359 40.8082 0.443359C35.588 0.443359 30.5613 1.51445 26.655 3.45863C26.3135 3.62847 26.0647 3.94064 25.9768 4.31203C25.3788 6.82084 25.0762 9.86964 25.0762 13.3724C25.0762 16.6605 25.8417 19.9095 27.2848 22.7568C29.9784 28.1912 34.8098 32.0043 40.5415 33.2171H40.5413Z" fill="url(#paint2_linear_1194_3223)"/>
<path d="M48.7468 8.61114L38.439 18.9189L34.587 15.067C34.0847 14.5646 33.2707 14.5646 32.7684 15.067C32.266 15.5687 32.266 16.3833 32.7684 16.8856L37.53 21.6473C37.771 21.8883 38.0987 22.0241 38.439 22.0241C38.7799 22.0241 39.107 21.8883 39.3481 21.6473L50.5649 10.4298C51.0673 9.92745 51.0673 9.1135 50.5649 8.61114C50.0626 8.10878 49.2493 8.10879 48.7469 8.61114H48.7468Z" fill="url(#paint3_linear_1194_3223)"/>
<defs>
<linearGradient id="paint0_linear_1194_3223" x1="13.9174" y1="45.7278" x2="17.8346" y2="45.9205" gradientUnits="userSpaceOnUse">
<stop stop-color="#08899A"/>
<stop offset="1" stop-color="#2B3453"/>
</linearGradient>
<linearGradient id="paint1_linear_1194_3223" x1="-32.6744" y1="15.4821" x2="85.5628" y2="24.693" gradientUnits="userSpaceOnUse">
<stop stop-color="#08899A"/>
<stop offset="1" stop-color="#2B3453"/>
</linearGradient>
<linearGradient id="paint2_linear_1194_3223" x1="11.824" y1="-9.49659" x2="58.601" y2="-7.25863" gradientUnits="userSpaceOnUse">
<stop stop-color="#08899A"/>
<stop offset="1" stop-color="#2B3453"/>
</linearGradient>
<linearGradient id="paint3_linear_1194_3223" x1="24.5677" y1="4.05569" x2="52.1228" y2="5.90708" gradientUnits="userSpaceOnUse">
<stop stop-color="#08899A"/>
<stop offset="1" stop-color="#2B3453"/>
</linearGradient>
</defs>
</svg>
