<svg width="76" height="76" viewBox="0 0 76 76" fill="none" xmlns="http://www.w3.org/2000/svg">
<path d="M37.9843 28.8711C32.8802 28.8711 28.7041 33.0472 28.7041 38.1513C28.7041 43.2554 32.8802 47.4315 37.9843 47.4315C43.0884 47.4315 47.2645 43.2554 47.2645 38.1513C47.2645 33.0472 43.0884 28.8711 37.9843 28.8711ZM37.9843 45.1115C34.1562 45.1115 31.0242 41.9794 31.0242 38.1513C31.0242 34.3232 34.1562 31.1911 37.9843 31.1911C41.8124 31.1911 44.9445 34.3232 44.9445 38.1513C44.9445 41.9794 41.8124 45.1115 37.9843 45.1115Z" fill="url(#paint0_linear_1194_3243)"/>
<mask id="path-2-outside-1_1194_3243" maskUnits="userSpaceOnUse" x="-0.136719" y="0.0302734" width="63" height="63" fill="black">
<rect fill="white" x="-0.136719" y="0.0302734" width="63" height="63"/>
<path d="M61.5326 41.5152C62.1126 41.3992 62.4607 40.9352 62.4607 40.3552V34.439C62.4607 33.859 62.1126 33.395 61.5326 33.279L55.5005 32.003C55.0365 30.8429 54.5725 29.6829 53.8765 28.6389L56.8925 23.8828C57.2405 23.4188 57.1245 22.8388 56.7765 22.4908L52.6004 18.3147C52.2524 17.9667 51.5564 17.8507 51.2084 18.1987L46.1043 21.3307C44.9443 20.7507 43.6682 20.2867 42.3922 19.9387L41.2322 14.6026C41.1162 14.0226 40.6522 13.6746 40.0722 13.6746H34.156C33.576 13.6746 33.112 14.0226 32.996 14.6026L31.836 19.9387C30.3279 20.4027 28.8199 20.9827 27.4279 21.7947L23.4838 19.2427C23.0198 18.8947 22.4398 19.0107 22.0918 19.3587L17.9157 23.5348C17.5677 23.8828 17.4517 24.5788 17.7997 24.9268L20.2357 28.7549C19.3077 30.3789 18.4957 32.119 18.1477 33.975L14.3196 34.787C13.7396 34.903 13.3916 35.367 13.3916 35.9471V41.8632C13.3916 42.4432 13.7396 42.9072 14.3196 43.0232L18.2637 43.8352C18.8437 45.8073 19.6557 47.6633 20.8157 49.4034L18.8437 52.4194C18.4957 52.8834 18.6117 53.4634 18.9597 53.8115L23.1358 57.9875C23.4838 58.3356 24.1798 58.4516 24.5278 58.1035L28.0079 55.8995C29.7479 56.8275 31.604 57.4075 33.576 57.7555L34.388 61.5836C34.504 62.1636 34.968 62.5117 35.548 62.5117H41.4642C42.0442 62.5117 42.5082 62.1636 42.6242 61.5836L43.6682 56.8275C45.2923 56.2475 46.8003 55.4355 48.1923 54.5075L52.1364 57.0595C52.6004 57.4075 53.1804 57.2915 53.5285 56.9435L57.7045 52.7674C58.0526 52.4194 58.1686 51.7234 57.8205 51.3754L54.8045 46.6193C55.3845 45.3433 55.8485 43.9512 56.0805 42.5592L61.5326 41.5152ZM54.2245 41.3992C53.9925 43.0232 53.4124 44.6473 52.7164 46.1553C52.4844 46.5033 52.6004 46.9673 52.8324 47.3153L55.7325 51.8394L52.8324 54.7395L49.0044 52.3034C48.5403 52.0714 48.0763 52.0714 47.7283 52.3034C46.1043 53.4634 44.4803 54.3915 42.6242 54.9715C42.2762 55.0875 41.9282 55.4355 41.8122 55.7835L40.8842 60.1916H36.8241L36.0121 56.4795C35.8961 56.0155 35.548 55.6675 35.084 55.5515C32.88 55.3195 30.7919 54.6235 28.9359 53.4634C28.5879 53.2314 28.1239 53.2314 27.7759 53.4634L24.5278 55.5515L21.6277 52.6514L23.4838 49.7514C23.7158 49.4034 23.7158 48.8233 23.4838 48.4753C22.2078 46.6193 21.1637 44.5312 20.6997 42.3272C20.5837 41.8632 20.2357 41.5152 19.7717 41.5152L15.9436 40.7032V36.6431L19.5397 35.8311C20.0037 35.715 20.3517 35.367 20.4677 34.903C20.9317 32.815 21.6277 30.9589 22.7878 29.1029C23.0198 28.7549 23.0198 28.1749 22.7878 27.8269L20.3517 24.1148L23.2518 21.2147L26.9639 23.6508C27.3119 23.8828 27.7759 23.8828 28.2399 23.6508C29.7479 22.7228 31.488 22.0267 33.228 21.5627C33.692 21.4467 34.04 21.0987 34.04 20.6347L35.084 15.5306H39.1441L40.1882 20.6347C40.3042 21.0987 40.6522 21.4467 41.0002 21.5627C42.6242 21.9107 44.0162 22.4908 45.4083 23.3028C45.7563 23.5348 46.2203 23.5348 46.5683 23.3028L51.4404 20.1707L54.3405 23.0708L51.3244 27.7109C51.0924 28.0589 51.0924 28.6389 51.3244 28.9869C52.1364 30.2629 52.8324 31.655 53.2964 33.163C53.4124 33.511 53.7605 33.859 54.1085 33.975L59.7926 35.251V39.3111L55.1525 40.4712C54.6885 40.5872 54.2245 40.9352 54.2245 41.3992ZM2.83533 3.00232C3.29934 2.53831 3.29934 1.84229 2.83533 1.37828C2.37131 0.914271 1.6753 0.914271 1.21129 1.37828C0.747279 1.84229 0.747279 2.53831 1.21129 3.00232C1.6753 3.46633 2.37131 3.46633 2.83533 3.00232Z"/>
</mask>
<path d="M61.5326 41.5152C62.1126 41.3992 62.4607 40.9352 62.4607 40.3552V34.439C62.4607 33.859 62.1126 33.395 61.5326 33.279L55.5005 32.003C55.0365 30.8429 54.5725 29.6829 53.8765 28.6389L56.8925 23.8828C57.2405 23.4188 57.1245 22.8388 56.7765 22.4908L52.6004 18.3147C52.2524 17.9667 51.5564 17.8507 51.2084 18.1987L46.1043 21.3307C44.9443 20.7507 43.6682 20.2867 42.3922 19.9387L41.2322 14.6026C41.1162 14.0226 40.6522 13.6746 40.0722 13.6746H34.156C33.576 13.6746 33.112 14.0226 32.996 14.6026L31.836 19.9387C30.3279 20.4027 28.8199 20.9827 27.4279 21.7947L23.4838 19.2427C23.0198 18.8947 22.4398 19.0107 22.0918 19.3587L17.9157 23.5348C17.5677 23.8828 17.4517 24.5788 17.7997 24.9268L20.2357 28.7549C19.3077 30.3789 18.4957 32.119 18.1477 33.975L14.3196 34.787C13.7396 34.903 13.3916 35.367 13.3916 35.9471V41.8632C13.3916 42.4432 13.7396 42.9072 14.3196 43.0232L18.2637 43.8352C18.8437 45.8073 19.6557 47.6633 20.8157 49.4034L18.8437 52.4194C18.4957 52.8834 18.6117 53.4634 18.9597 53.8115L23.1358 57.9875C23.4838 58.3356 24.1798 58.4516 24.5278 58.1035L28.0079 55.8995C29.7479 56.8275 31.604 57.4075 33.576 57.7555L34.388 61.5836C34.504 62.1636 34.968 62.5117 35.548 62.5117H41.4642C42.0442 62.5117 42.5082 62.1636 42.6242 61.5836L43.6682 56.8275C45.2923 56.2475 46.8003 55.4355 48.1923 54.5075L52.1364 57.0595C52.6004 57.4075 53.1804 57.2915 53.5285 56.9435L57.7045 52.7674C58.0526 52.4194 58.1686 51.7234 57.8205 51.3754L54.8045 46.6193C55.3845 45.3433 55.8485 43.9512 56.0805 42.5592L61.5326 41.5152ZM54.2245 41.3992C53.9925 43.0232 53.4124 44.6473 52.7164 46.1553C52.4844 46.5033 52.6004 46.9673 52.8324 47.3153L55.7325 51.8394L52.8324 54.7395L49.0044 52.3034C48.5403 52.0714 48.0763 52.0714 47.7283 52.3034C46.1043 53.4634 44.4803 54.3915 42.6242 54.9715C42.2762 55.0875 41.9282 55.4355 41.8122 55.7835L40.8842 60.1916H36.8241L36.0121 56.4795C35.8961 56.0155 35.548 55.6675 35.084 55.5515C32.88 55.3195 30.7919 54.6235 28.9359 53.4634C28.5879 53.2314 28.1239 53.2314 27.7759 53.4634L24.5278 55.5515L21.6277 52.6514L23.4838 49.7514C23.7158 49.4034 23.7158 48.8233 23.4838 48.4753C22.2078 46.6193 21.1637 44.5312 20.6997 42.3272C20.5837 41.8632 20.2357 41.5152 19.7717 41.5152L15.9436 40.7032V36.6431L19.5397 35.8311C20.0037 35.715 20.3517 35.367 20.4677 34.903C20.9317 32.815 21.6277 30.9589 22.7878 29.1029C23.0198 28.7549 23.0198 28.1749 22.7878 27.8269L20.3517 24.1148L23.2518 21.2147L26.9639 23.6508C27.3119 23.8828 27.7759 23.8828 28.2399 23.6508C29.7479 22.7228 31.488 22.0267 33.228 21.5627C33.692 21.4467 34.04 21.0987 34.04 20.6347L35.084 15.5306H39.1441L40.1882 20.6347C40.3042 21.0987 40.6522 21.4467 41.0002 21.5627C42.6242 21.9107 44.0162 22.4908 45.4083 23.3028C45.7563 23.5348 46.2203 23.5348 46.5683 23.3028L51.4404 20.1707L54.3405 23.0708L51.3244 27.7109C51.0924 28.0589 51.0924 28.6389 51.3244 28.9869C52.1364 30.2629 52.8324 31.655 53.2964 33.163C53.4124 33.511 53.7605 33.859 54.1085 33.975L59.7926 35.251V39.3111L55.1525 40.4712C54.6885 40.5872 54.2245 40.9352 54.2245 41.3992ZM2.83533 3.00232C3.29934 2.53831 3.29934 1.84229 2.83533 1.37828C2.37131 0.914271 1.6753 0.914271 1.21129 1.37828C0.747279 1.84229 0.747279 2.53831 1.21129 3.00232C1.6753 3.46633 2.37131 3.46633 2.83533 3.00232Z" fill="url(#paint1_linear_1194_3243)"/>
<path d="M61.5326 41.5152C62.1126 41.3992 62.4607 40.9352 62.4607 40.3552V34.439C62.4607 33.859 62.1126 33.395 61.5326 33.279L55.5005 32.003C55.0365 30.8429 54.5725 29.6829 53.8765 28.6389L56.8925 23.8828C57.2405 23.4188 57.1245 22.8388 56.7765 22.4908L52.6004 18.3147C52.2524 17.9667 51.5564 17.8507 51.2084 18.1987L46.1043 21.3307C44.9443 20.7507 43.6682 20.2867 42.3922 19.9387L41.2322 14.6026C41.1162 14.0226 40.6522 13.6746 40.0722 13.6746H34.156C33.576 13.6746 33.112 14.0226 32.996 14.6026L31.836 19.9387C30.3279 20.4027 28.8199 20.9827 27.4279 21.7947L23.4838 19.2427C23.0198 18.8947 22.4398 19.0107 22.0918 19.3587L17.9157 23.5348C17.5677 23.8828 17.4517 24.5788 17.7997 24.9268L20.2357 28.7549C19.3077 30.3789 18.4957 32.119 18.1477 33.975L14.3196 34.787C13.7396 34.903 13.3916 35.367 13.3916 35.9471V41.8632C13.3916 42.4432 13.7396 42.9072 14.3196 43.0232L18.2637 43.8352C18.8437 45.8073 19.6557 47.6633 20.8157 49.4034L18.8437 52.4194C18.4957 52.8834 18.6117 53.4634 18.9597 53.8115L23.1358 57.9875C23.4838 58.3356 24.1798 58.4516 24.5278 58.1035L28.0079 55.8995C29.7479 56.8275 31.604 57.4075 33.576 57.7555L34.388 61.5836C34.504 62.1636 34.968 62.5117 35.548 62.5117H41.4642C42.0442 62.5117 42.5082 62.1636 42.6242 61.5836L43.6682 56.8275C45.2923 56.2475 46.8003 55.4355 48.1923 54.5075L52.1364 57.0595C52.6004 57.4075 53.1804 57.2915 53.5285 56.9435L57.7045 52.7674C58.0526 52.4194 58.1686 51.7234 57.8205 51.3754L54.8045 46.6193C55.3845 45.3433 55.8485 43.9512 56.0805 42.5592L61.5326 41.5152ZM54.2245 41.3992C53.9925 43.0232 53.4124 44.6473 52.7164 46.1553C52.4844 46.5033 52.6004 46.9673 52.8324 47.3153L55.7325 51.8394L52.8324 54.7395L49.0044 52.3034C48.5403 52.0714 48.0763 52.0714 47.7283 52.3034C46.1043 53.4634 44.4803 54.3915 42.6242 54.9715C42.2762 55.0875 41.9282 55.4355 41.8122 55.7835L40.8842 60.1916H36.8241L36.0121 56.4795C35.8961 56.0155 35.548 55.6675 35.084 55.5515C32.88 55.3195 30.7919 54.6235 28.9359 53.4634C28.5879 53.2314 28.1239 53.2314 27.7759 53.4634L24.5278 55.5515L21.6277 52.6514L23.4838 49.7514C23.7158 49.4034 23.7158 48.8233 23.4838 48.4753C22.2078 46.6193 21.1637 44.5312 20.6997 42.3272C20.5837 41.8632 20.2357 41.5152 19.7717 41.5152L15.9436 40.7032V36.6431L19.5397 35.8311C20.0037 35.715 20.3517 35.367 20.4677 34.903C20.9317 32.815 21.6277 30.9589 22.7878 29.1029C23.0198 28.7549 23.0198 28.1749 22.7878 27.8269L20.3517 24.1148L23.2518 21.2147L26.9639 23.6508C27.3119 23.8828 27.7759 23.8828 28.2399 23.6508C29.7479 22.7228 31.488 22.0267 33.228 21.5627C33.692 21.4467 34.04 21.0987 34.04 20.6347L35.084 15.5306H39.1441L40.1882 20.6347C40.3042 21.0987 40.6522 21.4467 41.0002 21.5627C42.6242 21.9107 44.0162 22.4908 45.4083 23.3028C45.7563 23.5348 46.2203 23.5348 46.5683 23.3028L51.4404 20.1707L54.3405 23.0708L51.3244 27.7109C51.0924 28.0589 51.0924 28.6389 51.3244 28.9869C52.1364 30.2629 52.8324 31.655 53.2964 33.163C53.4124 33.511 53.7605 33.859 54.1085 33.975L59.7926 35.251V39.3111L55.1525 40.4712C54.6885 40.5872 54.2245 40.9352 54.2245 41.3992ZM2.83533 3.00232C3.29934 2.53831 3.29934 1.84229 2.83533 1.37828C2.37131 0.914271 1.6753 0.914271 1.21129 1.37828C0.747279 1.84229 0.747279 2.53831 1.21129 3.00232C1.6753 3.46633 2.37131 3.46633 2.83533 3.00232Z" stroke="url(#paint2_linear_1194_3243)" stroke-width="0.550382" mask="url(#path-2-outside-1_1194_3243)"/>
<path d="M66.6373 72.9519H50.8609C65.5933 67.4998 75.9175 52.8834 75.1055 36.0631C75.1055 35.367 74.5255 34.903 73.8295 35.019C73.2495 35.019 72.7854 35.599 72.7854 36.2951C73.9455 57.0595 56.6611 74.2279 35.7806 72.9519C18.4962 71.7919 4.34391 57.7555 3.29988 40.4712C1.90785 20.1707 18.0322 3.35033 37.9847 3.35033C49.1209 3.35033 59.4451 8.57044 65.9413 17.3866L58.1691 16.1106C57.5891 15.9946 56.8931 16.4586 56.8931 17.0386C56.7771 17.6186 57.2411 18.3147 57.8211 18.3147L68.1453 19.9387C68.7253 20.0547 69.4214 19.5907 69.4214 19.0107L71.0454 8.68644C71.1614 8.10643 70.6974 7.41042 70.1174 7.41042C69.5374 7.29441 68.8413 7.75842 68.8413 8.33844L67.6813 15.7626C60.7212 6.5984 49.8169 1.03027 37.9847 1.03027H9.33202C8.636 1.03027 8.17199 1.49428 8.17199 2.1903C8.17199 2.88631 8.636 3.35033 9.33202 3.35033H25.1084C10.608 8.68644 0.399819 22.8388 0.86383 39.1951C1.44384 59.3796 18.4962 75.2719 38.7967 75.2719H66.6373C67.3333 75.2719 67.7973 74.8079 67.7973 74.1119C67.7973 73.4159 67.3333 72.9519 66.6373 72.9519ZM73.1334 73.2999C72.6694 73.7639 72.6694 74.4599 73.1334 74.9239C73.5975 75.3879 74.2935 75.3879 74.7575 74.9239C75.2215 74.4599 75.2215 73.7639 74.7575 73.2999C74.2935 72.8359 73.5975 72.8359 73.1334 73.2999Z" fill="url(#paint3_linear_1194_3243)"/>
<defs>
<linearGradient id="paint0_linear_1194_3243" x1="20.8759" y1="23.2467" x2="48.5019" y2="24.6265" gradientUnits="userSpaceOnUse">
<stop stop-color="#08899A"/>
<stop offset="1" stop-color="#2B3453"/>
</linearGradient>
<linearGradient id="paint1_linear_1194_3243" x1="-25.1166" y1="-17.6004" x2="66.5662" y2="-13.0126" gradientUnits="userSpaceOnUse">
<stop stop-color="#08899A"/>
<stop offset="1" stop-color="#2B3453"/>
</linearGradient>
<linearGradient id="paint2_linear_1194_3243" x1="-25.1166" y1="-17.6004" x2="66.5662" y2="-13.0126" gradientUnits="userSpaceOnUse">
<stop stop-color="#08899A"/>
<stop offset="1" stop-color="#2B3453"/>
</linearGradient>
<linearGradient id="paint3_linear_1194_3243" x1="-30.4895" y1="-21.4672" x2="80.1032" y2="-15.939" gradientUnits="userSpaceOnUse">
<stop stop-color="#08899A"/>
<stop offset="1" stop-color="#2B3453"/>
</linearGradient>
</defs>
</svg>
