<svg xmlns="http://www.w3.org/2000/svg" width="80" height="80" viewBox="0 0 80 80" fill="none"><path d="M50.7184 0C37.2215 0 25.8674 9.22114 22.544 21.6861C10.0797 25.0094 0.85791 36.3626 0.85791 49.8605C0.85791 65.9558 13.9515 79.0481 30.0455 79.0481C43.5434 79.0481 54.8968 69.8271 58.2201 57.3621C70.685 54.0389 79.906 42.6855 79.906 29.1876C79.906 13.0923 66.8137 0 50.7184 0ZM27.0146 26.1565C28.0096 26.0298 29.0166 25.9428 30.0455 25.9428C31.0373 25.9428 32.0092 26.0224 32.9696 26.1403L26.9984 32.1122C26.8805 31.1516 26.8007 30.1795 26.8007 29.1876C26.8007 28.1586 26.8879 27.1517 27.0146 26.1565ZM32.063 44.117C30.599 42.2913 29.4028 40.2479 28.5199 38.0428L38.8998 27.6618C41.105 28.5447 43.1489 29.7411 44.9747 31.2053L32.063 44.117ZM48.7007 34.9312C50.1648 36.7571 51.3614 38.8008 52.2443 41.0062L41.864 51.3866C39.6584 50.5036 37.6147 49.3073 35.7888 47.8431L48.7007 34.9312ZM30.0455 73.7782C16.8567 73.7782 6.12778 63.048 6.12778 49.8605C6.12778 39.6427 12.5807 30.925 21.6161 27.5057C21.5839 28.0655 21.5308 28.6199 21.5308 29.1876C21.5308 45.2828 34.6245 58.3752 50.7184 58.3752C51.286 58.3752 51.8403 58.3221 52.4 58.2899C48.9804 67.3248 40.2631 73.7782 30.0455 73.7782ZM53.7493 52.8914C52.7543 53.0181 51.7474 53.1053 50.7184 53.1053C49.7268 53.1053 48.7551 53.0257 47.7946 52.9078L53.7657 46.9368C53.8836 47.8972 53.9632 48.8689 53.9632 49.8605C53.9632 50.8895 53.876 51.8964 53.7493 52.8914ZM59.1478 51.5421C59.18 50.9824 59.2331 50.4281 59.2331 49.8605C59.2331 33.7653 46.1407 20.6729 30.0455 20.6729C29.4778 20.6729 28.9236 20.726 28.3638 20.7582C31.7829 11.7233 40.4998 5.26987 50.7184 5.26987C63.906 5.26987 74.6361 16 74.6361 29.1876C74.6361 39.4052 68.1828 48.1225 59.1478 51.5421Z" fill="url(#paint0_linear_732_3439)"></path><defs><linearGradient id="paint0_linear_732_3439" x1="-32.4821" y1="-23.954" x2="85.1758" y2="-18.0774" gradientUnits="userSpaceOnUse"><stop stop-color="#08899A"></stop><stop offset="1" stop-color="#2B3453"></stop></linearGradient></defs></svg>