<svg xmlns="http://www.w3.org/2000/svg" width="58" height="47" viewBox="0 0 58 47" fill="none"><path d="M49.6924 11.2031C49.6924 12.9673 48.2622 14.3974 46.498 14.3974C44.7339 14.3974 43.3037 12.9673 43.3037 11.2031C43.3037 9.43894 44.7339 8.00879 46.498 8.00879C48.2622 8.00879 49.6924 9.43894 49.6924 11.2031Z" fill="url(#paint0_linear_1202_3118)" stroke="white" stroke-width="0.5"></path><path d="M47.667 21.2871H10.333C4.77241 21.2871 0.25 16.7646 0.25 11.2041C0.25 5.64351 4.77241 1.12109 10.333 1.12109H47.667C53.2276 1.12109 57.75 5.64351 57.75 11.2041C57.75 16.7646 53.2276 21.2871 47.667 21.2871ZM10.333 4.06542C6.39582 4.06542 3.19433 7.26691 3.19433 11.2041C3.19433 15.1412 6.39582 18.3427 10.333 18.3427H47.667C51.6042 18.3427 54.8057 15.1412 54.8057 11.2041C54.8057 7.26691 51.6042 4.06542 47.667 4.06542H10.333Z" fill="url(#paint1_linear_1202_3118)" stroke="white" stroke-width="0.5"></path><path d="M13.5263 36.667C13.5263 38.4312 12.0962 39.8613 10.332 39.8613C8.56784 39.8613 7.1377 38.4312 7.1377 36.667C7.1377 34.9028 8.56784 33.4727 10.332 33.4727C12.0962 33.4727 13.5263 34.9028 13.5263 36.667Z" fill="url(#paint2_linear_1202_3118)" stroke="white" stroke-width="0.5"></path><path d="M47.667 46.7499H10.333C4.77241 46.7499 0.25 42.2275 0.25 36.667C0.25 31.1064 4.77241 26.584 10.333 26.584H47.667C53.2276 26.584 57.75 31.1064 57.75 36.667C57.75 42.2275 53.2276 46.7499 47.667 46.7499ZM10.333 29.5283C6.39582 29.5283 3.19433 32.7298 3.19433 36.667C3.19433 40.6041 6.39582 43.8056 10.333 43.8056H47.667C51.6042 43.8056 54.8057 40.6041 54.8057 36.667C54.8057 32.7298 51.6042 29.5283 47.667 29.5283H10.333Z" fill="url(#paint3_linear_1202_3118)" stroke="white" stroke-width="0.5"></path><defs><linearGradient id="paint0_linear_1202_3118" x1="40.1483" y1="5.67132" x2="50.4016" y2="6.18343" gradientUnits="userSpaceOnUse"><stop stop-color="#08899A"></stop><stop offset="1" stop-color="#2B3453"></stop></linearGradient><linearGradient id="paint1_linear_1202_3118" x1="-24.4626" y1="-5.39131" x2="60.4142" y2="6.50643" gradientUnits="userSpaceOnUse"><stop stop-color="#08899A"></stop><stop offset="1" stop-color="#2B3453"></stop></linearGradient><linearGradient id="paint2_linear_1202_3118" x1="3.98228" y1="31.1352" x2="14.2356" y2="31.6473" gradientUnits="userSpaceOnUse"><stop stop-color="#08899A"></stop><stop offset="1" stop-color="#2B3453"></stop></linearGradient><linearGradient id="paint3_linear_1202_3118" x1="-24.4626" y1="20.0716" x2="60.4142" y2="31.9693" gradientUnits="userSpaceOnUse"><stop stop-color="#08899A"></stop><stop offset="1" stop-color="#2B3453"></stop></linearGradient></defs></svg>