<svg xmlns="http://www.w3.org/2000/svg" width="62" height="70" viewBox="0 0 62 70" fill="none"><path d="M6.50805 39.0863C6.60766 39.2449 6.7457 39.3759 6.90939 39.467C7.07307 39.5582 7.25711 39.6065 7.44445 39.6076C7.6318 39.6087 7.81639 39.5625 7.98112 39.4733C8.14586 39.3841 8.28541 39.2547 8.38686 39.0972L9.59968 37.0872C12.2905 38.184 15.7818 39.8638 18.5864 43.885V43.7401C18.5879 42.801 18.7633 41.8704 19.1037 40.9952C15.8502 37.2167 12.08 35.7147 9.54773 34.7091C9.30688 34.6157 9.04087 34.6097 8.79606 34.6922C8.55126 34.7747 8.34317 34.9406 8.20806 35.1608L7.46222 36.3954L2.92047 28.6811L11.426 28.0337C11.0946 28.6183 10.4603 29.3242 10.702 30.0454C10.7509 30.191 10.8298 30.3246 10.9338 30.4377C11.0377 30.5507 11.1642 30.6407 11.3052 30.7016C14.1354 31.927 18.2867 33.7303 21.4954 37.7444C22.0928 37.2709 22.7575 36.8894 23.4677 36.6125C20.346 32.5771 16.3467 30.5386 13.2901 29.1815L14.3427 27.3273C14.4369 27.1543 14.4832 26.9594 14.4767 26.7625C14.4703 26.5657 14.4113 26.3742 14.3058 26.2078C14.2004 26.0415 14.0524 25.9064 13.8771 25.8165C13.7019 25.7266 13.5058 25.6852 13.3092 25.6967L1.00392 26.6334C0.819957 26.6502 0.643151 26.7129 0.489686 26.8157C0.336221 26.9186 0.210999 27.0582 0.125481 27.222C0.0399624 27.3857 -0.00312 27.5683 0.00017584 27.753C0.00347168 27.9377 0.0530407 28.1187 0.144346 28.2792C0.144346 28.2792 6.49875 39.0704 6.50805 39.0863ZM47.9437 29.182C44.8871 30.5386 40.8872 32.5777 37.7661 36.6125C38.4761 36.8895 39.1407 37.271 39.7379 37.7444C42.947 33.7298 47.0978 31.927 49.9286 30.7016C50.0695 30.6406 50.1959 30.5507 50.2998 30.4376C50.4036 30.3246 50.4824 30.191 50.5312 30.0454C50.7625 29.3575 50.1299 28.6019 49.8072 28.0332L58.3133 28.6817L53.7716 36.3954L53.0257 35.1608C52.8921 34.939 52.6841 34.7719 52.4387 34.6892C52.1934 34.6065 51.9267 34.6135 51.6861 34.7091C49.1544 35.7147 45.3858 37.2157 42.1312 40.9995C42.4708 41.8734 42.6458 42.8026 42.6474 43.7401V43.885C45.452 39.8638 48.9427 38.184 51.6336 37.0872L52.8475 39.0972C52.9481 39.2557 53.0874 39.386 53.2521 39.476C53.4169 39.566 53.6019 39.6126 53.7896 39.6115C53.9774 39.6104 54.1618 39.5616 54.3255 39.4697C54.4892 39.3779 54.627 39.2459 54.7257 39.0863L61.0884 28.2792C61.1827 28.1192 61.2347 27.9378 61.2395 27.7521C61.2443 27.5664 61.2017 27.3825 61.1158 27.2178C61.0298 27.0531 60.9033 26.913 60.7482 26.8108C60.5932 26.7085 60.4146 26.6475 60.2293 26.6334C60.2293 26.6334 47.9547 25.6989 47.9251 25.6967C47.7294 25.6878 47.5347 25.7307 47.3609 25.8213C47.1871 25.9118 47.0402 26.0466 46.9353 26.2121C46.8303 26.3776 46.771 26.5679 46.7632 26.7637C46.7555 26.9596 46.7996 27.154 46.8911 27.3273L47.9437 29.182Z" fill="url(#paint0_linear_1194_3156)"></path><path d="M21.8507 16.3967L25.149 16.4481V27.2529C25.7981 26.6673 26.5364 26.189 27.3362 25.8362V15.3709C27.3363 15.0838 27.2234 14.8081 27.0219 14.6035C26.8205 14.3989 26.5467 14.2817 26.2596 14.2773L23.8066 14.239L30.6171 3.1706L37.4281 14.239L34.9751 14.2773C34.6879 14.2816 34.4139 14.3987 34.2124 14.6033C34.0108 14.808 33.8979 15.0837 33.8979 15.3709V25.8362C34.6979 26.1888 35.4364 26.6669 36.0856 27.2524V16.4475L39.384 16.3967C39.5772 16.3938 39.7663 16.3397 39.9318 16.24C40.0974 16.1402 40.2336 15.9984 40.3265 15.8289C40.4194 15.6594 40.4657 15.4683 40.4608 15.2751C40.4558 15.0819 40.3997 14.8934 40.2982 14.7289C40.2982 14.7289 31.5543 0.520786 31.5488 0.510943C31.449 0.354343 31.3114 0.225431 31.1485 0.136124C30.9857 0.0468178 30.803 0 30.6173 0C30.4316 0 30.2489 0.0468178 30.0861 0.136124C29.9233 0.225431 29.7857 0.354343 29.6859 0.510943L20.937 14.73C20.8357 14.8945 20.7797 15.0828 20.7748 15.2759C20.7699 15.469 20.8162 15.66 20.909 15.8294C21.0018 15.9987 21.1379 16.1405 21.3033 16.2403C21.4687 16.34 21.6576 16.3942 21.8507 16.3972V16.3967Z" fill="url(#paint1_linear_1194_3156)"></path><path d="M30.6171 27.334C29.4272 27.3339 28.264 27.6866 27.2746 28.3476C26.2853 29.0086 25.5141 29.9481 25.0587 31.0473C24.6033 32.1466 24.4841 33.3562 24.7161 34.5232C24.9482 35.6902 25.5211 36.7622 26.3624 37.6036C27.2037 38.445 28.2757 39.018 29.4427 39.2502C30.6097 39.4824 31.8193 39.3633 32.9186 38.908C34.0179 38.4527 34.9575 37.6816 35.6186 36.6922C36.2796 35.7029 36.6325 34.5398 36.6325 33.3499C36.6307 31.7551 35.9965 30.2261 34.8689 29.0983C33.7413 27.9705 32.2124 27.336 30.6176 27.334H30.6171ZM30.6171 37.1781C29.8601 37.1781 29.12 36.9536 28.4906 36.5331C27.8612 36.1125 27.3706 35.5147 27.0809 34.8154C26.7911 34.116 26.7153 33.3464 26.863 32.6039C27.0106 31.8615 27.3751 31.1794 27.9103 30.6441C28.4456 30.1088 29.1276 29.7442 29.87 29.5965C30.6125 29.4487 31.382 29.5244 32.0815 29.814C32.7809 30.1037 33.3787 30.5942 33.7994 31.2236C34.22 31.8529 34.4446 32.5929 34.4447 33.3499C34.4434 34.3647 34.0397 35.3375 33.3222 36.055C32.6046 36.7726 31.6318 37.1762 30.6171 37.1775V37.1781Z" fill="url(#paint2_linear_1194_3156)"></path><path d="M47.5709 67.8031H35.9849C36.0489 67.5651 36.0829 67.3201 36.0861 67.0737V59.0526H37.1797C38.0495 59.0516 38.8834 58.7056 39.4984 58.0905C40.1135 57.4755 40.4595 56.6416 40.4605 55.7718V43.7399C40.4585 42.6248 40.116 41.5369 39.4788 40.6219C38.8415 39.7068 37.94 39.0082 36.8948 38.6196C36.2736 39.3566 35.5282 39.9792 34.6922 40.4591H34.9924C35.8623 40.4601 36.6962 40.8061 37.3112 41.4211C37.9263 42.0362 38.2723 42.8701 38.2733 43.7399V55.7712C38.273 56.0612 38.1577 56.3392 37.9526 56.5442C37.7476 56.7492 37.4696 56.8645 37.1797 56.8648H36.0861V47.0218C36.0861 46.7318 35.9708 46.4536 35.7657 46.2485C35.5606 46.0434 35.2825 45.9282 34.9924 45.9282C34.7024 45.9282 34.4242 46.0434 34.2191 46.2485C34.0141 46.4536 33.8988 46.7318 33.8988 47.0218V67.0742C33.9078 67.2577 33.8438 67.4373 33.7209 67.5738C33.598 67.7104 33.4261 67.7928 33.2427 67.8031H31.7116V55.7718C31.7116 55.4817 31.5964 55.2036 31.3913 54.9985C31.1862 54.7934 30.9081 54.6782 30.618 54.6782C30.328 54.6782 30.0498 54.7934 29.8447 54.9985C29.6396 55.2036 29.5244 55.4817 29.5244 55.7718V67.8031H27.9934C27.8099 67.7928 27.6379 67.7104 27.5149 67.5739C27.3919 67.4373 27.3278 67.2577 27.3366 67.0742V47.0218C27.3366 46.7318 27.2214 46.4536 27.0163 46.2485C26.8112 46.0434 26.5331 45.9282 26.243 45.9282C25.953 45.9282 25.6748 46.0434 25.4697 46.2485C25.2647 46.4536 25.1494 46.7318 25.1494 47.0218V56.8659H24.0558C23.7659 56.8656 23.4879 56.7503 23.2829 56.5453C23.0778 56.3403 22.9625 56.0623 22.9622 55.7723V43.7404C22.9632 42.8706 23.3092 42.0367 23.9243 41.4217C24.5393 40.8066 25.3732 40.4606 26.243 40.4596H26.5427C25.7069 39.9797 24.9617 39.3572 24.3407 38.6202C23.2954 39.0087 22.3938 39.7072 21.7564 40.6223C21.1191 41.5374 20.7765 42.6253 20.7745 43.7404V55.7718C20.7753 56.6417 21.1213 57.4757 21.7363 58.0909C22.3514 58.7061 23.1854 59.0521 24.0553 59.0531H25.1489V67.0742C25.1522 67.3206 25.1864 67.5657 25.2506 67.8036H13.1218C12.9662 67.7833 12.8081 67.7964 12.658 67.8421C12.5078 67.8877 12.3692 67.9649 12.2513 68.0684C12.1334 68.1719 12.0389 68.2994 11.9742 68.4423C11.9095 68.5852 11.876 68.7403 11.876 68.8972C11.876 69.0541 11.9095 69.2092 11.9742 69.3522C12.0389 69.4951 12.1334 69.6226 12.2513 69.7261C12.3692 69.8296 12.5078 69.9068 12.658 69.9524C12.8081 69.9981 12.9662 70.0112 13.1218 69.9909H47.5704C47.726 70.0112 47.8841 69.9981 48.0342 69.9524C48.1843 69.9068 48.323 69.8296 48.4409 69.7261C48.5588 69.6226 48.6533 69.4951 48.718 69.3522C48.7827 69.2092 48.8162 69.0541 48.8162 68.8972C48.8162 68.7403 48.7827 68.5852 48.718 68.4423C48.6533 68.2994 48.5588 68.1719 48.4409 68.0684C48.323 67.9649 48.1843 67.8877 48.0342 67.8421C47.8841 67.7964 47.726 67.7833 47.5704 67.8036L47.5709 67.8031Z" fill="url(#paint3_linear_1194_3156)"></path><defs><linearGradient id="paint0_linear_1194_3156" x1="-25.8291" y1="20.1826" x2="63.0372" y2="35.1256" gradientUnits="userSpaceOnUse"><stop stop-color="#08899A"></stop><stop offset="1" stop-color="#2B3453"></stop></linearGradient><linearGradient id="paint1_linear_1194_3156" x1="12.4712" y1="-8.25846" x2="41.8085" y2="-7.19997" gradientUnits="userSpaceOnUse"><stop stop-color="#08899A"></stop><stop offset="1" stop-color="#2B3453"></stop></linearGradient><linearGradient id="paint2_linear_1194_3156" x1="19.5259" y1="23.688" x2="37.4346" y2="24.5824" gradientUnits="userSpaceOnUse"><stop stop-color="#08899A"></stop><stop offset="1" stop-color="#2B3453"></stop></linearGradient><linearGradient id="paint3_linear_1194_3156" x1="-3.70425" y1="29.1104" x2="51.2261" y2="32.34" gradientUnits="userSpaceOnUse"><stop stop-color="#08899A"></stop><stop offset="1" stop-color="#2B3453"></stop></linearGradient></defs></svg>