<svg xmlns="http://www.w3.org/2000/svg" width="431" height="247" viewBox="0 0 431 247" fill="none"><path d="M369.979 2.228V12H368.019V5.644L365.401 12H363.917L361.285 5.644V12H359.325V2.228H361.551L364.659 9.494L367.767 2.228H369.979ZM375.361 12.126C374.615 12.126 373.943 11.9627 373.345 11.636C372.748 11.3 372.277 10.8287 371.931 10.222C371.595 9.61533 371.427 8.91533 371.427 8.122C371.427 7.32867 371.6 6.62867 371.945 6.022C372.3 5.41533 372.781 4.94867 373.387 4.622C373.994 4.286 374.671 4.118 375.417 4.118C376.164 4.118 376.841 4.286 377.447 4.622C378.054 4.94867 378.53 5.41533 378.875 6.022C379.23 6.62867 379.407 7.32867 379.407 8.122C379.407 8.91533 379.225 9.61533 378.861 10.222C378.507 10.8287 378.021 11.3 377.405 11.636C376.799 11.9627 376.117 12.126 375.361 12.126ZM375.361 10.418C375.716 10.418 376.047 10.334 376.355 10.166C376.673 9.98867 376.925 9.72733 377.111 9.382C377.298 9.03667 377.391 8.61667 377.391 8.122C377.391 7.38467 377.195 6.82 376.803 6.428C376.421 6.02667 375.949 5.826 375.389 5.826C374.829 5.826 374.358 6.02667 373.975 6.428C373.602 6.82 373.415 7.38467 373.415 8.122C373.415 8.85933 373.597 9.42867 373.961 9.83C374.335 10.222 374.801 10.418 375.361 10.418ZM385.143 4.132C386.067 4.132 386.814 4.426 387.383 5.014C387.952 5.59267 388.237 6.40467 388.237 7.45V12H386.277V7.716C386.277 7.1 386.123 6.62867 385.815 6.302C385.507 5.966 385.087 5.798 384.555 5.798C384.014 5.798 383.584 5.966 383.267 6.302C382.959 6.62867 382.805 7.1 382.805 7.716V12H380.845V4.244H382.805V5.21C383.066 4.874 383.398 4.61267 383.799 4.426C384.21 4.23 384.658 4.132 385.143 4.132ZM397.311 7.954C397.311 8.234 397.292 8.486 397.255 8.71H391.585C391.631 9.27 391.827 9.70867 392.173 10.026C392.518 10.3433 392.943 10.502 393.447 10.502C394.175 10.502 394.693 10.1893 395.001 9.564H397.115C396.891 10.3107 396.461 10.9267 395.827 11.412C395.192 11.888 394.413 12.126 393.489 12.126C392.742 12.126 392.07 11.9627 391.473 11.636C390.885 11.3 390.423 10.8287 390.087 10.222C389.76 9.61533 389.597 8.91533 389.597 8.122C389.597 7.31933 389.76 6.61467 390.087 6.008C390.413 5.40133 390.871 4.93467 391.459 4.608C392.047 4.28133 392.723 4.118 393.489 4.118C394.226 4.118 394.884 4.27667 395.463 4.594C396.051 4.91133 396.503 5.364 396.821 5.952C397.147 6.53067 397.311 7.198 397.311 7.954ZM395.281 7.394C395.271 6.89 395.089 6.48867 394.735 6.19C394.38 5.882 393.946 5.728 393.433 5.728C392.947 5.728 392.537 5.87733 392.201 6.176C391.874 6.46533 391.673 6.87133 391.599 7.394H395.281ZM403.025 12L401.429 9.592L400.015 12H397.915L400.449 8.108L397.887 4.244H400.099L401.681 6.638L403.109 4.244H405.209L402.661 8.108L405.237 12H403.025ZM409.746 12.126C408.999 12.126 408.327 11.9627 407.73 11.636C407.133 11.3 406.661 10.8287 406.316 10.222C405.98 9.61533 405.812 8.91533 405.812 8.122C405.812 7.32867 405.985 6.62867 406.33 6.022C406.685 5.41533 407.165 4.94867 407.772 4.622C408.379 4.286 409.055 4.118 409.802 4.118C410.549 4.118 411.225 4.286 411.832 4.622C412.439 4.94867 412.915 5.41533 413.26 6.022C413.615 6.62867 413.792 7.32867 413.792 8.122C413.792 8.91533 413.61 9.61533 413.246 10.222C412.891 10.8287 412.406 11.3 411.79 11.636C411.183 11.9627 410.502 12.126 409.746 12.126ZM409.746 10.418C410.101 10.418 410.432 10.334 410.74 10.166C411.057 9.98867 411.309 9.72733 411.496 9.382C411.683 9.03667 411.776 8.61667 411.776 8.122C411.776 7.38467 411.58 6.82 411.188 6.428C410.805 6.02667 410.334 5.826 409.774 5.826C409.214 5.826 408.743 6.02667 408.36 6.428C407.987 6.82 407.8 7.38467 407.8 8.122C407.8 8.85933 407.982 9.42867 408.346 9.83C408.719 10.222 409.186 10.418 409.746 10.418Z" fill="black"></path><path d="M5.168 132.199C4.75733 132.423 4.44467 132.731 4.23 133.123C4.01533 133.515 3.908 133.972 3.908 134.495C3.908 135.073 4.03867 135.587 4.3 136.035C4.56133 136.483 4.93467 136.833 5.42 137.085C5.90533 137.337 6.46533 137.463 7.1 137.463C7.75333 137.463 8.32267 137.337 8.808 137.085C9.29333 136.823 9.66667 136.464 9.928 136.007C10.1893 135.549 10.32 135.017 10.32 134.411C10.32 133.664 10.124 133.053 9.732 132.577C9.33067 132.101 8.77533 131.788 8.066 131.639L8.066 134.999L6.568 134.999L6.568 129.707L8.276 129.707C8.95733 129.837 9.58733 130.117 10.166 130.547C10.7447 130.976 11.2113 131.531 11.566 132.213C11.9113 132.885 12.084 133.641 12.084 134.481C12.084 135.423 11.874 136.277 11.454 137.043C11.0247 137.799 10.432 138.396 9.676 138.835C8.92 139.264 8.06133 139.479 7.1 139.479C6.13867 139.479 5.28 139.264 4.524 138.835C3.75867 138.396 3.166 137.799 2.746 137.043C2.31667 136.277 2.102 135.428 2.102 134.495C2.102 133.393 2.37267 132.437 2.914 131.625C3.446 130.813 4.19733 130.253 5.168 129.945L5.168 132.199ZM8.094 128.761C7.31 128.761 6.61467 128.607 6.008 128.299C5.40133 127.981 4.93467 127.557 4.608 127.025C4.28133 126.483 4.118 125.881 4.118 125.219C4.118 124.64 4.23467 124.136 4.468 123.707C4.70133 123.268 4.99533 122.918 5.35 122.657L4.244 122.657L4.244 120.683L12 120.683L12 122.657L10.866 122.657C11.23 122.909 11.5333 123.259 11.776 123.707C12.0093 124.145 12.126 124.654 12.126 125.233C12.126 125.886 11.958 126.483 11.622 127.025C11.286 127.557 10.8147 127.981 10.208 128.299C9.592 128.607 8.88733 128.761 8.094 128.761ZM8.122 122.657C7.646 122.657 7.24 122.75 6.904 122.937C6.55867 123.123 6.29733 123.375 6.12 123.693C5.93333 124.01 5.84 124.351 5.84 124.715C5.84 125.079 5.92867 125.415 6.106 125.723C6.28333 126.031 6.54467 126.283 6.89 126.479C7.226 126.665 7.62733 126.759 8.094 126.759C8.56067 126.759 8.97133 126.665 9.326 126.479C9.67133 126.283 9.93733 126.031 10.124 125.723C10.3107 125.405 10.404 125.069 10.404 124.715C10.404 124.351 10.3153 124.01 10.138 123.693C9.95133 123.375 9.69 123.123 9.354 122.937C9.00867 122.75 8.598 122.657 8.122 122.657ZM3.32 117.774C3.32 118.12 3.21267 118.409 2.998 118.642C2.774 118.866 2.49867 118.978 2.172 118.978C1.84533 118.978 1.57467 118.866 1.36 118.642C1.136 118.409 1.024 118.12 1.024 117.774C1.024 117.429 1.136 117.144 1.36 116.92C1.57466 116.687 1.84533 116.57 2.172 116.57C2.49867 116.57 2.774 116.687 2.998 116.92C3.21267 117.144 3.32 117.429 3.32 117.774ZM4.244 116.808L12 116.808L12 118.768L4.244 118.768L4.244 116.808ZM4.132 110.574C4.132 109.65 4.426 108.903 5.014 108.334C5.59267 107.765 6.40467 107.48 7.45 107.48L12 107.48L12 109.44L7.716 109.44C7.1 109.44 6.62867 109.594 6.302 109.902C5.966 110.21 5.798 110.63 5.798 111.162C5.798 111.703 5.966 112.133 6.302 112.45C6.62867 112.758 7.1 112.912 7.716 112.912L12 112.912L12 114.872L4.244 114.872L4.244 112.912L5.21 112.912C4.874 112.651 4.61267 112.319 4.426 111.918C4.23 111.507 4.132 111.059 4.132 110.574ZM12.126 102.648C12.126 103.283 12.014 103.852 11.79 104.356C11.5567 104.86 11.244 105.261 10.852 105.56C10.46 105.849 10.026 106.008 9.55 106.036L9.55 104.062C9.84866 104.025 10.096 103.88 10.292 103.628C10.488 103.367 10.586 103.045 10.586 102.662C10.586 102.289 10.5113 101.999 10.362 101.794C10.2127 101.579 10.0213 101.472 9.788 101.472C9.536 101.472 9.34933 101.603 9.228 101.864C9.09733 102.116 8.95733 102.522 8.808 103.082C8.668 103.661 8.52333 104.137 8.374 104.51C8.22467 104.874 7.996 105.191 7.688 105.462C7.38 105.723 6.96466 105.854 6.442 105.854C6.01266 105.854 5.62066 105.733 5.266 105.49C4.91133 105.238 4.63133 104.883 4.426 104.426C4.22066 103.959 4.118 103.413 4.118 102.788C4.118 101.864 4.35133 101.127 4.818 100.576C5.27533 100.025 5.896 99.722 6.68 99.666L6.68 101.542C6.372 101.57 6.12933 101.701 5.952 101.934C5.76533 102.158 5.672 102.461 5.672 102.844C5.672 103.199 5.73733 103.474 5.868 103.67C5.99866 103.857 6.18066 103.95 6.414 103.95C6.67533 103.95 6.876 103.819 7.016 103.558C7.14666 103.297 7.282 102.891 7.422 102.34C7.562 101.78 7.70666 101.318 7.856 100.954C8.00533 100.59 8.23866 100.277 8.556 100.016C8.864 99.7454 9.27466 99.6054 9.788 99.596C10.236 99.596 10.6373 99.722 10.992 99.974C11.3467 100.217 11.6267 100.571 11.832 101.038C12.028 101.495 12.126 102.032 12.126 102.648Z" fill="#2B3453"></path><path d="M209.799 233.466V235.048H207.195V243.238H205.235V235.048H202.631V233.466H209.799ZM212.223 234.558C211.877 234.558 211.588 234.451 211.355 234.236C211.131 234.012 211.019 233.737 211.019 233.41C211.019 233.084 211.131 232.813 211.355 232.598C211.588 232.374 211.877 232.262 212.223 232.262C212.568 232.262 212.853 232.374 213.077 232.598C213.31 232.813 213.427 233.084 213.427 233.41C213.427 233.737 213.31 234.012 213.077 234.236C212.853 234.451 212.568 234.558 212.223 234.558ZM213.189 235.482V243.238H211.229V235.482H213.189ZM224.757 235.37C225.709 235.37 226.475 235.664 227.053 236.252C227.641 236.831 227.935 237.643 227.935 238.688V243.238H225.975V238.954C225.975 238.348 225.821 237.886 225.513 237.568C225.205 237.242 224.785 237.078 224.253 237.078C223.721 237.078 223.297 237.242 222.979 237.568C222.671 237.886 222.517 238.348 222.517 238.954V243.238H220.557V238.954C220.557 238.348 220.403 237.886 220.095 237.568C219.787 237.242 219.367 237.078 218.835 237.078C218.294 237.078 217.865 237.242 217.547 237.568C217.239 237.886 217.085 238.348 217.085 238.954V243.238H215.125V235.482H217.085V236.42C217.337 236.094 217.659 235.837 218.051 235.65C218.453 235.464 218.891 235.37 219.367 235.37C219.974 235.37 220.515 235.501 220.991 235.762C221.467 236.014 221.836 236.378 222.097 236.854C222.349 236.406 222.713 236.047 223.189 235.776C223.675 235.506 224.197 235.37 224.757 235.37ZM237.005 239.192C237.005 239.472 236.986 239.724 236.949 239.948H231.279C231.326 240.508 231.522 240.947 231.867 241.264C232.212 241.582 232.637 241.74 233.141 241.74C233.869 241.74 234.387 241.428 234.695 240.802H236.809C236.585 241.549 236.156 242.165 235.521 242.65C234.886 243.126 234.107 243.364 233.183 243.364C232.436 243.364 231.764 243.201 231.167 242.874C230.579 242.538 230.117 242.067 229.781 241.46C229.454 240.854 229.291 240.154 229.291 239.36C229.291 238.558 229.454 237.853 229.781 237.246C230.108 236.64 230.565 236.173 231.153 235.846C231.741 235.52 232.418 235.356 233.183 235.356C233.92 235.356 234.578 235.515 235.157 235.832C235.745 236.15 236.198 236.602 236.515 237.19C236.842 237.769 237.005 238.436 237.005 239.192ZM234.975 238.632C234.966 238.128 234.784 237.727 234.429 237.428C234.074 237.12 233.64 236.966 233.127 236.966C232.642 236.966 232.231 237.116 231.895 237.414C231.568 237.704 231.368 238.11 231.293 238.632H234.975Z" fill="#2B3453"></path><path d="M328.801 186.435C328.12 186.435 327.504 186.318 326.953 186.085C326.412 185.852 325.982 185.516 325.665 185.077C325.348 184.638 325.184 184.12 325.175 183.523H327.275C327.303 183.924 327.443 184.242 327.695 184.475C327.956 184.708 328.311 184.825 328.759 184.825C329.216 184.825 329.576 184.718 329.837 184.503C330.098 184.279 330.229 183.99 330.229 183.635C330.229 183.346 330.14 183.108 329.963 182.921C329.786 182.734 329.562 182.59 329.291 182.487C329.03 182.375 328.666 182.254 328.199 182.123C327.564 181.936 327.046 181.754 326.645 181.577C326.253 181.39 325.912 181.115 325.623 180.751C325.343 180.378 325.203 179.883 325.203 179.267C325.203 178.688 325.348 178.184 325.637 177.755C325.926 177.326 326.332 176.999 326.855 176.775C327.378 176.542 327.975 176.425 328.647 176.425C329.655 176.425 330.472 176.672 331.097 177.167C331.732 177.652 332.082 178.334 332.147 179.211H329.991C329.972 178.875 329.828 178.6 329.557 178.385C329.296 178.161 328.946 178.049 328.507 178.049C328.124 178.049 327.816 178.147 327.583 178.343C327.359 178.539 327.247 178.824 327.247 179.197C327.247 179.458 327.331 179.678 327.499 179.855C327.676 180.023 327.891 180.163 328.143 180.275C328.404 180.378 328.768 180.499 329.235 180.639C329.87 180.826 330.388 181.012 330.789 181.199C331.19 181.386 331.536 181.666 331.825 182.039C332.114 182.412 332.259 182.902 332.259 183.509C332.259 184.032 332.124 184.517 331.853 184.965C331.582 185.413 331.186 185.772 330.663 186.043C330.14 186.304 329.52 186.435 328.801 186.435ZM336.24 180.191V183.943C336.24 184.204 336.301 184.396 336.422 184.517C336.553 184.629 336.768 184.685 337.066 184.685H337.976V186.337H336.744C335.092 186.337 334.266 185.534 334.266 183.929V180.191H333.342V178.581H334.266V176.663H336.24V178.581H337.976V180.191H336.24ZM342.83 186.463C342.083 186.463 341.411 186.3 340.814 185.973C340.217 185.637 339.745 185.166 339.4 184.559C339.064 183.952 338.896 183.252 338.896 182.459C338.896 181.666 339.069 180.966 339.414 180.359C339.769 179.752 340.249 179.286 340.856 178.959C341.463 178.623 342.139 178.455 342.886 178.455C343.633 178.455 344.309 178.623 344.916 178.959C345.523 179.286 345.999 179.752 346.344 180.359C346.699 180.966 346.876 181.666 346.876 182.459C346.876 183.252 346.694 183.952 346.33 184.559C345.975 185.166 345.49 185.637 344.874 185.973C344.267 186.3 343.586 186.463 342.83 186.463ZM342.83 184.755C343.185 184.755 343.516 184.671 343.824 184.503C344.141 184.326 344.393 184.064 344.58 183.719C344.767 183.374 344.86 182.954 344.86 182.459C344.86 181.722 344.664 181.157 344.272 180.765C343.889 180.364 343.418 180.163 342.858 180.163C342.298 180.163 341.827 180.364 341.444 180.765C341.071 181.157 340.884 181.722 340.884 182.459C340.884 183.196 341.066 183.766 341.43 184.167C341.803 184.559 342.27 184.755 342.83 184.755ZM347.81 182.459C347.81 181.656 347.973 180.956 348.3 180.359C348.626 179.752 349.079 179.286 349.658 178.959C350.236 178.623 350.899 178.455 351.646 178.455C352.607 178.455 353.4 178.698 354.026 179.183C354.66 179.659 355.085 180.331 355.3 181.199H353.186C353.074 180.863 352.882 180.602 352.612 180.415C352.35 180.219 352.024 180.121 351.632 180.121C351.072 180.121 350.628 180.326 350.302 180.737C349.975 181.138 349.812 181.712 349.812 182.459C349.812 183.196 349.975 183.77 350.302 184.181C350.628 184.582 351.072 184.783 351.632 184.783C352.425 184.783 352.943 184.428 353.186 183.719H355.3C355.085 184.559 354.66 185.226 354.026 185.721C353.391 186.216 352.598 186.463 351.646 186.463C350.899 186.463 350.236 186.3 349.658 185.973C349.079 185.637 348.626 185.17 348.3 184.573C347.973 183.966 347.81 183.262 347.81 182.459ZM361.328 186.337L358.696 183.033V186.337H356.736V175.977H358.696V181.871L361.3 178.581H363.848L360.432 182.473L363.876 186.337H361.328ZM378.901 176.565V186.337H376.941V179.981L374.323 186.337H372.839L370.207 179.981V186.337H368.247V176.565H370.473L373.581 183.831L376.689 176.565H378.901ZM380.335 182.431C380.335 181.647 380.489 180.952 380.797 180.345C381.114 179.738 381.539 179.272 382.071 178.945C382.612 178.618 383.214 178.455 383.877 178.455C384.456 178.455 384.96 178.572 385.389 178.805C385.828 179.038 386.178 179.332 386.439 179.687V178.581H388.413V186.337H386.439V185.203C386.187 185.567 385.837 185.87 385.389 186.113C384.95 186.346 384.442 186.463 383.863 186.463C383.21 186.463 382.612 186.295 382.071 185.959C381.539 185.623 381.114 185.152 380.797 184.545C380.489 183.929 380.335 183.224 380.335 182.431ZM386.439 182.459C386.439 181.983 386.346 181.577 386.159 181.241C385.972 180.896 385.72 180.634 385.403 180.457C385.086 180.27 384.745 180.177 384.381 180.177C384.017 180.177 383.681 180.266 383.373 180.443C383.065 180.62 382.813 180.882 382.617 181.227C382.43 181.563 382.337 181.964 382.337 182.431C382.337 182.898 382.43 183.308 382.617 183.663C382.813 184.008 383.065 184.274 383.373 184.461C383.69 184.648 384.026 184.741 384.381 184.741C384.745 184.741 385.086 184.652 385.403 184.475C385.72 184.288 385.972 184.027 386.159 183.691C386.346 183.346 386.439 182.935 386.439 182.459ZM392.287 179.785C392.539 179.374 392.866 179.052 393.267 178.819C393.678 178.586 394.145 178.469 394.667 178.469V180.527H394.149C393.533 180.527 393.067 180.672 392.749 180.961C392.441 181.25 392.287 181.754 392.287 182.473V186.337H390.327V178.581H392.287V179.785ZM400.579 186.337L397.947 183.033V186.337H395.987V175.977H397.947V181.871L400.551 178.581H403.099L399.683 182.473L403.127 186.337H400.579ZM411.373 182.291C411.373 182.571 411.355 182.823 411.317 183.047H405.647C405.694 183.607 405.89 184.046 406.235 184.363C406.581 184.68 407.005 184.839 407.509 184.839C408.237 184.839 408.755 184.526 409.063 183.901H411.177C410.953 184.648 410.524 185.264 409.889 185.749C409.255 186.225 408.475 186.463 407.551 186.463C406.805 186.463 406.133 186.3 405.535 185.973C404.947 185.637 404.485 185.166 404.149 184.559C403.823 183.952 403.659 183.252 403.659 182.459C403.659 181.656 403.823 180.952 404.149 180.345C404.476 179.738 404.933 179.272 405.521 178.945C406.109 178.618 406.786 178.455 407.551 178.455C408.289 178.455 408.947 178.614 409.525 178.931C410.113 179.248 410.566 179.701 410.883 180.289C411.21 180.868 411.373 181.535 411.373 182.291ZM409.343 181.731C409.334 181.227 409.152 180.826 408.797 180.527C408.443 180.219 408.009 180.065 407.495 180.065C407.01 180.065 406.599 180.214 406.263 180.513C405.937 180.802 405.736 181.208 405.661 181.731H409.343ZM415.086 180.191V183.943C415.086 184.204 415.147 184.396 415.268 184.517C415.399 184.629 415.613 184.685 415.912 184.685H416.822V186.337H415.59C413.938 186.337 413.112 185.534 413.112 183.929V180.191H412.188V178.581H413.112V176.663H415.086V178.581H416.822V180.191H415.086Z" fill="black"></path><path d="M391.089 64.0723C390.865 63.6616 390.557 63.349 390.165 63.1343C389.773 62.9196 389.316 62.8123 388.793 62.8123C388.214 62.8123 387.701 62.943 387.253 63.2043C386.805 63.4656 386.455 63.839 386.203 64.3243C385.951 64.8096 385.825 65.3696 385.825 66.0043C385.825 66.6576 385.951 67.227 386.203 67.7123C386.464 68.1976 386.824 68.571 387.281 68.8323C387.738 69.0936 388.27 69.2243 388.877 69.2243C389.624 69.2243 390.235 69.0283 390.711 68.6363C391.187 68.235 391.5 67.6796 391.649 66.9703H388.289V65.4723H393.581V67.1803C393.45 67.8616 393.17 68.4916 392.741 69.0703C392.312 69.649 391.756 70.1156 391.075 70.4703C390.403 70.8156 389.647 70.9883 388.807 70.9883C387.864 70.9883 387.01 70.7783 386.245 70.3583C385.489 69.929 384.892 69.3363 384.453 68.5803C384.024 67.8243 383.809 66.9656 383.809 66.0043C383.809 65.043 384.024 64.1843 384.453 63.4283C384.892 62.663 385.489 62.0703 386.245 61.6503C387.01 61.221 387.86 61.0063 388.793 61.0063C389.894 61.0063 390.851 61.277 391.663 61.8183C392.475 62.3503 393.035 63.1016 393.343 64.0723H391.089ZM398.475 71.0303C397.728 71.0303 397.056 70.867 396.459 70.5403C395.862 70.2043 395.39 69.733 395.045 69.1263C394.709 68.5196 394.541 67.8196 394.541 67.0263C394.541 66.233 394.714 65.533 395.059 64.9263C395.414 64.3196 395.894 63.853 396.501 63.5263C397.108 63.1903 397.784 63.0223 398.531 63.0223C399.278 63.0223 399.954 63.1903 400.561 63.5263C401.168 63.853 401.644 64.3196 401.989 64.9263C402.344 65.533 402.521 66.233 402.521 67.0263C402.521 67.8196 402.339 68.5196 401.975 69.1263C401.62 69.733 401.135 70.2043 400.519 70.5403C399.912 70.867 399.231 71.0303 398.475 71.0303ZM398.475 69.3223C398.83 69.3223 399.161 69.2383 399.469 69.0703C399.786 68.893 400.038 68.6316 400.225 68.2863C400.412 67.941 400.505 67.521 400.505 67.0263C400.505 66.289 400.309 65.7243 399.917 65.3323C399.534 64.931 399.063 64.7303 398.503 64.7303C397.943 64.7303 397.472 64.931 397.089 65.3323C396.716 65.7243 396.529 66.289 396.529 67.0263C396.529 67.7636 396.711 68.333 397.075 68.7343C397.448 69.1263 397.915 69.3223 398.475 69.3223ZM405.919 60.5443V70.9043H403.959V60.5443H405.919ZM407.351 66.9983C407.351 66.2143 407.505 65.519 407.813 64.9123C408.13 64.3056 408.56 63.839 409.101 63.5123C409.642 63.1856 410.244 63.0223 410.907 63.0223C411.411 63.0223 411.892 63.1343 412.349 63.3583C412.806 63.573 413.17 63.8623 413.441 64.2263V60.5443H415.429V70.9043H413.441V69.7563C413.198 70.139 412.858 70.447 412.419 70.6803C411.98 70.9136 411.472 71.0303 410.893 71.0303C410.24 71.0303 409.642 70.8623 409.101 70.5263C408.56 70.1903 408.13 69.719 407.813 69.1123C407.505 68.4963 407.351 67.7916 407.351 66.9983ZM413.455 67.0263C413.455 66.5503 413.362 66.1443 413.175 65.8083C412.988 65.463 412.736 65.2016 412.419 65.0243C412.102 64.8376 411.761 64.7443 411.397 64.7443C411.033 64.7443 410.697 64.833 410.389 65.0103C410.081 65.1876 409.829 65.449 409.633 65.7943C409.446 66.1303 409.353 66.5316 409.353 66.9983C409.353 67.465 409.446 67.8756 409.633 68.2303C409.829 68.5756 410.081 68.8416 410.389 69.0283C410.706 69.215 411.042 69.3083 411.397 69.3083C411.761 69.3083 412.102 69.2196 412.419 69.0423C412.736 68.8556 412.988 68.5943 413.175 68.2583C413.362 67.913 413.455 67.5023 413.455 67.0263Z" fill="black"></path><path d="M329.741 97.8716V99.4536H325.667V101.96H328.789V103.514H325.667V107.644H323.707V97.8716H329.741ZM332.125 98.9636C331.779 98.9636 331.49 98.8562 331.257 98.6416C331.033 98.4176 330.921 98.1422 330.921 97.8156C330.921 97.4889 331.033 97.2182 331.257 97.0036C331.49 96.7796 331.779 96.6676 332.125 96.6676C332.47 96.6676 332.755 96.7796 332.979 97.0036C333.212 97.2182 333.329 97.4889 333.329 97.8156C333.329 98.1422 333.212 98.4176 332.979 98.6416C332.755 98.8562 332.47 98.9636 332.125 98.9636ZM333.091 99.8876V107.644H331.131V99.8876H333.091ZM339.311 107.644L337.715 105.236L336.301 107.644H334.201L336.735 103.752L334.173 99.8876H336.385L337.967 102.282L339.395 99.8876H341.495L338.947 103.752L341.523 107.644H339.311ZM349.798 103.598C349.798 103.878 349.779 104.13 349.742 104.354H344.072C344.118 104.914 344.314 105.352 344.66 105.67C345.005 105.987 345.43 106.146 345.934 106.146C346.662 106.146 347.18 105.833 347.488 105.208H349.602C349.378 105.954 348.948 106.57 348.314 107.056C347.679 107.532 346.9 107.77 345.976 107.77C345.229 107.77 344.557 107.606 343.96 107.28C343.372 106.944 342.91 106.472 342.574 105.866C342.247 105.259 342.084 104.559 342.084 103.766C342.084 102.963 342.247 102.258 342.574 101.652C342.9 101.045 343.358 100.578 343.946 100.252C344.534 99.9249 345.21 99.7616 345.976 99.7616C346.713 99.7616 347.371 99.9202 347.95 100.238C348.538 100.555 348.99 101.008 349.308 101.596C349.634 102.174 349.798 102.842 349.798 103.598ZM347.768 103.038C347.758 102.534 347.576 102.132 347.222 101.834C346.867 101.526 346.433 101.372 345.92 101.372C345.434 101.372 345.024 101.521 344.688 101.82C344.361 102.109 344.16 102.515 344.086 103.038H347.768ZM350.724 103.738C350.724 102.954 350.878 102.258 351.186 101.652C351.504 101.045 351.933 100.578 352.474 100.252C353.016 99.9249 353.618 99.7616 354.28 99.7616C354.784 99.7616 355.265 99.8736 355.722 100.098C356.18 100.312 356.544 100.602 356.814 100.966V97.2836H358.802V107.644H356.814V106.496C356.572 106.878 356.231 107.186 355.792 107.42C355.354 107.653 354.845 107.77 354.266 107.77C353.613 107.77 353.016 107.602 352.474 107.266C351.933 106.93 351.504 106.458 351.186 105.852C350.878 105.236 350.724 104.531 350.724 103.738ZM356.828 103.766C356.828 103.29 356.735 102.884 356.548 102.548C356.362 102.202 356.11 101.941 355.792 101.764C355.475 101.577 355.134 101.484 354.77 101.484C354.406 101.484 354.07 101.572 353.762 101.75C353.454 101.927 353.202 102.188 353.006 102.534C352.82 102.87 352.726 103.271 352.726 103.738C352.726 104.204 352.82 104.615 353.006 104.97C353.202 105.315 353.454 105.581 353.762 105.768C354.08 105.954 354.416 106.048 354.77 106.048C355.134 106.048 355.475 105.959 355.792 105.782C356.11 105.595 356.362 105.334 356.548 104.998C356.735 104.652 356.828 104.242 356.828 103.766ZM367.468 97.8716C368.495 97.8716 369.396 98.0722 370.17 98.4736C370.954 98.8749 371.556 99.4489 371.976 100.196C372.406 100.933 372.62 101.792 372.62 102.772C372.62 103.752 372.406 104.61 371.976 105.348C371.556 106.076 370.954 106.64 370.17 107.042C369.396 107.443 368.495 107.644 367.468 107.644H364.052V97.8716H367.468ZM367.398 105.978C368.425 105.978 369.218 105.698 369.778 105.138C370.338 104.578 370.618 103.789 370.618 102.772C370.618 101.754 370.338 100.961 369.778 100.392C369.218 99.8129 368.425 99.5236 367.398 99.5236H366.012V105.978H367.398ZM381.298 103.598C381.298 103.878 381.279 104.13 381.242 104.354H375.572C375.618 104.914 375.814 105.352 376.16 105.67C376.505 105.987 376.93 106.146 377.434 106.146C378.162 106.146 378.68 105.833 378.988 105.208H381.102C380.878 105.954 380.448 106.57 379.814 107.056C379.179 107.532 378.4 107.77 377.476 107.77C376.729 107.77 376.057 107.606 375.46 107.28C374.872 106.944 374.41 106.472 374.074 105.866C373.747 105.259 373.584 104.559 373.584 103.766C373.584 102.963 373.747 102.258 374.074 101.652C374.4 101.045 374.858 100.578 375.446 100.252C376.034 99.9249 376.71 99.7616 377.476 99.7616C378.213 99.7616 378.871 99.9202 379.45 100.238C380.038 100.555 380.49 101.008 380.808 101.596C381.134 102.174 381.298 102.842 381.298 103.598ZM379.268 103.038C379.258 102.534 379.076 102.132 378.722 101.834C378.367 101.526 377.933 101.372 377.42 101.372C376.934 101.372 376.524 101.521 376.188 101.82C375.861 102.109 375.66 102.515 375.586 103.038H379.268ZM384.688 101.008C384.94 100.653 385.286 100.359 385.724 100.126C386.172 99.8829 386.681 99.7616 387.25 99.7616C387.913 99.7616 388.51 99.9249 389.042 100.252C389.584 100.578 390.008 101.045 390.316 101.652C390.634 102.249 390.792 102.944 390.792 103.738C390.792 104.531 390.634 105.236 390.316 105.852C390.008 106.458 389.584 106.93 389.042 107.266C388.51 107.602 387.913 107.77 387.25 107.77C386.681 107.77 386.177 107.653 385.738 107.42C385.309 107.186 384.959 106.892 384.688 106.538V111.34H382.728V99.8876H384.688V101.008ZM388.79 103.738C388.79 103.271 388.692 102.87 388.496 102.534C388.31 102.188 388.058 101.927 387.74 101.75C387.432 101.572 387.096 101.484 386.732 101.484C386.378 101.484 386.042 101.577 385.724 101.764C385.416 101.941 385.164 102.202 384.968 102.548C384.782 102.893 384.688 103.299 384.688 103.766C384.688 104.232 384.782 104.638 384.968 104.984C385.164 105.329 385.416 105.595 385.724 105.782C386.042 105.959 386.378 106.048 386.732 106.048C387.096 106.048 387.432 105.954 387.74 105.768C388.058 105.581 388.31 105.315 388.496 104.97C388.692 104.624 388.79 104.214 388.79 103.738ZM395.66 107.77C394.914 107.77 394.242 107.606 393.644 107.28C393.047 106.944 392.576 106.472 392.23 105.866C391.894 105.259 391.726 104.559 391.726 103.766C391.726 102.972 391.899 102.272 392.244 101.666C392.599 101.059 393.08 100.592 393.686 100.266C394.293 99.9296 394.97 99.7616 395.716 99.7616C396.463 99.7616 397.14 99.9296 397.746 100.266C398.353 100.592 398.829 101.059 399.174 101.666C399.529 102.272 399.706 102.972 399.706 103.766C399.706 104.559 399.524 105.259 399.16 105.866C398.806 106.472 398.32 106.944 397.704 107.28C397.098 107.606 396.416 107.77 395.66 107.77ZM395.66 106.062C396.015 106.062 396.346 105.978 396.654 105.81C396.972 105.632 397.224 105.371 397.41 105.026C397.597 104.68 397.69 104.26 397.69 103.766C397.69 103.028 397.494 102.464 397.102 102.072C396.72 101.67 396.248 101.47 395.688 101.47C395.128 101.47 394.657 101.67 394.274 102.072C393.901 102.464 393.714 103.028 393.714 103.766C393.714 104.503 393.896 105.072 394.26 105.474C394.634 105.866 395.1 106.062 395.66 106.062ZM404.112 107.77C403.478 107.77 402.908 107.658 402.404 107.434C401.9 107.2 401.499 106.888 401.2 106.496C400.911 106.104 400.752 105.67 400.724 105.194H402.698C402.736 105.492 402.88 105.74 403.132 105.936C403.394 106.132 403.716 106.23 404.098 106.23C404.472 106.23 404.761 106.155 404.966 106.006C405.181 105.856 405.288 105.665 405.288 105.432C405.288 105.18 405.158 104.993 404.896 104.872C404.644 104.741 404.238 104.601 403.678 104.452C403.1 104.312 402.624 104.167 402.25 104.018C401.886 103.868 401.569 103.64 401.298 103.332C401.037 103.024 400.906 102.608 400.906 102.086C400.906 101.656 401.028 101.264 401.27 100.91C401.522 100.555 401.877 100.275 402.334 100.07C402.801 99.8642 403.347 99.7616 403.972 99.7616C404.896 99.7616 405.634 99.9949 406.184 100.462C406.735 100.919 407.038 101.54 407.094 102.324H405.218C405.19 102.016 405.06 101.773 404.826 101.596C404.602 101.409 404.299 101.316 403.916 101.316C403.562 101.316 403.286 101.381 403.09 101.512C402.904 101.642 402.81 101.824 402.81 102.058C402.81 102.319 402.941 102.52 403.202 102.66C403.464 102.79 403.87 102.926 404.42 103.066C404.98 103.206 405.442 103.35 405.806 103.5C406.17 103.649 406.483 103.882 406.744 104.2C407.015 104.508 407.155 104.918 407.164 105.432C407.164 105.88 407.038 106.281 406.786 106.636C406.544 106.99 406.189 107.27 405.722 107.476C405.265 107.672 404.728 107.77 404.112 107.77ZM409.767 98.9636C409.422 98.9636 409.132 98.8562 408.899 98.6416C408.675 98.4176 408.563 98.1422 408.563 97.8156C408.563 97.4889 408.675 97.2182 408.899 97.0036C409.132 96.7796 409.422 96.6676 409.767 96.6676C410.112 96.6676 410.397 96.7796 410.621 97.0036C410.854 97.2182 410.971 97.4889 410.971 97.8156C410.971 98.1422 410.854 98.4176 410.621 98.6416C410.397 98.8562 410.112 98.9636 409.767 98.9636ZM410.733 99.8876V107.644H408.773V99.8876H410.733ZM414.952 101.498V105.25C414.952 105.511 415.012 105.702 415.134 105.824C415.264 105.936 415.479 105.992 415.778 105.992H416.688V107.644H415.456C413.804 107.644 412.978 106.841 412.978 105.236V101.498H412.054V99.8876H412.978V97.9696H414.952V99.8876H416.688V101.498H414.952Z" fill="black"></path><path d="M24.2139 225.186L410.419 225.186" stroke="#A1D0D7" stroke-width="2.42135"></path><path d="M24.2139 226.396L25.4652 7.56319" stroke="#A1D0D7" stroke-width="2.42135"></path><path d="M30.3994 218.9C82.199 154.026 231.92 24.2783 416.405 24.2783" stroke="#02C215" stroke-width="1.81601"></path><path opacity="0.4" d="M30.3994 218.9C75.7052 172.732 216.334 80.3965 416.405 80.3965" stroke="#0C849C" stroke-width="1.194"></path><path opacity="0.4" d="M30.3994 218.9C68.0032 185.468 197.85 118.604 416.405 118.604" stroke="#0C849C" stroke-width="1.194"></path><path opacity="0.4" d="M30.3994 218.9C69.3624 152.036 110.777 34.5039 183.417 34.5039C269.482 34.5039 282.693 167.678 415.952 167.678" stroke="#0C849C" stroke-width="1.03767" stroke-linecap="round" stroke-linejoin="round"></path><ellipse cx="344.718" cy="8.15975" rx="6.73977" ry="6.56698" fill="#02C215"></ellipse><ellipse cx="311.83" cy="182.767" rx="6.73977" ry="6.56698" fill="#0C849C"></ellipse><ellipse cx="25.4982" cy="7.56276" rx="6.12707" ry="5.96998" fill="#A1D0D7"></ellipse><ellipse cx="411.504" cy="224.87" rx="6.12707" ry="5.96998" fill="#A1D0D7"></ellipse><ellipse cx="370.452" cy="67.8599" rx="6.73977" ry="6.56698" fill="#0C849C"></ellipse><ellipse cx="309.409" cy="104.598" rx="6.73977" ry="6.56698" fill="#0C849C"></ellipse></svg>