<svg xmlns="http://www.w3.org/2000/svg" width="59" height="58" viewBox="0 0 59 58" fill="none"><path d="M38.4365 25.2145C38.0327 25.6139 38.0293 26.265 38.4287 26.6687C38.8281 27.0724 39.4792 27.0759 39.8829 26.6765L38.4365 25.2145ZM52.4195 13.8492C52.4225 13.2813 51.9646 12.8185 51.3967 12.8155L42.1423 12.7661C41.5744 12.7631 41.1116 13.221 41.1085 13.7889C41.1055 14.3568 41.5634 14.8196 42.1313 14.8227L50.3574 14.8665L50.3136 23.0927C50.3105 23.6606 50.7684 24.1234 51.3363 24.1264C51.9042 24.1294 52.3671 23.6715 52.3701 23.1036L52.4195 13.8492ZM39.8829 26.6765L52.1144 14.5747L50.668 13.1128L38.4365 25.2145L39.8829 26.6765Z" fill="url(#paint0_linear_504_1189)"></path><rect opacity="0.1" x="0.793457" y="0.791016" width="53.2236" height="52.6589" rx="6.45336" fill="#2B3453"></rect><rect x="6.79976" y="6.36812" width="51.1671" height="50.6024" rx="5.42508" stroke="url(#paint1_linear_504_1189)" stroke-width="2.05656"></rect><rect x="6.79976" y="28.9345" width="28.3569" height="28.0343" rx="5.42508" stroke="url(#paint2_linear_504_1189)" stroke-width="2.05656"></rect><defs><linearGradient id="paint0_linear_504_1189" x1="34.0008" y1="10.1766" x2="52.2056" y2="11.0956" gradientUnits="userSpaceOnUse"><stop stop-color="#08899A"></stop><stop offset="1" stop-color="#2B3453"></stop></linearGradient><linearGradient id="paint1_linear_504_1189" x1="-16.6766" y1="-10.6174" x2="62.5391" y2="-6.61844" gradientUnits="userSpaceOnUse"><stop stop-color="#08899A"></stop><stop offset="1" stop-color="#2B3453"></stop></linearGradient><linearGradient id="paint2_linear_504_1189" x1="-7.05598" y1="18.7878" x2="38.2101" y2="21.0729" gradientUnits="userSpaceOnUse"><stop stop-color="#08899A"></stop><stop offset="1" stop-color="#2B3453"></stop></linearGradient></defs></svg>