<svg xmlns="http://www.w3.org/2000/svg" width="163" height="29" viewBox="0 0 163 29" fill="none"><path d="M48.8929 28.8008C56.6352 28.8008 62.2904 24.4036 62.2904 18.2588C62.2904 12.1149 56.6352 7.71777 48.8929 7.71777C41.1122 7.71777 35.457 12.1149 35.457 18.2588C35.457 24.4036 41.1122 28.8008 48.8929 28.8008ZM48.8929 24.9532C44.1169 24.9532 41.0739 22.0495 41.0739 18.2588C41.0739 14.4376 44.1169 11.5644 48.8929 11.5644C53.6305 11.5644 56.6735 14.4376 56.6735 18.2588C56.6735 22.0495 53.6305 24.9532 48.8929 24.9532Z" fill="white"></path><path d="M87.2419 28.581C87.503 28.581 87.713 28.37 87.713 28.11C87.713 25.3192 87.713 10.9796 87.713 8.18879C87.713 7.92875 87.503 7.71777 87.2419 7.71777H82.5916C82.467 7.71777 82.3473 7.76782 82.259 7.85614C82.1706 7.94445 82.1206 8.06417 82.1206 8.18879C82.1206 10.5321 82.1206 20.8239 82.1206 20.8239C82.1206 20.8239 72.1595 10.1102 70.2499 8.05632C70.0488 7.84043 69.7681 7.71777 69.4737 7.71777C68.3992 7.71777 65.7399 7.71777 64.6556 7.71777C64.3956 7.71777 64.1846 7.92875 64.1846 8.18879C64.1846 10.9796 64.1846 25.3192 64.1846 28.11C64.1846 28.37 64.3956 28.581 64.6556 28.581C65.7105 28.581 68.252 28.581 69.3069 28.581C69.5669 28.581 69.7779 28.37 69.7779 28.11C69.7779 25.7127 69.7779 14.9744 69.7779 14.9744C69.7779 14.9744 80.0599 26.1307 82.0028 28.2395C82.204 28.4573 82.4866 28.581 82.782 28.581C83.8006 28.581 86.2185 28.581 87.2419 28.581Z" fill="white"></path><path d="M109.6 28.581C109.861 28.581 110.071 28.37 110.071 28.11C110.071 27.3583 110.071 25.8972 110.071 25.1455C110.071 25.0209 110.022 24.9011 109.934 24.8128C109.845 24.7235 109.726 24.6745 109.6 24.6745C107.268 24.6745 97.0631 24.6745 97.0631 24.6745V19.9152H109.324C109.45 19.9152 109.57 19.8652 109.658 19.7768C109.746 19.6885 109.795 19.5688 109.795 19.4442C109.795 18.6925 109.795 17.2304 109.795 16.4797C109.795 16.3541 109.746 16.2344 109.658 16.1461C109.57 16.0578 109.45 16.0087 109.324 16.0087C107.022 16.0087 97.0631 16.0087 97.0631 16.0087V11.6243H109.6C109.726 11.6243 109.845 11.5752 109.934 11.4869C110.022 11.3986 110.071 11.2789 110.071 11.1533C110.071 10.4016 110.071 8.94046 110.071 8.18879C110.071 7.92875 109.861 7.71777 109.6 7.71777C107.011 7.71777 94.5314 7.71777 91.9417 7.71777C91.6817 7.71777 91.4707 7.92875 91.4707 8.18879C91.4707 10.9796 91.4707 25.3192 91.4707 28.11C91.4707 28.37 91.6817 28.581 91.9417 28.581C94.5314 28.581 107.011 28.581 109.6 28.581Z" fill="white"></path><path d="M136.465 28.581C136.65 28.581 136.819 28.4721 136.894 28.3033C136.971 28.1335 136.941 27.9363 136.817 27.7969C134.619 25.3241 127.976 17.8525 127.976 17.8525C127.976 17.8525 134.133 10.8775 136.232 8.50084C136.355 8.3615 136.384 8.16426 136.308 7.99548C136.232 7.8267 136.064 7.71777 135.879 7.71777C134.26 7.71777 131.241 7.71777 130.404 7.71777C130.264 7.71777 130.131 7.77959 130.042 7.88754C129.141 8.96696 124.232 14.8498 124.232 14.8498C124.232 14.8498 119.251 8.95812 118.343 7.88459C118.254 7.77861 118.122 7.71777 117.983 7.71777C117.157 7.71777 114.185 7.71777 112.583 7.71777C112.399 7.71777 112.231 7.82572 112.154 7.9945C112.078 8.16328 112.108 8.3615 112.23 8.49986C114.326 10.8815 120.488 17.8839 120.488 17.8839C120.488 17.8839 113.851 25.328 111.65 27.7969C111.526 27.9353 111.496 28.1335 111.571 28.3023C111.648 28.4721 111.816 28.581 112.001 28.581C113.608 28.581 116.576 28.581 117.396 28.581C117.533 28.581 117.662 28.5221 117.751 28.4191C118.71 27.3141 124.232 20.9485 124.232 20.9485C124.232 20.9485 129.718 27.3102 130.673 28.4181C130.762 28.5211 130.893 28.581 131.029 28.581C131.856 28.581 134.85 28.581 136.465 28.581Z" fill="white"></path><path d="M149.284 28.9565C157.21 28.9565 163 24.4553 163 18.1653C163 11.8742 157.21 7.37305 149.284 7.37305C141.319 7.37305 135.529 11.8742 135.529 18.1653C135.529 24.4553 141.319 28.9565 149.284 28.9565ZM149.284 25.0186C144.394 25.0186 141.28 22.0453 141.28 18.1653C141.28 14.2529 144.394 11.311 149.284 11.311C154.134 11.311 157.249 14.2529 157.249 18.1653C157.249 22.0453 154.134 25.0186 149.284 25.0186Z" fill="white"></path><path d="M24.7128 13.9313C24.7128 13.9313 21.0496 20.9544 20.3647 22.2438C19.7661 23.3703 18.829 23.7776 17.5759 23.7521C16.4062 23.7275 15.6084 23.2035 15.0863 22.2212C14.0364 20.2479 12.1915 16.7201 11.2799 14.9754C11.1857 14.7939 10.9944 14.6849 10.7902 14.6967C10.5861 14.7085 10.4085 14.839 10.3359 15.0304C9.33892 17.725 6.7591 24.7177 5.40885 28.4044C5.30679 28.683 5.18119 28.7979 4.86816 28.7939C3.35991 28.7763 1.85069 28.7802 0.341466 28.792C0.0343223 28.7939 -0.0834325 28.7733 0.0617984 28.4132C2.51404 22.341 4.95353 16.2629 7.39498 10.1857C7.45386 10.0385 7.50587 9.88839 7.55591 9.73826C7.94058 8.59211 8.71482 7.88264 9.92475 7.74918C11.1651 7.6118 12.1395 8.1103 12.7538 9.19658C14.3857 12.0845 16.0882 14.9322 17.5906 17.8918C17.6524 18.0145 17.7221 18.1332 17.8133 18.3C18.2206 17.5317 18.5895 16.7996 18.9899 16.0852C20.2518 13.8273 21.5167 11.5713 22.7973 9.32415C23.6981 7.74329 25.4203 7.26835 26.9099 8.1623C27.4231 8.47043 27.7528 8.92575 27.9667 9.47036C30.0854 14.8743 32.202 20.2783 34.3196 25.6823C34.6729 26.5831 35.0173 27.4859 35.3833 28.3818C35.5001 28.6683 35.5178 28.7998 35.1302 28.7939C33.7004 28.7763 32.2707 28.7733 30.8419 28.7969C30.4975 28.8028 30.417 28.6153 30.3228 28.372" fill="white"></path><path d="M8.00402 2.87146C8.01776 1.22584 9.30717 -0.0184377 10.9783 0.000206785C12.5494 0.01787 13.827 1.3328 13.8201 2.92445C13.8123 4.53475 12.4807 5.81533 10.8292 5.80061C9.25614 5.78786 7.99028 4.47489 8.00402 2.87146Z" fill="white"></path><path d="M28.7087 2.90168C28.7068 4.52179 27.4252 5.80335 25.8051 5.80531C24.2282 5.80629 22.9074 4.50608 22.8956 2.93995C22.8838 1.30806 24.1811 0.00196315 25.8149 5.66617e-07C27.439 -0.000980724 28.7097 1.27273 28.7087 2.90168Z" fill="white"></path></svg>