<svg xmlns="http://www.w3.org/2000/svg" width="67" height="62" viewBox="0 0 67 62" fill="none"><path fill-rule="evenodd" clip-rule="evenodd" d="M13.5194 9.79815H54.3386C54.2772 17.9519 54.2403 26.1381 54.2279 34.3568C54.2169 41.6596 54.2156 49.5435 54.2242 58.0085C54.226 59.7834 52.8231 61.224 51.0899 61.2272C45.3326 61.2379 39.5753 61.2431 33.8181 61.2431C28.0584 61.2431 22.2989 61.2378 16.5394 61.2272C14.8087 61.224 13.4069 59.7874 13.4051 58.0152C13.3965 49.4269 13.3976 41.5407 13.4085 34.3568C13.4206 26.2879 13.4576 18.1017 13.5194 9.79815ZM28.8084 38.736C36.6119 38.736 34.9742 27.6437 38.9241 27.6437C40.2407 27.6437 41.2042 28.7429 41.2042 30.6083C41.2042 32.2738 40.6261 33.4397 39.4058 35.0718C39.2131 35.3383 39.2452 35.5715 39.5021 35.7714L41.6537 37.6034C41.9106 37.8366 42.1033 37.8366 42.3281 37.6034C43.709 36.1711 44.7366 34.4389 45.122 32.407H47.4662C47.7553 32.407 47.948 32.2072 47.948 31.9074V29.4758C47.948 29.176 47.7553 28.9761 47.4662 28.9761H45.1862C44.6403 25.7783 42.4245 23.2135 39.0204 23.2135C31.6665 23.2135 32.8868 34.2724 28.9047 34.2724C27.2991 34.2724 26.2715 32.7068 26.2715 30.7415C26.2715 28.7096 27.1064 27.144 28.4552 25.5452C28.6799 25.2787 28.6478 25.0122 28.423 24.8123L26.3357 22.8137C26.1109 22.6139 25.8861 22.6139 25.6613 22.7804C24.1841 24.0462 22.739 26.3113 22.2894 28.9761H20.1699C19.8809 28.9761 19.6882 29.176 19.6882 29.4758V31.9074C19.6882 32.2072 19.8809 32.407 20.1699 32.407H22.3215C22.8995 35.8047 25.1796 38.736 28.8084 38.736ZM10.2683 16.2288C10.2683 16.7086 10.2683 17.2445 10.2683 17.8364C10.2683 18.7243 9.5654 19.4441 8.69832 19.4441H2.41837C1.5513 19.4441 0.848389 18.7243 0.848389 17.8364V1.75988C0.848389 0.871994 1.5513 0.152222 2.41837 0.152222H65.2178C66.0849 0.152222 66.7878 0.871994 66.7878 1.75988V17.8364C66.7878 18.7243 66.0849 19.4441 65.2178 19.4441H58.9379C58.0708 19.4441 57.3679 18.7243 57.3679 17.8364C57.3679 17.2445 57.3679 13.4902 57.3679 6.5734H10.2685L10.2683 16.2288Z" fill="url(#paint0_linear_732_3747)"></path><defs><linearGradient id="paint0_linear_732_3747" x1="-26.9628" y1="-18.3602" x2="71.1434" y2="-13.0712" gradientUnits="userSpaceOnUse"><stop stop-color="#08899A"></stop><stop offset="1" stop-color="#2B3453"></stop></linearGradient></defs></svg>