<svg xmlns="http://www.w3.org/2000/svg" width="44" height="55" viewBox="0 0 44 55" fill="none"><path d="M42.2182 38.6303C40.8134 34.7211 38.0649 31.9725 35.3158 29.4071C34.0329 28.1855 32.6281 26.9026 31.0402 25.8643C30.3074 25.3756 29.5742 24.9483 28.7803 24.5205C29.2081 23.9095 29.3913 23.1767 29.3913 22.3824C29.3913 21.5273 29.0858 20.7331 28.6585 20.1225C29.2081 19.4506 29.5136 18.6565 29.5136 17.7403C29.5136 16.3356 28.7194 15.0526 27.6202 14.4421C27.7425 14.0757 27.9257 13.648 28.353 13.0374C29.5745 11.2048 31.163 9.98329 33.4228 8.273L34.217 7.66201C34.5225 7.41787 35.0112 7.05102 35.133 6.31822C35.2553 5.58537 34.8889 4.97442 34.7666 4.79117C34.0333 3.69148 32.8118 2.89731 31.3457 2.46952C30.1242 2.1031 28.9027 2.04175 27.742 1.98082H27.3142C27.3752 1.73668 27.3752 1.49211 27.2533 1.18662C27.131 0.881553 26.7646 0.0873712 25.4821 0.0263986C23.2832 -0.0958848 21.0233 0.209611 18.9462 0.881521C18.152 1.12566 17.2969 1.43116 16.6863 2.16445C16.3199 2.59223 16.1366 3.01958 16.0144 3.50825C15.7702 3.32504 15.5256 3.14183 15.1592 2.95861C14.365 2.59219 13.4489 2.53084 12.3493 2.7754C10.5167 3.14183 8.86738 4.18017 7.70716 5.58538C7.58487 5.70766 7.34073 6.01316 7.27938 6.4405C7.21845 6.86828 7.34031 7.29562 7.58487 7.66202C9.11192 9.92194 10.7612 10.9602 12.3492 11.9376C13.5099 12.6705 14.6092 13.3424 15.7697 14.5031C14.7314 15.175 14.0594 16.3965 14.0594 17.7404C14.0594 18.5955 14.3649 19.3897 14.7923 20.0003C14.2426 20.6722 13.9372 21.4664 13.9372 22.3825C13.9372 23.4208 14.3649 24.3373 14.9755 25.0088C10.0888 27.6965 5.2022 30.6283 2.27049 35.7591C0.194262 39.3018 -0.3558 43.2115 0.682916 46.4488C1.72125 49.5638 4.4089 51.9459 8.50137 53.3511C11.7387 54.4504 15.5255 55 20.0458 55H20.1067C24.5656 55 28.4138 54.6945 32.0177 54.084C35.9878 53.412 39.897 52.3128 41.791 48.8918C43.379 46.1432 43.562 42.4172 42.2182 38.6303ZM16.3196 22.4436C16.3196 22.0772 16.5028 21.7108 16.7473 21.4662C16.9915 21.2221 17.3583 21.0384 17.7857 21.0384H25.665C26.0928 21.0384 26.4592 21.2217 26.7642 21.5272C27.0084 21.7713 27.1307 22.1381 27.1307 22.4432C27.1307 23.2374 26.4587 23.9093 25.6646 23.9093L17.7243 23.9097C16.9301 23.8483 16.3196 23.2378 16.3196 22.4436ZM16.4414 17.7402C16.4414 16.946 17.1133 16.2742 17.9075 16.2742H25.7868C26.581 16.2742 27.2529 16.9461 27.2529 17.7402C27.2529 18.1067 27.0697 18.4731 26.8251 18.7176C26.581 18.9618 26.2141 19.1454 25.7868 19.1454H17.8465C17.4187 19.1454 17.0523 18.9622 16.7472 18.6567C16.5636 18.4735 16.4414 18.1071 16.4414 17.7402ZM13.5706 9.92177C12.1658 9.06665 10.9443 8.33376 9.84459 6.80672C10.6388 6.01252 11.738 5.40195 12.8377 5.1574C13.3873 5.03512 13.8151 5.03512 14.1206 5.1574C14.7316 5.40154 15.0367 6.37893 15.3422 7.23407C15.5254 7.72278 15.6477 8.15012 15.8309 8.57787C16.0141 9.00565 16.1364 9.37206 16.3196 9.8608C16.5028 10.4718 17.1747 10.8382 17.7856 10.655C18.3966 10.4718 18.7631 9.8608 18.6408 9.25023C18.3353 7.78416 18.213 6.62393 18.213 5.341C18.213 4.79136 18.2739 4.11947 18.5185 3.75298C18.7626 3.50884 19.1904 3.3252 19.6791 3.20334C21.2058 2.71421 22.7942 2.46964 24.4435 2.46964C24.138 3.08064 23.8939 3.69117 23.6493 4.36307C22.9774 5.76784 22.6719 7.29488 22.7333 8.82192C22.7942 9.43291 23.2829 9.98258 23.9548 9.98258C24.5658 9.98258 25.1155 9.49388 25.1763 8.88333C25.2373 7.66181 25.4818 6.50114 25.9092 5.34059C25.9092 5.27966 25.9701 5.27966 25.9701 5.21831C26.0924 5.0351 26.2142 4.7296 26.3979 4.60732C26.642 4.42411 27.1921 4.42411 27.6808 4.42411C28.7191 4.48503 29.7575 4.48503 30.6739 4.79053C31.4681 5.03467 32.0787 5.40152 32.5065 5.88978L31.8955 6.37849C29.5743 8.14964 27.7422 9.55485 26.337 11.7538C25.726 12.7312 25.4209 13.4641 25.2986 13.9527L18.3963 13.9532C16.686 11.8151 15.0366 10.8382 13.5706 9.92177ZM39.7135 47.6703C38.2475 50.1747 34.9492 51.0907 31.5897 51.7018C28.1692 52.3128 24.3822 52.5569 20.1063 52.6178H20.0454C15.7698 52.6178 12.2269 52.1291 9.23382 51.0908C6.9126 50.2966 3.91982 48.7086 2.9424 45.7155C2.08728 43.15 2.57598 39.9737 4.2862 37.0419C7.21801 32.033 12.471 29.1625 17.5409 26.4135L17.6632 26.3526H17.7241H25.6035C25.9699 26.3526 26.2754 26.2917 26.5809 26.2303C27.6801 26.719 28.7189 27.2687 29.6349 27.9406C31.101 28.979 32.3835 30.1396 33.6664 31.3002C36.1709 33.6214 38.7362 36.1869 39.8969 39.5465C41.0571 42.5396 40.9351 45.5323 39.7135 47.6703ZM21.1447 42.1117C21.1447 43.5778 20.1064 44.7994 18.2739 45.1048V45.9599C18.2739 46.3877 17.9074 46.7541 17.4797 46.7541C17.0519 46.7541 16.6855 46.3877 16.6855 45.9599L16.6859 45.2267C16.014 45.1657 15.2811 45.0435 14.7311 44.8603C14.2424 44.677 13.9982 44.1883 14.1201 43.761V43.7001C14.2424 43.1504 14.792 42.9059 15.3416 43.0891C15.8912 43.2723 16.4409 43.3946 17.1128 43.3946C18.0288 43.3946 18.6398 43.0281 18.6398 42.4172C18.6398 41.8062 18.1511 41.4398 16.9295 41.0124C15.2192 40.4014 13.9977 39.6076 13.9977 38.0193C13.9977 36.6145 14.9751 35.4539 16.7463 35.1484V34.4156C16.7463 33.9878 17.1127 33.6214 17.5405 33.6214C17.9682 33.6214 18.3347 33.9878 18.3347 34.4156V35.0266C18.8843 35.0266 19.373 35.1489 19.8007 35.2098C20.2894 35.3321 20.5949 35.8208 20.4726 36.3705C20.3504 36.8592 19.8007 37.1647 19.312 37.0424C18.9456 36.9201 18.4569 36.8592 17.8459 36.8592C16.8076 36.8592 16.4411 37.2869 16.4411 37.7752C16.4411 38.3249 16.9908 38.6303 18.396 39.18C20.3504 39.7296 21.1447 40.6456 21.1447 42.1117ZM29.7573 42.1117C29.7573 43.5778 28.719 44.7994 26.8865 45.1048V45.9599C26.8865 46.3877 26.5201 46.7541 26.0923 46.7541C25.6645 46.7541 25.2981 46.3877 25.2981 45.9599L25.2985 45.2267C24.6266 45.1657 23.8938 45.0435 23.3437 44.8603C22.855 44.677 22.6108 44.1883 22.7327 43.761V43.7001C22.855 43.1504 23.4046 42.9059 23.9542 43.0891C24.5039 43.2723 25.0535 43.3946 25.7254 43.3946C26.6414 43.3946 27.2524 43.0281 27.2524 42.4172C27.2524 41.8062 26.7637 41.4398 25.5421 41.0124C23.8318 40.4014 22.6103 39.6076 22.6103 38.0193C22.6103 36.6145 23.5877 35.4539 25.3589 35.1484V34.4156C25.3589 33.9878 25.7253 33.6214 26.1531 33.6214C26.5809 33.6214 26.9473 33.9878 26.9473 34.4156V35.0266C27.4969 35.0266 27.9856 35.1489 28.4133 35.2098C28.9021 35.3321 29.2075 35.8208 29.0853 36.3705C28.963 36.8592 28.4133 37.1647 27.9246 37.0424C27.5582 36.9201 27.0695 36.8592 26.4585 36.8592C25.4202 36.8592 25.0538 37.2869 25.0538 37.7752C25.0538 38.3249 25.6034 38.6303 27.0086 39.18C29.0243 39.7296 29.7573 40.6456 29.7573 42.1117Z" fill="url(#paint0_linear_732_3649)"></path><defs><linearGradient id="paint0_linear_732_3649" x1="-17.9413" y1="-16.6667" x2="46.041" y2="-14.1714" gradientUnits="userSpaceOnUse"><stop stop-color="#08899A"></stop><stop offset="1" stop-color="#2B3453"></stop></linearGradient></defs></svg>