<svg xmlns="http://www.w3.org/2000/svg" width="59" height="39" viewBox="0 0 59 39" fill="none"><path d="M16.1013 15.8639L16.1012 15.8639V15.868C16.1012 21.6856 20.834 26.4189 26.652 26.4189C32.47 26.4189 37.2029 21.686 37.2029 15.868H37.2029L37.2028 15.8639C36.6236 1.87128 16.6787 1.87598 16.1013 15.8639ZM18.2013 15.866C18.2024 11.2069 21.9927 7.41733 26.652 7.41733C31.3113 7.41733 35.1016 11.2069 35.1027 15.866C34.637 27.0787 18.6648 27.0755 18.2013 15.866Z" fill="url(#paint0_linear_732_3646)" stroke="url(#paint1_linear_732_3646)" stroke-width="0.2"></path><path d="M52.4041 12.8008V4.4673C52.4041 2.31593 50.6552 0.566992 48.5038 0.566992H4.80031C2.64894 0.566992 0.9 2.31593 0.9 4.4673V27.2691C0.9 29.4205 2.64894 31.1694 4.80031 31.1694H6.73293C6.42582 32.101 6.6801 33.2062 7.30609 33.9192C5.68701 35.7289 7.06645 38.8234 9.55179 38.7701H55.1531C56.4072 38.798 57.3841 38.0142 57.8314 37.0065C58.2674 36.0241 58.2058 34.8151 57.3997 33.9196C59.0246 32.1085 57.6313 29.016 55.1533 29.0693H54.4802C60.0846 24.7353 58.9267 15.6024 52.4041 12.8008ZM4.80031 29.0692C3.80791 29.0692 3.00015 28.2614 3.00015 27.269V4.46719C3.00015 3.47479 3.80791 2.66704 4.80031 2.66704H48.5038C49.4962 2.66704 50.304 3.47479 50.304 4.46719V12.1394C40.3851 10.3643 34.8109 22.8801 42.5372 29.0687L4.80031 29.0692ZM55.1533 36.6698H9.55152C9.27114 36.6658 9.06551 36.558 8.92852 36.4028C8.78991 36.2458 8.71718 36.0351 8.71545 35.8213C8.71371 35.6076 8.78298 35.397 8.92028 35.2398C9.05592 35.0845 9.26315 34.9752 9.55173 34.9696H55.1535C55.4339 34.9736 55.6396 35.0814 55.7765 35.2366C55.9152 35.3936 55.9879 35.6044 55.9896 35.8181C55.9914 36.0319 55.9221 36.2425 55.7848 36.3996C55.6491 36.5549 55.4419 36.6643 55.1533 36.6698ZM55.1537 31.1693C55.434 31.1734 55.6396 31.2811 55.7765 31.4363C55.9152 31.5933 55.9879 31.8041 55.9896 32.0178C55.9914 32.2316 55.9221 32.4421 55.7848 32.5993C55.6491 32.7546 55.4419 32.864 55.1533 32.8695H9.55152C9.27114 32.8655 9.06551 32.7577 8.92852 32.6025C8.78991 32.4455 8.71718 32.2348 8.71545 32.021C8.71371 31.8072 8.78298 31.5967 8.92028 31.4395C9.05591 31.2842 9.2631 31.1749 9.55163 31.1693H55.1537ZM48.5018 14.068C58.4542 14.4823 58.4514 28.6567 48.5018 29.0692C44.367 29.0681 41.0032 25.7036 41.0032 21.5686C41.0032 17.4335 44.367 14.0691 48.5018 14.068Z" fill="url(#paint2_linear_732_3646)" stroke="url(#paint3_linear_732_3646)" stroke-width="0.2"></path><defs><linearGradient id="paint0_linear_732_3646" x1="7.3855" y1="-0.846278" x2="38.4959" y2="0.711596" gradientUnits="userSpaceOnUse"><stop stop-color="#08899A"></stop><stop offset="1" stop-color="#2B3453"></stop></linearGradient><linearGradient id="paint1_linear_732_3646" x1="7.3855" y1="-0.846278" x2="38.4959" y2="0.711596" gradientUnits="userSpaceOnUse"><stop stop-color="#08899A"></stop><stop offset="1" stop-color="#2B3453"></stop></linearGradient><linearGradient id="paint2_linear_732_3646" x1="-23.0408" y1="-10.8493" x2="61.537" y2="-4.51341" gradientUnits="userSpaceOnUse"><stop stop-color="#08899A"></stop><stop offset="1" stop-color="#2B3453"></stop></linearGradient><linearGradient id="paint3_linear_732_3646" x1="-23.0408" y1="-10.8493" x2="61.537" y2="-4.51341" gradientUnits="userSpaceOnUse"><stop stop-color="#08899A"></stop><stop offset="1" stop-color="#2B3453"></stop></linearGradient></defs></svg>