<svg xmlns="http://www.w3.org/2000/svg" width="77" height="78" viewBox="0 0 77 78" fill="none"><path d="M12.2423 44.7584L17.5756 39.425L22.909 44.7584" stroke="url(#paint0_linear_732_3729)" stroke-width="2.90909" stroke-linecap="round"></path><circle cx="17.0908" cy="17.1219" r="16.9697" fill="url(#paint1_linear_732_3729)"></circle><path d="M54.4241 44.7584L60.2423 38.9402L66.0604 44.7584" stroke="url(#paint2_linear_732_3729)" stroke-width="2.90909" stroke-linecap="round"></path><circle cx="59.7574" cy="17.122" r="14.5455" stroke="url(#paint3_linear_732_3729)" stroke-width="4.84848"></circle><path d="M39.8787 75.7887V67.6063C39.8787 65.8536 41.2995 64.4328 43.0522 64.4328H57.0687C58.8215 64.4328 60.2423 63.0119 60.2423 61.2592V40.8796" stroke="url(#paint4_linear_732_3729)" stroke-width="2.90909" stroke-linecap="round"></path><path d="M39.8787 74.819V59.7812C39.8787 58.0285 38.4578 56.6076 36.7051 56.6076H20.7492C18.9965 56.6076 17.5756 55.1868 17.5756 53.4341V40.8796" stroke="url(#paint5_linear_732_3729)" stroke-width="2.90909" stroke-linecap="round"></path><defs><linearGradient id="paint0_linear_732_3729" x1="7.74344" y1="37.8089" x2="23.5024" y2="39.3831" gradientUnits="userSpaceOnUse"><stop stop-color="#08899A"></stop><stop offset="1" stop-color="#2B3453"></stop></linearGradient><linearGradient id="paint1_linear_732_3729" x1="-14.1935" y1="-10.1324" x2="36.3231" y2="-7.60932" gradientUnits="userSpaceOnUse"><stop stop-color="#08899A"></stop><stop offset="1" stop-color="#2B3453"></stop></linearGradient><linearGradient id="paint2_linear_732_3729" x1="49.5162" y1="37.1771" x2="66.7078" y2="38.8944" gradientUnits="userSpaceOnUse"><stop stop-color="#08899A"></stop><stop offset="1" stop-color="#2B3453"></stop></linearGradient><linearGradient id="paint3_linear_732_3729" x1="28.4731" y1="-10.1323" x2="78.9897" y2="-7.6092" gradientUnits="userSpaceOnUse"><stop stop-color="#08899A"></stop><stop offset="1" stop-color="#2B3453"></stop></linearGradient><linearGradient id="paint4_linear_732_3729" x1="31.2899" y1="30.3011" x2="61.6497" y2="31.1857" gradientUnits="userSpaceOnUse"><stop stop-color="#08899A"></stop><stop offset="1" stop-color="#2B3453"></stop></linearGradient><linearGradient id="paint5_linear_732_3729" x1="49.2854" y1="30.595" x2="16.0418" y2="31.6861" gradientUnits="userSpaceOnUse"><stop stop-color="#08899A"></stop><stop offset="1" stop-color="#2B3453"></stop></linearGradient></defs></svg>