<svg xmlns="http://www.w3.org/2000/svg" width="90" height="82" viewBox="0 0 90 82" fill="none"><path d="M53.9066 64.3429C52.8499 65.1938 51.7421 65.979 50.5892 66.6939C51.1287 66.7226 51.6706 66.742 52.2159 66.742C52.8974 66.742 53.5829 66.7197 54.269 66.6745C56.3396 66.4921 58.3956 66.1725 60.4241 65.7169C62.1505 65.3369 63.8951 65.0478 65.652 64.8502C69.5652 64.4836 73.0286 64.9674 75.9466 66.2875C76.0985 66.3561 76.2633 66.3919 76.4299 66.3919C77.0491 66.3919 77.5669 65.9022 77.6015 65.2841L78.3129 52.5253C78.3393 52.0427 78.0654 51.5906 77.625 51.3912C76.0762 50.7022 74.4442 50.2184 72.7706 49.9509C72.2639 50.589 71.5508 51.0305 70.7545 51.2012C69.9036 51.3865 69.0714 51.6498 68.2681 51.987C70.8765 51.8844 73.4796 52.3031 75.9244 53.2185L75.3497 63.5284C72.1549 62.4839 68.773 62.1385 65.4333 62.515C63.5943 62.7191 61.767 63.0205 59.9596 63.4181C58.0338 63.8527 56.081 64.1588 54.1142 64.3341C54.045 64.3382 53.9758 64.3388 53.9066 64.3429ZM64.0312 36.4122C63.7667 36.0076 63.2788 35.8059 62.8055 35.9056C59.2688 36.6538 55.8295 38.4964 52.5836 41.381C51.2225 42.6336 49.9289 43.9571 48.7074 45.3464C47.412 46.8371 46.0186 48.2404 44.5356 49.5457C43.005 50.8335 41.3407 51.9542 39.5715 52.8877C39.8659 53.6354 40.0729 54.4142 40.189 55.2094C42.2843 54.1515 44.25 52.8531 46.0456 51.3408C47.6078 49.968 49.0768 48.4931 50.4426 46.925C51.6084 45.5979 52.8434 44.3324 54.1417 43.1344C56.5214 40.916 59.3914 39.2886 62.517 38.385L68.1543 47.0353C64.9612 48.0844 62.0309 49.8073 59.5609 52.0867C58.1992 53.3393 56.905 54.6634 55.6834 56.0532C54.3886 57.5439 52.9953 58.9467 51.5134 60.2514C48.9384 62.4441 45.9705 64.1289 42.7687 65.2167L39.6436 60.4215C39.3311 61.2654 38.9118 62.0652 38.3957 62.8024L41.2856 67.2369C41.5642 67.6644 42.0902 67.8632 42.5816 67.7271L42.8285 67.6562C46.5722 66.4968 50.0409 64.5886 53.0234 62.0465C54.5845 60.6743 56.0529 59.1994 57.4181 57.6319C58.5851 56.3042 59.8201 55.0387 61.119 53.8401C64.057 51.2288 67.1351 49.5686 70.2683 48.9059C70.8084 48.7916 71.1984 48.3107 71.1984 47.7583C71.1984 47.5314 71.1327 47.3085 71.0084 47.1185L64.0312 36.4122ZM29.7607 64.9645C34.2644 64.9645 37.9706 61.2583 37.9706 56.7546C37.9706 52.2509 34.2644 48.5447 29.7607 48.5447C25.257 48.5447 21.5508 52.2509 21.5508 56.7546C21.5555 61.2566 25.2587 64.9598 29.7607 64.9645Z" fill="url(#paint0_linear_732_3736)"></path><path d="M27.0222 40.7474C27.9839 41.4118 28.8302 42.2305 29.5262 43.1693C30.2305 44.1135 30.77 45.1708 31.1213 46.295C34.2833 46.7137 37.0928 48.538 38.7624 51.2561C40.2759 50.4269 41.7039 49.4505 43.0257 48.3416C44.4266 47.0995 45.7449 45.7678 46.9723 44.3539C48.2507 42.9049 49.603 41.5227 51.0244 40.2138C54.0257 37.4406 57.6569 35.438 61.6035 34.3789C61.105 33.2999 60.3368 31.6344 59.7914 30.6375C57.8181 27.0914 55.544 23.7207 52.9948 20.5628C53.8645 20.1148 54.8538 19.9523 55.8214 20.0995C56.7942 20.3534 57.6088 21.0202 58.0498 21.9233C58.2591 22.2839 58.6467 22.5062 59.0643 22.5038C59.2707 22.5056 59.4736 22.4505 59.6507 22.3455C60.0113 22.1379 60.2342 21.752 60.2342 21.3357C60.2342 21.1281 60.1785 20.924 60.0729 20.7446C59.3082 19.2674 57.9372 18.1942 56.3198 17.8066C55.405 17.623 54.4603 17.6512 53.5578 17.8887L55.9973 12.347C56.5133 11.1929 56.4072 9.85179 55.7158 8.7933C55.0901 7.81515 54.0093 7.21876 52.8482 7.20996C52.772 7.20996 52.6899 7.20996 52.6136 7.21583C50.7723 7.34484 49.3825 8.40626 48.4031 9.24484C47.7675 8.59802 46.9963 8.09898 46.1454 7.78465C45.6475 7.61283 45.1069 7.61283 44.609 7.78465C43.7581 8.09898 42.987 8.59802 42.3513 9.24484C41.3719 8.40626 39.9821 7.34484 38.1408 7.21583C38.0645 7.20996 37.9824 7.20996 37.9062 7.20996C36.7451 7.21876 35.6643 7.81515 35.0386 8.7933C34.3472 9.85179 34.2411 11.1929 34.7571 12.347L37.8827 19.4486C37.7666 19.6327 37.7056 19.8468 37.7068 20.0643C37.7056 20.2191 37.7355 20.3728 37.7948 20.5159C35.2309 23.6872 32.9451 27.0732 30.963 30.6375C29.1556 33.7936 27.8274 37.2007 27.0222 40.7474ZM36.9034 11.4029C36.8131 11.224 36.7656 11.0264 36.7656 10.8258C36.7656 10.1767 37.2605 9.62543 37.9062 9.55565H37.9766C40.1346 9.70812 41.6476 12.2415 42.6445 12.2415C42.865 12.2309 43.0649 12.1066 43.1723 11.9131C43.683 11.0563 44.4565 10.3854 45.3772 10.0013C46.2979 10.3854 47.0714 11.0563 47.5822 11.9131C47.6895 12.1066 47.8894 12.2309 48.1099 12.2415C49.1068 12.2415 50.6198 9.70812 52.7778 9.55565H52.8482C53.4939 9.62543 53.9888 10.1767 53.9888 10.8258C53.9888 11.0264 53.9413 11.224 53.851 11.4029L50.5553 18.8915H40.1991L36.9034 11.4029Z" fill="url(#paint1_linear_732_3736)"></path><path d="M78.2168 29.4932H61.8386L61.8492 29.5113C62.4186 30.5528 63.1979 32.23 63.7345 33.4011L63.8389 33.6292C64.7261 33.8309 65.5002 34.371 65.9963 35.1334L72.9736 45.8391C73.336 46.3974 73.5319 47.0483 73.5383 47.7139C75.2794 48.0206 76.9759 48.5384 78.5915 49.2556C79.9086 49.8578 80.729 51.2101 80.6545 52.6568L79.9432 65.4162C79.84 67.2693 78.2866 68.7383 76.4299 68.7383C75.9315 68.7383 75.4383 68.6327 74.9838 68.4274C72.8188 67.4945 70.4789 67.0347 68.1221 67.0787C67.3955 67.0787 66.6385 67.115 65.8703 67.1866C64.1966 67.3778 62.5335 67.6551 60.8886 68.0175C58.7587 68.4955 56.5989 68.8292 54.4239 69.0162C53.6944 69.0649 52.9514 69.0895 52.216 69.0895C51.6859 69.0895 51.13 69.0731 50.465 69.0379L46.4755 68.8262C45.5044 69.2414 44.511 69.6015 43.4994 69.9052L43.2303 69.9826C42.9177 70.0712 42.5934 70.1163 42.2685 70.1163C41.0799 70.1187 39.968 69.5164 39.3206 68.5195L36.7773 64.6169C34.845 66.3503 32.3393 67.3097 29.7438 67.3097C25.1591 67.3097 21.077 64.3161 19.6989 59.9437L18.7231 59.7238C13.9274 58.6418 10.4921 54.3457 10.4921 49.4292C10.4921 43.64 15.2562 38.8759 21.046 38.8759C22.3578 38.8759 23.6579 39.1204 24.88 39.5972C25.759 36.0687 27.1131 32.6757 28.9052 29.5113L28.9157 29.4932H12.5376C9.96493 29.4961 7.84912 31.6119 7.84619 34.1845V68.197C7.84912 70.7696 9.96493 72.8854 12.5376 72.8884H78.2168C80.7894 72.8854 82.9052 70.7696 82.9081 68.197V34.1845C82.9052 31.6119 80.7894 29.4961 78.2168 29.4932Z" fill="url(#paint2_linear_732_3736)"></path><path d="M19.2402 57.4363C18.6262 55.4366 19.66 48.0307 28.6112 46.265C27.3375 43.2162 24.342 41.2212 21.0381 41.2212C16.5356 41.2212 12.8306 44.9256 12.8306 49.4282C12.8306 53.2546 15.5064 56.5983 19.2402 57.4363Z" fill="url(#paint3_linear_732_3736)"></path><defs><linearGradient id="paint0_linear_732_3736" x1="-2.39043" y1="26.217" x2="81.6453" y2="33.6883" gradientUnits="userSpaceOnUse"><stop stop-color="#08899A"></stop><stop offset="1" stop-color="#2B3453"></stop></linearGradient><linearGradient id="paint1_linear_732_3736" x1="12.4369" y1="-6.13734" x2="63.9581" y2="-4.11701" gradientUnits="userSpaceOnUse"><stop stop-color="#08899A"></stop><stop offset="1" stop-color="#2B3453"></stop></linearGradient><linearGradient id="paint2_linear_732_3736" x1="-23.8126" y1="16.3431" x2="87.3611" y2="25.9478" gradientUnits="userSpaceOnUse"><stop stop-color="#08899A"></stop><stop offset="1" stop-color="#2B3453"></stop></linearGradient><linearGradient id="paint3_linear_732_3736" x1="6.1748" y1="36.3075" x2="29.6663" y2="37.4494" gradientUnits="userSpaceOnUse"><stop stop-color="#08899A"></stop><stop offset="1" stop-color="#2B3453"></stop></linearGradient></defs></svg>