<svg xmlns="http://www.w3.org/2000/svg" width="70" height="69" viewBox="0 0 70 69" fill="none"><circle cx="34.9221" cy="34.5" r="32.1109" stroke="url(#paint0_linear_731_3312)" stroke-width="4.77823"></circle><path d="M19.2816 27.4153C19.2816 25.4584 19.8342 23.9619 20.9392 22.9259C22.0443 21.8899 23.4947 21.3719 25.2905 21.3719C27.0632 21.3719 28.5021 21.8899 29.6072 22.9259C30.7122 23.9619 31.2648 25.4584 31.2648 27.4153C31.2648 29.3492 30.7122 30.8456 29.6072 31.9046C28.5021 32.9406 27.0632 33.4586 25.2905 33.4586C23.5177 33.4586 22.0673 32.9406 20.9392 31.9046C19.8342 30.8456 19.2816 29.3492 19.2816 27.4153ZM43.8004 21.7518L30.7122 46.167H24.2199L37.3081 21.7518H43.8004ZM25.2559 25.3433C24.312 25.3433 23.8401 26.0339 23.8401 27.4153C23.8401 28.7966 24.312 29.4873 25.2559 29.4873C25.7164 29.4873 26.0732 29.3146 26.3265 28.9693C26.6027 28.624 26.7409 28.1059 26.7409 27.4153C26.7409 26.7246 26.6027 26.2066 26.3265 25.8613C26.0732 25.5159 25.7164 25.3433 25.2559 25.3433ZM36.7556 40.469C36.7556 38.5351 37.3081 37.0501 38.4132 36.0141C39.5413 34.9551 40.9917 34.4256 42.7644 34.4256C44.5372 34.4256 45.9646 34.9551 47.0466 36.0141C48.1517 37.0501 48.7042 38.5351 48.7042 40.469C48.7042 42.4259 48.1517 43.9338 47.0466 44.9929C45.9646 46.0289 44.5372 46.5469 42.7644 46.5469C40.9917 46.5469 39.5413 46.0289 38.4132 44.9929C37.3081 43.9338 36.7556 42.4259 36.7556 40.469ZM42.7299 38.3969C41.763 38.3969 41.2795 39.0876 41.2795 40.469C41.2795 41.8733 41.763 42.5755 42.7299 42.5755C43.1673 42.5755 43.5127 42.4028 43.7659 42.0575C44.0422 41.6891 44.1803 41.1596 44.1803 40.469C44.1803 39.8013 44.0422 39.2948 43.7659 38.9495C43.5127 38.5811 43.1673 38.3969 42.7299 38.3969Z" fill="url(#paint1_linear_731_3312)"></path><defs><linearGradient id="paint0_linear_731_3312" x1="-28.6799" y1="-20.9091" x2="74.0221" y2="-15.7795" gradientUnits="userSpaceOnUse"><stop stop-color="#08899A"></stop><stop offset="1" stop-color="#2B3453"></stop></linearGradient><linearGradient id="paint1_linear_731_3312" x1="4.50145" y1="-9.19663" x2="52.2084" y2="-7.78461" gradientUnits="userSpaceOnUse"><stop stop-color="#08899A"></stop><stop offset="1" stop-color="#2B3453"></stop></linearGradient></defs></svg>