<svg xmlns="http://www.w3.org/2000/svg" width="59" height="54" viewBox="0 0 59 54" fill="none"><path d="M15.352 25.1401L22.7374 34.436" stroke="url(#paint0_linear_732_3638)" stroke-width="3"></path><path d="M44.1045 26.0424L35.1831 34.8741" stroke="url(#paint1_linear_732_3638)" stroke-width="3"></path><path d="M29.0076 19.3386V31.9087" stroke="url(#paint2_linear_732_3638)" stroke-width="3"></path><circle cx="28.6856" cy="42.2222" r="9.78084" stroke="url(#paint3_linear_732_3638)" stroke-width="3"></circle><rect x="48.5161" y="12.4353" width="11.8262" height="11.8262" transform="rotate(45 48.5161 12.4353)" stroke="url(#paint4_linear_732_3638)" stroke-width="3"></rect><rect x="29.1777" y="2.12132" width="11.8262" height="11.8262" transform="rotate(45 29.1777 2.12132)" stroke="url(#paint5_linear_732_3638)" stroke-width="3"></rect><rect x="10.4836" y="12.4353" width="11.8262" height="11.8262" transform="rotate(45 10.4836 12.4353)" stroke="url(#paint6_linear_732_3638)" stroke-width="3"></rect><defs><linearGradient id="paint0_linear_732_3638" x1="131.07" y1="35.6586" x2="29.3249" y2="137.954" gradientUnits="userSpaceOnUse"><stop stop-color="#08899A"></stop><stop offset="1" stop-color="#2B3453"></stop></linearGradient><linearGradient id="paint1_linear_732_3638" x1="-78.7053" y1="22.5497" x2="15.2639" y2="142.726" gradientUnits="userSpaceOnUse"><stop stop-color="#08899A"></stop><stop offset="1" stop-color="#2B3453"></stop></linearGradient><linearGradient id="paint2_linear_732_3638" x1="15.5076" y1="26.2115" x2="42.7414" y2="28.9492" gradientUnits="userSpaceOnUse"><stop stop-color="#08899A"></stop><stop offset="1" stop-color="#2B3453"></stop></linearGradient><linearGradient id="paint3_linear_732_3638" x1="7.88898" y1="24.1045" x2="41.4705" y2="25.7818" gradientUnits="userSpaceOnUse"><stop stop-color="#08899A"></stop><stop offset="1" stop-color="#2B3453"></stop></linearGradient><linearGradient id="paint4_linear_732_3638" x1="42.2629" y1="5.82117" x2="64.3308" y2="6.92338" gradientUnits="userSpaceOnUse"><stop stop-color="#08899A"></stop><stop offset="1" stop-color="#2B3453"></stop></linearGradient><linearGradient id="paint5_linear_732_3638" x1="22.9245" y1="-4.4928" x2="44.9924" y2="-3.39059" gradientUnits="userSpaceOnUse"><stop stop-color="#08899A"></stop><stop offset="1" stop-color="#2B3453"></stop></linearGradient><linearGradient id="paint6_linear_732_3638" x1="4.2304" y1="5.82117" x2="26.2983" y2="6.92338" gradientUnits="userSpaceOnUse"><stop stop-color="#08899A"></stop><stop offset="1" stop-color="#2B3453"></stop></linearGradient></defs></svg>