<svg xmlns="http://www.w3.org/2000/svg" width="74" height="73" viewBox="0 0 74 73" fill="none"><g opacity="0.1"><path d="M5.44305 34.6751C2.85681 34.6751 0.727691 32.5689 1.07588 30.0062C2.09111 22.5339 5.52402 15.5484 10.9163 10.1561C17.4192 3.65326 26.2389 9.86631e-07 35.4353 0C44.6317 -9.8663e-07 53.4515 3.65325 59.9543 10.1561C65.3466 15.5484 68.7795 22.5339 69.7948 30.0062C70.143 32.5689 68.0139 34.6751 65.4276 34.6751C62.8414 34.6751 60.7887 32.5608 60.3129 30.0187C59.3806 25.0378 56.9658 20.4125 53.3318 16.7786C48.5854 12.0321 42.1478 9.36559 35.4353 9.36559C28.7228 9.3656 22.2853 12.0321 17.5388 16.7786C13.9049 20.4125 11.4901 25.0378 10.5578 30.0187C10.0819 32.5608 8.02929 34.6751 5.44305 34.6751Z" fill="#2B3453"></path><path d="M13.4203 17.5874L27.7099 33.7067C28.3866 34.47 29.599 34.3993 30.1822 33.5625L34.0387 28.0302C34.5651 27.2751 34.335 26.2315 33.54 25.7676L15.3939 15.1806C13.8462 14.2776 12.2317 16.2465 13.4203 17.5874Z" fill="#D9ED92"></path><circle cx="35.4352" cy="33.819" r="14.9831" fill="#2B3453"></circle><path d="M37.9668 27.2398L37.6736 36.0904H35.5114L35.1998 27.2398H37.9668ZM36.6475 40.3783C36.1832 40.3783 35.7984 40.2378 35.493 39.9568C35.1998 39.6636 35.0532 39.3032 35.0532 38.8757C35.0532 38.4481 35.1998 38.0938 35.493 37.8129C35.7984 37.5197 36.1832 37.3731 36.6475 37.3731C37.0995 37.3731 37.472 37.5197 37.7652 37.8129C38.0584 38.0938 38.205 38.4481 38.205 38.8757C38.205 39.3032 38.0584 39.6636 37.7652 39.9568C37.472 40.2378 37.0995 40.3783 36.6475 40.3783Z" fill="#D9ED92"></path></g><mask id="path-5-inside-1_504_1260" fill="white"><path d="M9.20233 37.5442C6.61609 37.5442 4.48697 35.438 4.83515 32.8753C5.85039 25.403 9.2833 18.4176 14.6756 13.0252C21.1785 6.5224 29.9982 2.86914 39.1946 2.86914C48.391 2.86914 57.2108 6.52239 63.7136 13.0252C69.1059 18.4176 72.5388 25.403 73.5541 32.8753C73.9023 35.438 71.7731 37.5442 69.1869 37.5442C66.6007 37.5442 64.548 35.43 64.0722 32.8879C63.1399 27.9069 60.7251 23.2817 57.0911 19.6477C52.3447 14.9013 45.9071 12.2347 39.1946 12.2347C32.4821 12.2347 26.0445 14.9013 21.2981 19.6477C17.6641 23.2817 15.2494 27.9069 14.317 32.8879C13.8412 35.43 11.7886 37.5442 9.20233 37.5442Z"></path></mask><path d="M9.20233 37.5442C6.61609 37.5442 4.48697 35.438 4.83515 32.8753C5.85039 25.403 9.2833 18.4176 14.6756 13.0252C21.1785 6.5224 29.9982 2.86914 39.1946 2.86914C48.391 2.86914 57.2108 6.52239 63.7136 13.0252C69.1059 18.4176 72.5388 25.403 73.5541 32.8753C73.9023 35.438 71.7731 37.5442 69.1869 37.5442C66.6007 37.5442 64.548 35.43 64.0722 32.8879C63.1399 27.9069 60.7251 23.2817 57.0911 19.6477C52.3447 14.9013 45.9071 12.2347 39.1946 12.2347C32.4821 12.2347 26.0445 14.9013 21.2981 19.6477C17.6641 23.2817 15.2494 27.9069 14.317 32.8879C13.8412 35.43 11.7886 37.5442 9.20233 37.5442Z" fill="white" stroke="url(#paint0_linear_504_1260)" stroke-width="4.28087" mask="url(#path-5-inside-1_504_1260)"></path><path d="M15.8041 19.769L30.0937 35.8884C30.7703 36.6516 31.9827 36.5809 32.566 35.7442L36.4225 30.2118C36.9488 29.4567 36.7188 28.4131 35.9238 27.9493L17.7777 17.3622C16.23 16.4592 14.6155 18.4281 15.8041 19.769Z" fill="white" stroke="url(#paint1_linear_504_1260)" stroke-width="1.57605" stroke-linecap="round"></path><circle cx="39.1945" cy="36.6881" r="13.9128" fill="white" stroke="url(#paint2_linear_504_1260)" stroke-width="2.14044"></circle><path d="M40.3506 29.4195L40.0574 38.2701H37.8951L37.5836 29.4195H40.3506ZM39.0312 42.558C38.567 42.558 38.1822 42.4175 37.8768 42.1365C37.5836 41.8433 37.437 41.4829 37.437 41.0554C37.437 40.6278 37.5836 40.2735 37.8768 39.9926C38.1822 39.6994 38.567 39.5528 39.0312 39.5528C39.4832 39.5528 39.8558 39.6994 40.149 39.9926C40.4422 40.2735 40.5888 40.6278 40.5888 41.0554C40.5888 41.4829 40.4422 41.8433 40.149 42.1365C39.8558 42.4175 39.4832 42.558 39.0312 42.558Z" fill="url(#paint3_linear_504_1260)"></path><defs><linearGradient id="paint0_linear_504_1260" x1="-24.7302" y1="-18.146" x2="78.493" y2="-12.9904" gradientUnits="userSpaceOnUse"><stop stop-color="#08899A"></stop><stop offset="1" stop-color="#2B3453"></stop></linearGradient><linearGradient id="paint1_linear_504_1260" x1="-3.75582" y1="11.9156" x2="6.72434" y2="0.513738" gradientUnits="userSpaceOnUse"><stop stop-color="#08899A"></stop><stop offset="1" stop-color="#2B3453"></stop></linearGradient><linearGradient id="paint2_linear_504_1260" x1="11.5727" y1="12.6244" x2="56.1753" y2="14.8522" gradientUnits="userSpaceOnUse"><stop stop-color="#08899A"></stop><stop offset="1" stop-color="#2B3453"></stop></linearGradient><linearGradient id="paint3_linear_504_1260" x1="32.8172" y1="-4.02485" x2="43.2617" y2="-3.95325" gradientUnits="userSpaceOnUse"><stop stop-color="#08899A"></stop><stop offset="1" stop-color="#2B3453"></stop></linearGradient></defs></svg>