<svg xmlns="http://www.w3.org/2000/svg" width="98" height="64" viewBox="0 0 98 64" fill="none"><g opacity="0.1"><path d="M93.2515 24.6386L85.2001 11.2887C84.7686 10.5722 83.8353 10.3442 83.1231 10.7742C82.4066 11.2064 82.1771 12.1369 82.6086 12.8527L90.6564 26.1955C90.9464 26.6819 90.7915 27.3161 90.3185 27.6046L85.1777 30.6995C84.6948 30.9859 84.0663 30.8339 83.7756 30.3462L70.6263 8.54018L70.0941 7.6653C69.8035 7.18527 69.9611 6.55532 70.4369 6.26465L75.5778 3.16979C76.0634 2.88191 76.6884 3.03536 76.977 3.5189L79.4996 7.70676C79.931 8.42258 80.8615 8.65203 81.578 8.22198C82.2932 7.79053 82.524 6.86074 82.0932 6.14499L79.5735 1.96272C78.4347 0.0518553 75.9444 -0.571765 74.0217 0.574031L68.868 3.67663C67.1499 4.72536 66.4983 6.85383 67.2323 8.65983L65.7394 9.37986C64.9335 9.76838 63.9925 9.80921 63.157 9.49459L52.5198 5.48962C50.228 4.6274 47.7548 4.45918 45.3667 5.00608L41.7496 5.83451C41.3541 5.92531 40.9698 6.04356 40.5862 6.1611H37.4223C35.6071 6.1611 33.7791 6.42927 31.9886 6.95856L28.5404 7.98406H26.7984C27.144 6.34973 26.4627 4.59713 24.9494 3.67296L19.7986 0.572519C17.8793 -0.571241 15.3918 0.0544872 14.2558 1.95769L0.57017 24.6448C-0.565842 26.55 0.0479207 29.0389 1.94689 30.1981L7.09766 33.2985C7.74872 33.687 8.46522 33.8714 9.17194 33.8714C10.5487 33.8714 11.8895 33.1718 12.6405 31.9141L12.9812 31.3475L17.6434 34.2741L21.6632 40.6854C21.0199 41.6835 20.7165 42.8505 20.846 44.0469C20.9966 45.4279 21.6759 46.6688 22.7576 47.5395L23.0342 47.7619C23.8317 48.4024 24.7614 48.7536 25.7089 48.8599C25.8905 50.2845 26.6007 51.6113 27.7691 52.5558C28.8136 53.3948 30.082 53.8101 31.3384 53.8101C31.8001 53.8101 32.2555 53.7341 32.7024 53.6222C33.034 54.6505 33.6505 55.5775 34.5275 56.2835C35.5615 57.1232 36.8179 57.5455 38.077 57.5455C38.6014 57.5455 39.1236 57.4589 39.6332 57.3125C39.964 57.9551 40.4257 58.5323 41.0008 58.9954C41.9397 59.7534 43.0848 60.1553 44.2765 60.1553C44.4687 60.1553 44.6629 60.1448 44.8558 60.1237C46.2543 59.9709 47.5087 59.2819 48.3842 58.1867L49.3118 57.0352L52.1553 58.5485C53.209 59.108 54.3437 59.3734 55.4641 59.3734C57.7481 59.3734 59.9609 58.2606 61.3012 56.3025C61.765 56.4263 62.2366 56.4925 62.706 56.4925C64.667 56.4925 66.5681 55.4381 67.5514 53.5926C67.7907 53.1485 67.9413 52.6741 68.0476 52.1913C68.4002 52.2574 68.7564 52.3018 69.1161 52.3018C69.6925 52.3018 70.2718 52.2159 70.8384 52.0427C72.3411 51.5831 73.5736 50.5647 74.3111 49.1731C74.8192 48.2117 75.0424 47.1502 74.9839 46.0952C76.5915 45.7362 78.0282 44.722 78.8586 43.2404C81.08 39.2552 77.912 36.3885 76.8534 35.4319L76.7907 35.377C77.7641 32.9839 79.7427 31.9217 80.9251 31.4853L81.182 31.9084C81.9351 33.1711 83.2759 33.872 84.6547 33.872C85.3635 33.872 86.0814 33.6869 86.7338 33.2977L91.8875 30.1951C93.778 29.0386 94.3917 26.5499 93.2515 24.6382L93.2515 24.6386ZM24.6551 45.1797C24.2018 44.8158 23.9182 44.2971 23.8548 43.7199C23.7929 43.1428 23.9583 42.5755 24.3229 42.1229L27.6359 38.0033C27.9998 37.5508 28.5179 37.2664 29.095 37.2045C29.6757 37.1446 30.2409 37.3079 30.6921 37.6718L30.9687 37.8942C31.4219 38.2581 31.7056 38.7769 31.7689 39.354C31.8309 39.9312 31.6655 40.4985 31.3009 40.9511L27.9885 45.0706C27.2389 46.0046 25.8651 46.1539 24.9317 45.4021L24.6551 45.1797ZM29.6686 50.1988C29.0815 49.7237 28.7345 49.0416 28.686 48.318C29.3096 47.9956 29.8797 47.5487 30.3478 46.968L33.6608 42.8484C34.2359 42.1341 34.5815 41.2958 34.7229 40.4138C35.5528 40.1477 36.4741 40.297 37.168 40.8537C37.7888 41.3584 38.1591 42.1333 38.1591 42.9265C38.1591 43.1201 38.1344 43.3249 38.0901 43.5403C38.0056 43.9049 37.8339 44.2484 37.577 44.5658L33.3785 49.787C33.2532 49.9404 33.1511 50.0467 32.9949 50.1664C32.0433 50.9695 30.6433 50.9807 29.6685 50.1988H29.6686ZM36.4303 53.9291C35.8278 53.4442 35.4977 52.7375 35.4689 51.9822C35.5555 51.8879 35.6413 51.8013 35.7307 51.6908L39.9312 46.4669C40.2986 46.0144 40.5802 45.521 40.7892 44.9903C41.6218 44.7101 42.5481 44.865 43.2575 45.4351C43.8875 45.9475 44.2479 46.6978 44.2479 47.4946L44.2486 47.584C44.231 48.1499 44.0275 48.6926 43.6672 49.1458L40.1339 53.5287C40.0051 53.6905 39.8425 53.8461 39.663 53.9812C38.6967 54.7111 37.3686 54.6914 36.4303 53.9291ZM46.023 56.2912C45.6493 56.7571 45.1186 57.0492 44.5259 57.1133C43.9319 57.1759 43.3583 57.0077 42.8994 56.6382C42.589 56.3876 42.3687 56.0667 42.2328 55.7105C42.3208 55.6155 42.4144 55.524 42.4947 55.4241L46.0315 51.0384C46.5699 50.362 46.9296 49.5905 47.1197 48.7606C47.7292 48.6614 48.3683 48.8127 48.8666 49.209C49.3917 49.6348 49.6936 50.2669 49.6936 50.944C49.6936 51.4522 49.5205 51.9484 49.2066 52.339L46.023 56.2912ZM53.576 55.8745L51.2448 54.6336L51.565 54.236C52.1161 53.549 52.4814 52.7297 52.6356 51.8654L58.5056 54.9814C57.2964 56.3482 55.2546 56.7685 53.576 55.8746L53.576 55.8745ZM76.2145 41.7617C75.645 42.7788 74.4893 43.3552 73.3293 43.1919C72.9654 43.1434 72.6466 43.0378 72.339 42.8625L59.7634 35.8402C59.037 35.4348 58.1121 35.6938 57.7039 36.4237C57.2956 37.1536 57.5568 38.0756 58.2873 38.4832L70.8504 45.4985C71.1938 45.6949 71.5528 45.8448 71.9251 45.963C72.023 46.5719 71.9287 47.1997 71.6352 47.7571C71.2776 48.4314 70.68 48.9248 69.953 49.1472C69.228 49.3689 68.4601 49.2957 67.7852 48.9347L55.0582 42.1966C54.3234 41.8074 53.4034 42.0868 53.0127 42.8259C52.6214 43.5649 52.9036 44.4806 53.6412 44.8719L65.1605 50.9701C65.1703 51.3818 65.083 51.7915 64.8824 52.1617C64.2462 53.3575 62.7582 53.8122 61.5589 53.1759L51.8142 48.0034C51.5249 47.5768 51.1765 47.1848 50.7626 46.8498C49.6759 45.984 48.3195 45.6103 46.9906 45.7328C46.6542 44.7094 46.0313 43.788 45.1621 43.0813C43.9754 42.1262 42.5121 41.7152 41.0784 41.8538C40.8286 40.5482 40.1331 39.3622 39.0703 38.4986C37.7034 37.4027 35.9473 37.036 34.3053 37.3992C33.973 36.6855 33.4994 36.0429 32.8687 35.5354L32.5921 35.3129C31.5089 34.4416 30.1526 34.0439 28.7709 34.1952C27.3892 34.3452 26.149 35.0237 25.2784 36.1068L23.6419 38.1416L20.0256 32.3728C19.9046 32.18 19.742 32.016 19.5477 31.8949L14.5435 28.7543L16.2749 25.8769C16.7057 25.1604 16.4727 24.2306 15.7569 23.7999C15.0397 23.3685 14.1113 23.6008 13.6799 24.318L10.0459 30.3556C9.76018 30.8342 9.13445 30.9863 8.65442 30.7019L3.51626 27.6092C3.03553 27.3157 2.8807 26.6816 3.16645 26.2015L16.8528 3.51265C17.1378 3.03262 17.7635 2.88059 18.2443 3.16635L23.3824 6.25904C23.866 6.55465 24.0236 7.1846 23.7329 7.66463L19.2649 15.067C18.8334 15.7828 19.0629 16.7133 19.7794 17.1447C20.4938 17.5769 21.425 17.3474 21.8564 16.6309L25.2504 11.0086H28.7625C28.9082 11.0086 29.0539 10.9875 29.194 10.9459L32.8498 9.85848C33.4339 9.68604 34.0224 9.55653 34.6129 9.45025C33.4065 10.4997 32.348 11.7314 31.4716 13.1215L27.8848 18.8114C26.7023 20.6864 27.2499 23.1993 29.1046 24.4119C32.0599 26.3447 35.8327 26.2777 38.719 24.2416L46.3488 18.8571L63.0609 27.3469L74.8405 37.6899C77.0766 39.7148 76.7656 40.7726 76.2144 41.7617L76.2145 41.7617ZM74.4203 33.2952L64.912 24.9468C64.8177 24.8631 64.7121 24.7913 64.5995 24.7343L46.9646 15.7749C46.4627 15.492 45.8335 15.5159 45.3479 15.8566L36.9714 21.7683C35.109 23.0824 32.671 23.1274 30.7606 21.8788C30.2785 21.5642 30.137 20.9124 30.4432 20.426L34.0292 14.7354C35.9437 11.6984 38.9259 9.58396 42.4248 8.78376L46.0418 7.95532C47.8473 7.54075 49.7172 7.66814 51.4522 8.32061L62.0887 12.3261C63.697 12.9314 65.5052 12.8505 67.053 12.1051L68.7443 11.2894L79.3408 28.8644C77.798 29.5281 75.7315 30.8302 74.4202 33.2952L74.4203 33.2952Z" fill="#D9ED92"></path><path d="M0.769043 27.3013L16.5347 1.53785L18.4574 1.15332C18.9701 1.2815 20.0724 1.61475 20.38 1.92238C20.6876 2.23 22.3027 3.07596 23.0717 3.46049C23.4562 3.9732 24.3022 5.15242 24.6098 5.76766C24.9944 6.53672 24.9944 6.53672 25.3789 6.92125C25.7634 7.30578 25.3789 8.07484 25.7634 8.84389C26.071 9.45914 26.6606 9.61295 26.917 9.61295C27.1733 9.61295 27.9168 9.45914 28.8396 8.84389C29.9932 8.07484 30.3778 8.84389 31.9159 8.07484C33.454 7.30578 33.8385 8.07484 34.223 8.07484H38.4529H41.1446C42.2981 8.07484 43.4517 6.92125 43.8363 6.53672C44.2208 6.15219 46.9125 6.15219 47.6815 6.15219C48.2968 6.15219 50.2451 6.40855 51.1423 6.53672L56.1412 8.07484L62.6782 11.1511L66.908 10.7665L69.2152 9.99748L68.8306 6.15219L71.9069 3.84502L75.7521 1.15332L77.2903 1.92238C82.0328 9.3566 91.5178 24.302 91.5178 24.6096C91.5178 24.9172 92.0305 26.7886 92.2869 27.6858C92.0305 27.9422 91.364 28.5318 90.7488 28.8394C89.9797 29.2239 88.4416 30.762 87.6725 31.1466C87.0573 31.4542 85.109 32.3001 84.2118 32.6847L81.5201 29.6084L79.982 30.762C79.5974 31.0184 78.5208 31.6849 77.2903 32.3001C75.7521 33.0692 76.1367 33.8383 75.7521 34.2228C75.4445 34.5304 75.624 35.6327 75.7521 36.1454C76.0085 36.53 76.5981 37.3759 76.9057 37.6835C77.2903 38.0681 78.0593 39.6062 78.0593 39.9907C78.0593 40.3753 77.6748 41.5288 77.2903 41.9134C76.9057 42.2979 76.5212 42.6824 75.7521 43.067C75.1369 43.3746 74.9831 43.7078 74.9831 43.836L73.8295 44.9896C73.7013 45.3741 73.445 46.297 73.445 46.9122C73.445 47.5275 72.9323 48.194 72.6759 48.4504L71.9069 49.6039C71.1378 49.9885 69.5228 50.7575 69.2152 50.7575C68.8306 50.7575 67.2925 51.1421 66.908 51.9111C66.6004 52.5264 65.498 53.4492 64.9853 53.8338L63.8318 54.9873C62.55 55.2437 59.8327 55.7564 59.2174 55.7564C58.4484 55.7564 58.4484 56.91 57.6793 57.2945C57.064 57.6021 55.6285 57.679 54.9876 57.679L51.9114 56.5255L49.2197 55.7564C48.8351 56.0128 47.9892 56.5255 47.6815 56.5255C47.3739 56.5255 46.2716 57.8072 45.7589 58.4481H43.0672L41.5291 57.2945L40.3755 55.7564L38.0683 56.5255L34.6076 54.2183L33.8385 51.9111L31.9159 52.6802L27.6861 51.1421V48.4504L24.6098 47.2968L22.3027 44.9896L23.0717 41.1443L21.5336 37.299L17.6883 32.3001L13.074 29.993L9.6132 32.6847L0.769043 27.3013Z" fill="#D9ED92"></path></g><path d="M22.7828 22.386C22.0684 21.9503 21.1379 22.1791 20.7036 22.8942L20.6339 23.0096C20.2004 23.7248 20.4277 24.6552 21.1421 25.0888C21.3878 25.238 21.6588 25.3084 21.9262 25.3084C22.4379 25.3084 22.9362 25.0494 23.2213 24.5799L23.291 24.4645C23.7253 23.7501 23.4972 22.8196 22.7828 22.3861L22.7828 22.386Z" fill="#D9ED92"></path><path d="M97.0962 28.4834L89.0448 15.1335C88.6134 14.4169 87.6801 14.1889 86.9678 14.6189C86.2513 15.0511 86.0219 15.9816 86.4533 16.6974L94.5011 30.0403C94.7911 30.5266 94.6362 31.1608 94.1632 31.4494L89.0224 34.5442C88.5395 34.8307 87.911 34.6786 87.6203 34.1909L74.471 12.3849L73.9389 11.51C73.6482 11.03 73.8058 10.4 74.2816 10.1094L79.4225 7.01452C79.9081 6.72664 80.5332 6.88008 80.8217 7.36363L83.3443 11.5515C83.7758 12.2673 84.7063 12.4968 85.4228 12.0667C86.1379 11.6353 86.3687 10.7055 85.938 9.98971L83.4183 5.80744C82.2794 3.89658 79.7892 3.27296 77.8664 4.41876L72.7128 7.52136C70.9947 8.57009 70.343 10.6986 71.077 12.5046L69.5842 13.2246C68.7782 13.6131 67.8372 13.6539 67.0018 13.3393L56.3645 9.33435C54.0728 8.47213 51.5996 8.30391 49.2114 8.8508L45.5943 9.67924C45.1988 9.77004 44.8145 9.88829 44.4309 10.0058H41.267C39.4519 10.0058 37.6239 10.274 35.8334 10.8033L32.3852 11.8288H30.6431C30.9887 10.1945 30.3074 8.44186 28.7941 7.51769L23.6433 4.41725C21.724 3.27349 19.2365 3.89921 18.1005 5.80242L4.4149 28.4895C3.27888 30.3948 3.89265 32.8837 5.79162 34.0428L10.9424 37.1432C11.5934 37.5318 12.3099 37.7162 13.0167 37.7162C14.3934 37.7162 15.7342 37.0165 16.4852 35.7588L16.8259 35.1922L21.4882 38.1188L25.5079 44.5301C24.8646 45.5282 24.5612 46.6952 24.6907 47.8917C24.8414 49.2726 25.5206 50.5135 26.6023 51.3842L26.8789 51.6066C27.6764 52.2471 28.6062 52.5983 29.5536 52.7046C29.7352 54.1292 30.4454 55.456 31.6138 56.4006C32.6584 57.2395 33.9267 57.6548 35.1831 57.6548C35.6448 57.6548 36.1002 57.5788 36.5472 57.4669C36.8787 58.4952 37.4953 59.4223 38.3723 60.1282C39.4062 60.9679 40.6626 61.3902 41.9217 61.3902C42.4461 61.3902 42.9684 61.3036 43.4779 61.1572C43.8087 61.7998 44.2705 62.377 44.8455 62.8401C45.7844 63.5982 46.9295 64.0001 48.1213 64.0001C48.3134 64.0001 48.5077 63.9895 48.7005 63.9684C50.0991 63.8157 51.3534 63.1266 52.2289 62.0314L53.1566 60.8799L56.0001 62.3932C57.0537 62.9527 58.1884 63.2181 59.3088 63.2181C61.5928 63.2181 63.8057 62.1053 65.1459 60.1472C65.6097 60.2711 66.0813 60.3372 66.5508 60.3372C68.5117 60.3372 70.4128 59.2829 71.3961 57.4373C71.6354 56.9932 71.7861 56.5188 71.8923 56.036C72.2449 56.1021 72.6011 56.1465 72.9608 56.1465C73.5372 56.1465 74.1165 56.0606 74.6831 55.8875C76.1858 55.4279 77.4183 54.4094 78.1558 53.0179C78.664 52.0564 78.8871 50.9949 78.8287 49.9399C80.4363 49.581 81.8729 48.5667 82.7034 47.0851C84.9247 43.0999 81.7567 40.2332 80.6981 39.2766L80.6355 39.2217C81.6089 36.8287 83.5874 35.7665 84.7698 35.3301L85.0267 35.7531C85.7798 37.0158 87.1206 37.7167 88.4994 37.7167C89.2082 37.7167 89.9261 37.5316 90.5786 37.1424L95.7322 34.0398C97.6227 32.8834 98.2364 30.3946 97.0963 28.4829L97.0962 28.4834ZM28.4998 49.0244C28.0465 48.6606 27.7629 48.1418 27.6995 47.5647C27.6376 46.9875 27.803 46.4202 28.1676 45.9676L31.4807 41.8481C31.8445 41.3955 32.3626 41.1111 32.9397 41.0492C33.5204 40.9894 34.0856 41.1527 34.5368 41.5166L34.8134 41.739C35.2667 42.1029 35.5503 42.6216 35.6137 43.1988C35.6756 43.7759 35.5102 44.3432 35.1456 44.7958L31.8333 48.9154C31.0837 49.8494 29.7098 49.9986 28.7764 49.2469L28.4998 49.0244ZM33.5133 54.0435C32.9263 53.5684 32.5793 52.8864 32.5307 52.1627C33.1543 51.8404 33.7244 51.3934 34.1925 50.8127L37.5056 46.6932C38.0806 45.9788 38.4262 45.1405 38.5677 44.2585C39.3975 43.9925 40.3188 44.1417 41.0128 44.6984C41.6336 45.2031 42.0038 45.978 42.0038 46.7713C42.0038 46.9648 41.9792 47.1696 41.9348 47.385C41.8503 47.7496 41.6786 48.0931 41.4217 48.4105L37.2232 53.6317C37.0979 53.7852 36.9959 53.8915 36.8396 54.0111C35.888 54.8142 34.488 54.8255 33.5132 54.0435H33.5133ZM40.2751 57.7739C39.6726 57.2889 39.3425 56.5822 39.3136 55.827C39.4002 55.7327 39.4861 55.6461 39.5755 55.5356L43.7759 50.3116C44.1433 49.8591 44.4249 49.3657 44.6339 48.835C45.4666 48.5548 46.3928 48.7097 47.1023 49.2798C47.7322 49.7922 48.0926 50.5425 48.0926 51.3393L48.0933 51.4287C48.0757 51.9946 47.8723 52.5373 47.5119 52.9906L43.9787 57.3734C43.8498 57.5353 43.6873 57.6908 43.5078 57.8259C42.5414 58.5558 41.2133 58.5361 40.2751 57.7739ZM49.8678 60.1359C49.494 60.6018 48.9633 60.8939 48.3707 60.958C47.7766 61.0206 47.203 60.8524 46.7441 60.4829C46.4337 60.2323 46.2134 59.9114 46.0776 59.5552C46.1655 59.4602 46.2591 59.3687 46.3394 59.2688L49.8762 54.8831C50.4147 54.2067 50.7743 53.4353 50.9644 52.6054C51.5739 52.5061 52.213 52.6575 52.7113 53.0537C53.2364 53.4796 53.5383 54.1116 53.5383 54.7887C53.5383 55.2969 53.3652 55.7931 53.0513 56.1837L49.8678 60.1359ZM57.4207 59.7192L55.0895 58.4783L55.4098 58.0807C55.9609 57.3937 56.3262 56.5744 56.4803 55.7102L62.3504 58.8261C61.1412 60.193 59.0993 60.6132 57.4207 59.7193L57.4207 59.7192ZM80.0592 45.6064C79.4898 46.6235 78.334 47.1999 77.174 47.0366C76.8102 46.9881 76.4913 46.8825 76.1837 46.7073L63.6081 39.6849C62.8817 39.2795 61.9569 39.5385 61.5486 40.2684C61.1403 40.9983 61.4015 41.9203 62.1321 42.3279L74.6951 49.3432C75.0386 49.5396 75.3975 49.6895 75.7699 49.8078C75.8677 50.4166 75.7734 51.0444 75.4799 51.6019C75.1223 52.2762 74.5248 52.7696 73.7977 52.992C73.0727 53.2137 72.3048 53.1405 71.6299 52.7794L58.9029 46.0414C58.1681 45.6521 57.2481 45.9316 56.8574 46.6706C56.4661 47.4097 56.7483 48.3254 57.486 48.7166L69.0052 54.8148C69.015 55.2266 68.9278 55.6362 68.7272 56.0064C68.0909 57.2022 66.603 57.6569 65.4037 57.0207L55.6589 51.8481C55.3696 51.4216 55.0212 51.0295 54.6074 50.6945C53.5206 49.8288 52.1642 49.455 50.8354 49.5775C50.4989 48.5541 49.876 47.6328 49.0069 46.9261C47.8202 45.9709 46.3569 45.5599 44.9231 45.6986C44.6733 44.3929 43.9779 43.207 42.915 42.3433C41.5481 41.2474 39.792 40.8807 38.15 41.2439C37.8178 40.5302 37.3441 39.8876 36.7134 39.3801L36.4368 39.1577C35.3536 38.2863 33.9973 37.8886 32.6156 38.04C31.234 38.1899 29.9938 38.8684 29.1231 39.9515L27.4867 41.9864L23.8704 36.2176C23.7493 36.0247 23.5867 35.8607 23.3925 35.7397L18.3882 32.599L20.1196 29.7217C20.5504 29.0051 20.3174 28.0754 19.6016 27.6447C18.8844 27.2132 17.956 27.4455 17.5246 28.1627L13.8907 34.2003C13.6049 34.679 12.9792 34.831 12.4991 34.5466L7.36099 31.4539C6.88026 31.1604 6.72542 30.5263 7.01118 30.0463L20.6975 7.35737C20.9825 6.87734 21.6083 6.72532 22.089 7.01108L27.2271 10.1038C27.7107 10.3994 27.8684 11.0293 27.5777 11.5094L23.1096 18.9117C22.6782 19.6275 22.9076 20.558 23.6241 20.9894C24.3385 21.4216 25.2697 21.1921 25.7011 20.4756L29.0951 14.8533H32.6073C32.7529 14.8533 32.8986 14.8322 33.0387 14.7907L36.6945 13.7032C37.2787 13.5308 37.8671 13.4013 38.4576 13.295C37.2512 14.3444 36.1927 15.5761 35.3163 16.9662L31.7295 22.6561C30.5471 24.5311 31.0947 27.044 32.9493 28.2566C35.9047 30.1895 39.6774 30.1224 42.5638 28.0863L50.1935 22.7018L66.9057 31.1916L78.6852 41.5346C80.9213 43.5595 80.6103 44.6174 80.0592 45.6064L80.0592 45.6064ZM78.2651 37.1399L68.7567 28.7916C68.6624 28.7078 68.5568 28.636 68.4442 28.579L50.8093 19.6197C50.3075 19.3367 49.6783 19.3607 49.1926 19.7013L40.8162 25.613C38.9538 26.9271 36.5157 26.9721 34.6054 25.7235C34.1232 25.4089 33.9818 24.7571 34.2879 24.2708L37.874 18.5802C39.7884 15.5432 42.7707 13.4287 46.2695 12.6285L49.8865 11.8C51.692 11.3855 53.5619 11.5129 55.2969 12.1653L65.9334 16.1708C67.5417 16.7762 69.3499 16.6952 70.8977 15.9498L72.5891 15.1341L83.1855 32.7091C81.6427 33.3729 79.5763 34.675 78.2649 37.1399L78.2651 37.1399Z" fill="#D9ED92"></path></svg>