<svg xmlns="http://www.w3.org/2000/svg" width="62" height="61" viewBox="0 0 62 61" fill="none"><path d="M47.2485 47.2535C47.2485 48.5493 46.192 49.6121 44.8835 49.6121H21.1687C19.8658 49.6121 18.8037 48.5532 18.8037 47.2535C18.8037 39.4386 25.1711 33.1029 33.0258 33.1029C40.8806 33.1029 47.2479 39.4388 47.2479 47.2535H47.2485ZM33.0264 36.2477C27.1826 36.2477 22.3976 40.7559 21.9925 46.4678H44.0608C43.6557 40.7559 38.8707 36.2477 33.027 36.2477H33.0264ZM33.0264 31.5306C28.2264 31.5306 24.3348 27.6591 24.3348 22.8832C24.3348 18.107 28.2264 14.2354 33.0264 14.2354C37.8264 14.2354 41.718 18.1068 41.718 22.8832C41.718 27.6591 37.8264 31.5306 33.0264 31.5306ZM33.0264 28.3863C36.0808 28.3863 38.5571 25.9224 38.5571 22.8834C38.5571 19.8438 36.0808 17.3799 33.0264 17.3799C29.972 17.3799 27.4957 19.8438 27.4957 22.8834C27.4957 25.9224 29.972 28.3863 33.0264 28.3863Z" fill="#D9ED92"></path><path d="M44.8584 5.15234H52.5767C56.4988 5.15234 59.6784 8.33187 59.6784 12.254V19.3747" stroke="#D9ED92" stroke-width="3.69287" stroke-linecap="round"></path><path d="M21.4336 58.2178L13.7153 58.2178C9.79314 58.2178 6.61362 55.0382 6.61362 51.1161L6.61362 43.9954" stroke="#D9ED92" stroke-width="3.69287" stroke-linecap="round"></path><path d="M59.3799 43.3965L59.3799 51.1148C59.3799 55.0369 56.2004 58.2165 52.2782 58.2165L45.1575 58.2165" stroke="#D9ED92" stroke-width="3.69287" stroke-linecap="round"></path><path d="M6.91309 19.9736L6.91309 12.2553C6.91309 8.33318 10.0926 5.15366 14.0148 5.15366L21.1355 5.15366" stroke="#D9ED92" stroke-width="3.69287" stroke-linecap="round"></path><g opacity="0.12"><path d="M42.6342 44.1773C42.6342 45.4731 41.5777 46.5359 40.2693 46.5359H16.5544C15.2515 46.5359 14.1895 45.477 14.1895 44.1773C14.1895 36.3625 20.5568 30.0267 28.4116 30.0267C36.2663 30.0267 42.6337 36.3626 42.6337 44.1773H42.6342ZM28.4121 33.1716C22.5684 33.1716 17.7834 37.6797 17.3783 43.3916H39.4465C39.0415 37.6797 34.2565 33.1716 28.4127 33.1716H28.4121ZM28.4121 28.4544C23.6122 28.4544 19.7206 24.5829 19.7206 19.8071C19.7206 15.0308 23.6122 11.1592 28.4121 11.1592C33.2121 11.1592 37.1037 15.0307 37.1037 19.8071C37.1037 24.5829 33.2121 28.4544 28.4121 28.4544ZM28.4121 25.3101C31.4665 25.3101 33.9428 22.8462 33.9428 19.8072C33.9428 16.7676 31.4665 14.3038 28.4121 14.3038C25.3578 14.3038 22.8815 16.7676 22.8815 19.8072C22.8815 22.8462 25.3578 25.3101 28.4121 25.3101Z" fill="#D9ED92"></path><path d="M40.2441 2.07617H47.9624C51.8846 2.07617 55.0641 5.2557 55.0641 9.17784V16.2986" stroke="#D9ED92" stroke-width="3.69287" stroke-linecap="round"></path><path d="M16.8193 55.1416L9.10103 55.1416C5.17889 55.1416 1.99936 51.9621 1.99936 48.0399L1.99936 40.9192" stroke="#D9ED92" stroke-width="3.69287" stroke-linecap="round"></path><path d="M54.7656 40.3203L54.7656 48.0386C54.7656 51.9608 51.5861 55.1403 47.664 55.1403L40.5432 55.1403" stroke="#D9ED92" stroke-width="3.69287" stroke-linecap="round"></path><path d="M2.29883 16.8975L2.29883 9.17915C2.29883 5.25701 5.47836 2.07748 9.4005 2.07748L16.5212 2.07749" stroke="#D9ED92" stroke-width="3.69287" stroke-linecap="round"></path></g></svg>