<svg xmlns="http://www.w3.org/2000/svg" width="60" height="51" viewBox="0 0 60 51" fill="none"><path d="M30.0964 37.8316C29.5889 33.3914 26.4805 29.8391 22.4845 28.5068C24.7681 26.5405 26.227 23.6223 26.227 20.3873C26.227 14.4882 21.4061 9.66687 15.5065 9.66687C9.60696 9.66687 4.7861 14.4881 4.7861 20.3873C4.7861 23.6223 6.24496 26.5404 8.52858 28.5068C4.53214 29.8392 1.4241 33.3914 0.916631 37.8316L0.0285804 45.0631C-0.224962 47.2835 1.23394 49.3764 3.39057 49.7573C7.26004 50.5184 11.3198 50.9626 15.443 50.9626C19.5662 50.9626 23.6257 50.5821 27.4954 49.7573C29.6521 49.313 31.1114 47.2202 30.8574 45.0631L30.0964 37.8316ZM15.5066 12.9021C19.6296 12.9021 22.9916 16.2641 22.9916 20.3871C22.9916 24.5101 19.6296 27.872 15.5066 27.872C11.3837 27.872 8.02168 24.5101 8.02168 20.3871C8.02123 16.2641 11.3832 12.9021 15.5066 12.9021ZM26.9247 46.6489C19.5663 48.1078 11.3834 48.1078 4.02512 46.6489C3.51759 46.5219 3.13707 46.0144 3.20034 45.4436L4.08839 38.2121C4.59592 34.1523 8.02118 31.1076 12.0809 31.1076H18.8686C22.9284 31.1076 26.4173 34.1523 26.8611 38.2121L27.7492 45.4436C27.8129 46.0148 27.4956 46.5223 26.9249 46.6489H26.9247Z" fill="url(#paint0_linear_732_3630)"></path><path d="M55.5656 4.33788C52.0767 0.848909 47.0656 -0.673163 42.1811 0.278118C36.3452 1.35644 31.651 6.05071 30.5093 11.8865C29.6212 16.4537 30.7628 20.9573 33.7443 24.4464C33.1097 25.9689 32.3487 27.2376 31.5876 28.1256C30.8266 29.0769 30.6996 30.346 31.3974 31.4242C31.9049 32.249 32.7929 32.6928 33.681 32.6928C33.9345 32.6928 34.1885 32.6295 34.4421 32.5658C36.5354 31.995 38.8823 30.9167 41.42 29.3308C43.5766 29.9016 45.7971 29.9653 48.0807 29.5211C53.9166 28.3795 58.6108 23.6852 59.7525 17.8492C60.6405 12.7112 59.118 7.8267 55.5658 4.33784L55.5656 4.33788ZM56.5174 17.1515C55.6293 21.7188 52.0134 25.398 47.3828 26.2861C45.4165 26.6666 43.45 26.5396 41.6102 25.9688C41.166 25.8419 40.6589 25.9056 40.2779 26.1591C38.3747 27.3645 36.5354 28.3795 34.8858 28.9503C35.7105 27.745 36.4083 26.2861 37.0424 24.637C37.296 24.0662 37.1057 23.3685 36.7251 22.9242C33.9977 20.133 32.9189 16.3273 33.6804 12.4579C34.5685 7.89062 38.2477 4.21135 42.815 3.38704C43.5761 3.26005 44.3376 3.19678 45.0986 3.19678C48.207 3.19678 51.1247 4.40213 53.3452 6.62198C56.1364 9.34941 57.2784 13.2189 56.5173 17.1517L56.5174 17.1515Z" fill="url(#paint1_linear_732_3630)"></path><defs><linearGradient id="paint0_linear_732_3630" x1="-13.0268" y1="-2.84699" x2="32.9956" y2="-1.12778" gradientUnits="userSpaceOnUse"><stop stop-color="#08899A"></stop><stop offset="1" stop-color="#2B3453"></stop></linearGradient><linearGradient id="paint1_linear_732_3630" x1="17.6537" y1="-9.9069" x2="62.0047" y2="-7.8888" gradientUnits="userSpaceOnUse"><stop stop-color="#08899A"></stop><stop offset="1" stop-color="#2B3453"></stop></linearGradient></defs></svg>