<svg xmlns="http://www.w3.org/2000/svg" width="117" height="115" viewBox="0 0 117 115" fill="none"><path d="M32.6633 57.1803C48.4276 57.1803 61.2535 44.3543 61.2535 28.59C61.2535 12.8257 48.4276 0 32.6633 0C16.8989 0 4.07471 12.8257 4.07471 28.5883C4.07471 44.3509 16.8989 57.1803 32.6633 57.1803Z" fill="#CEEFE9"></path><path d="M109.275 62.2773H87.2449C86.3156 62.2773 85.5632 63.0299 85.5632 63.9592V67.1767C81.6277 67.2271 78.5608 67.2254 77.2016 67.1733C75.1976 67.0796 73.54 67.1716 72.0022 67.4473C68.547 68.0454 64.9307 69.5832 61.2499 72.0208C58.2889 73.9903 54.8492 75.0303 51.3003 75.0303H42.1464C38.9584 75.0303 36.1913 76.8786 34.9605 79.5172L12.6427 66.1141C10.7599 64.942 8.53734 64.5746 6.38074 65.079C4.23096 65.5837 2.40699 66.8959 1.24731 68.7717C0.479127 69.9993 0.050874 71.4157 0.00415551 72.8632C-0.0895248 75.807 1.40669 78.6018 3.88763 80.1413L43.7173 105.664C43.8057 105.722 49.7783 109.595 58.4692 109.591C62.6439 109.591 67.4479 108.698 72.5241 106.063C72.5864 106.029 72.6439 105.996 72.701 105.956C74.0011 105.144 81.2082 101.178 85.5632 99.848V102.887C85.5632 103.816 86.3156 104.569 87.2449 104.569H109.275C110.202 104.569 110.956 103.816 110.956 102.887V63.9592C110.956 63.0299 110.202 62.2773 109.275 62.2773Z" fill="#CEEFE9"></path><path d="M37.8008 62.4048C53.6203 62.4048 66.491 49.5341 66.491 33.7146C66.491 17.8951 53.6203 5.02441 37.8008 5.02441C21.9812 5.02441 9.1123 17.8951 9.1123 33.7129C9.1123 49.5307 21.9812 62.4048 37.8008 62.4048ZM37.8008 8.39953C51.7605 8.39953 63.1158 19.7549 63.1158 33.7146C63.1158 47.6743 51.7605 59.0314 37.8008 59.0314C23.8428 59.0314 12.4857 47.6761 12.4857 33.7146C12.4857 19.7549 23.841 8.39953 37.8008 8.39953Z" fill="url(#paint0_linear_325_2914)"></path><path d="M29.404 44.9539C29.5606 45.1105 29.7902 45.2706 30.0947 45.4324C30.4009 45.5942 30.7627 45.7542 31.182 45.9091C31.603 46.0639 32.0693 46.2083 32.5842 46.3353C33.0992 46.464 33.649 46.5702 34.2318 46.6519L33.8038 50.7769C33.776 50.9265 33.7864 51.0622 33.8351 51.184C33.8838 51.3058 33.9813 51.4049 34.1291 51.4797C34.2788 51.5528 34.4858 51.6102 34.7485 51.652C35.0112 51.6937 35.3626 51.7129 35.7958 51.7129C36.1333 51.7129 36.4152 51.6955 36.6396 51.6624C36.8623 51.6276 37.0397 51.5859 37.1685 51.5302C37.2972 51.478 37.3859 51.4101 37.4329 51.3284C37.4799 51.2466 37.5112 51.1509 37.5251 51.0431L37.9514 46.6937C39.2527 46.5841 40.4392 46.3266 41.5092 45.9212C42.5808 45.5159 43.4942 44.9713 44.2545 44.2946C45.013 43.6161 45.5993 42.8088 46.0134 41.8746C46.4274 40.9386 46.6327 39.8878 46.6327 38.7222C46.6327 37.6244 46.464 36.6849 46.1247 35.9072C45.7854 35.1278 45.3383 34.4633 44.7834 33.9135C44.2284 33.3637 43.5934 32.9044 42.8818 32.5304C42.1703 32.1581 41.4448 31.8293 40.7071 31.5457C39.9677 31.2604 39.244 30.9907 38.5324 30.7332C37.8209 30.4758 37.1841 30.1887 36.6222 29.879C36.0603 29.5693 35.6079 29.1936 35.2704 28.7604C34.9329 28.3272 34.7624 27.7896 34.7624 27.1528C34.7624 26.7475 34.8372 26.3752 34.9851 26.0342C35.1347 25.6967 35.3644 25.4061 35.6758 25.1608C35.9872 24.9155 36.3943 24.7259 36.8953 24.5919C37.3964 24.4562 38.0001 24.3884 38.7047 24.3884C39.4771 24.3884 40.1852 24.4771 40.8289 24.6528C41.4726 24.8285 42.0415 25.0182 42.5373 25.2217C43.0314 25.4235 43.449 25.6149 43.7865 25.7906C44.1257 25.9663 44.3832 26.0533 44.5589 26.0533C44.6546 26.0533 44.7346 26.0307 44.8025 25.982C44.8703 25.9368 44.9312 25.8393 44.9852 25.6984C45.0391 25.5557 45.0756 25.3505 45.0965 25.0791C45.1174 24.8077 45.1278 24.4632 45.1278 24.0422C45.1278 23.729 45.1209 23.4559 45.107 23.2175C45.093 22.9809 45.0704 22.7774 45.0356 22.6069C45.0008 22.4364 44.9539 22.2955 44.893 22.1806C44.8321 22.0658 44.7433 21.9492 44.6285 21.8344C44.5137 21.7213 44.3067 21.5909 44.0092 21.4482C43.7117 21.3055 43.3794 21.1716 43.0123 21.0428C42.6469 20.9141 42.2538 20.801 41.8327 20.7088C41.4117 20.6114 41.0133 20.5383 40.6341 20.4844L41.0412 16.6413C41.0412 16.4917 41.0203 16.3577 40.9803 16.2359C40.9403 16.1141 40.8446 16.015 40.6949 15.9402C40.5453 15.8671 40.3331 15.8097 40.0547 15.7679C39.7764 15.7262 39.4284 15.707 39.0074 15.707C38.6542 15.707 38.3689 15.7209 38.1532 15.747C37.9357 15.7749 37.7635 15.8166 37.6347 15.8775C37.506 15.9384 37.4173 16.0063 37.3703 16.0811C37.3233 16.1559 37.292 16.2481 37.2781 16.356L36.8727 20.4426C35.6932 20.5766 34.6389 20.8393 33.7116 21.2238C32.7843 21.6117 32.0014 22.1163 31.3647 22.7391C30.7279 23.3619 30.2391 24.0909 29.9015 24.9242C29.5623 25.7576 29.3935 26.6831 29.3935 27.6991C29.3935 28.8247 29.5606 29.7833 29.8928 30.5767C30.2234 31.3682 30.6688 32.0433 31.2238 32.5982C31.7787 33.1532 32.4068 33.6212 33.1044 34.0022C33.8021 34.3815 34.5188 34.7138 35.2495 34.9974C35.9802 35.2827 36.6953 35.5489 37.3929 35.8011C38.0905 36.0534 38.7169 36.337 39.2736 36.6536C39.8286 36.9737 40.2722 37.3425 40.6062 37.7636C40.9368 38.1828 41.1038 38.7187 41.1038 39.3693C41.1038 40.3453 40.7176 41.1282 39.9451 41.718C39.1727 42.3078 37.9931 42.6035 36.4082 42.6035C35.3922 42.6035 34.5067 42.5009 33.7551 42.2973C33.0035 42.0938 32.3633 41.8711 31.8344 41.6258C31.3055 41.3805 30.8723 41.1578 30.5331 40.9543C30.1938 40.7507 29.9381 40.6498 29.7606 40.6498C29.6249 40.6498 29.5066 40.6811 29.404 40.742C29.3013 40.8012 29.2178 40.9142 29.15 41.076C29.0821 41.2378 29.0352 41.4692 29.0073 41.7667C28.9795 42.0642 28.9673 42.4452 28.9673 42.9045C28.9673 43.5012 29.0021 43.9518 29.0699 44.2563C29.1361 44.5695 29.2474 44.7991 29.404 44.9539ZM114.679 67.5202H92.5725C91.64 67.5202 90.8849 68.2753 90.8849 69.2078V72.4367C86.9357 72.4872 83.8581 72.4855 82.4941 72.4333C80.483 72.3393 78.8198 72.4315 77.2766 72.7081C73.8093 73.3084 70.1802 74.8515 66.4867 77.2976C63.5152 79.274 60.0636 80.3178 56.5023 80.3178H47.3164C44.117 80.3178 41.3404 82.1724 40.1052 84.8203L17.7094 71.3703C15.82 70.1942 13.5897 69.8254 11.4254 70.3316C9.26813 70.8379 7.43792 72.1549 6.27403 74.0373C5.50332 75.2691 5.0736 76.6904 5.02663 78.1431C4.93268 81.0972 6.43408 83.9017 8.92366 85.4466L48.8926 111.059C48.9814 111.117 54.9748 115.003 63.6962 115C67.8855 115 72.7063 114.104 77.8003 111.459C77.8629 111.424 77.9203 111.391 77.9778 111.351C79.2826 110.537 86.5147 106.557 90.8849 105.222V108.272C90.8849 109.205 91.64 109.96 92.5725 109.96H114.679C115.61 109.96 116.367 109.205 116.367 108.272V69.2078C116.367 68.2753 115.61 67.5202 114.679 67.5202ZM90.8867 101.727C88.7886 102.244 85.9267 103.397 82.3202 105.193C78.7867 106.95 77.04 107.875 76.1789 108.498C64.6234 114.467 53.917 110.344 50.7385 108.234L10.7243 82.5934C9.21072 81.6557 8.34259 80.0325 8.4 78.251C8.42783 77.3916 8.68184 76.553 9.14113 75.8206C9.83355 74.6984 10.9192 73.9173 12.1979 73.618C13.4766 73.3171 14.8058 73.5328 15.9522 74.2478L39.4267 88.3467C39.4354 88.5433 39.4441 88.7312 39.4667 88.9731L39.498 89.1679C39.5015 89.1888 39.5224 89.3262 39.5276 89.3471C39.8268 90.8955 40.5558 92.2821 41.6327 93.3607C43.0819 94.8082 45.0043 95.605 47.0485 95.605H68.5414C69.4739 95.605 70.2289 94.8499 70.2289 93.9174C70.2289 92.9849 69.4739 92.2299 68.5414 92.2299H47.0485C45.9055 92.2299 44.8303 91.7845 44.0179 90.972C43.4264 90.3805 43.0071 89.575 42.8314 88.6547L42.807 88.5259C42.7809 88.2563 42.767 87.971 42.7931 87.6526C42.7948 87.6352 42.7931 87.6213 42.7966 87.6056C42.9584 85.4118 44.9399 83.6929 47.3182 83.6929H56.504C60.7316 83.6929 64.8305 82.4525 68.3552 80.109C71.6538 77.9239 74.8497 76.5547 77.8647 76.0311C79.166 75.7962 80.5891 75.7283 82.3584 75.8032C84.2287 75.8745 88.1936 75.8414 90.8867 75.8101V101.727ZM112.994 106.585H94.2601V74.1156C94.2601 74.1017 94.267 74.0895 94.267 74.0773C94.267 74.0651 94.2601 74.0547 94.2601 74.0425V70.8936H112.994V106.585Z" fill="url(#paint1_linear_325_2914)"></path><defs><linearGradient id="paint0_linear_325_2914" x1="-15.0882" y1="-12.3636" x2="70.3162" y2="-8.09806" gradientUnits="userSpaceOnUse"><stop stop-color="#08899A"></stop><stop offset="1" stop-color="#2B3453"></stop></linearGradient><linearGradient id="paint1_linear_325_2914" x1="-41.9392" y1="-14.3816" x2="123.684" y2="-5.10531" gradientUnits="userSpaceOnUse"><stop stop-color="#08899A"></stop><stop offset="1" stop-color="#2B3453"></stop></linearGradient></defs></svg>