<svg xmlns="http://www.w3.org/2000/svg" width="143" height="143" viewBox="0 0 143 143" fill="none"><path d="M27.4382 78.8703C26.4037 78.2395 25.0564 78.5705 24.4277 79.6061L24.3267 79.7733C23.699 80.8088 24.028 82.1561 25.0624 82.7838C25.418 82.9998 25.8104 83.1019 26.1979 83.1019C26.9388 83.1019 27.6602 82.7267 28.073 82.047L28.1739 81.8798C28.8027 80.8453 28.4724 79.498 27.4382 78.8703Z" fill="#CEEFE9"></path><path d="M135.041 87.6986L123.383 68.3685C122.758 67.3309 119.508 61.9569 118.884 60.9206L115.236 54.8649C113.587 52.098 109.981 51.1951 107.197 52.8541L99.7349 57.3465C97.2472 58.865 96.3035 61.947 97.3664 64.562L95.2049 65.6045C94.0379 66.167 92.6752 66.2263 91.4657 65.7707L76.0635 59.9717C72.7451 58.7231 69.164 58.4796 65.706 59.2715L60.4687 60.4711C59.8958 60.6026 59.3396 60.7737 58.7841 60.9438H54.203C51.5747 60.9438 48.9278 61.332 46.3353 62.0986L41.3424 63.5834H38.8201C39.3205 61.217 38.3337 58.6792 36.1427 57.3411L28.6846 52.8518C25.9055 51.1958 22.3038 52.1017 20.6588 54.8576L0.842746 87.7074C-0.802226 90.4662 0.086398 94.07 2.83602 95.7484L10.2941 100.238C11.237 100.8 12.2743 101.067 13.2976 101.067C15.2911 101.067 17.2325 100.054 18.3199 98.2332L18.8132 97.4126L25.564 101.65L31.3844 110.933C30.453 112.379 30.0137 114.068 30.2012 115.801C30.4194 117.8 31.4027 119.597 32.9691 120.858L33.3696 121.18C34.5244 122.107 35.8706 122.616 37.2424 122.77C37.5054 124.832 38.5336 126.754 40.2255 128.121C41.738 129.336 43.5744 129.937 45.3937 129.937C46.0621 129.937 46.7217 129.827 47.3687 129.665C47.8487 131.154 48.7416 132.497 50.0113 133.519C51.5087 134.735 53.3276 135.346 55.1508 135.346C55.91 135.346 56.6664 135.221 57.4042 135.009C57.8832 135.939 58.5516 136.775 59.3844 137.446C60.744 138.543 62.402 139.125 64.1276 139.125C64.4057 139.125 64.6869 139.11 64.9664 139.079C66.9912 138.858 68.8076 137.86 70.0753 136.275L71.4184 134.607L75.5357 136.798C77.0614 137.609 78.7043 137.993 80.3266 137.993C83.6337 137.993 86.8378 136.382 88.7784 133.546C89.45 133.726 90.1327 133.821 90.8126 133.821C93.652 133.821 96.4048 132.295 97.8285 129.622C98.175 128.979 98.3931 128.292 98.547 127.593C99.0576 127.689 99.5731 127.753 100.094 127.753C100.929 127.753 101.768 127.629 102.588 127.379C104.764 126.713 106.548 125.238 107.616 123.223C108.352 121.831 108.675 120.294 108.59 118.767C110.918 118.247 112.998 116.778 114.201 114.633C117.417 108.863 112.83 104.712 111.297 103.327L111.207 103.247C112.616 99.7821 115.481 98.2441 117.193 97.6122L117.565 98.2248C118.655 100.053 120.597 101.068 122.593 101.068C123.619 101.068 124.659 100.8 125.604 100.236L133.066 95.7439C135.803 94.0695 136.692 90.4659 135.041 87.6978V87.6986Z" fill="#CEEFE9"></path><path d="M67.489 55.8508C67.6388 55.8834 67.7896 55.8985 67.9425 55.8985C68.0954 55.8985 68.2462 55.8834 68.3959 55.8508C78.1635 53.7829 86.398 47.286 90.9791 38.0433C93.1235 33.8181 94.3667 29.2299 94.6745 24.4061C94.752 23.1984 94.6033 16.6068 94.5146 15.3991C94.2793 12.1757 93.843 9.21288 93.2171 6.59163C93.0674 5.95973 92.6434 5.42775 92.0616 5.13737C85.4045 1.82525 76.8397 0 67.9438 0C59.0479 0 50.4818 1.82525 43.8249 5.13842C43.2429 5.42775 42.8189 5.95973 42.6691 6.59267C41.6501 10.868 41.1343 16.0636 41.1343 22.0327C41.1343 27.636 42.4388 33.1729 44.898 38.0251C49.4883 47.286 57.7218 53.7839 67.4893 55.8508H67.489Z" fill="#CEEFE9"></path><path d="M34.4988 82.5614C33.4639 81.9302 32.116 82.2616 31.4869 83.2975L31.3859 83.4647C30.7578 84.5007 31.0872 85.8486 32.1221 86.4767C32.4779 86.6928 32.8705 86.7948 33.258 86.7948C33.9992 86.7948 34.7211 86.4196 35.1341 85.7395L35.235 85.5723C35.8641 84.5374 35.5337 83.1894 34.4988 82.5614L34.4988 82.5614Z" fill="url(#paint0_linear_325_2904)"></path><path d="M142.152 91.3942L130.489 72.055C129.864 71.017 128.512 70.6866 127.48 71.3096C126.442 71.9357 126.109 73.2836 126.734 74.3205L138.393 93.6495C138.813 94.3541 138.589 95.2728 137.903 95.6908L130.456 100.174C129.757 100.589 128.846 100.369 128.425 99.6623L109.376 68.0733L108.606 66.8059C108.184 66.1105 108.413 65.198 109.102 64.7769L116.549 60.2935C117.253 59.8765 118.158 60.0988 118.576 60.7993L122.231 66.866C122.856 67.9029 124.204 68.2353 125.242 67.6123C126.278 66.9873 126.612 65.6404 125.988 64.6035L122.338 58.5449C120.688 55.7768 117.081 54.8734 114.295 56.5332L106.829 61.0278C104.34 62.547 103.396 65.6304 104.46 68.2466L102.297 69.2897C101.13 69.8525 99.7665 69.9117 98.5562 69.4559L83.1467 63.6541C79.8268 62.4051 76.2439 62.1614 72.7844 62.9537L67.5446 64.1538C66.9716 64.2853 66.4148 64.4566 65.8592 64.6269H61.2759C58.6463 64.6269 55.9982 65.0153 53.4045 65.7821L48.4093 67.2677H45.8857C46.3863 64.9001 45.3993 62.3612 43.2071 61.0225L35.7455 56.531C32.9651 54.8741 29.3616 55.7806 27.7159 58.5376L7.89042 91.403C6.24475 94.1631 7.13387 97.7686 9.88479 99.4478L17.3464 103.939C18.2895 104.502 19.3275 104.769 20.3513 104.769C22.3457 104.769 24.288 103.756 25.376 101.934L25.8695 101.113L32.6234 105.352L38.4466 114.64C37.5147 116.086 37.0752 117.777 37.2628 119.51C37.481 121.51 38.4649 123.308 40.032 124.569L40.4327 124.891C41.588 125.819 42.9349 126.328 44.3073 126.482C44.5704 128.546 45.5992 130.468 47.2919 131.836C48.805 133.051 50.6424 133.653 52.4625 133.653C53.1313 133.653 53.791 133.543 54.4385 133.381C54.9187 134.87 55.8119 136.213 57.0824 137.236C58.5802 138.453 60.4003 139.064 62.2243 139.064C62.9839 139.064 63.7405 138.939 64.4787 138.727C64.9579 139.658 65.6267 140.494 66.4598 141.165C67.8199 142.263 69.4788 142.845 71.2052 142.845C71.4835 142.845 71.7649 142.83 72.0443 142.799C74.0703 142.578 75.8873 141.58 77.1556 139.993L78.4995 138.325L82.6187 140.517C84.1451 141.328 85.7888 141.712 87.4119 141.712C90.7206 141.712 93.9262 140.1 95.8677 137.264C96.5396 137.443 97.2228 137.539 97.9029 137.539C100.744 137.539 103.498 136.012 104.922 133.338C105.269 132.695 105.487 132.007 105.641 131.308C106.152 131.404 106.668 131.468 107.189 131.468C108.024 131.468 108.863 131.344 109.684 131.093C111.861 130.427 113.646 128.952 114.714 126.936C115.451 125.543 115.774 124.005 115.689 122.477C118.018 121.957 120.099 120.488 121.302 118.341C124.52 112.568 119.931 108.415 118.397 107.03L118.306 106.95C119.717 103.483 122.583 101.945 124.296 101.313L124.668 101.925C125.759 103.755 127.701 104.77 129.699 104.77C130.725 104.77 131.765 104.502 132.71 103.938L140.176 99.4434C142.915 97.7682 143.804 94.1629 142.152 91.3935L142.152 91.3942ZM42.7808 121.151C42.1241 120.624 41.7132 119.872 41.6215 119.036C41.5317 118.2 41.7714 117.378 42.2995 116.723L47.0989 110.755C47.6261 110.099 48.3765 109.687 49.2126 109.598C50.0538 109.511 50.8726 109.747 51.5262 110.275L51.9269 110.597C52.5835 111.124 52.9944 111.875 53.0862 112.711C53.1759 113.548 52.9363 114.369 52.4081 115.025L47.6097 120.993C46.5238 122.346 44.5336 122.562 43.1815 121.473L42.7808 121.151ZM50.0435 128.422C49.1931 127.733 48.6904 126.745 48.6201 125.697C49.5235 125.23 50.3494 124.583 51.0274 123.741L55.8269 117.774C56.6599 116.739 57.1605 115.524 57.3654 114.247C58.5676 113.861 59.9023 114.077 60.9075 114.884C61.8068 115.615 62.3432 116.738 62.3432 117.887C62.3432 118.167 62.3075 118.464 62.2432 118.776C62.1209 119.304 61.8721 119.802 61.4999 120.261L55.4178 127.825C55.2363 128.047 55.0885 128.201 54.8621 128.375C53.4836 129.538 51.4555 129.554 50.0434 128.422H50.0435ZM59.8389 133.826C58.9661 133.123 58.4879 132.099 58.4461 131.005C58.5715 130.869 58.6959 130.743 58.8254 130.583L64.9103 123.015C65.4426 122.36 65.8504 121.645 66.1533 120.876C67.3595 120.47 68.7013 120.695 69.729 121.521C70.6416 122.263 71.1636 123.35 71.1636 124.504L71.1646 124.634C71.1391 125.453 70.8445 126.24 70.3224 126.896L65.204 133.245C65.0174 133.48 64.7819 133.705 64.5219 133.901C63.1219 134.958 61.198 134.93 59.8389 133.826ZM73.7352 137.247C73.1938 137.922 72.425 138.345 71.5665 138.438C70.7059 138.529 69.8749 138.285 69.2101 137.75C68.7605 137.387 68.4414 136.922 68.2446 136.406C68.372 136.268 68.5076 136.136 68.6239 135.991L73.7475 129.638C74.5275 128.658 75.0485 127.54 75.3238 126.338C76.2068 126.194 77.1326 126.414 77.8545 126.988C78.6152 127.605 79.0526 128.52 79.0526 129.501C79.0526 130.237 78.8017 130.956 78.347 131.522L73.7352 137.247ZM84.6768 136.644L81.2997 134.846L81.7636 134.27C82.5619 133.275 83.0911 132.088 83.3144 130.836L91.818 135.35C90.0663 137.33 87.1084 137.939 84.6767 136.644L84.6768 136.644ZM117.472 116.199C116.647 117.673 114.973 118.508 113.292 118.271C112.765 118.201 112.303 118.048 111.858 117.794L93.64 107.621C92.5878 107.034 91.248 107.409 90.6565 108.466C90.0651 109.524 90.4434 110.859 91.5018 111.45L109.701 121.613C110.199 121.897 110.719 122.114 111.258 122.286C111.4 123.167 111.263 124.077 110.838 124.885C110.32 125.861 109.454 126.576 108.401 126.898C107.351 127.219 106.238 127.113 105.261 126.59L86.8239 116.829C85.7594 116.266 84.4267 116.67 83.8607 117.741C83.2938 118.812 83.7027 120.138 84.7712 120.705L101.458 129.539C101.473 130.135 101.346 130.729 101.056 131.265C100.134 132.997 97.9785 133.656 96.2411 132.734L82.1245 125.241C81.7054 124.623 81.2007 124.055 80.6012 123.57C79.0269 122.316 77.062 121.775 75.1369 121.952C74.6495 120.469 73.7472 119.135 72.4881 118.111C70.769 116.727 68.6492 116.132 66.5722 116.333C66.2103 114.441 65.2029 112.723 63.6631 111.472C61.683 109.885 59.1391 109.353 56.7604 109.88C56.2791 108.846 55.5929 107.915 54.6793 107.18L54.2786 106.857C52.7094 105.595 50.7446 105.019 48.7431 105.238C46.7416 105.455 44.945 106.438 43.6837 108.007L41.3131 110.955L36.0744 102.598C35.899 102.319 35.6635 102.081 35.3821 101.906L28.1327 97.3563L30.6409 93.188C31.2649 92.15 30.9275 90.8031 29.8905 90.1792C28.8515 89.5542 27.5066 89.8906 26.8817 90.9296L21.6174 99.676C21.2034 100.369 20.297 100.59 19.6016 100.178L12.1582 95.6975C11.4618 95.2723 11.2375 94.3536 11.6515 93.6582L31.478 60.7902C31.891 60.0948 32.7974 59.8746 33.4938 60.2886L40.9371 64.7688C41.6376 65.197 41.866 66.1095 41.4449 66.8049L34.9723 77.5283C34.3473 78.5653 34.6797 79.9132 35.7177 80.5381C36.7526 81.1642 38.1015 80.8318 38.7265 79.7938L43.6431 71.6491H48.731C48.942 71.6491 49.1531 71.6185 49.356 71.5584L54.6519 69.983C55.4982 69.7332 56.3506 69.5456 57.206 69.3917C55.4584 70.9119 53.925 72.6962 52.6554 74.71L47.4594 82.9526C45.7465 85.6688 46.5398 89.309 49.2264 91.0657C53.5077 93.8657 58.973 93.7686 63.1544 90.819L74.2071 83.0188L98.417 95.3174L115.481 110.301C118.721 113.234 118.27 114.766 117.472 116.199L117.472 116.199ZM114.873 103.934L101.098 91.8406C100.962 91.7193 100.809 91.6153 100.646 91.5327L75.0992 78.5539C74.3722 78.144 73.4607 78.1786 72.7571 78.6721L60.6227 87.236C57.9248 89.1397 54.3929 89.2049 51.6255 87.3961C50.9271 86.9403 50.7221 85.9962 51.1657 85.2916L56.3605 77.048C59.1339 72.6485 63.4541 69.5854 68.5226 68.4262L73.7624 67.226C76.3779 66.6255 79.0867 66.81 81.6001 67.7552L97.0086 73.5578C99.3384 74.4346 101.958 74.3174 104.2 73.2376L106.65 72.0559L122.001 97.5158C119.766 98.4773 116.772 100.364 114.872 103.934L114.873 103.934Z" fill="url(#paint1_linear_325_2904)"></path><path d="M74.5682 59.5315C74.7181 59.5641 74.869 59.5794 75.0219 59.5794C75.1749 59.5794 75.3258 59.5641 75.4757 59.5315C85.2479 57.4627 93.4863 50.9627 98.0696 41.7157C100.215 37.4884 101.459 32.898 101.767 28.072C101.844 26.8637 100.925 25.8217 99.7183 25.7442C98.4611 25.6606 97.4669 26.5854 97.3905 27.7936C97.1202 32.0209 96.0344 36.0373 94.1501 39.7498C90.2288 47.6619 83.2738 53.2496 75.0221 55.142C66.7704 53.2496 59.8154 47.6611 55.886 39.7326C53.7275 35.4727 52.5854 30.6192 52.5854 25.6974C52.5854 20.538 52.985 16.0293 53.7763 12.2761C59.7065 9.53953 67.2028 8.04047 75.023 8.04047C82.8425 8.03945 90.3398 9.53932 96.269 12.275C96.7197 14.4173 97.0439 16.8022 97.2325 19.3809C97.3212 20.5891 98.3959 21.4925 99.5797 21.4079C100.787 21.3192 101.695 20.269 101.607 19.0607C101.371 15.8358 100.935 12.8716 100.309 10.2491C100.159 9.61692 99.7347 9.0847 99.1524 8.7941C92.4922 5.48041 83.9233 3.6543 75.0232 3.6543C66.1231 3.6543 57.553 5.48044 50.893 8.79514C50.3108 9.08472 49.8866 9.61695 49.7367 10.2501C48.7171 14.5275 48.2012 19.7255 48.2012 25.6975C48.2012 31.3035 49.5063 36.8429 51.9667 41.6974C56.5591 50.9627 64.7965 57.4637 74.5687 59.5315H74.5682Z" fill="url(#paint2_linear_325_2904)"></path><path d="M88.5564 17.5799L70.9823 35.154L64.4149 28.5867C63.5584 27.7302 62.1707 27.7302 61.3142 28.5867C60.4578 29.4421 60.4578 30.8309 61.3142 31.6874L69.4326 39.8057C69.8435 40.2166 70.4022 40.448 70.9824 40.448C71.5636 40.448 72.1213 40.2166 72.5322 39.8057L91.6563 20.6806C92.5128 19.8241 92.5128 18.4364 91.6563 17.5799C90.7998 16.7234 89.4131 16.7234 88.5567 17.5799H88.5564Z" fill="url(#paint3_linear_325_2904)"></path><defs><linearGradient id="paint0_linear_325_2904" x1="29.1751" y1="80.8613" x2="35.8536" y2="81.19" gradientUnits="userSpaceOnUse"><stop stop-color="#08899A"></stop><stop offset="1" stop-color="#2B3453"></stop></linearGradient><linearGradient id="paint1_linear_325_2904" x1="-50.2617" y1="29.2946" x2="151.325" y2="44.9986" gradientUnits="userSpaceOnUse"><stop stop-color="#08899A"></stop><stop offset="1" stop-color="#2B3453"></stop></linearGradient><linearGradient id="paint2_linear_325_2904" x1="25.607" y1="-13.2927" x2="105.359" y2="-9.47713" gradientUnits="userSpaceOnUse"><stop stop-color="#08899A"></stop><stop offset="1" stop-color="#2B3453"></stop></linearGradient><linearGradient id="paint3_linear_325_2904" x1="47.3327" y1="9.8131" x2="94.3124" y2="12.9696" gradientUnits="userSpaceOnUse"><stop stop-color="#08899A"></stop><stop offset="1" stop-color="#2B3453"></stop></linearGradient></defs></svg>