<svg xmlns="http://www.w3.org/2000/svg" width="64" height="59" viewBox="0 0 64 59" fill="none"><g opacity="0.1"><rect x="1.19922" y="46.3867" width="57.9725" height="9.33785" rx="3.38941" fill="#2B3453"></rect><rect x="1.21973" y="12.7324" width="57.9725" height="5.83616" rx="2.91808" transform="rotate(-11.8852 1.21973 12.7324)" fill="#2B3453"></rect><path d="M30.3799 1.64258C32.9585 1.64258 35.0488 3.73293 35.0488 6.3115L35.0488 48.3318L25.711 48.3318L25.711 6.31151C25.711 3.73293 27.8013 1.64258 30.3799 1.64258Z" fill="#2B3453"></path><circle cx="53.5303" cy="25.96" r="5.64162" fill="#2B3453"></circle><circle cx="6.06252" cy="35.6885" r="5.64162" fill="#2B3453"></circle><circle cx="30.1856" cy="9.61866" r="7.97608" fill="#2B3453"></circle></g><path d="M58.3931 9.74219V27.8343" stroke="url(#paint0_linear_504_1238)" stroke-width="2.11838" stroke-linecap="round"></path><path d="M10.9258 19.4688V37.5608" stroke="url(#paint1_linear_504_1238)" stroke-width="2.11838" stroke-linecap="round"></path><rect x="6.92735" y="50.0983" width="55.8541" height="7.21947" rx="2.33022" stroke="url(#paint2_linear_504_1238)" stroke-width="2.11838"></rect><rect x="7.14281" y="16.2031" width="55.8541" height="3.71778" rx="1.85889" transform="rotate(-11.8852 7.14281 16.2031)" stroke="url(#paint3_linear_504_1238)" stroke-width="2.11838"></rect><path d="M35.0484 5.35411C37.042 5.35411 38.6581 6.97025 38.6581 8.96385L38.6581 49.925L31.4386 49.925L31.4386 8.96385C31.4386 6.97025 33.0548 5.35411 35.0484 5.35411Z" stroke="url(#paint4_linear_504_1238)" stroke-width="2.11838"></path><circle cx="58.1987" cy="28.6123" r="4.58243" fill="white" stroke="url(#paint5_linear_504_1238)" stroke-width="2.11838"></circle><circle cx="10.731" cy="38.3408" r="4.58243" fill="white" stroke="url(#paint6_linear_504_1238)" stroke-width="2.11838"></circle><circle cx="34.8545" cy="12.271" r="6.91689" fill="white" stroke="url(#paint7_linear_504_1238)" stroke-width="2.11838"></circle><defs><linearGradient id="paint0_linear_504_1238" x1="57.9713" y1="4.25974" x2="59.4634" y2="4.26386" gradientUnits="userSpaceOnUse"><stop stop-color="#08899A"></stop><stop offset="1" stop-color="#2B3453"></stop></linearGradient><linearGradient id="paint1_linear_504_1238" x1="10.504" y1="13.9863" x2="11.9961" y2="13.9904" gradientUnits="userSpaceOnUse"><stop stop-color="#08899A"></stop><stop offset="1" stop-color="#2B3453"></stop></linearGradient><linearGradient id="paint2_linear_504_1238" x1="-18.5828" y1="46.2094" x2="60.3328" y2="70.6798" gradientUnits="userSpaceOnUse"><stop stop-color="#08899A"></stop><stop offset="1" stop-color="#2B3453"></stop></linearGradient><linearGradient id="paint3_linear_504_1238" x1="-18.5628" y1="13.6162" x2="50.8539" y2="48.0562" gradientUnits="userSpaceOnUse"><stop stop-color="#08899A"></stop><stop offset="1" stop-color="#2B3453"></stop></linearGradient><linearGradient id="paint4_linear_504_1238" x1="42.5469" y1="-15.3971" x2="26.1702" y2="50.1803" gradientUnits="userSpaceOnUse"><stop stop-color="#08899A"></stop><stop offset="1" stop-color="#2B3453"></stop></linearGradient><linearGradient id="paint5_linear_504_1238" x1="47.7982" y1="19.5515" x2="64.5926" y2="20.3904" gradientUnits="userSpaceOnUse"><stop stop-color="#08899A"></stop><stop offset="1" stop-color="#2B3453"></stop></linearGradient><linearGradient id="paint6_linear_504_1238" x1="0.330438" y1="29.2801" x2="17.1248" y2="30.1189" gradientUnits="userSpaceOnUse"><stop stop-color="#08899A"></stop><stop offset="1" stop-color="#2B3453"></stop></linearGradient><linearGradient id="paint7_linear_504_1238" x1="20.1503" y1="-0.539064" x2="43.894" y2="0.646849" gradientUnits="userSpaceOnUse"><stop stop-color="#08899A"></stop><stop offset="1" stop-color="#2B3453"></stop></linearGradient></defs></svg>