<svg width="90" height="87" viewBox="0 0 90 87" fill="none" xmlns="http://www.w3.org/2000/svg">
<mask id="path-1-inside-1_1203_3120" fill="white">
<path d="M87.019 28.2196C86.016 27.3712 84.7891 26.8256 83.4836 26.6475C82.178 26.4693 80.8483 26.6661 79.6519 27.2145C78.4554 27.7628 77.4422 28.6399 76.7321 29.7418C76.0219 30.8438 75.6446 32.1246 75.6447 33.4327V47.0363C75.1658 46.8744 74.6705 46.7651 74.1676 46.7103C73.146 46.5995 72.1125 46.7187 71.1437 47.0588C70.1749 47.399 69.2958 47.9514 68.5717 48.6751L51.7579 65.358C50.592 66.5087 49.6676 67.8776 49.0381 69.3853C48.4087 70.8931 48.0868 72.5098 48.091 74.1418V84.6749C48.091 85.2697 48.329 85.8401 48.7527 86.2606C49.1764 86.6812 49.751 86.9175 50.3502 86.9175C50.9494 86.9175 51.524 86.6812 51.9477 86.2606C52.3714 85.8401 52.6094 85.2697 52.6094 84.6749V74.1418C52.6066 73.0989 52.8122 72.0658 53.2143 71.1023C53.6165 70.1388 54.2071 69.264 54.9521 68.5286L71.7659 51.8388C72.2072 51.4008 72.8057 51.1547 73.4298 51.1547C74.054 51.1547 74.6525 51.4008 75.0938 51.8388C75.5352 52.2769 75.7831 52.8711 75.7831 53.4906C75.7831 54.1101 75.5352 54.7042 75.0938 55.1423L65.3479 64.8163C64.9232 65.237 64.6842 65.8079 64.6836 66.4035C64.6829 66.9991 64.9207 67.5705 65.3445 67.9921C65.7683 68.4137 66.3434 68.6509 66.9434 68.6515C67.5434 68.6522 68.1191 68.4162 68.5439 67.9955L78.2898 58.3215C78.9738 57.6484 79.5069 56.8395 79.854 55.9476C80.2011 55.0558 80.3544 54.1012 80.3039 53.1464C80.3105 53.0891 80.314 53.0316 80.3144 52.9739L80.1719 33.4396C80.1696 32.8773 80.3702 32.3328 80.7374 31.9046C81.1047 31.4765 81.6143 31.193 82.1739 31.1056C82.5135 31.0513 82.861 31.0707 83.1924 31.1624C83.5238 31.2542 83.8312 31.4161 84.0935 31.6371C84.3558 31.8581 84.5667 32.1329 84.7117 32.4426C84.8568 32.7523 84.9325 33.0895 84.9336 33.431V58.7338C84.937 59.9956 84.6882 61.2456 84.2016 62.4113C83.7151 63.5771 83.0005 64.6355 82.0992 65.5253L68.5682 78.9564C68.1445 79.3768 67.9063 79.9471 67.9061 80.5417V84.6732C67.9061 85.2679 68.1441 85.8383 68.5678 86.2589C68.9915 86.6795 69.5661 86.9157 70.1653 86.9157C70.7645 86.9157 71.3391 86.6795 71.7628 86.2589C72.1865 85.8383 72.4245 85.2679 72.4245 84.6732V81.4732L85.2951 68.6976C86.6172 67.3921 87.6654 65.8393 88.379 64.129C89.0925 62.4187 89.4572 60.5849 89.452 58.7338V33.431C89.4515 32.4392 89.2336 31.4593 88.8135 30.5594C88.3934 29.6596 87.7811 28.8612 87.019 28.2196ZM17.5047 81.4732V84.6749C17.5047 85.2697 17.7427 85.8401 18.1664 86.2606C18.5901 86.6812 19.1647 86.9175 19.7639 86.9175C20.3631 86.9175 20.9377 86.6812 21.3614 86.2606C21.7851 85.8401 22.0231 85.2697 22.0231 84.6749V80.5434C22.0229 79.9488 21.7847 79.3785 21.361 78.9581L7.82657 65.527C6.92502 64.637 6.21029 63.5783 5.72375 62.4123C5.23722 61.2462 4.98854 59.9959 4.99212 58.7338V33.431C4.99205 33.0889 5.06678 32.7509 5.21115 32.4403C5.35553 32.1297 5.5661 31.854 5.82834 31.632C6.09057 31.4101 6.39821 31.2474 6.73001 31.155C7.06181 31.0626 7.40985 31.0428 7.7501 31.097C8.31003 31.184 8.82002 31.4673 9.18762 31.8955C9.55522 32.3237 9.7561 32.8684 9.75385 33.431L9.63046 52.9877C9.63046 52.9877 9.63046 52.9877 9.63046 52.9963C9.55734 53.9742 9.6986 54.9561 10.0445 55.8745C10.3904 56.7929 10.9328 57.626 11.6342 58.3164L21.3819 67.9955C21.8086 68.4003 22.3781 68.6232 22.9683 68.6165C23.5585 68.6098 24.1227 68.3741 24.54 67.9598C24.9574 67.5455 25.1949 66.9855 25.2016 66.3996C25.2083 65.8138 24.9838 65.2486 24.576 64.8249L14.8301 55.144C14.3888 54.7059 14.1409 54.1118 14.1409 53.4923C14.1409 52.8728 14.3888 52.2786 14.8301 51.8406C15.2715 51.4025 15.87 51.1564 16.4941 51.1564C17.1183 51.1564 17.7168 51.4025 18.1581 51.8406L34.9719 68.5303C35.717 69.2654 36.3078 70.1398 36.7102 71.103C37.1127 72.0662 37.3186 73.0991 37.3163 74.1418V84.6749C37.3163 85.2697 37.5543 85.8401 37.978 86.2606C38.4017 86.6812 38.9763 86.9175 39.5755 86.9175C40.1747 86.9175 40.7493 86.6812 41.173 86.2606C41.5967 85.8401 41.8347 85.2697 41.8347 84.6749V74.1418C41.8392 72.5099 41.5175 70.8933 40.8884 69.3855C40.2593 67.8778 39.3352 66.5089 38.1696 65.358L21.3541 48.6751C20.6289 47.9503 19.7483 47.3972 18.7779 47.057C17.8076 46.7169 16.7724 46.5983 15.7495 46.7103C15.2465 46.7651 14.7512 46.8744 14.2723 47.0363V33.431C14.2723 31.6147 13.5454 29.8728 12.2515 28.5884C10.9577 27.3041 9.20279 26.5826 7.37299 26.5826C5.54318 26.5826 3.78831 27.3041 2.49445 28.5884C1.20058 29.8728 0.473688 31.6147 0.473688 33.431V58.7338C0.468479 60.5849 0.8332 62.4187 1.54674 64.129C2.26028 65.8393 3.30847 67.3921 4.63064 68.6976L17.5047 81.4732ZM45.5416 25.5872L45.4686 25.57C41.2577 24.6143 41.2577 22.8927 41.2577 22.3286C41.2577 20.1396 43.1798 19.1425 44.9646 19.1425C45.6956 19.1416 46.4105 19.3556 47.0191 19.7575C47.6278 20.1593 48.1029 20.731 48.3847 21.4006C48.6165 21.9496 49.0586 22.3847 49.6136 22.6102C50.1687 22.8357 50.7912 22.8331 51.3443 22.6029C51.8974 22.3728 52.3357 21.934 52.5629 21.3831C52.79 20.8321 52.7874 20.2142 52.5556 19.6652C52.0794 18.5348 51.3526 17.5256 50.4292 16.7126C49.5058 15.8997 48.4095 15.3039 47.2221 14.9696V13.0238C47.2221 12.429 46.9841 11.8586 46.5604 11.4381C46.1367 11.0175 45.562 10.7812 44.9629 10.7813C44.3637 10.7812 43.789 11.0175 43.3654 11.4381C42.9417 11.8586 42.7036 12.429 42.7036 13.0238V14.9213C39.1845 15.7925 36.7376 18.6836 36.7376 22.32C36.7376 24.5005 37.7334 28.3801 44.3842 29.9102L44.4571 29.9274C48.668 30.8831 48.668 32.6047 48.668 33.1705C48.668 35.3596 46.7459 36.3566 44.9611 36.3566C44.2301 36.3575 43.5152 36.1435 42.9066 35.7417C42.2979 35.3398 41.8228 34.7681 41.541 34.0986C41.3092 33.5496 40.8671 33.1145 40.3121 32.889C39.7571 32.6635 39.1345 32.6661 38.5814 32.8962C38.0284 33.1263 37.59 33.5651 37.3629 34.1161C37.1357 34.667 37.1383 35.2849 37.3702 35.834C37.8448 36.9666 38.5709 37.9782 39.4944 38.7933C40.4179 39.6084 41.515 40.2061 42.7036 40.5416V42.4857C42.7036 43.0805 42.9417 43.6509 43.3654 44.0714C43.789 44.492 44.3637 44.7282 44.9629 44.7282C45.562 44.7282 46.1367 44.492 46.5604 44.0714C46.9841 43.6509 47.2221 43.0805 47.2221 42.4857V40.5882C50.7395 39.7153 53.1829 36.8259 53.1829 33.1912C53.1864 31.0021 52.1906 27.1225 45.5416 25.5872Z"/>
</mask>
<path d="M87.019 28.2196C86.016 27.3712 84.7891 26.8256 83.4836 26.6475C82.178 26.4693 80.8483 26.6661 79.6519 27.2145C78.4554 27.7628 77.4422 28.6399 76.7321 29.7418C76.0219 30.8438 75.6446 32.1246 75.6447 33.4327V47.0363C75.1658 46.8744 74.6705 46.7651 74.1676 46.7103C73.146 46.5995 72.1125 46.7187 71.1437 47.0588C70.1749 47.399 69.2958 47.9514 68.5717 48.6751L51.7579 65.358C50.592 66.5087 49.6676 67.8776 49.0381 69.3853C48.4087 70.8931 48.0868 72.5098 48.091 74.1418V84.6749C48.091 85.2697 48.329 85.8401 48.7527 86.2606C49.1764 86.6812 49.751 86.9175 50.3502 86.9175C50.9494 86.9175 51.524 86.6812 51.9477 86.2606C52.3714 85.8401 52.6094 85.2697 52.6094 84.6749V74.1418C52.6066 73.0989 52.8122 72.0658 53.2143 71.1023C53.6165 70.1388 54.2071 69.264 54.9521 68.5286L71.7659 51.8388C72.2072 51.4008 72.8057 51.1547 73.4298 51.1547C74.054 51.1547 74.6525 51.4008 75.0938 51.8388C75.5352 52.2769 75.7831 52.8711 75.7831 53.4906C75.7831 54.1101 75.5352 54.7042 75.0938 55.1423L65.3479 64.8163C64.9232 65.237 64.6842 65.8079 64.6836 66.4035C64.6829 66.9991 64.9207 67.5705 65.3445 67.9921C65.7683 68.4137 66.3434 68.6509 66.9434 68.6515C67.5434 68.6522 68.1191 68.4162 68.5439 67.9955L78.2898 58.3215C78.9738 57.6484 79.5069 56.8395 79.854 55.9476C80.2011 55.0558 80.3544 54.1012 80.3039 53.1464C80.3105 53.0891 80.314 53.0316 80.3144 52.9739L80.1719 33.4396C80.1696 32.8773 80.3702 32.3328 80.7374 31.9046C81.1047 31.4765 81.6143 31.193 82.1739 31.1056C82.5135 31.0513 82.861 31.0707 83.1924 31.1624C83.5238 31.2542 83.8312 31.4161 84.0935 31.6371C84.3558 31.8581 84.5667 32.1329 84.7117 32.4426C84.8568 32.7523 84.9325 33.0895 84.9336 33.431V58.7338C84.937 59.9956 84.6882 61.2456 84.2016 62.4113C83.7151 63.5771 83.0005 64.6355 82.0992 65.5253L68.5682 78.9564C68.1445 79.3768 67.9063 79.9471 67.9061 80.5417V84.6732C67.9061 85.2679 68.1441 85.8383 68.5678 86.2589C68.9915 86.6795 69.5661 86.9157 70.1653 86.9157C70.7645 86.9157 71.3391 86.6795 71.7628 86.2589C72.1865 85.8383 72.4245 85.2679 72.4245 84.6732V81.4732L85.2951 68.6976C86.6172 67.3921 87.6654 65.8393 88.379 64.129C89.0925 62.4187 89.4572 60.5849 89.452 58.7338V33.431C89.4515 32.4392 89.2336 31.4593 88.8135 30.5594C88.3934 29.6596 87.7811 28.8612 87.019 28.2196ZM17.5047 81.4732V84.6749C17.5047 85.2697 17.7427 85.8401 18.1664 86.2606C18.5901 86.6812 19.1647 86.9175 19.7639 86.9175C20.3631 86.9175 20.9377 86.6812 21.3614 86.2606C21.7851 85.8401 22.0231 85.2697 22.0231 84.6749V80.5434C22.0229 79.9488 21.7847 79.3785 21.361 78.9581L7.82657 65.527C6.92502 64.637 6.21029 63.5783 5.72375 62.4123C5.23722 61.2462 4.98854 59.9959 4.99212 58.7338V33.431C4.99205 33.0889 5.06678 32.7509 5.21115 32.4403C5.35553 32.1297 5.5661 31.854 5.82834 31.632C6.09057 31.4101 6.39821 31.2474 6.73001 31.155C7.06181 31.0626 7.40985 31.0428 7.7501 31.097C8.31003 31.184 8.82002 31.4673 9.18762 31.8955C9.55522 32.3237 9.7561 32.8684 9.75385 33.431L9.63046 52.9877C9.63046 52.9877 9.63046 52.9877 9.63046 52.9963C9.55734 53.9742 9.6986 54.9561 10.0445 55.8745C10.3904 56.7929 10.9328 57.626 11.6342 58.3164L21.3819 67.9955C21.8086 68.4003 22.3781 68.6232 22.9683 68.6165C23.5585 68.6098 24.1227 68.3741 24.54 67.9598C24.9574 67.5455 25.1949 66.9855 25.2016 66.3996C25.2083 65.8138 24.9838 65.2486 24.576 64.8249L14.8301 55.144C14.3888 54.7059 14.1409 54.1118 14.1409 53.4923C14.1409 52.8728 14.3888 52.2786 14.8301 51.8406C15.2715 51.4025 15.87 51.1564 16.4941 51.1564C17.1183 51.1564 17.7168 51.4025 18.1581 51.8406L34.9719 68.5303C35.717 69.2654 36.3078 70.1398 36.7102 71.103C37.1127 72.0662 37.3186 73.0991 37.3163 74.1418V84.6749C37.3163 85.2697 37.5543 85.8401 37.978 86.2606C38.4017 86.6812 38.9763 86.9175 39.5755 86.9175C40.1747 86.9175 40.7493 86.6812 41.173 86.2606C41.5967 85.8401 41.8347 85.2697 41.8347 84.6749V74.1418C41.8392 72.5099 41.5175 70.8933 40.8884 69.3855C40.2593 67.8778 39.3352 66.5089 38.1696 65.358L21.3541 48.6751C20.6289 47.9503 19.7483 47.3972 18.7779 47.057C17.8076 46.7169 16.7724 46.5983 15.7495 46.7103C15.2465 46.7651 14.7512 46.8744 14.2723 47.0363V33.431C14.2723 31.6147 13.5454 29.8728 12.2515 28.5884C10.9577 27.3041 9.20279 26.5826 7.37299 26.5826C5.54318 26.5826 3.78831 27.3041 2.49445 28.5884C1.20058 29.8728 0.473688 31.6147 0.473688 33.431V58.7338C0.468479 60.5849 0.8332 62.4187 1.54674 64.129C2.26028 65.8393 3.30847 67.3921 4.63064 68.6976L17.5047 81.4732ZM45.5416 25.5872L45.4686 25.57C41.2577 24.6143 41.2577 22.8927 41.2577 22.3286C41.2577 20.1396 43.1798 19.1425 44.9646 19.1425C45.6956 19.1416 46.4105 19.3556 47.0191 19.7575C47.6278 20.1593 48.1029 20.731 48.3847 21.4006C48.6165 21.9496 49.0586 22.3847 49.6136 22.6102C50.1687 22.8357 50.7912 22.8331 51.3443 22.6029C51.8974 22.3728 52.3357 21.934 52.5629 21.3831C52.79 20.8321 52.7874 20.2142 52.5556 19.6652C52.0794 18.5348 51.3526 17.5256 50.4292 16.7126C49.5058 15.8997 48.4095 15.3039 47.2221 14.9696V13.0238C47.2221 12.429 46.9841 11.8586 46.5604 11.4381C46.1367 11.0175 45.562 10.7812 44.9629 10.7813C44.3637 10.7812 43.789 11.0175 43.3654 11.4381C42.9417 11.8586 42.7036 12.429 42.7036 13.0238V14.9213C39.1845 15.7925 36.7376 18.6836 36.7376 22.32C36.7376 24.5005 37.7334 28.3801 44.3842 29.9102L44.4571 29.9274C48.668 30.8831 48.668 32.6047 48.668 33.1705C48.668 35.3596 46.7459 36.3566 44.9611 36.3566C44.2301 36.3575 43.5152 36.1435 42.9066 35.7417C42.2979 35.3398 41.8228 34.7681 41.541 34.0986C41.3092 33.5496 40.8671 33.1145 40.3121 32.889C39.7571 32.6635 39.1345 32.6661 38.5814 32.8962C38.0284 33.1263 37.59 33.5651 37.3629 34.1161C37.1357 34.667 37.1383 35.2849 37.3702 35.834C37.8448 36.9666 38.5709 37.9782 39.4944 38.7933C40.4179 39.6084 41.515 40.2061 42.7036 40.5416V42.4857C42.7036 43.0805 42.9417 43.6509 43.3654 44.0714C43.789 44.492 44.3637 44.7282 44.9629 44.7282C45.562 44.7282 46.1367 44.492 46.5604 44.0714C46.9841 43.6509 47.2221 43.0805 47.2221 42.4857V40.5882C50.7395 39.7153 53.1829 36.8259 53.1829 33.1912C53.1864 31.0021 52.1906 27.1225 45.5416 25.5872Z" fill="url(#paint0_linear_1203_3120)" stroke="white" stroke-width="1.83461" mask="url(#path-1-inside-1_1203_3120)"/>
<path d="M44.9628 50.7146H44.9633C51.051 50.708 56.8874 48.2868 61.1922 43.9822C65.497 39.6776 67.9186 33.8411 67.9257 27.7533V27.7528C67.926 23.2109 66.5796 18.771 64.0566 14.9944C61.5336 11.2178 57.9474 8.27423 53.7516 6.53589C49.5557 4.79755 44.9385 4.34254 40.4841 5.22839C36.0296 6.11425 31.9378 8.30118 28.7262 11.5126C25.5146 14.7241 23.3274 18.8158 22.4413 23.2704C21.5551 27.7249 22.0097 32.3422 23.7477 36.5384C25.4856 40.7345 28.4288 44.3211 32.2051 46.8444C35.9814 49.3678 40.4211 50.7146 44.9628 50.7146ZM44.9628 1.15006C59.6311 1.15006 71.5646 13.0839 71.5646 27.7527C71.5646 42.4198 59.6311 54.3537 44.9628 54.3537C30.2945 54.3537 18.361 42.4215 18.361 27.7527C18.361 13.0839 30.2945 1.15006 44.9628 1.15006Z" fill="url(#paint1_linear_1203_3120)" stroke="white" stroke-width="0.917304"/>
<defs>
<linearGradient id="paint0_linear_1203_3120" x1="-37.0547" y1="-12.2903" x2="95.2635" y2="-4.56677" gradientUnits="userSpaceOnUse">
<stop stop-color="#08899A"/>
<stop offset="1" stop-color="#2B3453"/>
</linearGradient>
<linearGradient id="paint1_linear_1203_3120" x1="-4.92417" y1="-15.7089" x2="75.6313" y2="-11.6854" gradientUnits="userSpaceOnUse">
<stop stop-color="#08899A"/>
<stop offset="1" stop-color="#2B3453"/>
</linearGradient>
</defs>
</svg>
