<svg xmlns="http://www.w3.org/2000/svg" width="2050" height="365" viewBox="0 0 2050 365" fill="none"><path d="M615.175 362.53C712.485 362.53 783.563 307.264 783.563 230.032C783.563 152.813 712.485 97.5469 615.175 97.5469C517.383 97.5469 446.306 152.813 446.306 230.032C446.306 307.264 517.383 362.53 615.175 362.53ZM615.175 314.171C555.148 314.171 516.902 277.676 516.902 230.032C516.902 182.006 555.148 145.894 615.175 145.894C674.72 145.894 712.966 182.006 712.966 230.032C712.966 277.676 674.72 314.171 615.175 314.171Z" fill="#2B3453"></path><path d="M1097.17 359.767C1100.45 359.767 1103.09 357.116 1103.09 353.847C1103.09 318.771 1103.09 138.543 1103.09 103.467C1103.09 100.199 1100.45 97.5469 1097.17 97.5469H1038.73C1037.16 97.5469 1035.65 98.1759 1034.54 99.2859C1033.43 100.396 1032.81 101.901 1032.81 103.467C1032.81 132.919 1032.81 262.272 1032.81 262.272C1032.81 262.272 907.609 127.616 883.608 101.802C881.08 99.0885 877.552 97.5469 873.852 97.5469C860.347 97.5469 826.924 97.5469 813.295 97.5469C810.027 97.5469 807.375 100.199 807.375 103.467C807.375 138.543 807.375 318.771 807.375 353.847C807.375 357.116 810.027 359.767 813.295 359.767C826.554 359.767 858.497 359.767 871.756 359.767C875.024 359.767 877.676 357.116 877.676 353.847C877.676 323.717 877.676 188.752 877.676 188.752C877.676 188.752 1006.91 328.971 1031.33 355.475C1033.85 358.213 1037.41 359.767 1041.12 359.767C1053.92 359.767 1084.31 359.767 1097.17 359.767Z" fill="#2B3453"></path><path d="M1378.18 359.767C1381.46 359.767 1384.1 357.116 1384.1 353.847C1384.1 344.4 1384.1 326.036 1384.1 316.588C1384.1 315.022 1383.48 313.517 1382.37 312.407C1381.26 311.285 1379.76 310.668 1378.18 310.668C1348.86 310.668 1220.61 310.668 1220.61 310.668V250.851H1374.71C1376.29 250.851 1377.8 250.222 1378.91 249.112C1380.02 248.002 1380.63 246.497 1380.63 244.931C1380.63 235.484 1380.63 217.107 1380.63 207.672C1380.63 206.093 1380.02 204.588 1378.91 203.478C1377.8 202.368 1376.29 201.752 1374.71 201.752C1345.78 201.752 1220.61 201.752 1220.61 201.752V146.646H1378.18C1379.76 146.646 1381.26 146.029 1382.37 144.919C1383.48 143.809 1384.1 142.305 1384.1 140.726C1384.1 131.279 1384.1 112.914 1384.1 103.467C1384.1 100.199 1381.46 97.5469 1378.18 97.5469C1345.64 97.5469 1188.79 97.5469 1156.24 97.5469C1152.97 97.5469 1150.32 100.199 1150.32 103.467C1150.32 138.543 1150.32 318.771 1150.32 353.847C1150.32 357.116 1152.97 359.767 1156.24 359.767C1188.79 359.767 1345.64 359.767 1378.18 359.767Z" fill="#2B3453"></path><path d="M1715.83 359.767C1718.16 359.767 1720.28 358.398 1721.23 356.277C1722.2 354.143 1721.81 351.664 1720.26 349.913C1692.63 318.833 1609.15 224.926 1609.15 224.926C1609.15 224.926 1686.53 137.26 1712.91 107.389C1714.45 105.638 1714.82 103.159 1713.86 101.037C1712.91 98.9159 1710.8 97.5469 1708.47 97.5469C1688.12 97.5469 1650.18 97.5469 1639.66 97.5469C1637.9 97.5469 1636.23 98.3239 1635.11 99.6806C1623.79 113.247 1562.08 187.186 1562.08 187.186C1562.08 187.186 1499.48 113.136 1488.07 99.6436C1486.95 98.3116 1485.3 97.5469 1483.54 97.5469C1473.16 97.5469 1435.81 97.5469 1415.67 97.5469C1413.36 97.5469 1411.25 98.9036 1410.28 101.025C1409.32 103.146 1409.7 105.638 1411.23 107.377C1437.58 137.31 1515.03 225.321 1515.03 225.321C1515.03 225.321 1431.61 318.882 1403.94 349.913C1402.39 351.652 1402.01 354.143 1402.96 356.265C1403.92 358.398 1406.03 359.767 1408.36 359.767C1428.56 359.767 1465.86 359.767 1476.17 359.767C1477.88 359.767 1479.51 359.027 1480.63 357.732C1492.68 343.845 1562.08 263.838 1562.08 263.838C1562.08 263.838 1631.04 343.796 1643.04 357.72C1644.16 359.015 1645.8 359.767 1647.52 359.767C1657.9 359.767 1695.54 359.767 1715.83 359.767Z" fill="#2B3453"></path><path d="M1876.95 364.493C1976.57 364.493 2049.34 307.92 2049.34 228.863C2049.34 149.794 1976.57 93.2202 1876.95 93.2202C1776.84 93.2202 1704.08 149.794 1704.08 228.863C1704.08 307.92 1776.84 364.493 1876.95 364.493ZM1876.95 314.999C1815.5 314.999 1776.35 277.629 1776.35 228.863C1776.35 179.69 1815.5 142.714 1876.95 142.714C1937.91 142.714 1977.06 179.69 1977.06 228.863C1977.06 277.629 1937.91 314.999 1876.95 314.999Z" fill="#2B3453"></path><path d="M311.267 175.655C311.267 175.655 265.226 263.925 256.617 280.131C249.094 294.29 237.316 299.408 221.566 299.088C206.864 298.779 196.837 292.193 190.276 279.848C177.079 255.045 153.893 210.706 142.435 188.778C141.251 186.496 138.846 185.127 136.28 185.275C133.715 185.423 131.483 187.063 130.57 189.468C118.039 223.336 85.6148 311.224 68.644 357.56C67.3614 361.063 65.7827 362.506 61.8483 362.457C42.8919 362.235 23.9231 362.284 4.95433 362.432C1.09398 362.457 -0.386029 362.198 1.43931 357.671C32.2605 281.352 62.9213 204.959 93.6068 128.578C94.3468 126.728 95.0005 124.841 95.6295 122.954C100.464 108.549 110.195 99.6319 125.402 97.9545C140.992 96.2279 153.239 102.493 160.96 116.146C181.47 152.444 202.868 188.235 221.751 225.433C222.528 226.974 223.404 228.467 224.551 230.563C229.669 220.906 234.306 211.706 239.338 202.727C255.199 174.348 271.097 145.993 287.192 117.75C298.514 97.8805 320.159 91.9112 338.881 103.147C345.332 107.02 349.476 112.742 352.164 119.587C378.792 187.507 405.395 255.427 432.011 323.347C436.451 334.67 440.78 346.016 445.38 357.277C446.848 360.878 447.07 362.531 442.198 362.457C424.228 362.235 406.259 362.198 388.301 362.494C383.972 362.568 382.961 360.212 381.777 357.153" fill="#2B3453"></path><path d="M101.267 36.6448C101.439 15.9617 117.645 0.322952 138.649 0.557286C158.395 0.779288 174.453 17.306 174.367 37.3108C174.268 57.5499 157.532 73.645 136.775 73.46C117.004 73.2997 101.094 56.7976 101.267 36.6448Z" fill="#2B3453"></path><path d="M361.486 37.0246C361.462 57.387 345.354 73.4944 324.992 73.5191C305.172 73.5314 288.571 57.1897 288.423 37.5056C288.275 16.9951 304.58 0.579361 325.115 0.554695C345.527 0.542361 361.499 16.5511 361.486 37.0246Z" fill="#2B3453"></path></svg>