<svg xmlns="http://www.w3.org/2000/svg" width="78" height="52" viewBox="0 0 78 52" fill="none"><path d="M76.2207 0.198511L1.11678 17.26C0.896306 17.31 0.693798 17.4196 0.531347 17.5768C0.368897 17.7341 0.252744 17.9329 0.19556 18.1516C0.138376 18.3703 0.142356 18.6006 0.207068 18.8172C0.27178 19.0338 0.394737 19.2285 0.562526 19.38L12.5436 30.2083L18.1905 47.8673C18.1962 47.8869 18.209 47.9014 18.2161 47.92C18.2373 47.9737 18.2626 48.0256 18.2918 48.0754C18.319 48.1259 18.3461 48.1763 18.3803 48.2216C18.4122 48.2653 18.4502 48.3024 18.4878 48.342C18.5297 48.3859 18.5719 48.4275 18.6186 48.4647C18.6342 48.4771 18.6443 48.4924 18.66 48.5036C18.6758 48.5148 18.6959 48.5142 18.713 48.5244C18.8529 48.6177 19.0107 48.6809 19.1763 48.71C19.269 48.7244 19.3647 48.728 19.4618 48.7219C19.4821 48.7201 19.4998 48.7103 19.5191 48.7071C19.588 48.6978 19.6525 48.6766 19.7194 48.6558C19.7864 48.6349 19.8528 48.6178 19.9137 48.5873C19.93 48.5786 19.9475 48.5788 19.964 48.5688L27.9509 44.1336L35.6141 51.0593C35.7382 51.171 35.8835 51.2565 36.0415 51.3106C36.1994 51.3646 36.3666 51.3862 36.5331 51.3739C36.6996 51.3616 36.8619 51.3157 37.0102 51.239C37.1584 51.1623 37.2897 51.0564 37.3959 50.9277L77.4482 2.18683C77.6118 1.98816 77.709 1.74325 77.7263 1.48649C77.7436 1.22973 77.68 0.974012 77.5445 0.755229C77.4099 0.535533 77.2097 0.363628 76.9722 0.263746C76.7347 0.163865 76.4719 0.141048 76.2207 0.198511ZM16.189 33.5029L19.7851 36.7525L18.9491 42.1327L16.189 33.5029ZM20.9732 45.1855L21.9758 38.733L26.0165 42.3852L20.9732 45.1855ZM36.3096 48.3604L28.9542 41.7124L28.9532 41.711L23.2749 36.5789L66.071 9.46813L64.7501 7.3816L21.3733 34.8606L15.5733 29.6185L44.4341 18.7442L43.5636 16.4353L13.5129 27.7568L3.98111 19.1417L73.2514 3.406L36.3096 48.3604Z" fill="url(#paint0_linear_1194_3151)"></path><defs><linearGradient id="paint0_linear_1194_3151" x1="-23.5067" y1="-32.7989" x2="84.1346" y2="-8.81813" gradientUnits="userSpaceOnUse"><stop stop-color="#08899A"></stop><stop offset="1" stop-color="#2B3453"></stop></linearGradient></defs></svg>